<?xml version="1.0" encoding="UTF-8" standalone="no"?>
<!-- Created with Inkscape (http://www.inkscape.org/) -->

<svg
   width="45.010574mm"
   height="41.668541mm"
   viewBox="0 0 45.010574 41.668541"
   version="1.1"
   id="svg5"
   xml:space="preserve"
   inkscape:version="1.2.2 (b0a8486541, 2022-12-01)"
   sodipodi:docname="mddf.svg"
   xmlns:inkscape="http://www.inkscape.org/namespaces/inkscape"
   xmlns:sodipodi="http://sodipodi.sourceforge.net/DTD/sodipodi-0.dtd"
   xmlns="http://www.w3.org/2000/svg"
   xmlns:svg="http://www.w3.org/2000/svg"><sodipodi:namedview
     id="namedview7"
     pagecolor="#ffffff"
     bordercolor="#000000"
     borderopacity="0.25"
     inkscape:showpageshadow="2"
     inkscape:pageopacity="0.0"
     inkscape:pagecheckerboard="0"
     inkscape:deskcolor="#d1d1d1"
     inkscape:document-units="mm"
     showgrid="false"
     inkscape:zoom="1.9955967"
     inkscape:cx="357.78772"
     inkscape:cy="227.50087"
     inkscape:window-width="1890"
     inkscape:window-height="1048"
     inkscape:window-x="30"
     inkscape:window-y="0"
     inkscape:window-maximized="1"
     inkscape:current-layer="layer1" /><defs
     id="defs2"><clipPath
       id="clip320"><rect
         x="0"
         y="0"
         width="2400"
         height="2400"
         id="rect26771" /></clipPath><clipPath
       id="clip322"><rect
         x="283"
         y="110"
         width="768"
         height="799"
         id="rect26785" /></clipPath><clipPath
       id="clip323"><rect
         x="1523"
         y="110"
         width="768"
         height="799"
         id="rect26932" /></clipPath></defs><g
     inkscape:label="Layer 1"
     inkscape:groupmode="layer"
     id="layer1"
     transform="translate(-64.427812,-14.381965)"><path
       clip-path="url(#clip320)"
       d="m 1523.11,907.943 h 766.65 V 110.236 h -766.65 z"
       fill="#ffffff"
       fill-rule="evenodd"
       fill-opacity="1"
       id="path26930"
       transform="matrix(0.04464095,0,0,0.04364368,6.2374369,9.658149)" /><polyline
       clip-path="url(#clip320)"
       style="fill:none;stroke:#000000;stroke-width:4;stroke-linecap:round;stroke-linejoin:round;stroke-opacity:1"
       points="1523.11,907.943 2289.76,907.943 "
       id="polyline26937"
       transform="matrix(0.04464095,0,0,0.04364368,6.2374369,9.658149)" /><polyline
       clip-path="url(#clip320)"
       style="fill:none;stroke:#000000;stroke-width:4;stroke-linecap:round;stroke-linejoin:round;stroke-opacity:1"
       points="1523.11,110.236 2289.76,110.236 "
       id="polyline26939"
       transform="matrix(0.04464095,0,0,0.04364368,6.2374369,9.658149)" /><polyline
       clip-path="url(#clip320)"
       style="fill:none;stroke:#000000;stroke-width:4;stroke-linecap:round;stroke-linejoin:round;stroke-opacity:1"
       points="1523.11,907.943 1523.11,889.046 "
       id="polyline26941"
       transform="matrix(0.04464095,0,0,0.04364368,6.2374369,9.658149)" /><polyline
       clip-path="url(#clip320)"
       style="fill:none;stroke:#000000;stroke-width:4;stroke-linecap:round;stroke-linejoin:round;stroke-opacity:1"
       points="1676.44,907.943 1676.44,889.046 "
       id="polyline26943"
       transform="matrix(0.04464095,0,0,0.04364368,6.2374369,9.658149)" /><polyline
       clip-path="url(#clip320)"
       style="fill:none;stroke:#000000;stroke-width:4;stroke-linecap:round;stroke-linejoin:round;stroke-opacity:1"
       points="1829.77,907.943 1829.77,889.046 "
       id="polyline26945"
       transform="matrix(0.04464095,0,0,0.04364368,6.2374369,9.658149)" /><polyline
       clip-path="url(#clip320)"
       style="fill:none;stroke:#000000;stroke-width:4;stroke-linecap:round;stroke-linejoin:round;stroke-opacity:1"
       points="1983.1,907.943 1983.1,889.046 "
       id="polyline26947"
       transform="matrix(0.04464095,0,0,0.04364368,6.2374369,9.658149)" /><polyline
       clip-path="url(#clip320)"
       style="fill:none;stroke:#000000;stroke-width:4;stroke-linecap:round;stroke-linejoin:round;stroke-opacity:1"
       points="2136.43,907.943 2136.43,889.046 "
       id="polyline26949"
       transform="matrix(0.04464095,0,0,0.04364368,6.2374369,9.658149)" /><polyline
       clip-path="url(#clip320)"
       style="fill:none;stroke:#000000;stroke-width:4;stroke-linecap:round;stroke-linejoin:round;stroke-opacity:1"
       points="2289.76,907.943 2289.76,889.046 "
       id="polyline26951"
       transform="matrix(0.04464095,0,0,0.04364368,6.2374369,9.658149)" /><polyline
       clip-path="url(#clip320)"
       style="fill:none;stroke:#000000;stroke-width:4;stroke-linecap:round;stroke-linejoin:round;stroke-opacity:1"
       points="1523.11,110.236 1523.11,129.134 "
       id="polyline26953"
       transform="matrix(0.04464095,0,0,0.04364368,6.2374369,9.658149)" /><polyline
       clip-path="url(#clip320)"
       style="fill:none;stroke:#000000;stroke-width:4;stroke-linecap:round;stroke-linejoin:round;stroke-opacity:1"
       points="1676.44,110.236 1676.44,129.134 "
       id="polyline26955"
       transform="matrix(0.04464095,0,0,0.04364368,6.2374369,9.658149)" /><polyline
       clip-path="url(#clip320)"
       style="fill:none;stroke:#000000;stroke-width:4;stroke-linecap:round;stroke-linejoin:round;stroke-opacity:1"
       points="1829.77,110.236 1829.77,129.134 "
       id="polyline26957"
       transform="matrix(0.04464095,0,0,0.04364368,6.2374369,9.658149)" /><polyline
       clip-path="url(#clip320)"
       style="fill:none;stroke:#000000;stroke-width:4;stroke-linecap:round;stroke-linejoin:round;stroke-opacity:1"
       points="1983.1,110.236 1983.1,129.134 "
       id="polyline26959"
       transform="matrix(0.04464095,0,0,0.04364368,6.2374369,9.658149)" /><polyline
       clip-path="url(#clip320)"
       style="fill:none;stroke:#000000;stroke-width:4;stroke-linecap:round;stroke-linejoin:round;stroke-opacity:1"
       points="2136.43,110.236 2136.43,129.134 "
       id="polyline26961"
       transform="matrix(0.04464095,0,0,0.04364368,6.2374369,9.658149)" /><polyline
       clip-path="url(#clip320)"
       style="fill:none;stroke:#000000;stroke-width:4;stroke-linecap:round;stroke-linejoin:round;stroke-opacity:1"
       points="2289.76,110.236 2289.76,129.134 "
       id="polyline26963"
       transform="matrix(0.04464095,0,0,0.04364368,6.2374369,9.658149)" /><path
       clip-path="url(#clip320)"
       d="m 1512.46,954.163 q 0,-7.436 1.88,-11.487 2.62,-6.028 8.79,-6.028 1.31,0 2.67,0.371 1.38,0.345 3.11,1.704 1.76,1.359 2.82,3.582 2.02,4.298 2.02,11.858 0,7.386 -1.87,11.413 -2.75,5.879 -8.8,5.879 -2.27,0 -4.59,-1.161 -2.3,-1.161 -3.76,-3.953 -2.27,-4.174 -2.27,-12.178 m 4.2,-0.618 q 0,7.633 0.54,10.672 0.62,3.285 2.3,4.718 1.7,1.408 3.58,1.408 2.03,0 3.71,-1.507 1.7,-1.531 2.22,-4.817 0.57,-3.236 0.54,-10.474 0,-7.04 -0.49,-9.857 -0.67,-3.285 -2.45,-4.594 -1.75,-1.334 -3.53,-1.334 -0.67,0 -1.38,0.197 -0.69,0.198 -1.71,0.766 -1.01,0.568 -1.8,1.976 -0.77,1.408 -1.14,3.533 -0.39,2.742 -0.39,9.313 z"
       fill="#000000"
       fill-rule="nonzero"
       fill-opacity="1"
       id="path26965"
       transform="matrix(0.04464095,0,0,0.04364368,6.2374369,9.658149)" /><path
       clip-path="url(#clip320)"
       d="m 1666.33,970.343 q 0,-0.914 0.08,-1.185 0.1,-0.272 0.49,-0.692 l 9.71,-10.82 q 5.31,-5.978 5.31,-11.191 0,-3.384 -1.78,-5.805 -1.75,-2.421 -4.99,-2.421 -2.22,0 -4.1,1.359 -1.88,1.358 -2.74,3.779 0.15,-0.049 0.67,-0.049 1.26,0 1.95,0.79 0.72,0.791 0.72,1.853 0,1.359 -0.89,2.026 -0.87,0.642 -1.73,0.642 -0.35,0 -0.82,-0.074 -0.44,-0.074 -1.16,-0.766 -0.72,-0.716 -0.72,-1.976 0,-3.533 2.67,-6.349 2.69,-2.816 6.8,-2.816 4.64,0 7.68,2.767 3.06,2.742 3.06,7.04 0,1.507 -0.47,2.89 -0.44,1.359 -1.06,2.421 -0.59,1.063 -2.22,2.767 -1.63,1.705 -2.94,2.915 -1.31,1.211 -4.25,3.78 l -5.36,5.212 h 9.11 q 4.45,0 4.8,-0.395 0.49,-0.716 1.11,-4.496 h 1.28 l -1.43,8.794 z"
       fill="#000000"
       fill-rule="nonzero"
       fill-opacity="1"
       id="path26967"
       transform="matrix(0.04464095,0,0,0.04364368,6.2374369,9.658149)" /><path
       clip-path="url(#clip320)"
       d="m 1818.55,961.994 v -1.557 l 15.54,-23.74 q 0.4,-0.617 1.02,-0.593 0.56,0 0.69,0.223 0.12,0.222 0.12,1.087 v 23.023 h 5.06 v 1.557 h -5.06 v 4.397 q 0,1.457 0.59,1.927 0.62,0.469 3.24,0.469 h 1.06 v 1.556 q -2.07,-0.148 -6.87,-0.148 -4.76,0 -6.84,0.148 v -1.556 h 1.06 q 2.62,0 3.24,-0.445 0.62,-0.469 0.62,-1.951 v -4.397 h -13.47 m 1.44,-1.557 h 12.32 v -18.873 z"
       fill="#000000"
       fill-rule="nonzero"
       fill-opacity="1"
       id="path26969"
       transform="matrix(0.04464095,0,0,0.04364368,6.2374369,9.658149)" /><path
       clip-path="url(#clip320)"
       d="m 1972.6,954.36 q 0,-7.954 4.05,-12.821 4.05,-4.891 9.27,-4.891 3.04,0 4.72,1.556 1.7,1.532 1.7,3.903 0,1.31 -0.77,1.878 -0.76,0.568 -1.55,0.568 -0.92,0 -1.63,-0.618 -0.72,-0.617 -0.72,-1.729 0,-2.272 2.79,-2.272 -1.31,-2.026 -4.44,-2.026 -0.97,0 -1.96,0.296 -0.98,0.272 -2.27,1.211 -1.28,0.938 -2.27,2.421 -0.99,1.482 -1.68,4.273 -0.69,2.792 -0.69,6.423 v 1.211 q 2.07,-5.015 6.32,-4.99 4.25,0 7.19,3.236 2.94,3.236 2.94,8.028 0,4.916 -3.06,8.177 -3.07,3.261 -7.37,3.261 -1.92,0 -3.68,-0.815 -1.73,-0.791 -3.36,-2.619 -1.6,-1.828 -2.56,-5.336 -0.97,-3.508 -0.97,-8.325 m 4.65,4.546 q 0,4.965 0.91,7.337 0.15,0.395 0.47,0.938 0.35,0.544 0.91,1.26 0.6,0.692 1.56,1.161 0.96,0.445 2.07,0.445 3.39,0 5.02,-3.286 0.86,-1.828 0.86,-6.793 0,-5.064 -0.91,-6.917 -1.56,-3.137 -4.72,-3.137 -2.12,0 -3.6,1.457 -1.46,1.458 -2.03,3.409 -0.54,1.952 -0.54,4.126 z"
       fill="#000000"
       fill-rule="nonzero"
       fill-opacity="1"
       id="path26971"
       transform="matrix(0.04464095,0,0,0.04364368,6.2374369,9.658149)" /><path
       clip-path="url(#clip320)"
       d="m 2125.93,962.71 q 0,-5.657 7.29,-9.313 -3.14,-2.125 -3.7,-2.742 -2.23,-2.471 -2.23,-5.558 0,-3.533 2.67,-5.979 2.69,-2.47 6.5,-2.47 3.63,0 6.37,2.1 2.74,2.1 2.74,5.434 0,4.694 -6.12,7.856 4.05,2.52 5.01,3.582 2.47,2.742 2.47,6.225 0,4.052 -3.11,6.843 -3.11,2.767 -7.41,2.767 -4.2,0 -7.34,-2.446 -3.14,-2.445 -3.14,-6.299 m 2.52,0 q 0,3.137 2.35,5.237 2.37,2.1 5.66,2.1 3.18,0 5.56,-1.828 2.39,-1.828 2.39,-4.546 0,-1.062 -0.37,-1.976 -0.34,-0.914 -1.06,-1.63 -0.69,-0.741 -1.14,-1.063 -0.42,-0.345 -1.23,-0.914 l -6.23,-3.927 q -5.93,3.285 -5.93,8.547 m 1.07,-19.59 q 0,2.421 2.54,4.101 l 6.27,4.051 q 5.02,-2.939 5.02,-7.09 0,-2.692 -2.05,-4.471 -2.05,-1.803 -4.89,-1.803 -2.79,0 -4.84,1.482 -2.05,1.458 -2.05,3.73 z"
       fill="#000000"
       fill-rule="nonzero"
       fill-opacity="1"
       id="path26973"
       transform="matrix(0.04464095,0,0,0.04364368,6.2374369,9.658149)" /><path
       clip-path="url(#clip320)"
       d="m 2267.73,941.465 v -1.581 q 6.08,0 9.21,-3.236 0.87,0 1.02,0.198 0.14,0.197 0.14,1.111 v 28.384 q 0,1.507 0.74,1.977 0.75,0.469 3.98,0.469 h 1.61 v 1.556 q -1.78,-0.148 -8.2,-0.148 -6.43,0 -8.18,0.148 v -1.556 h 1.61 q 3.18,0 3.95,-0.445 0.76,-0.469 0.76,-2.001 v -26.21 q -2.64,1.334 -6.64,1.334 z"
       fill="#000000"
       fill-rule="nonzero"
       fill-opacity="1"
       id="path26975"
       transform="matrix(0.04464095,0,0,0.04364368,6.2374369,9.658149)" /><path
       clip-path="url(#clip320)"
       d="m 2290.5,954.163 q 0,-7.436 1.88,-11.487 2.62,-6.028 8.8,-6.028 1.31,0 2.66,0.371 1.39,0.345 3.12,1.704 1.75,1.359 2.81,3.582 2.03,4.298 2.03,11.858 0,7.386 -1.88,11.413 -2.74,5.879 -8.79,5.879 -2.28,0 -4.6,-1.161 -2.29,-1.161 -3.75,-3.953 -2.28,-4.174 -2.28,-12.178 m 4.2,-0.618 q 0,7.633 0.55,10.672 0.62,3.285 2.3,4.718 1.7,1.408 3.58,1.408 2.02,0 3.7,-1.507 1.71,-1.531 2.23,-4.817 0.56,-3.236 0.54,-10.474 0,-7.04 -0.49,-9.857 -0.67,-3.285 -2.45,-4.594 -1.75,-1.334 -3.53,-1.334 -0.67,0 -1.39,0.197 -0.69,0.198 -1.7,0.766 -1.01,0.568 -1.8,1.976 -0.77,1.408 -1.14,3.533 -0.4,2.742 -0.4,9.313 z"
       fill="#000000"
       fill-rule="nonzero"
       fill-opacity="1"
       id="path26977"
       transform="matrix(0.04464095,0,0,0.04364368,6.2374369,9.658149)" /><path
       clip-path="url(#clip320)"
       d="m 1877.74,1021.75 q 0,1.71 -1.12,2.81 -1.1,1.09 -2.52,1.09 -1.22,0 -1.86,-0.71 -0.65,-0.71 -0.65,-1.61 0,-1.29 1,-2.35 1,-1.06 2.45,-1.29 -1.06,-0.77 -2.77,-0.77 -2.8,0 -5.28,2.16 -1.1,1 -2.29,2.83 -1.19,1.8 -1.42,2.58 l -2.09,8.6 q -0.19,0.96 -1.39,5.6 -1.15,4.61 -1.25,4.8 -0.32,0.9 -1.03,1.38 -0.71,0.49 -1.42,0.49 -0.8,0 -1.35,-0.49 -0.55,-0.48 -0.55,-1.32 0,-0.13 0.1,-0.61 0.09,-0.48 0.26,-1.16 0.16,-0.67 0.22,-1.06 l 3.83,-15.23 q 0.71,-2.77 0.87,-3.64 0.2,-0.91 0.2,-1.9 0,-1.74 -0.55,-2.39 -0.55,-0.64 -1.52,-0.64 -1.67,0 -2.76,2 -1.1,1.99 -2.03,5.86 -0.29,1.06 -0.49,1.29 -0.16,0.22 -0.64,0.22 -0.81,-0.03 -0.81,-0.68 0,-0.16 0.26,-1.19 0.26,-1.06 0.74,-2.61 0.52,-1.57 1.06,-2.57 0.33,-0.68 0.62,-1.13 0.29,-0.45 0.87,-1.16 0.58,-0.71 1.45,-1.09 0.87,-0.39 1.93,-0.39 2.32,0 3.96,1.42 1.67,1.41 2.06,3.64 0.81,-1.16 1.8,-2.16 1,-1.03 2.84,-1.97 1.83,-0.93 3.8,-0.93 2.45,0 3.96,1.26 1.51,1.22 1.51,3.02 z"
       fill="#000000"
       fill-rule="nonzero"
       fill-opacity="1"
       id="path26979"
       transform="matrix(0.04464095,0,0,0.04364368,6.2374369,9.658149)" /><path
       clip-path="url(#clip320)"
       d="m 1880.33,1062.17 q 0,-0.32 0.25,-1.03 l 23.29,-62.221 q 0,-0.064 0.16,-0.418 0.16,-0.355 0.26,-0.58 0.09,-0.258 0.29,-0.451 0.22,-0.193 0.48,-0.193 0.64,0 0.64,0.805 0,0.064 -0.19,0.837 l -23.35,62.291 q -0.38,1.12 -0.64,1.44 -0.23,0.33 -0.61,0.33 -0.58,0 -0.58,-0.81 z"
       fill="#000000"
       fill-rule="nonzero"
       fill-opacity="1"
       id="path26981"
       transform="matrix(0.04464095,0,0,0.04364368,6.2374369,9.658149)" /><path
       clip-path="url(#clip320)"
       d="m 1958.14,1046.62 -8.63,-0.2 q -7.12,0 -9.5,0.2 v -2.03 q 5.48,0 5.48,-2 0,-0.16 -0.2,-0.93 l -3.48,-10.08 h -16.29 l -3.06,8.63 q -0.13,0.25 -0.13,1 0,1.38 1.32,2.38 1.32,1 3.64,1 v 2.03 l -7.6,-0.2 -6.7,0.2 v -2.03 q 2.87,-0.07 4.7,-1.07 1.84,-0.99 2.68,-3.38 l 13.65,-39.42 q 0.26,-0.77 0.55,-1.028 0.29,-0.29 1.03,-0.29 0.51,0 0.8,0.194 0.29,0.161 0.39,0.386 0.13,0.198 0.32,0.738 l 14.24,41.23 q 0.54,1.64 1.61,2.15 1.06,0.49 4.02,0.49 h 1.16 v 2.03 m -17.07,-17.07 -7.44,-21.45 -7.4,21.45 h 14.84 m -1.32,-35.977 q 0,-3.8 -4.15,-3.8 -4.16,0 -4.16,3.8 0,3.833 4.16,3.833 4.15,0 4.15,-3.833 m 2.19,-0.064 q 0,2.447 -1.83,4.186 -1.84,1.707 -4.58,1.707 -2.54,0 -4.41,-1.707 -1.87,-1.706 -1.87,-4.186 0,-2.255 1.81,-3.994 1.83,-1.739 4.6,-1.739 2.64,0 4.45,1.707 1.83,1.707 1.83,4.026 z"
       fill="#000000"
       fill-rule="nonzero"
       fill-opacity="1"
       id="path26983"
       transform="matrix(0.04464095,0,0,0.04364368,6.2374369,9.658149)" /><polyline
       clip-path="url(#clip320)"
       style="fill:none;stroke:#000000;stroke-width:4;stroke-linecap:round;stroke-linejoin:round;stroke-opacity:1"
       points="1523.11,907.943 1523.11,110.236 "
       id="polyline26985"
       transform="matrix(0.04464095,0,0,0.04364368,6.2374369,9.658149)" /><polyline
       clip-path="url(#clip320)"
       style="fill:none;stroke:#000000;stroke-width:4;stroke-linecap:round;stroke-linejoin:round;stroke-opacity:1"
       points="2289.76,907.943 2289.76,110.236 "
       id="polyline26987"
       transform="matrix(0.04464095,0,0,0.04364368,6.2374369,9.658149)" /><polyline
       clip-path="url(#clip320)"
       style="fill:none;stroke:#000000;stroke-width:4;stroke-linecap:round;stroke-linejoin:round;stroke-opacity:1"
       points="1523.11,885.064 1542,885.064 "
       id="polyline26989"
       transform="matrix(0.04464095,0,0,0.04364368,6.2374369,9.658149)" /><polyline
       clip-path="url(#clip320)"
       style="fill:none;stroke:#000000;stroke-width:4;stroke-linecap:round;stroke-linejoin:round;stroke-opacity:1"
       points="1523.11,712.725 1542,712.725 "
       id="polyline26991"
       transform="matrix(0.04464095,0,0,0.04364368,6.2374369,9.658149)" /><polyline
       clip-path="url(#clip320)"
       style="fill:none;stroke:#000000;stroke-width:4;stroke-linecap:round;stroke-linejoin:round;stroke-opacity:1"
       points="1523.11,540.387 1542,540.387 "
       id="polyline26993"
       transform="matrix(0.04464095,0,0,0.04364368,6.2374369,9.658149)" /><polyline
       clip-path="url(#clip320)"
       style="fill:none;stroke:#000000;stroke-width:4;stroke-linecap:round;stroke-linejoin:round;stroke-opacity:1"
       points="1523.11,368.049 1542,368.049 "
       id="polyline26995"
       transform="matrix(0.04464095,0,0,0.04364368,6.2374369,9.658149)" /><polyline
       clip-path="url(#clip320)"
       style="fill:none;stroke:#000000;stroke-width:4;stroke-linecap:round;stroke-linejoin:round;stroke-opacity:1"
       points="1523.11,195.71 1542,195.71 "
       id="polyline26997"
       transform="matrix(0.04464095,0,0,0.04364368,6.2374369,9.658149)" /><polyline
       clip-path="url(#clip320)"
       style="fill:none;stroke:#000000;stroke-width:4;stroke-linecap:round;stroke-linejoin:round;stroke-opacity:1"
       points="2289.76,885.064 2270.87,885.064 "
       id="polyline26999"
       transform="matrix(0.04464095,0,0,0.04364368,6.2374369,9.658149)" /><polyline
       clip-path="url(#clip320)"
       style="fill:none;stroke:#000000;stroke-width:4;stroke-linecap:round;stroke-linejoin:round;stroke-opacity:1"
       points="2289.76,712.725 2270.87,712.725 "
       id="polyline27001"
       transform="matrix(0.04464095,0,0,0.04364368,6.2374369,9.658149)" /><polyline
       clip-path="url(#clip320)"
       style="fill:none;stroke:#000000;stroke-width:4;stroke-linecap:round;stroke-linejoin:round;stroke-opacity:1"
       points="2289.76,540.387 2270.87,540.387 "
       id="polyline27003"
       transform="matrix(0.04464095,0,0,0.04364368,6.2374369,9.658149)" /><polyline
       clip-path="url(#clip320)"
       style="fill:none;stroke:#000000;stroke-width:4;stroke-linecap:round;stroke-linejoin:round;stroke-opacity:1"
       points="2289.76,368.049 2270.87,368.049 "
       id="polyline27005"
       transform="matrix(0.04464095,0,0,0.04364368,6.2374369,9.658149)" /><polyline
       clip-path="url(#clip320)"
       style="fill:none;stroke:#000000;stroke-width:4;stroke-linecap:round;stroke-linejoin:round;stroke-opacity:1"
       points="2289.76,195.71 2270.87,195.71 "
       id="polyline27007"
       transform="matrix(0.04464095,0,0,0.04364368,6.2374369,9.658149)" /><path
       clip-path="url(#clip320)"
       d="m 1401.16,886.163 q 0,-7.436 1.88,-11.487 2.62,-6.028 8.8,-6.028 1.3,0 2.66,0.371 1.39,0.346 3.12,1.704 1.75,1.359 2.81,3.582 2.03,4.299 2.03,11.858 0,7.386 -1.88,11.413 -2.74,5.879 -8.79,5.879 -2.28,0 -4.6,-1.161 -2.3,-1.161 -3.75,-3.952 -2.28,-4.175 -2.28,-12.179 m 4.2,-0.617 q 0,7.633 0.55,10.671 0.61,3.286 2.29,4.719 1.71,1.408 3.59,1.408 2.02,0 3.7,-1.507 1.71,-1.532 2.22,-4.817 0.57,-3.236 0.55,-10.474 0,-7.041 -0.5,-9.857 -0.66,-3.286 -2.44,-4.595 -1.76,-1.334 -3.53,-1.334 -0.67,0 -1.39,0.198 -0.69,0.197 -1.7,0.765 -1.02,0.569 -1.81,1.977 -0.76,1.408 -1.13,3.532 -0.4,2.742 -0.4,9.314 z"
       fill="#000000"
       fill-rule="nonzero"
       fill-opacity="1"
       id="path27009"
       transform="matrix(0.04464095,0,0,0.04364368,6.2374369,9.658149)" /><path
       clip-path="url(#clip320)"
       d="m 1429.55,901.529 q -0.77,-0.816 -0.77,-1.878 0,-1.062 0.77,-1.828 0.76,-0.79 1.92,-0.79 1.12,0 1.86,0.741 0.76,0.716 0.76,1.902 0,1.161 -0.81,1.927 -0.79,0.741 -1.81,0.741 -1.16,0 -1.92,-0.815 z"
       fill="#000000"
       fill-rule="nonzero"
       fill-opacity="1"
       id="path27011"
       transform="matrix(0.04464095,0,0,0.04364368,6.2374369,9.658149)" /><path
       clip-path="url(#clip320)"
       d="m 1440.52,886.163 q 0,-7.436 1.87,-11.487 2.62,-6.028 8.8,-6.028 1.31,0 2.67,0.371 1.38,0.346 3.11,1.704 1.75,1.359 2.81,3.582 2.03,4.299 2.03,11.858 0,7.386 -1.88,11.413 -2.74,5.879 -8.79,5.879 -2.27,0 -4.6,-1.161 -2.29,-1.161 -3.75,-3.952 -2.27,-4.175 -2.27,-12.179 m 4.2,-0.617 q 0,7.633 0.54,10.671 0.62,3.286 2.3,4.719 1.7,1.408 3.58,1.408 2.02,0 3.7,-1.507 1.71,-1.532 2.23,-4.817 0.57,-3.236 0.54,-10.474 0,-7.041 -0.49,-9.857 -0.67,-3.286 -2.45,-4.595 -1.75,-1.334 -3.53,-1.334 -0.67,0 -1.39,0.198 -0.69,0.197 -1.7,0.765 -1.01,0.569 -1.8,1.977 -0.77,1.408 -1.14,3.532 -0.39,2.742 -0.39,9.314 z"
       fill="#000000"
       fill-rule="nonzero"
       fill-opacity="1"
       id="path27013"
       transform="matrix(0.04464095,0,0,0.04364368,6.2374369,9.658149)" /><path
       clip-path="url(#clip320)"
       d="m 1465.81,886.163 q 0,-7.436 1.88,-11.487 2.62,-6.028 8.79,-6.028 1.31,0 2.67,0.371 1.39,0.346 3.11,1.704 1.76,1.359 2.82,3.582 2.03,4.299 2.03,11.858 0,7.386 -1.88,11.413 -2.74,5.879 -8.8,5.879 -2.27,0 -4.59,-1.161 -2.3,-1.161 -3.76,-3.952 -2.27,-4.175 -2.27,-12.179 m 4.2,-0.617 q 0,7.633 0.54,10.671 0.62,3.286 2.3,4.719 1.71,1.408 3.58,1.408 2.03,0 3.71,-1.507 1.7,-1.532 2.22,-4.817 0.57,-3.236 0.55,-10.474 0,-7.041 -0.5,-9.857 -0.66,-3.286 -2.44,-4.595 -1.76,-1.334 -3.54,-1.334 -0.66,0 -1.38,0.198 -0.69,0.197 -1.7,0.765 -1.02,0.569 -1.81,1.977 -0.76,1.408 -1.13,3.532 -0.4,2.742 -0.4,9.314 z"
       fill="#000000"
       fill-rule="nonzero"
       fill-opacity="1"
       id="path27015"
       transform="matrix(0.04464095,0,0,0.04364368,6.2374369,9.658149)" /><path
       clip-path="url(#clip320)"
       d="m 1401.71,713.825 q 0,-7.436 1.87,-11.487 2.62,-6.028 8.8,-6.028 1.31,0 2.67,0.371 1.38,0.345 3.11,1.704 1.75,1.359 2.82,3.582 2.02,4.299 2.02,11.858 0,7.386 -1.88,11.413 -2.74,5.879 -8.79,5.879 -2.27,0 -4.6,-1.161 -2.29,-1.161 -3.75,-3.952 -2.27,-4.175 -2.27,-12.179 m 4.2,-0.618 q 0,7.634 0.54,10.672 0.62,3.286 2.3,4.718 1.7,1.408 3.58,1.408 2.02,0 3.7,-1.506 1.71,-1.532 2.23,-4.818 0.57,-3.236 0.54,-10.474 0,-7.04 -0.49,-9.856 -0.67,-3.286 -2.45,-4.595 -1.75,-1.334 -3.53,-1.334 -0.67,0 -1.38,0.197 -0.7,0.198 -1.71,0.766 -1.01,0.568 -1.8,1.976 -0.77,1.409 -1.14,3.533 -0.39,2.742 -0.39,9.313 z"
       fill="#000000"
       fill-rule="nonzero"
       fill-opacity="1"
       id="path27017"
       transform="matrix(0.04464095,0,0,0.04364368,6.2374369,9.658149)" /><path
       clip-path="url(#clip320)"
       d="m 1430.09,729.19 q -0.77,-0.815 -0.77,-1.877 0,-1.062 0.77,-1.828 0.77,-0.791 1.93,-0.791 1.11,0 1.85,0.741 0.77,0.717 0.77,1.902 0,1.162 -0.82,1.927 -0.79,0.741 -1.8,0.741 -1.16,0 -1.93,-0.815 z"
       fill="#000000"
       fill-rule="nonzero"
       fill-opacity="1"
       id="path27019"
       transform="matrix(0.04464095,0,0,0.04364368,6.2374369,9.658149)" /><path
       clip-path="url(#clip320)"
       d="m 1441.6,730.005 q 0,-0.914 0.08,-1.185 0.1,-0.272 0.49,-0.692 l 9.71,-10.82 q 5.31,-5.978 5.31,-11.191 0,-3.384 -1.78,-5.805 -1.75,-2.421 -4.99,-2.421 -2.22,0 -4.1,1.359 -1.88,1.358 -2.74,3.779 0.15,-0.049 0.67,-0.049 1.26,0 1.95,0.79 0.71,0.791 0.71,1.853 0,1.359 -0.89,2.026 -0.86,0.642 -1.72,0.642 -0.35,0 -0.82,-0.074 -0.44,-0.074 -1.16,-0.766 -0.72,-0.716 -0.72,-1.976 0,-3.533 2.67,-6.349 2.69,-2.816 6.79,-2.816 4.65,0 7.69,2.767 3.06,2.742 3.06,7.04 0,1.507 -0.47,2.891 -0.44,1.358 -1.06,2.421 -0.59,1.062 -2.23,2.766 -1.63,1.705 -2.93,2.915 -1.31,1.211 -4.25,3.78 l -5.36,5.212 h 9.11 q 4.45,0 4.79,-0.395 0.5,-0.716 1.12,-4.496 h 1.28 l -1.43,8.794 z"
       fill="#000000"
       fill-rule="nonzero"
       fill-opacity="1"
       id="path27021"
       transform="matrix(0.04464095,0,0,0.04364368,6.2374369,9.658149)" /><path
       clip-path="url(#clip320)"
       d="m 1466.9,721.853 q 0,-1.507 0.81,-2.075 0.82,-0.593 1.68,-0.593 1.16,0 1.83,0.741 0.69,0.717 0.69,1.73 0,1.013 -0.69,1.754 -0.67,0.716 -1.83,0.716 -0.56,0 -0.86,-0.099 0.67,2.322 2.69,4.002 2.05,1.68 4.74,1.68 3.39,0 5.41,-3.286 1.22,-2.124 1.22,-6.941 0,-4.249 -0.92,-6.374 -1.41,-3.236 -4.3,-3.236 -4.1,0 -6.52,3.533 -0.3,0.444 -0.64,0.469 -0.5,0 -0.62,-0.272 -0.1,-0.296 -0.1,-1.062 v -14.97 q 0,-1.211 0.5,-1.211 0.19,0 0.61,0.149 3.19,1.408 6.72,1.432 3.64,0 6.9,-1.482 0.24,-0.148 0.39,-0.148 0.5,0 0.52,0.568 0,0.198 -0.42,0.791 -0.4,0.568 -1.26,1.334 -0.86,0.741 -1.98,1.457 -1.11,0.717 -2.74,1.211 -1.6,0.469 -3.38,0.469 -2.13,0 -4.3,-0.667 v 9.857 q 2.62,-2.569 6.42,-2.569 4.05,0 6.84,3.26 2.8,3.261 2.8,7.807 0,4.767 -3.31,8.028 -3.29,3.261 -7.74,3.261 -4.05,0 -6.62,-2.89 -2.54,-2.89 -2.54,-6.374 z"
       fill="#000000"
       fill-rule="nonzero"
       fill-opacity="1"
       id="path27023"
       transform="matrix(0.04464095,0,0,0.04364368,6.2374369,9.658149)" /><path
       clip-path="url(#clip320)"
       d="m 1401.16,541.486 q 0,-7.435 1.88,-11.487 2.62,-6.027 8.8,-6.027 1.3,0 2.66,0.37 1.39,0.346 3.12,1.705 1.75,1.358 2.81,3.582 2.03,4.298 2.03,11.857 0,7.387 -1.88,11.413 -2.74,5.88 -8.79,5.88 -2.28,0 -4.6,-1.161 -2.3,-1.161 -3.75,-3.953 -2.28,-4.175 -2.28,-12.179 m 4.2,-0.617 q 0,7.633 0.55,10.672 0.61,3.285 2.29,4.718 1.71,1.408 3.59,1.408 2.02,0 3.7,-1.507 1.71,-1.531 2.22,-4.817 0.57,-3.236 0.55,-10.474 0,-7.041 -0.5,-9.857 -0.66,-3.285 -2.44,-4.595 -1.76,-1.334 -3.53,-1.334 -0.67,0 -1.39,0.198 -0.69,0.198 -1.7,0.766 -1.02,0.568 -1.81,1.976 -0.76,1.408 -1.13,3.533 -0.4,2.742 -0.4,9.313 z"
       fill="#000000"
       fill-rule="nonzero"
       fill-opacity="1"
       id="path27025"
       transform="matrix(0.04464095,0,0,0.04364368,6.2374369,9.658149)" /><path
       clip-path="url(#clip320)"
       d="m 1429.55,556.852 q -0.77,-0.815 -0.77,-1.878 0,-1.062 0.77,-1.828 0.76,-0.79 1.92,-0.79 1.12,0 1.86,0.741 0.76,0.716 0.76,1.902 0,1.161 -0.81,1.927 -0.79,0.741 -1.81,0.741 -1.16,0 -1.92,-0.815 z"
       fill="#000000"
       fill-rule="nonzero"
       fill-opacity="1"
       id="path27027"
       transform="matrix(0.04464095,0,0,0.04364368,6.2374369,9.658149)" /><path
       clip-path="url(#clip320)"
       d="m 1441.06,549.515 q 0,-1.507 0.81,-2.075 0.82,-0.593 1.68,-0.593 1.17,0 1.83,0.741 0.69,0.717 0.69,1.729 0,1.013 -0.69,1.754 -0.66,0.717 -1.83,0.717 -0.56,0 -0.86,-0.099 0.67,2.322 2.69,4.002 2.05,1.68 4.75,1.68 3.38,0 5.41,-3.286 1.21,-2.124 1.21,-6.942 0,-4.248 -0.92,-6.373 -1.41,-3.236 -4.3,-3.236 -4.1,0 -6.52,3.532 -0.29,0.445 -0.64,0.47 -0.49,0 -0.62,-0.272 -0.1,-0.296 -0.1,-1.062 v -14.97 q 0,-1.211 0.5,-1.211 0.19,0 0.61,0.148 3.19,1.408 6.72,1.433 3.64,0 6.9,-1.482 0.24,-0.148 0.39,-0.148 0.5,0 0.52,0.568 0,0.198 -0.42,0.79 -0.4,0.569 -1.26,1.334 -0.86,0.741 -1.98,1.458 -1.11,0.716 -2.74,1.21 -1.6,0.47 -3.38,0.47 -2.13,0 -4.3,-0.667 v 9.856 q 2.62,-2.569 6.42,-2.569 4.05,0 6.84,3.261 2.8,3.261 2.8,7.806 0,4.768 -3.31,8.029 -3.29,3.261 -7.74,3.261 -4.05,0 -6.62,-2.891 -2.54,-2.89 -2.54,-6.373 z"
       fill="#000000"
       fill-rule="nonzero"
       fill-opacity="1"
       id="path27029"
       transform="matrix(0.04464095,0,0,0.04364368,6.2374369,9.658149)" /><path
       clip-path="url(#clip320)"
       d="m 1465.81,541.486 q 0,-7.435 1.88,-11.487 2.62,-6.027 8.79,-6.027 1.31,0 2.67,0.37 1.39,0.346 3.11,1.705 1.76,1.358 2.82,3.582 2.03,4.298 2.03,11.857 0,7.387 -1.88,11.413 -2.74,5.88 -8.8,5.88 -2.27,0 -4.59,-1.161 -2.3,-1.161 -3.76,-3.953 -2.27,-4.175 -2.27,-12.179 m 4.2,-0.617 q 0,7.633 0.54,10.672 0.62,3.285 2.3,4.718 1.71,1.408 3.58,1.408 2.03,0 3.71,-1.507 1.7,-1.531 2.22,-4.817 0.57,-3.236 0.55,-10.474 0,-7.041 -0.5,-9.857 -0.66,-3.285 -2.44,-4.595 -1.76,-1.334 -3.54,-1.334 -0.66,0 -1.38,0.198 -0.69,0.198 -1.7,0.766 -1.02,0.568 -1.81,1.976 -0.76,1.408 -1.13,3.533 -0.4,2.742 -0.4,9.313 z"
       fill="#000000"
       fill-rule="nonzero"
       fill-opacity="1"
       id="path27031"
       transform="matrix(0.04464095,0,0,0.04364368,6.2374369,9.658149)" /><path
       clip-path="url(#clip320)"
       d="m 1401.71,369.148 q 0,-7.436 1.87,-11.487 2.62,-6.028 8.8,-6.028 1.31,0 2.67,0.371 1.38,0.346 3.11,1.704 1.75,1.359 2.82,3.582 2.02,4.299 2.02,11.858 0,7.386 -1.88,11.413 -2.74,5.879 -8.79,5.879 -2.27,0 -4.6,-1.161 -2.29,-1.161 -3.75,-3.952 -2.27,-4.175 -2.27,-12.179 m 4.2,-0.618 q 0,7.634 0.54,10.672 0.62,3.286 2.3,4.719 1.7,1.408 3.58,1.408 2.02,0 3.7,-1.507 1.71,-1.532 2.23,-4.817 0.57,-3.236 0.54,-10.475 0,-7.04 -0.49,-9.856 -0.67,-3.286 -2.45,-4.595 -1.75,-1.334 -3.53,-1.334 -0.67,0 -1.38,0.198 -0.7,0.197 -1.71,0.765 -1.01,0.569 -1.8,1.977 -0.77,1.408 -1.14,3.532 -0.39,2.742 -0.39,9.313 z"
       fill="#000000"
       fill-rule="nonzero"
       fill-opacity="1"
       id="path27033"
       transform="matrix(0.04464095,0,0,0.04364368,6.2374369,9.658149)" /><path
       clip-path="url(#clip320)"
       d="m 1430.09,384.514 q -0.77,-0.816 -0.77,-1.878 0,-1.062 0.77,-1.828 0.77,-0.79 1.93,-0.79 1.11,0 1.85,0.741 0.77,0.716 0.77,1.902 0,1.161 -0.82,1.927 -0.79,0.741 -1.8,0.741 -1.16,0 -1.93,-0.815 z"
       fill="#000000"
       fill-rule="nonzero"
       fill-opacity="1"
       id="path27035"
       transform="matrix(0.04464095,0,0,0.04364368,6.2374369,9.658149)" /><path
       clip-path="url(#clip320)"
       d="m 1441.92,361.539 1.66,-10.4 h 1.26 q 0.15,0.618 0.39,0.89 0.28,0.271 1.71,0.494 1.46,0.222 4.4,0.222 h 12.27 q 0,1.161 -0.44,1.779 l -6.84,9.609 q -2.18,3.039 -3.14,8.646 -0.57,3.755 -0.55,8.301 v 2.569 q 0,2.791 -2.34,2.791 -2.32,0 -2.32,-2.791 0,-9.659 6.22,-19.022 0.67,-0.963 3.11,-4.397 2.47,-3.434 2.57,-3.582 h -10.47 q -4.6,0 -4.97,0.297 -0.49,0.444 -1.26,4.594 z"
       fill="#000000"
       fill-rule="nonzero"
       fill-opacity="1"
       id="path27037"
       transform="matrix(0.04464095,0,0,0.04364368,6.2374369,9.658149)" /><path
       clip-path="url(#clip320)"
       d="m 1466.9,377.177 q 0,-1.507 0.81,-2.075 0.82,-0.593 1.68,-0.593 1.16,0 1.83,0.741 0.69,0.716 0.69,1.729 0,1.013 -0.69,1.754 -0.67,0.716 -1.83,0.716 -0.56,0 -0.86,-0.098 0.67,2.322 2.69,4.002 2.05,1.679 4.74,1.679 3.39,0 5.41,-3.285 1.22,-2.125 1.22,-6.942 0,-4.249 -0.92,-6.373 -1.41,-3.236 -4.3,-3.236 -4.1,0 -6.52,3.532 -0.3,0.445 -0.64,0.469 -0.5,0 -0.62,-0.271 -0.1,-0.297 -0.1,-1.063 v -14.97 q 0,-1.21 0.5,-1.21 0.19,0 0.61,0.148 3.19,1.408 6.72,1.433 3.64,0 6.9,-1.482 0.24,-0.149 0.39,-0.149 0.5,0 0.52,0.569 0,0.197 -0.42,0.79 -0.4,0.568 -1.26,1.334 -0.86,0.741 -1.98,1.458 -1.11,0.716 -2.74,1.21 -1.6,0.469 -3.38,0.469 -2.13,0 -4.3,-0.667 v 9.857 q 2.62,-2.569 6.42,-2.569 4.05,0 6.84,3.261 2.8,3.261 2.8,7.806 0,4.768 -3.31,8.029 -3.29,3.26 -7.74,3.26 -4.05,0 -6.62,-2.89 -2.54,-2.89 -2.54,-6.373 z"
       fill="#000000"
       fill-rule="nonzero"
       fill-opacity="1"
       id="path27039"
       transform="matrix(0.04464095,0,0,0.04364368,6.2374369,9.658149)" /><path
       clip-path="url(#clip320)"
       d="m 1403.68,184.112 v -1.581 q 6.08,0 9.22,-3.236 0.86,0 1.01,0.198 0.15,0.197 0.15,1.111 v 28.384 q 0,1.507 0.74,1.977 0.74,0.469 3.98,0.469 h 1.6 v 1.556 q -1.78,-0.148 -8.2,-0.148 -6.42,0 -8.18,0.148 v -1.556 h 1.61 q 3.19,0 3.95,-0.445 0.77,-0.469 0.77,-2.001 v -26.21 q -2.65,1.334 -6.65,1.334 z"
       fill="#000000"
       fill-rule="nonzero"
       fill-opacity="1"
       id="path27041"
       transform="matrix(0.04464095,0,0,0.04364368,6.2374369,9.658149)" /><path
       clip-path="url(#clip320)"
       d="m 1429.55,212.175 q -0.77,-0.815 -0.77,-1.877 0,-1.062 0.77,-1.828 0.76,-0.791 1.92,-0.791 1.12,0 1.86,0.741 0.76,0.717 0.76,1.902 0,1.162 -0.81,1.927 -0.79,0.741 -1.81,0.741 -1.16,0 -1.92,-0.815 z"
       fill="#000000"
       fill-rule="nonzero"
       fill-opacity="1"
       id="path27043"
       transform="matrix(0.04464095,0,0,0.04364368,6.2374369,9.658149)" /><path
       clip-path="url(#clip320)"
       d="m 1440.52,196.81 q 0,-7.436 1.87,-11.487 2.62,-6.028 8.8,-6.028 1.31,0 2.67,0.371 1.38,0.345 3.11,1.704 1.75,1.359 2.81,3.582 2.03,4.298 2.03,11.858 0,7.386 -1.88,11.413 -2.74,5.879 -8.79,5.879 -2.27,0 -4.6,-1.161 -2.29,-1.161 -3.75,-3.953 -2.27,-4.174 -2.27,-12.178 m 4.2,-0.618 q 0,7.633 0.54,10.672 0.62,3.286 2.3,4.718 1.7,1.408 3.58,1.408 2.02,0 3.7,-1.506 1.71,-1.532 2.23,-4.818 0.57,-3.236 0.54,-10.474 0,-7.04 -0.49,-9.856 -0.67,-3.286 -2.45,-4.595 -1.75,-1.334 -3.53,-1.334 -0.67,0 -1.39,0.197 -0.69,0.198 -1.7,0.766 -1.01,0.568 -1.8,1.976 -0.77,1.408 -1.14,3.533 -0.39,2.742 -0.39,9.313 z"
       fill="#000000"
       fill-rule="nonzero"
       fill-opacity="1"
       id="path27045"
       transform="matrix(0.04464095,0,0,0.04364368,6.2374369,9.658149)" /><path
       clip-path="url(#clip320)"
       d="m 1465.81,196.81 q 0,-7.436 1.88,-11.487 2.62,-6.028 8.79,-6.028 1.31,0 2.67,0.371 1.39,0.345 3.11,1.704 1.76,1.359 2.82,3.582 2.03,4.298 2.03,11.858 0,7.386 -1.88,11.413 -2.74,5.879 -8.8,5.879 -2.27,0 -4.59,-1.161 -2.3,-1.161 -3.76,-3.953 -2.27,-4.174 -2.27,-12.178 m 4.2,-0.618 q 0,7.633 0.54,10.672 0.62,3.286 2.3,4.718 1.71,1.408 3.58,1.408 2.03,0 3.71,-1.506 1.7,-1.532 2.22,-4.818 0.57,-3.236 0.55,-10.474 0,-7.04 -0.5,-9.856 -0.66,-3.286 -2.44,-4.595 -1.76,-1.334 -3.54,-1.334 -0.66,0 -1.38,0.197 -0.69,0.198 -1.7,0.766 -1.02,0.568 -1.81,1.976 -0.76,1.408 -1.13,3.533 -0.4,2.742 -0.4,9.313 z"
       fill="#000000"
       fill-rule="nonzero"
       fill-opacity="1"
       id="path27047"
       transform="matrix(0.04464095,0,0,0.04364368,6.2374369,9.658149)" /><path
       clip-path="url(#clip320)"
       d="m 1326.93,537.731 q 0.03,0 1.19,0.194 l 29.28,7.342 q 1.55,0.387 3.09,1.482 1.58,1.063 2.93,2.77 1.39,1.674 2.22,4.251 0.87,2.544 0.87,5.475 0,4.67 -0.99,6.731 -0.97,2.029 -3.03,2.029 -1.81,0 -2.84,-1.127 -0.99,-1.128 -0.99,-2.416 0,-1.224 0.7,-1.868 0.71,-0.644 1.61,-0.644 1,0 2,0.676 1.03,0.677 1.42,2.029 0.67,-2.157 0.67,-5.281 0,-6.603 -6.98,-9.437 -0.1,-0.064 -0.13,-0.064 l -8.73,-2.19 -0.07,0.097 q 0.65,0.547 1.39,1.417 0.71,0.837 1.58,2.64 0.87,1.804 0.87,3.575 0,3.704 -2.84,6.248 -2.86,2.512 -7.6,2.512 -3.44,0 -6.89,-1.385 -3.48,-1.417 -6.02,-3.607 -2.58,-2.222 -4.19,-5.056 -1.61,-2.866 -1.61,-5.636 0,-1.932 1.16,-3.575 1.13,-1.642 3,-2.544 -1.55,-0.161 -2.19,-1.031 -0.65,-0.901 -0.65,-1.674 0,-0.87 0.48,-1.385 0.46,-0.548 1.29,-0.548 m 4.03,5.411 q -0.19,0 -0.71,0.129 -0.55,0.129 -1.42,0.515 -0.87,0.354 -1.64,0.902 -0.77,0.547 -1.32,1.546 -0.58,0.966 -0.58,2.19 0,1.996 1.67,3.993 1.65,1.997 4.19,3.382 2.45,1.288 7.18,2.512 4.74,1.191 7.15,1.191 2.39,0 4.22,-1.03 1.84,-1.031 1.84,-3.253 0,-2.576 -2.39,-5.346 -2.48,-2.866 -4.6,-3.349 l -12.59,-3.189 q -0.78,-0.193 -1,-0.193 z"
       fill="#000000"
       fill-rule="nonzero"
       fill-opacity="1"
       id="path27049"
       transform="matrix(0.04464095,0,0,0.04364368,6.2374369,9.658149)" /><path
       clip-path="url(#clip320)"
       d="m 1336.5,528.688 q -11.15,0 -20.13,-4.155 -3.77,-1.771 -6.93,-4.251 -3.15,-2.48 -4.54,-4.122 -1.38,-1.643 -1.38,-2.094 0,-0.644 0.64,-0.676 0.33,0 1.13,0.87 10.82,10.628 31.21,10.595 20.45,0 30.85,-10.338 1.13,-1.127 1.48,-1.127 0.65,0 0.65,0.676 0,0.451 -1.32,2.029 -1.32,1.578 -4.35,4.026 -3.03,2.448 -6.73,4.219 -8.99,4.348 -20.58,4.348 z"
       fill="#000000"
       fill-rule="nonzero"
       fill-opacity="1"
       id="path27051"
       transform="matrix(0.04464095,0,0,0.04364368,6.2374369,9.658149)" /><path
       clip-path="url(#clip320)"
       d="m 1328.12,481.517 q 1.71,0 2.81,1.127 1.09,1.095 1.09,2.512 0,1.224 -0.71,1.868 -0.71,0.644 -1.61,0.644 -1.29,0 -2.35,-0.998 -1.06,-0.999 -1.29,-2.448 -0.77,1.063 -0.77,2.77 0,2.802 2.16,5.282 1,1.095 2.83,2.286 1.81,1.192 2.58,1.417 l 8.6,2.094 q 0.96,0.193 5.6,1.384 4.61,1.16 4.8,1.256 0.9,0.323 1.38,1.031 0.49,0.709 0.49,1.417 0,0.805 -0.49,1.353 -0.48,0.547 -1.32,0.547 -0.12,0 -0.61,-0.096 -0.48,-0.097 -1.16,-0.258 -0.67,-0.161 -1.06,-0.225 l -15.23,-3.833 q -2.77,-0.708 -3.64,-0.869 -0.9,-0.194 -1.9,-0.194 -1.74,0 -2.39,0.548 -0.64,0.547 -0.64,1.513 0,1.675 2,2.77 1.99,1.095 5.86,2.029 1.06,0.29 1.29,0.483 0.22,0.161 0.22,0.644 -0.03,0.805 -0.67,0.805 -0.17,0 -1.2,-0.257 -1.06,-0.258 -2.6,-0.741 -1.58,-0.515 -2.58,-1.063 -0.68,-0.322 -1.13,-0.612 -0.45,-0.289 -1.16,-0.869 -0.71,-0.58 -1.09,-1.449 -0.39,-0.87 -0.39,-1.933 0,-2.319 1.42,-3.961 1.41,-1.675 3.64,-2.061 -1.16,-0.805 -2.16,-1.804 -1.03,-0.998 -1.97,-2.834 -0.93,-1.836 -0.93,-3.8 0,-2.448 1.26,-3.962 1.22,-1.513 3.02,-1.513 z"
       fill="#000000"
       fill-rule="nonzero"
       fill-opacity="1"
       id="path27053"
       transform="matrix(0.04464095,0,0,0.04364368,6.2374369,9.658149)" /><path
       clip-path="url(#clip320)"
       d="m 1368.83,475.502 q -0.32,0 -1.12,-0.837 -10.83,-10.628 -31.21,-10.628 -20.45,0 -30.79,10.209 -1.19,1.256 -1.55,1.256 -0.64,0 -0.64,-0.644 0,-0.451 1.32,-2.029 1.32,-1.61 4.35,-4.026 3.02,-2.447 6.73,-4.251 8.98,-4.348 20.58,-4.348 11.14,0 20.13,4.155 3.76,1.771 6.92,4.251 3.16,2.48 4.54,4.122 1.39,1.643 1.39,2.126 0,0.644 -0.65,0.644 z"
       fill="#000000"
       fill-rule="nonzero"
       fill-opacity="1"
       id="path27055"
       transform="matrix(0.04464095,0,0,0.04364368,6.2374369,9.658149)" /><polyline
       clip-path="url(#clip322)"
       style="fill:none;stroke:#808080;stroke-width:4;stroke-linecap:round;stroke-linejoin:round;stroke-opacity:1"
       stroke-dasharray="16, 10"
       points="-483.203,640.926 1816.77,640.926 "
       id="polyline54111"
       transform="matrix(0.04464095,0,0,0.04364368,61.644505,-9.8045215)" /><path
       clip-path="url(#clip320)"
       d="m 1904.1,881.353 h 360.11 V 777.673 H 1904.1 Z"
       fill="#ffffff"
       fill-rule="evenodd"
       fill-opacity="1"
       id="path27059"
       transform="matrix(0.04464095,0,0,0.04364368,6.2374369,9.658149)" /><polyline
       clip-path="url(#clip320)"
       style="fill:#ffffff;fill-opacity:1;stroke:#000000;stroke-width:4;stroke-linecap:round;stroke-linejoin:round;stroke-opacity:1"
       points="1904.1,881.353 2264.21,881.353 2264.21,777.673 1904.1,777.673 1904.1,881.353 "
       id="polyline27061"
       transform="matrix(0.04464095,0,0,0.04364368,6.2374369,9.658149)" /><polyline
       clip-path="url(#clip320)"
       style="fill:none;stroke:#a8a8ff;stroke-width:8;stroke-linecap:round;stroke-linejoin:round;stroke-opacity:1"
       points="1912.61,829.513 1963.73,829.513 "
       id="polyline27063"
       transform="matrix(0.04464095,0,0,0.04364368,6.2374369,9.658149)" /><path
       clip-path="url(#clip320)"
       d="m 1972.24,846.793 v -1.556 h 1.34 q 2.84,0 3.48,-0.445 0.67,-0.469 0.67,-1.951 v -26.655 q 0,-1.458 -0.67,-1.903 -0.67,-0.469 -3.48,-0.469 h -1.34 v -1.581 q 1.78,0.148 7.76,0.148 5.93,0 7.68,-0.148 v 1.581 h -1.31 q -2.84,0 -3.5,0.469 -0.65,0.445 -0.65,1.903 v 26.655 q 0,1.457 0.65,1.926 0.66,0.47 3.5,0.47 h 1.31 v 1.556 q -1.78,-0.148 -7.73,-0.148 -5.93,0 -7.71,0.148 z"
       fill="#000000"
       fill-rule="nonzero"
       fill-opacity="1"
       id="path27065"
       transform="matrix(0.04464095,0,0,0.04364368,6.2374369,9.658149)" /><path
       clip-path="url(#clip320)"
       d="m 1990.5,813.814 v -1.581 l 7.29,-0.543 v 16.032 q 2.94,-3.285 6.94,-3.285 4.35,0 7.53,3.335 3.19,3.334 3.19,8.102 0,4.817 -3.34,8.152 -3.33,3.335 -7.95,3.335 -4.2,0 -6.62,-3.705 -1.78,3.088 -1.83,3.137 h -1.26 V 816.63 q 0,-1.877 -0.66,-2.347 -0.67,-0.469 -3.29,-0.469 m 7.44,27.223 q 0,1.062 0.71,2.125 2,3.063 5.26,3.063 0.03,0 0.05,0 3.54,0 5.73,-3.236 1.56,-2.421 1.56,-7.164 0,-4.694 -1.46,-7.041 -2.02,-3.236 -5.31,-3.236 -3.7,0 -5.98,3.236 -0.56,0.816 -0.56,1.828 z"
       fill="#000000"
       fill-rule="nonzero"
       fill-opacity="1"
       id="path27067"
       transform="matrix(0.04464095,0,0,0.04364368,6.2374369,9.658149)" /><path
       clip-path="url(#clip320)"
       d="m 2018.78,826.561 v -1.581 l 7.44,-0.543 v 16.798 q 0,1.21 0.1,1.927 0.1,0.691 0.49,1.507 0.42,0.815 1.36,1.185 0.97,0.371 2.5,0.371 2.74,0 4.42,-2.248 1.7,-2.248 1.7,-5.583 v -9.017 q 0,-1.877 -0.66,-2.347 -0.67,-0.469 -3.29,-0.469 v -1.581 l 7.44,-0.543 v 17.959 q 0,1.877 0.64,2.371 0.67,0.47 3.31,0.47 v 1.556 l -7.29,0.568 v -4.57 q -2.12,4.546 -6.52,4.57 -2.22,0 -3.75,-0.568 -1.51,-0.568 -2.28,-1.26 -0.76,-0.716 -1.18,-2.075 -0.4,-1.359 -0.45,-2.198 -0.05,-0.84 -0.05,-2.471 v -7.584 q 0,-3.433 -0.49,-4.026 -0.5,-0.618 -3.44,-0.618 z"
       fill="#000000"
       fill-rule="nonzero"
       fill-opacity="1"
       id="path27069"
       transform="matrix(0.04464095,0,0,0.04364368,6.2374369,9.658149)" /><path
       clip-path="url(#clip320)"
       d="m 2062.53,837.381 v -2.989 H 2076 v 2.989 z"
       fill="#000000"
       fill-rule="nonzero"
       fill-opacity="1"
       id="path27071"
       transform="matrix(0.04464095,0,0,0.04364368,6.2374369,9.658149)" /><path
       clip-path="url(#clip320)"
       d="m 2097.51,846.793 v -1.556 h 1.21 q 2.75,0 3.36,-0.445 0.65,-0.469 0.65,-1.951 v -26.655 q 0,-1.458 -0.65,-1.903 -0.64,-0.469 -3.36,-0.469 h -1.21 v -1.581 h 18.51 q 4.81,0 8.03,2.594 3.21,2.569 3.21,5.953 0,2.792 -2.37,5.015 -2.35,2.224 -6.03,2.94 4.2,0.445 6.96,2.989 2.8,2.52 2.8,5.805 0,3.706 -3.19,6.497 -3.19,2.767 -8.08,2.767 h -19.84 m 9.42,-3.582 q 0,1.309 0.37,1.68 0.37,0.346 2.1,0.346 h 6.32 q 3.63,0 5.73,-2.372 2.1,-2.396 2.1,-5.385 0,-2.989 -1.85,-5.534 -1.83,-2.569 -5.26,-2.569 h -9.51 v 13.834 m 0,-14.945 h 7.33 q 3.91,0 5.98,-2.347 2.1,-2.347 2.1,-5.139 0,-2.47 -1.68,-4.718 -1.65,-2.248 -4.99,-2.248 h -6.27 q -1.73,0 -2.1,0.346 -0.37,0.346 -0.37,1.68 z"
       fill="#000000"
       fill-rule="nonzero"
       fill-opacity="1"
       id="path27073"
       transform="matrix(0.04464095,0,0,0.04364368,6.2374369,9.658149)" /><path
       clip-path="url(#clip320)"
       d="m 2133.16,846.793 v -1.556 h 1.21 q 2.74,0 3.36,-0.445 0.64,-0.469 0.64,-1.951 v -26.507 q 0,-1.458 -0.64,-1.902 -0.64,-0.47 -3.36,-0.47 h -1.21 v -1.581 h 28.48 l 1.41,11.389 h -1.26 q -0.34,-2.891 -0.81,-4.546 -0.45,-1.68 -1.56,-2.964 -1.09,-1.285 -2.89,-1.779 -1.78,-0.519 -4.67,-0.519 h -6.52 q -1.73,0 -2.1,0.371 -0.37,0.346 -0.37,1.655 v 12.129 h 4.55 q 3.48,0 4.47,-1.21 0.98,-1.211 0.98,-4.694 h 1.29 v 13.389 h -1.29 q 0,-3.433 -0.98,-4.668 -0.99,-1.236 -4.47,-1.236 h -4.55 v 13.513 q 0,1.309 0.37,1.68 0.4,0.346 2.1,0.346 h 6.74 q 2.18,0 3.76,-0.272 1.6,-0.296 2.72,-0.988 1.11,-0.716 1.85,-1.532 0.77,-0.815 1.28,-2.272 0.55,-1.483 0.84,-2.841 0.32,-1.359 0.67,-3.582 h 1.26 l -2.12,13.043 z"
       fill="#000000"
       fill-rule="nonzero"
       fill-opacity="1"
       id="path27075"
       transform="matrix(0.04464095,0,0,0.04364368,6.2374369,9.658149)" /><path
       clip-path="url(#clip320)"
       d="m 2167.7,823.918 0.96,-11.364 h 30.9 l 0.97,11.364 h -1.26 q -0.2,-2.273 -0.4,-3.582 -0.17,-1.309 -0.62,-2.545 -0.42,-1.26 -0.96,-1.852 -0.52,-0.618 -1.53,-1.087 -1.01,-0.494 -2.32,-0.618 -1.31,-0.123 -3.29,-0.123 -2.32,0 -2.89,0.098 -0.62,0.149 -0.76,0.593 -0.15,0.42 -0.15,1.334 v 26.655 q 0,1.013 0.2,1.433 0.22,0.395 1.38,0.716 1.16,0.297 3.73,0.297 h 2.02 v 1.556 q -2.07,-0.148 -9.6,-0.148 -7.49,0 -9.57,0.148 v -1.556 h 2.03 q 2.57,0 3.73,-0.297 1.19,-0.321 1.38,-0.716 0.2,-0.42 0.2,-1.433 v -26.655 q 0,-0.716 -0.05,-1.013 -0.05,-0.296 -0.27,-0.543 -0.22,-0.272 -0.74,-0.371 -0.49,-0.098 -2.72,-0.098 -1.97,0 -3.31,0.123 -1.31,0.124 -2.32,0.618 -1.01,0.469 -1.56,1.087 -0.52,0.592 -0.96,1.852 -0.42,1.236 -0.59,2.545 -0.18,1.309 -0.37,3.582 z"
       fill="#000000"
       fill-rule="nonzero"
       fill-opacity="1"
       id="path27077"
       transform="matrix(0.04464095,0,0,0.04364368,6.2374369,9.658149)" /><path
       clip-path="url(#clip320)"
       d="m 2202.87,837.381 v -2.989 h 13.47 v 2.989 z"
       fill="#000000"
       fill-rule="nonzero"
       fill-opacity="1"
       id="path27079"
       transform="matrix(0.04464095,0,0,0.04364368,6.2374369,9.658149)" /><path
       clip-path="url(#clip320)"
       d="m 2222.04,829.649 q 0,-7.732 4.94,-13.118 4.97,-5.41 11.86,-5.41 6.94,0 11.88,5.41 4.97,5.411 4.97,13.118 0,7.633 -4.97,12.945 -4.96,5.311 -11.88,5.311 -6.82,0 -11.81,-5.287 -4.99,-5.286 -4.99,-12.969 m 5.22,-0.716 q 0,4.693 1.11,8.3 1.11,3.582 2.89,5.533 1.8,1.952 3.73,2.891 1.93,0.938 3.9,0.938 1.93,0 3.81,-0.914 1.9,-0.914 3.7,-2.84 1.8,-1.927 2.94,-5.534 1.14,-3.607 1.14,-8.374 0,-3.706 -0.79,-6.67 -0.79,-2.989 -2.03,-4.793 -1.23,-1.803 -2.84,-2.989 -1.58,-1.186 -3.09,-1.63 -1.48,-0.47 -2.89,-0.47 -1.78,0 -3.63,0.791 -1.85,0.79 -3.73,2.544 -1.85,1.73 -3.04,5.163 -1.18,3.409 -1.18,8.054 z"
       fill="#000000"
       fill-rule="nonzero"
       fill-opacity="1"
       id="path27081"
       transform="matrix(0.04464095,0,0,0.04364368,6.2374369,9.658149)" /><polyline
       clip-path="url(#clip323)"
       style="fill:none;stroke:#9999ff;stroke-width:8;stroke-linecap:round;stroke-linejoin:round;stroke-opacity:1"
       points="1531.61,885.064 1533.13,885.064 1534.66,885.064 1536.18,885.064 1537.71,885.064 1539.24,885.064 1540.77,885.064 1542.3,885.064 1543.83,885.064 1545.37,885.064 1546.9,885.064 1548.43,885.064 1549.96,885.064 1551.49,885.064 1553.03,885.064 1554.56,885.064 1556.09,885.064 1557.62,885.064 1559.16,885.064 1560.69,885.064 1562.22,885.064 1563.75,885.064 1565.29,885.064 1566.82,885.064 1568.35,885.064 1569.88,885.064 1571.42,885.064 1572.95,885.064 1574.48,885.064 1576.02,885.064 1577.55,885.064 1579.08,885.064 1580.62,885.064 1582.15,885.064 1583.68,885.064 1585.21,885.064 1586.75,885.064 1588.28,885.064 1589.81,885.064 1591.35,885.064 1592.88,885.064 1594.41,885.064 1595.95,885.064 1597.48,885.064 1599.01,885.064 1600.55,885.064 1602.08,885.064 1603.61,885.064 1605.15,885.064 1606.68,885.064 1608.21,885.064 1609.75,885.064 1611.28,885.064 1612.81,885.064 1614.34,885.064 1615.88,885.064 1617.41,885.064 1618.94,885.064 1620.48,885.064 1622.01,885.064 1623.54,885.064 1625.08,885.064 1626.61,885.064 1628.14,885.064 1629.68,885.064 1631.21,885.064 1632.74,885.064 1634.28,885.064 1635.81,885.064 1637.34,885.064 1638.88,885.064 1640.41,885.064 1641.94,885.064 1643.48,885.064 1645.01,885.064 1646.54,885.064 1648.08,885.064 1649.61,885.064 1651.14,885.064 1652.68,885.064 1654.21,885.064 1655.74,885.064 1657.28,885.064 1658.81,885.064 1660.34,885.064 1661.88,885.064 1663.41,885.064 1664.94,885.064 1666.48,885.064 1668.01,885.064 1669.54,885.064 1671.08,885.064 1672.61,885.064 1674.14,885.064 1675.67,885.064 1677.21,885.064 1678.74,885.064 1680.27,885.064 1681.81,885.064 1683.34,885.064 1684.87,885.064 1686.41,885.064 1687.94,885.064 1689.47,885.064 1691.01,885.064 1692.54,885.064 1694.07,885.064 1695.61,885.064 1697.14,885.064 1698.67,885.064 1700.21,885.064 1701.74,885.064 1703.27,885.064 1704.81,885.064 1706.34,885.064 1707.87,885.064 1709.41,885.064 1710.94,885.064 1712.47,885.064 1714.01,885.064 1715.54,885.064 1717.07,885.064 1718.61,885.064 1720.14,885.064 1721.67,885.064 1723.21,885.064 1724.74,885.064 1726.27,885.064 1727.81,885.064 1729.34,885.064 1730.87,885.064 1732.41,885.064 1733.94,885.367 1735.47,885.296 1737.01,884.929 1738.54,884.028 1740.07,884.842 1741.61,882.633 1743.14,881.085 1744.67,880.773 1746.21,880.377 1747.74,880.677 1749.27,880.803 1750.81,880.327 1752.34,878.235 1753.87,875.458 1755.41,874.682 1756.94,871.074 1758.47,869.307 1760.01,864.751 1761.54,858.935 1763.07,855.617 1764.61,848.215 1766.14,840.74 1767.67,833.217 1769.21,824.035 1770.74,810.52 1772.27,800.329 1773.81,784.565 1775.34,769.693 1776.87,754.209 1778.41,739.277 1779.94,723.007 1781.47,719.747 1783.01,712.089 1784.54,699.512 1786.07,683.359 1787.61,669.15 1789.14,652.356 1790.67,634.944 1792.21,611.54 1793.74,584.35 1795.27,560.908 1796.81,554.721 1798.34,531.088 1799.87,507.876 1801.4,493.173 1802.94,474.301 1804.47,463.757 1806,454.292 1807.54,440.637 1809.07,436.869 1810.6,430.307 1812.14,426.628 1813.67,420.872 1815.2,407.729 1816.74,407.204 1818.27,388.988 1819.8,387.109 1821.34,385.313 1822.87,374.414 1824.4,378.95 1825.94,378.577 1827.47,399.41 1829,414.518 1830.54,424.363 1832.07,437.347 1833.6,434.821 1835.14,453.287 1836.67,453.782 1838.2,451.537 1839.74,448.143 1841.27,451.769 1842.8,463.274 1844.34,449.462 1845.87,453.077 1847.4,454.628 1848.94,457.518 1850.47,466.29 1852,460.397 1853.54,467.351 1855.07,469.156 1856.6,474.35 1858.14,474.952 1859.67,469.942 1861.2,481.574 1862.74,483.882 1864.27,478.613 1865.8,473.837 1867.34,465.724 1868.87,466.615 1870.4,475.368 1871.94,472.175 1873.47,466.075 1875,462.433 1876.54,464.107 1878.07,453.786 1879.6,448.359 1881.14,444.127 1882.67,437.431 1884.2,430.908 1885.74,430.644 1887.27,417.781 1888.8,403.943 1890.34,387.263 1891.87,382.096 1893.4,371.047 1894.94,369.471 1896.47,361.583 1898,354.509 1899.54,348.462 1901.07,343.882 1902.6,342.479 1904.14,334.593 1905.67,321.428 1907.2,311.467 1908.74,306.266 1910.27,309.791 1911.8,303.815 1913.34,291.44 1914.87,283.677 1916.4,271.727 1917.94,261.22 1919.47,243.626 1921,235.178 1922.54,220.199 1924.07,224.37 1925.6,217.597 1927.14,207.06 1928.67,201.269 1930.2,195.677 1931.74,182.368 1933.27,164.22 1934.8,151.67 1936.34,156.732 1937.87,153.546 1939.4,153.772 1940.94,145.574 1942.47,146.721 1944,153.954 1945.54,155.872 1947.07,159.256 1948.6,162.46 1950.14,174.844 1951.67,182.198 1953.2,198.641 1954.74,203.307 1956.27,210.642 1957.8,220.082 1959.34,222.287 1960.87,232.363 1962.4,236.504 1963.94,238.598 1965.47,246.541 1967,239.918 1968.54,251.809 1970.07,261.56 1971.6,273.837 1973.14,292.838 1974.67,302.744 1976.2,323.387 1977.74,325.159 1979.27,330.681 1980.8,341.273 1982.34,337.783 1983.87,339.046 1985.4,345.385 1986.94,352.034 1988.47,364.374 1990,366.19 1991.54,378.147 1993.07,379.911 1994.6,386.4 1996.14,388.345 1997.67,387.783 1999.2,388.172 2000.74,389.795 2002.27,391.756 2003.8,394.961 2005.34,397.357 2006.87,410.268 2008.4,415.052 2009.93,414.472 2011.47,419.564 2013,421.136 2014.53,420.867 2016.07,413.113 2017.6,408.6 2019.13,407.488 2020.67,404.266 2022.2,403.096 2023.73,394.115 2025.27,385.817 2026.8,388.884 2028.33,379.05 2029.87,372.011 2031.4,366.591 2032.93,374.874 2034.47,375.26 2036,373.711 2037.53,374.952 2039.07,368.385 2040.6,364.403 2042.13,360.301 2043.67,351.007 2045.2,345.529 2046.73,344.094 2048.27,349.569 2049.8,350.016 2051.33,345.651 2052.87,345.219 2054.4,334.047 2055.93,333.128 2057.47,330.006 2059,326.556 2060.53,323.135 2062.07,318.999 2063.6,313.661 2065.13,309.125 2066.67,296.52 2068.2,292.935 2069.73,291.77 2071.27,295.654 2072.8,297.612 2074.33,296.64 2075.87,293.375 2077.4,293.517 2078.93,284.892 2080.47,281.365 2082,272.663 2083.53,276.017 2085.07,281.772 2086.6,282.069 2088.13,284.755 2089.67,280.45 2091.2,279.645 2092.73,279.649 2094.27,276.569 2095.8,273.214 2097.33,266.602 2098.87,267.864 2100.4,263.133 2101.93,261.132 2103.47,254.763 2105,248.181 2106.53,242.988 2108.07,239.193 2109.6,235.686 2111.13,232.46 2112.67,238.992 2114.2,235.409 2115.73,232.236 2117.27,234.029 2118.8,229.177 2120.33,232.079 2121.87,225.19 2123.4,221.924 2124.93,216.399 2126.47,222.018 2128,226.273 2129.53,217.594 2131.07,222.835 2132.6,222.773 2134.13,225.509 2135.67,229.283 2137.2,226.216 2138.73,226.115 2140.27,217.574 2141.8,220.855 2143.33,213.095 2144.87,209.689 2146.4,210.093 2147.93,205.597 2149.47,202.985 2151,199.313 2152.53,194.013 2154.07,198.452 2155.6,193.409 2157.13,199.95 2158.67,198.04 2160.2,203.026 2161.73,204.921 2163.27,201.025 2164.8,193.349 2166.33,189.497 2167.87,185.511 2169.4,189.547 2170.93,184.871 2172.47,191.391 2174,190.741 2175.53,190.099 2177.07,187.556 2178.6,184.984 2180.13,180.974 2181.67,173.661 2183.2,169.763 2184.73,169.384 2186.27,168.636 2187.8,174.134 2189.33,170.781 2190.87,169.807 2192.4,172.543 2193.93,177.925 2195.47,176.961 2197,170.857 2198.53,166.046 2200.07,160.028 2201.6,156.699 2203.13,156.616 2204.67,151.057 2206.2,149.793 2207.73,155.109 2209.27,159.437 2210.8,163.299 2212.33,163.52 2213.87,163.601 2215.4,161.397 2216.93,166.173 2218.47,165.97 2220,161.107 2221.53,159.863 2223.07,158.459 2224.6,158.098 2226.13,154.209 2227.67,148.236 2229.2,148.126 2230.73,139.757 2232.27,136.561 2233.8,133.42 2235.33,132.813 2236.87,135.322 2238.4,135.026 2239.93,138.201 2241.47,139.238 2243,139.711 2244.53,143.356 2246.07,144.838 2247.6,147.871 2249.13,147.057 2250.67,144.327 2252.2,143.697 2253.73,144.021 2255.26,141.668 2256.8,141.973 2258.33,141.679 2259.86,143.262 2261.4,148.468 2262.93,145.002 2264.46,142.919 2266,140.761 2267.53,140.264 2269.06,144.326 2270.6,146.477 2272.13,144.655 2273.66,144.86 2275.2,142.251 2276.73,142.01 2278.26,140.392 2279.8,142.881 2281.33,142.87 2282.86,142.344 2284.4,149.578 2285.93,152.51 2287.46,147.106 2289,147.82 2290.53,145.049 2292.06,143.818 2293.6,147.252 2295.13,143.485 2296.66,147.747 2298.2,147.444 2299.73,153.173 2301.26,157.184 2302.8,158.751 2304.33,158.879 2305.86,153.995 2307.4,148.249 2308.93,148.103 2310.46,143.395 2312,149.575 2313.53,150.907 2315.06,161.749 2316.6,173.767 2318.13,181.473 2319.66,181.713 2321.2,182.396 2322.73,177.985 2324.26,170.774 2325.8,166.257 2327.33,169.64 2328.86,169.873 2330.4,173.983 2331.93,180.179 2333.46,184.095 2335,184.487 2336.53,184.299 2338.06,182.948 2339.6,177.21 2341.13,178.634 2342.66,183.686 2344.2,180.966 2345.73,182.6 2347.26,183.568 2348.8,184.292 2350.33,182.054 2351.86,182.244 2353.4,186.849 2354.93,188.83 2356.46,193.707 2358,196.311 2359.53,197.204 2361.06,196.96 2362.6,195.383 2364.13,195.003 2365.66,191.492 2367.2,190.357 2368.73,189.752 2370.26,187.816 2371.8,186.306 2373.33,184.577 2374.86,184.379 2376.4,185.014 2377.93,189.231 2379.46,192.223 2381,195.65 2382.53,197.017 2384.06,196.567 2385.6,196.138 2387.13,197.902 2388.66,196.131 2390.2,196.668 2391.73,196.506 2393.26,200.144 2394.8,199.989 2396.33,196.748 2397.86,194.178 2399.4,189.961 2400.93,191.724 2402.46,190.233 2404,186.143 2405.53,188.613 2407.06,190.704 2408.6,192.521 2410.13,190.139 2411.66,184.984 2413.2,184.272 2414.73,182.478 2416.26,181.284 2417.8,179.318 2419.33,181.04 2420.86,187.181 2422.4,193.534 2423.93,189.623 2425.46,189.269 2427,186.284 2428.53,184.804 2430.06,184.75 2431.6,182.908 2433.13,184.039 2434.66,184.533 2436.2,185.111 2437.73,188.483 2439.26,188.2 2440.8,188.294 2442.33,185.502 2443.86,183.249 2445.4,183.093 2446.93,179.146 2448.46,177.787 2450,174.133 2451.53,175.443 2453.06,180.235 2454.6,184.645 2456.13,184.966 2457.66,185.081 2459.2,183.521 2460.73,185.084 2462.26,183.135 2463.8,184.95 2465.33,183.63 2466.86,183.07 2468.4,178.795 2469.93,175.6 2471.46,172.82 2473,170.377 2474.53,167.917 2476.06,169.863 2477.6,167.042 2479.13,169.699 2480.66,170.475 2482.2,165.972 2483.73,159.07 2485.26,156.824 2486.8,158.953 2488.33,161.832 2489.86,164.937 2491.4,163.908 2492.93,166.921 2494.46,169.084 2496,169.587 2497.53,166.455 2499.06,164.751 2500.6,164.095 2502.13,163.709 2503.66,162.472 2505.2,158.932 2506.73,154.906 2508.26,155.873 2509.8,148.118 2511.33,148.539 2512.86,151.089 2514.4,154.153 2515.93,158.881 2517.46,159.283 2519,158.581 2520.53,157.038 2522.06,157.157 2523.59,154.945 2525.13,151.442 2526.66,152.195 2528.19,150.661 2529.73,150.739 2531.26,151.35 2532.79,146.523 2534.33,144.24 2535.86,144.939 2537.39,148.878 2538.93,150.747 2540.46,154.456 2541.99,154.329 2543.53,155.57 2545.06,158.465 2546.59,156.513 2548.13,154.856 2549.66,151.565 2551.19,150.489 2552.73,149.329 2554.26,145.833 2555.79,144.321 2557.33,140.678 2558.86,139.757 2560.39,144.816 2561.93,147.881 2563.46,151.617 2564.99,149.465 2566.53,150.387 2568.06,149.908 2569.59,149.108 2571.13,149.012 2572.66,145.733 2574.19,144.37 2575.73,146.533 2577.26,146.379 2578.79,148.278 2580.33,147.314 2581.86,145.845 2583.39,147.011 2584.93,148.94 2586.46,150.913 2587.99,150.351 2589.53,149.306 2591.06,147.874 2592.59,147.963 2594.13,149.622 2595.66,151.897 2597.19,147.451 2598.73,152.805 2600.26,152.995 2601.79,154.539 2603.33,150.34 2604.86,148.413 2606.39,147.548 2607.93,148.886 2609.46,150.121 2610.99,149.767 2612.53,147.471 2614.06,151.798 2615.59,153.221 2617.13,154.603 2618.66,152.867 2620.19,153.417 2621.73,156.859 2623.26,157.226 2624.79,156.447 2626.33,152.269 2627.86,148.612 2629.39,147.26 2630.93,147.905 2632.46,149.193 2633.99,151.216 2635.53,155.065 2637.06,162.396 2638.59,163.124 2640.13,164.665 2641.66,165.619 2643.19,159.767 2644.73,158.277 2646.26,155.267 2647.79,154.952 2649.33,154.63 2650.86,155.259 2652.39,157.577 2653.93,161.661 2655.46,164.276 2656.99,167.198 2658.53,163.368 2660.06,162.857 2661.59,161.733 2663.13,160.133 2664.66,161.344 2666.19,162.485 2667.73,165.276 2669.26,169.663 2670.79,170.247 2672.33,171.248 2673.86,168.447 2675.39,167.703 2676.93,168.371 2678.46,166.276 2679.99,166.652 2681.53,168.887 2683.06,169.146 2684.59,169.713 2686.13,167.994 2687.66,167.954 2689.19,167.38 2690.73,170.065 2692.26,168.55 2693.79,166.886 2695.33,165.411 2696.86,167.8 2698.39,168.649 2699.93,170.672 2701.46,173.821 2702.99,176.505 2704.53,179.756 2706.06,182.729 2707.59,182.587 2709.13,182.635 2710.66,181.456 2712.19,180.128 2713.73,174.129 2715.26,172.521 2716.79,172.066 2718.33,168.325 2719.86,168.05 2721.39,172.093 2722.93,174.706 2724.46,175.83 2725.99,176.651 2727.53,175.395 2729.06,173.176 2730.59,172.623 2732.13,171.697 2733.66,168.034 2735.19,169.367 2736.73,172.107 2738.26,169.985 2739.79,169.646 2741.33,169.495 2742.86,169.75 2744.39,169.064 2745.93,168.231 2747.46,170.798 2748.99,174.395 2750.53,176.607 2752.06,177.498 2753.59,177.551 2755.13,177.791 2756.66,178.291 2758.19,177.889 2759.73,176.609 2761.26,175.153 2762.79,176.624 2764.33,178.113 2765.86,176.876 2767.39,179.303 2768.93,182.005 2770.46,182.983 2771.99,184.323 2773.53,185.643 2775.06,183.698 2776.59,178.288 2778.13,176.96 2779.66,173.404 2781.19,172.168 2782.73,171.616 2784.26,174.451 2785.79,175.079 2787.33,175.496 2788.86,175.999 2790.39,176.793 2791.92,177.82 2793.46,178.748 2794.99,176.601 2796.52,176.759 2798.06,175.685 2799.59,179.055 2801.12,180.533 2802.66,182.729 2804.19,183.29 2805.72,186.059 2807.26,182.543 2808.79,179.122 2810.32,177.204 2811.86,174.138 2813.39,172.253 2814.92,174.18 2816.46,176.09 2817.99,176.787 2819.52,177.73 2821.06,177.735 2822.59,175.753 2824.12,174.876 2825.66,173.788 2827.19,172.386 2828.72,171.176 2830.26,171.934 2831.79,169.709 2833.32,166.813 2834.86,167.545 2836.39,168.741 2837.92,171.026 2839.46,169.943 2840.99,169.348 2842.52,169.827 2844.06,167.956 2845.59,168.759 2847.12,168.864 2848.66,168.565 2850.19,171.504 2851.72,175.092 2853.26,176.124 2854.79,177.727 2856.32,177.741 2857.86,175.941 2859.39,175.745 2860.92,176.032 2862.46,173.528 2863.99,172.949 2865.52,172.483 2867.06,172.061 2868.59,172.567 2870.12,175.071 2871.66,176.726 2873.19,177.374 2874.72,176.953 2876.26,177.499 2877.79,174.318 2879.32,172.001 2880.86,168.943 2882.39,168.009 2883.92,169.208 2885.46,170.096 2886.99,172.726 2888.52,175.763 2890.06,175.418 2891.59,179.957 2893.12,182.324 2894.66,183.77 2896.19,185.75 2897.72,185.266 2899.26,183.619 2900.79,180.4 2902.32,178.639 2903.86,178.44 2905.39,178.023 2906.92,182.214 2908.46,186.622 2909.99,188.501 2911.52,188.078 2913.06,185.096 2914.59,185.524 2916.12,183.314 2917.66,182.924 2919.19,181.595 2920.72,183.615 2922.26,182.734 2923.79,181.927 2925.32,178.457 2926.86,174.635 2928.39,170.378 2929.92,173.658 2931.46,175.589 2932.99,181.97 2934.52,186.381 2936.06,189.507 2937.59,185.956 2939.12,186.955 2940.66,186.118 2942.19,184.343 2943.72,181.781 2945.26,184.106 2946.79,188.843 2948.32,193.836 2949.86,193.811 2951.39,192.948 2952.92,189.654 2954.46,188.905 2955.99,186.152 2957.52,185.462 2959.06,184.387 2960.59,184.211 2962.12,187.25 2963.66,187.239 2965.19,191.528 2966.72,194.519 2968.26,194.481 2969.79,193.762 2971.32,193.6 2972.86,194.772 2974.39,194.093 2975.92,191.288 2977.46,190.97 2978.99,190.474 2980.52,192.549 2982.06,191.509 2983.59,190.907 2985.12,192.392 2986.66,194.632 2988.19,195.812 2989.72,196.207 2991.26,193.966 2992.79,193.146 2994.32,192.675 2995.86,190.712 2997.39,193.133 2998.92,193.164 3000.46,195.511 3001.99,197.93 3003.52,198.634 3005.06,198.375 3006.59,198.21 3008.12,199.816 3009.66,199.185 3011.19,199.078 3012.72,200.658 3014.26,199.611 3015.79,199.695 3017.32,200.125 3018.86,201.314 3020.39,201.256 3021.92,200.027 3023.46,199.721 3024.99,198.039 3026.52,197.093 3028.06,195.392 3029.59,193.42 3031.12,192.116 3032.66,191.641 3034.19,193.585 3035.72,194.878 3037.26,196.369 3038.79,200.79 3040.32,205.505 3041.86,204.66 3043.39,202.893 3044.92,203.439 3046.46,201.238 3047.99,198.219 "
       id="polyline27057"
       transform="matrix(0.04464095,0,0,0.04364368,6.2374369,9.658149)" /></g></svg>
