<?xml version="1.0" encoding="UTF-8" standalone="no"?>
<!-- Created with Inkscape (http://www.inkscape.org/) -->

<svg
   width="46.887741mm"
   height="41.668369mm"
   viewBox="0 0 46.887741 41.668369"
   version="1.1"
   id="svg5"
   xml:space="preserve"
   inkscape:version="1.2.2 (b0a8486541, 2022-12-01)"
   sodipodi:docname="mddf.svg"
   xmlns:inkscape="http://www.inkscape.org/namespaces/inkscape"
   xmlns:sodipodi="http://sodipodi.sourceforge.net/DTD/sodipodi-0.dtd"
   xmlns="http://www.w3.org/2000/svg"
   xmlns:svg="http://www.w3.org/2000/svg"><sodipodi:namedview
     id="namedview7"
     pagecolor="#ffffff"
     bordercolor="#000000"
     borderopacity="0.25"
     inkscape:showpageshadow="2"
     inkscape:pageopacity="0.0"
     inkscape:pagecheckerboard="0"
     inkscape:deskcolor="#d1d1d1"
     inkscape:document-units="mm"
     showgrid="false"
     inkscape:zoom="1.9955967"
     inkscape:cx="357.78772"
     inkscape:cy="227.50087"
     inkscape:window-width="1890"
     inkscape:window-height="1048"
     inkscape:window-x="30"
     inkscape:window-y="0"
     inkscape:window-maximized="1"
     inkscape:current-layer="layer1" /><defs
     id="defs2"><clipPath
       id="clip320"><rect
         x="0"
         y="0"
         width="2400"
         height="2400"
         id="rect26771" /></clipPath><clipPath
       id="clip321"><rect
         x="1523"
         y="1310"
         width="768"
         height="799"
         id="rect26778" /></clipPath></defs><g
     inkscape:label="Layer 1"
     inkscape:groupmode="layer"
     id="layer1"
     transform="translate(-126.50084,-57.696512)"><path
       clip-path="url(#clip320)"
       d="m 1523.11,2107.94 h 766.65 v -797.7 h -766.65 z"
       fill="#ffffff"
       fill-rule="evenodd"
       fill-opacity="1"
       id="path27212"
       transform="matrix(0.04464095,0,0,0.04364368,70.143427,0.60010496)" /><polyline
       clip-path="url(#clip320)"
       style="fill:none;stroke:#000000;stroke-width:4;stroke-linecap:round;stroke-linejoin:round;stroke-opacity:1"
       points="1523.11,2107.94 2289.76,2107.94 "
       id="polyline27214"
       transform="matrix(0.04464095,0,0,0.04364368,70.143427,0.60010496)" /><polyline
       clip-path="url(#clip320)"
       style="fill:none;stroke:#000000;stroke-width:4;stroke-linecap:round;stroke-linejoin:round;stroke-opacity:1"
       points="1523.11,1310.24 2289.76,1310.24 "
       id="polyline27216"
       transform="matrix(0.04464095,0,0,0.04364368,70.143427,0.60010496)" /><polyline
       clip-path="url(#clip320)"
       style="fill:none;stroke:#000000;stroke-width:4;stroke-linecap:round;stroke-linejoin:round;stroke-opacity:1"
       points="1523.11,2107.94 1523.11,2089.05 "
       id="polyline27218"
       transform="matrix(0.04464095,0,0,0.04364368,70.143427,0.60010496)" /><polyline
       clip-path="url(#clip320)"
       style="fill:none;stroke:#000000;stroke-width:4;stroke-linecap:round;stroke-linejoin:round;stroke-opacity:1"
       points="1714.77,2107.94 1714.77,2089.05 "
       id="polyline27220"
       transform="matrix(0.04464095,0,0,0.04364368,70.143427,0.60010496)" /><polyline
       clip-path="url(#clip320)"
       style="fill:none;stroke:#000000;stroke-width:4;stroke-linecap:round;stroke-linejoin:round;stroke-opacity:1"
       points="1906.43,2107.94 1906.43,2089.05 "
       id="polyline27222"
       transform="matrix(0.04464095,0,0,0.04364368,70.143427,0.60010496)" /><polyline
       clip-path="url(#clip320)"
       style="fill:none;stroke:#000000;stroke-width:4;stroke-linecap:round;stroke-linejoin:round;stroke-opacity:1"
       points="2098.1,2107.94 2098.1,2089.05 "
       id="polyline27224"
       transform="matrix(0.04464095,0,0,0.04364368,70.143427,0.60010496)" /><polyline
       clip-path="url(#clip320)"
       style="fill:none;stroke:#000000;stroke-width:4;stroke-linecap:round;stroke-linejoin:round;stroke-opacity:1"
       points="2289.76,2107.94 2289.76,2089.05 "
       id="polyline27226"
       transform="matrix(0.04464095,0,0,0.04364368,70.143427,0.60010496)" /><polyline
       clip-path="url(#clip320)"
       style="fill:none;stroke:#000000;stroke-width:4;stroke-linecap:round;stroke-linejoin:round;stroke-opacity:1"
       points="1523.11,1310.24 1523.11,1329.13 "
       id="polyline27228"
       transform="matrix(0.04464095,0,0,0.04364368,70.143427,0.60010496)" /><polyline
       clip-path="url(#clip320)"
       style="fill:none;stroke:#000000;stroke-width:4;stroke-linecap:round;stroke-linejoin:round;stroke-opacity:1"
       points="1714.77,1310.24 1714.77,1329.13 "
       id="polyline27230"
       transform="matrix(0.04464095,0,0,0.04364368,70.143427,0.60010496)" /><polyline
       clip-path="url(#clip320)"
       style="fill:none;stroke:#000000;stroke-width:4;stroke-linecap:round;stroke-linejoin:round;stroke-opacity:1"
       points="1906.43,1310.24 1906.43,1329.13 "
       id="polyline27232"
       transform="matrix(0.04464095,0,0,0.04364368,70.143427,0.60010496)" /><polyline
       clip-path="url(#clip320)"
       style="fill:none;stroke:#000000;stroke-width:4;stroke-linecap:round;stroke-linejoin:round;stroke-opacity:1"
       points="2098.1,1310.24 2098.1,1329.13 "
       id="polyline27234"
       transform="matrix(0.04464095,0,0,0.04364368,70.143427,0.60010496)" /><polyline
       clip-path="url(#clip320)"
       style="fill:none;stroke:#000000;stroke-width:4;stroke-linecap:round;stroke-linejoin:round;stroke-opacity:1"
       points="2289.76,1310.24 2289.76,1329.13 "
       id="polyline27236"
       transform="matrix(0.04464095,0,0,0.04364368,70.143427,0.60010496)" /><path
       clip-path="url(#clip320)"
       d="m 1512.46,2154.16 q 0,-7.43 1.88,-11.48 2.62,-6.03 8.79,-6.03 1.31,0 2.67,0.37 1.38,0.34 3.11,1.7 1.76,1.36 2.82,3.59 2.02,4.29 2.02,11.85 0,7.39 -1.87,11.42 -2.75,5.87 -8.8,5.87 -2.27,0 -4.59,-1.16 -2.3,-1.16 -3.76,-3.95 -2.27,-4.17 -2.27,-12.18 m 4.2,-0.61 q 0,7.63 0.54,10.67 0.62,3.28 2.3,4.72 1.7,1.4 3.58,1.4 2.03,0 3.71,-1.5 1.7,-1.54 2.22,-4.82 0.57,-3.24 0.54,-10.47 0,-7.05 -0.49,-9.86 -0.67,-3.29 -2.45,-4.6 -1.75,-1.33 -3.53,-1.33 -0.67,0 -1.38,0.2 -0.69,0.19 -1.71,0.76 -1.01,0.57 -1.8,1.98 -0.77,1.41 -1.14,3.53 -0.39,2.74 -0.39,9.32 z"
       fill="#000000"
       fill-rule="nonzero"
       fill-opacity="1"
       id="path27238"
       transform="matrix(0.04464095,0,0,0.04364368,70.143427,0.60010496)" /><path
       clip-path="url(#clip320)"
       d="m 1704.67,2162.19 q 0,-1.51 0.81,-2.07 0.82,-0.6 1.68,-0.6 1.16,0 1.83,0.74 0.69,0.72 0.69,1.73 0,1.02 -0.69,1.76 -0.67,0.71 -1.83,0.71 -0.57,0 -0.86,-0.09 0.66,2.32 2.69,4 2.05,1.68 4.74,1.68 3.39,0 5.41,-3.29 1.21,-2.12 1.21,-6.94 0,-4.25 -0.91,-6.37 -1.41,-3.24 -4.3,-3.24 -4.1,0 -6.52,3.53 -0.3,0.45 -0.64,0.47 -0.5,0 -0.62,-0.27 -0.1,-0.3 -0.1,-1.06 v -14.97 q 0,-1.21 0.49,-1.21 0.2,0 0.62,0.15 3.19,1.4 6.72,1.43 3.63,0 6.89,-1.48 0.25,-0.15 0.4,-0.15 0.49,0 0.52,0.57 0,0.19 -0.42,0.79 -0.4,0.56 -1.26,1.33 -0.87,0.74 -1.98,1.46 -1.11,0.71 -2.74,1.21 -1.61,0.47 -3.38,0.47 -2.13,0 -4.3,-0.67 v 9.86 q 2.62,-2.57 6.42,-2.57 4.05,0 6.84,3.26 2.79,3.26 2.79,7.81 0,4.76 -3.31,8.02 -3.28,3.26 -7.73,3.26 -4.05,0 -6.62,-2.89 -2.54,-2.89 -2.54,-6.37 z"
       fill="#000000"
       fill-rule="nonzero"
       fill-opacity="1"
       id="path27240"
       transform="matrix(0.04464095,0,0,0.04364368,70.143427,0.60010496)" /><path
       clip-path="url(#clip320)"
       d="m 1884.4,2141.47 v -1.59 q 6.08,0 9.21,-3.23 0.87,0 1.02,0.2 0.14,0.19 0.14,1.11 v 28.38 q 0,1.51 0.75,1.98 0.74,0.47 3.97,0.47 h 1.61 v 1.55 q -1.78,-0.14 -8.2,-0.14 -6.43,0 -8.18,0.14 v -1.55 h 1.61 q 3.18,0 3.95,-0.45 0.76,-0.47 0.76,-2 v -26.21 q -2.64,1.34 -6.64,1.34 z"
       fill="#000000"
       fill-rule="nonzero"
       fill-opacity="1"
       id="path27242"
       transform="matrix(0.04464095,0,0,0.04364368,70.143427,0.60010496)" /><path
       clip-path="url(#clip320)"
       d="m 1907.18,2154.16 q 0,-7.43 1.87,-11.48 2.62,-6.03 8.8,-6.03 1.31,0 2.67,0.37 1.38,0.34 3.11,1.7 1.75,1.36 2.81,3.59 2.03,4.29 2.03,11.85 0,7.39 -1.88,11.42 -2.74,5.87 -8.79,5.87 -2.27,0 -4.6,-1.16 -2.29,-1.16 -3.75,-3.95 -2.27,-4.17 -2.27,-12.18 m 4.2,-0.61 q 0,7.63 0.54,10.67 0.62,3.28 2.3,4.72 1.7,1.4 3.58,1.4 2.02,0 3.7,-1.5 1.71,-1.54 2.23,-4.82 0.57,-3.24 0.54,-10.47 0,-7.05 -0.49,-9.86 -0.67,-3.29 -2.45,-4.6 -1.75,-1.33 -3.53,-1.33 -0.67,0 -1.38,0.2 -0.7,0.19 -1.71,0.76 -1.01,0.57 -1.8,1.98 -0.77,1.41 -1.14,3.53 -0.39,2.74 -0.39,9.32 z"
       fill="#000000"
       fill-rule="nonzero"
       fill-opacity="1"
       id="path27244"
       transform="matrix(0.04464095,0,0,0.04364368,70.143427,0.60010496)" /><path
       clip-path="url(#clip320)"
       d="m 2076.34,2141.47 v -1.59 q 6.07,0 9.21,-3.23 0.86,0 1.01,0.2 0.15,0.19 0.15,1.11 v 28.38 q 0,1.51 0.74,1.98 0.74,0.47 3.98,0.47 h 1.61 v 1.55 q -1.78,-0.14 -8.21,-0.14 -6.42,0 -8.17,0.14 v -1.55 h 1.6 q 3.19,0 3.96,-0.45 0.76,-0.47 0.76,-2 v -26.21 q -2.64,1.34 -6.64,1.34 z"
       fill="#000000"
       fill-rule="nonzero"
       fill-opacity="1"
       id="path27246"
       transform="matrix(0.04464095,0,0,0.04364368,70.143427,0.60010496)" /><path
       clip-path="url(#clip320)"
       d="m 2099.66,2162.19 q 0,-1.51 0.81,-2.07 0.82,-0.6 1.68,-0.6 1.16,0 1.83,0.74 0.69,0.72 0.69,1.73 0,1.02 -0.69,1.76 -0.67,0.71 -1.83,0.71 -0.57,0 -0.86,-0.09 0.66,2.32 2.69,4 2.05,1.68 4.74,1.68 3.39,0 5.41,-3.29 1.21,-2.12 1.21,-6.94 0,-4.25 -0.91,-6.37 -1.41,-3.24 -4.3,-3.24 -4.1,0 -6.52,3.53 -0.3,0.45 -0.64,0.47 -0.5,0 -0.62,-0.27 -0.1,-0.3 -0.1,-1.06 v -14.97 q 0,-1.21 0.49,-1.21 0.2,0 0.62,0.15 3.19,1.4 6.72,1.43 3.63,0 6.89,-1.48 0.25,-0.15 0.4,-0.15 0.49,0 0.52,0.57 0,0.19 -0.42,0.79 -0.4,0.56 -1.26,1.33 -0.87,0.74 -1.98,1.46 -1.11,0.71 -2.74,1.21 -1.61,0.47 -3.39,0.47 -2.12,0 -4.29,-0.67 v 9.86 q 2.61,-2.57 6.42,-2.57 4.05,0 6.84,3.26 2.79,3.26 2.79,7.81 0,4.76 -3.31,8.02 -3.28,3.26 -7.73,3.26 -4.05,0 -6.62,-2.89 -2.54,-2.89 -2.54,-6.37 z"
       fill="#000000"
       fill-rule="nonzero"
       fill-opacity="1"
       id="path27248"
       transform="matrix(0.04464095,0,0,0.04364368,70.143427,0.60010496)" /><path
       clip-path="url(#clip320)"
       d="m 2266.74,2170.34 q 0,-0.91 0.07,-1.18 0.1,-0.27 0.5,-0.69 l 9.71,-10.82 q 5.31,-5.98 5.31,-11.19 0,-3.39 -1.78,-5.81 -1.75,-2.42 -4.99,-2.42 -2.22,0 -4.1,1.36 -1.88,1.36 -2.74,3.78 0.14,-0.05 0.66,-0.05 1.26,0 1.96,0.79 0.71,0.79 0.71,1.85 0,1.36 -0.89,2.03 -0.86,0.64 -1.73,0.64 -0.34,0 -0.81,-0.08 -0.45,-0.07 -1.16,-0.76 -0.72,-0.72 -0.72,-1.98 0,-3.53 2.67,-6.35 2.69,-2.81 6.79,-2.81 4.65,0 7.68,2.76 3.07,2.75 3.07,7.05 0,1.5 -0.47,2.89 -0.45,1.35 -1.06,2.42 -0.6,1.06 -2.23,2.76 -1.63,1.71 -2.94,2.92 -1.31,1.21 -4.25,3.78 l -5.36,5.21 h 9.12 q 4.45,0 4.79,-0.4 0.5,-0.71 1.11,-4.49 h 1.29 l -1.44,8.79 z"
       fill="#000000"
       fill-rule="nonzero"
       fill-opacity="1"
       id="path27250"
       transform="matrix(0.04464095,0,0,0.04364368,70.143427,0.60010496)" /><path
       clip-path="url(#clip320)"
       d="m 2291.49,2154.16 q 0,-7.43 1.88,-11.48 2.62,-6.03 8.79,-6.03 1.31,0 2.67,0.37 1.39,0.34 3.12,1.7 1.75,1.36 2.81,3.59 2.03,4.29 2.03,11.85 0,7.39 -1.88,11.42 -2.74,5.87 -8.79,5.87 -2.28,0 -4.6,-1.16 -2.3,-1.16 -3.75,-3.95 -2.28,-4.17 -2.28,-12.18 m 4.2,-0.61 q 0,7.63 0.55,10.67 0.61,3.28 2.29,4.72 1.71,1.4 3.59,1.4 2.02,0 3.7,-1.5 1.71,-1.54 2.22,-4.82 0.57,-3.24 0.55,-10.47 0,-7.05 -0.5,-9.86 -0.66,-3.29 -2.44,-4.6 -1.76,-1.33 -3.53,-1.33 -0.67,0 -1.39,0.2 -0.69,0.19 -1.7,0.76 -1.02,0.57 -1.81,1.98 -0.76,1.41 -1.13,3.53 -0.4,2.74 -0.4,9.32 z"
       fill="#000000"
       fill-rule="nonzero"
       fill-opacity="1"
       id="path27252"
       transform="matrix(0.04464095,0,0,0.04364368,70.143427,0.60010496)" /><path
       clip-path="url(#clip320)"
       d="m 1877.74,2221.75 q 0,1.71 -1.12,2.81 -1.1,1.09 -2.52,1.09 -1.22,0 -1.86,-0.71 -0.65,-0.71 -0.65,-1.61 0,-1.29 1,-2.35 1,-1.06 2.45,-1.29 -1.06,-0.77 -2.77,-0.77 -2.8,0 -5.28,2.16 -1.1,1 -2.29,2.83 -1.19,1.8 -1.42,2.58 l -2.09,8.6 q -0.19,0.96 -1.39,5.6 -1.15,4.61 -1.25,4.8 -0.32,0.9 -1.03,1.38 -0.71,0.49 -1.42,0.49 -0.8,0 -1.35,-0.49 -0.55,-0.48 -0.55,-1.32 0,-0.13 0.1,-0.61 0.09,-0.48 0.26,-1.16 0.16,-0.67 0.22,-1.06 l 3.83,-15.23 q 0.71,-2.77 0.87,-3.64 0.2,-0.91 0.2,-1.9 0,-1.74 -0.55,-2.39 -0.55,-0.64 -1.52,-0.64 -1.67,0 -2.76,2 -1.1,1.99 -2.03,5.86 -0.29,1.06 -0.49,1.29 -0.16,0.22 -0.64,0.22 -0.81,-0.03 -0.81,-0.68 0,-0.16 0.26,-1.19 0.26,-1.06 0.74,-2.61 0.52,-1.57 1.06,-2.57 0.33,-0.68 0.62,-1.13 0.29,-0.45 0.87,-1.16 0.58,-0.71 1.45,-1.09 0.87,-0.39 1.93,-0.39 2.32,0 3.96,1.42 1.67,1.41 2.06,3.64 0.81,-1.16 1.8,-2.16 1,-1.03 2.84,-1.97 1.83,-0.93 3.8,-0.93 2.45,0 3.96,1.26 1.51,1.22 1.51,3.02 z"
       fill="#000000"
       fill-rule="nonzero"
       fill-opacity="1"
       id="path27254"
       transform="matrix(0.04464095,0,0,0.04364368,70.143427,0.60010496)" /><path
       clip-path="url(#clip320)"
       d="m 1880.33,2262.17 q 0,-0.32 0.25,-1.03 l 23.29,-62.22 q 0,-0.07 0.16,-0.42 0.16,-0.35 0.26,-0.58 0.09,-0.26 0.29,-0.45 0.22,-0.19 0.48,-0.19 0.64,0 0.64,0.8 0,0.07 -0.19,0.84 l -23.35,62.29 q -0.38,1.12 -0.64,1.44 -0.23,0.33 -0.61,0.33 -0.58,0 -0.58,-0.81 z"
       fill="#000000"
       fill-rule="nonzero"
       fill-opacity="1"
       id="path27256"
       transform="matrix(0.04464095,0,0,0.04364368,70.143427,0.60010496)" /><path
       clip-path="url(#clip320)"
       d="m 1958.14,2246.62 -8.63,-0.2 q -7.12,0 -9.5,0.2 v -2.03 q 5.48,0 5.48,-2 0,-0.16 -0.2,-0.93 l -3.48,-10.08 h -16.29 l -3.06,8.63 q -0.13,0.25 -0.13,1 0,1.38 1.32,2.38 1.32,1 3.64,1 v 2.03 l -7.6,-0.2 -6.7,0.2 v -2.03 q 2.87,-0.07 4.7,-1.07 1.84,-0.99 2.68,-3.38 l 13.65,-39.42 q 0.26,-0.77 0.55,-1.03 0.29,-0.29 1.03,-0.29 0.51,0 0.8,0.2 0.29,0.16 0.39,0.38 0.13,0.2 0.32,0.74 l 14.24,41.23 q 0.54,1.64 1.61,2.15 1.06,0.49 4.02,0.49 h 1.16 v 2.03 m -17.07,-17.07 -7.44,-21.45 -7.4,21.45 h 14.84 m -1.32,-35.98 q 0,-3.8 -4.15,-3.8 -4.16,0 -4.16,3.8 0,3.84 4.16,3.84 4.15,0 4.15,-3.84 m 2.19,-0.06 q 0,2.45 -1.83,4.19 -1.84,1.7 -4.58,1.7 -2.54,0 -4.41,-1.7 -1.87,-1.71 -1.87,-4.19 0,-2.26 1.81,-3.99 1.83,-1.74 4.6,-1.74 2.64,0 4.45,1.7 1.83,1.71 1.83,4.03 z"
       fill="#000000"
       fill-rule="nonzero"
       fill-opacity="1"
       id="path27258"
       transform="matrix(0.04464095,0,0,0.04364368,70.143427,0.60010496)" /><polyline
       clip-path="url(#clip320)"
       style="fill:none;stroke:#000000;stroke-width:4;stroke-linecap:round;stroke-linejoin:round;stroke-opacity:1"
       points="1523.11,2107.94 1523.11,1310.24 "
       id="polyline27260"
       transform="matrix(0.04464095,0,0,0.04364368,70.143427,0.60010496)" /><polyline
       clip-path="url(#clip320)"
       style="fill:none;stroke:#000000;stroke-width:4;stroke-linecap:round;stroke-linejoin:round;stroke-opacity:1"
       points="2289.76,2107.94 2289.76,1310.24 "
       id="polyline27262"
       transform="matrix(0.04464095,0,0,0.04364368,70.143427,0.60010496)" /><polyline
       clip-path="url(#clip320)"
       style="fill:none;stroke:#000000;stroke-width:4;stroke-linecap:round;stroke-linejoin:round;stroke-opacity:1"
       points="1523.11,2044.87 1542,2044.87 "
       id="polyline27264"
       transform="matrix(0.04464095,0,0,0.04364368,70.143427,0.60010496)" /><polyline
       clip-path="url(#clip320)"
       style="fill:none;stroke:#000000;stroke-width:4;stroke-linecap:round;stroke-linejoin:round;stroke-opacity:1"
       points="1523.11,1895.03 1542,1895.03 "
       id="polyline27266"
       transform="matrix(0.04464095,0,0,0.04364368,70.143427,0.60010496)" /><polyline
       clip-path="url(#clip320)"
       style="fill:none;stroke:#000000;stroke-width:4;stroke-linecap:round;stroke-linejoin:round;stroke-opacity:1"
       points="1523.11,1745.19 1542,1745.19 "
       id="polyline27268"
       transform="matrix(0.04464095,0,0,0.04364368,70.143427,0.60010496)" /><polyline
       clip-path="url(#clip320)"
       style="fill:none;stroke:#000000;stroke-width:4;stroke-linecap:round;stroke-linejoin:round;stroke-opacity:1"
       points="1523.11,1595.36 1542,1595.36 "
       id="polyline27270"
       transform="matrix(0.04464095,0,0,0.04364368,70.143427,0.60010496)" /><polyline
       clip-path="url(#clip320)"
       style="fill:none;stroke:#000000;stroke-width:4;stroke-linecap:round;stroke-linejoin:round;stroke-opacity:1"
       points="1523.11,1445.52 1542,1445.52 "
       id="polyline27272"
       transform="matrix(0.04464095,0,0,0.04364368,70.143427,0.60010496)" /><polyline
       clip-path="url(#clip320)"
       style="fill:none;stroke:#000000;stroke-width:4;stroke-linecap:round;stroke-linejoin:round;stroke-opacity:1"
       points="2289.76,2044.87 2270.87,2044.87 "
       id="polyline27274"
       transform="matrix(0.04464095,0,0,0.04364368,70.143427,0.60010496)" /><polyline
       clip-path="url(#clip320)"
       style="fill:none;stroke:#000000;stroke-width:4;stroke-linecap:round;stroke-linejoin:round;stroke-opacity:1"
       points="2289.76,1895.03 2270.87,1895.03 "
       id="polyline27276"
       transform="matrix(0.04464095,0,0,0.04364368,70.143427,0.60010496)" /><polyline
       clip-path="url(#clip320)"
       style="fill:none;stroke:#000000;stroke-width:4;stroke-linecap:round;stroke-linejoin:round;stroke-opacity:1"
       points="2289.76,1745.19 2270.87,1745.19 "
       id="polyline27278"
       transform="matrix(0.04464095,0,0,0.04364368,70.143427,0.60010496)" /><polyline
       clip-path="url(#clip320)"
       style="fill:none;stroke:#000000;stroke-width:4;stroke-linecap:round;stroke-linejoin:round;stroke-opacity:1"
       points="2289.76,1595.36 2270.87,1595.36 "
       id="polyline27280"
       transform="matrix(0.04464095,0,0,0.04364368,70.143427,0.60010496)" /><polyline
       clip-path="url(#clip320)"
       style="fill:none;stroke:#000000;stroke-width:4;stroke-linecap:round;stroke-linejoin:round;stroke-opacity:1"
       points="2289.76,1445.52 2270.87,1445.52 "
       id="polyline27282"
       transform="matrix(0.04464095,0,0,0.04364368,70.143427,0.60010496)" /><path
       clip-path="url(#clip320)"
       d="m 1410.13,2048.78 q 0.3,0.3 0.3,0.72 0,0.42 -0.3,0.72 -0.3,0.29 -0.72,0.29 h -31.67 q -0.42,0 -0.71,-0.29 -0.3,-0.3 -0.3,-0.72 0,-0.42 0.3,-0.72 0.29,-0.29 0.71,-0.29 h 31.67 q 0.42,0 0.72,0.29 z"
       fill="#000000"
       fill-rule="nonzero"
       fill-opacity="1"
       id="path27284"
       transform="matrix(0.04464095,0,0,0.04364368,70.143427,0.60010496)" /><path
       clip-path="url(#clip320)"
       d="m 1415.37,2046.17 q 0,-7.96 4.05,-12.83 4.05,-4.89 9.26,-4.89 3.04,0 4.72,1.56 1.71,1.53 1.71,3.9 0,1.31 -0.77,1.88 -0.77,0.57 -1.56,0.57 -0.91,0 -1.63,-0.62 -0.71,-0.62 -0.71,-1.73 0,-2.27 2.79,-2.27 -1.31,-2.03 -4.45,-2.03 -0.96,0 -1.95,0.3 -0.99,0.27 -2.27,1.21 -1.29,0.94 -2.28,2.42 -0.98,1.48 -1.68,4.27 -0.69,2.8 -0.69,6.43 v 1.21 q 2.08,-5.02 6.33,-4.99 4.25,0 7.19,3.23 2.94,3.24 2.94,8.03 0,4.92 -3.07,8.18 -3.06,3.26 -7.36,3.26 -1.93,0 -3.68,-0.82 -1.73,-0.79 -3.36,-2.61 -1.61,-1.83 -2.57,-5.34 -0.96,-3.51 -0.96,-8.32 m 4.64,4.54 q 0,4.97 0.92,7.34 0.14,0.39 0.47,0.94 0.34,0.54 0.91,1.26 0.59,0.69 1.56,1.16 0.96,0.44 2.07,0.44 3.38,0 5.02,-3.28 0.86,-1.83 0.86,-6.8 0,-5.06 -0.91,-6.91 -1.56,-3.14 -4.72,-3.14 -2.13,0 -3.61,1.46 -1.46,1.45 -2.02,3.41 -0.55,1.95 -0.55,4.12 z"
       fill="#000000"
       fill-rule="nonzero"
       fill-opacity="1"
       id="path27286"
       transform="matrix(0.04464095,0,0,0.04364368,70.143427,0.60010496)" /><path
       clip-path="url(#clip320)"
       d="m 1440.52,2045.97 q 0,-7.44 1.87,-11.49 2.62,-6.03 8.8,-6.03 1.31,0 2.67,0.37 1.38,0.35 3.11,1.71 1.75,1.36 2.81,3.58 2.03,4.3 2.03,11.86 0,7.38 -1.88,11.41 -2.74,5.88 -8.79,5.88 -2.27,0 -4.6,-1.16 -2.29,-1.16 -3.75,-3.95 -2.27,-4.18 -2.27,-12.18 m 4.2,-0.62 q 0,7.63 0.54,10.67 0.62,3.29 2.3,4.72 1.7,1.41 3.58,1.41 2.02,0 3.7,-1.51 1.71,-1.53 2.23,-4.82 0.57,-3.23 0.54,-10.47 0,-7.04 -0.49,-9.86 -0.67,-3.28 -2.45,-4.59 -1.75,-1.34 -3.53,-1.34 -0.67,0 -1.39,0.2 -0.69,0.2 -1.7,0.77 -1.01,0.57 -1.8,1.97 -0.77,1.41 -1.14,3.54 -0.39,2.74 -0.39,9.31 z"
       fill="#000000"
       fill-rule="nonzero"
       fill-opacity="1"
       id="path27288"
       transform="matrix(0.04464095,0,0,0.04364368,70.143427,0.60010496)" /><path
       clip-path="url(#clip320)"
       d="m 1465.81,2045.97 q 0,-7.44 1.88,-11.49 2.62,-6.03 8.79,-6.03 1.31,0 2.67,0.37 1.39,0.35 3.11,1.71 1.76,1.36 2.82,3.58 2.03,4.3 2.03,11.86 0,7.38 -1.88,11.41 -2.74,5.88 -8.8,5.88 -2.27,0 -4.59,-1.16 -2.3,-1.16 -3.76,-3.95 -2.27,-4.18 -2.27,-12.18 m 4.2,-0.62 q 0,7.63 0.54,10.67 0.62,3.29 2.3,4.72 1.71,1.41 3.58,1.41 2.03,0 3.71,-1.51 1.7,-1.53 2.22,-4.82 0.57,-3.23 0.55,-10.47 0,-7.04 -0.5,-9.86 -0.66,-3.28 -2.44,-4.59 -1.76,-1.34 -3.54,-1.34 -0.66,0 -1.38,0.2 -0.69,0.2 -1.7,0.77 -1.02,0.57 -1.81,1.97 -0.76,1.41 -1.13,3.54 -0.4,2.74 -0.4,9.31 z"
       fill="#000000"
       fill-rule="nonzero"
       fill-opacity="1"
       id="path27290"
       transform="matrix(0.04464095,0,0,0.04364368,70.143427,0.60010496)" /><path
       clip-path="url(#clip320)"
       d="m 1410.13,1898.95 q 0.3,0.29 0.3,0.71 0,0.42 -0.3,0.72 -0.3,0.3 -0.72,0.3 h -31.67 q -0.42,0 -0.71,-0.3 -0.3,-0.3 -0.3,-0.72 0,-0.42 0.3,-0.71 0.29,-0.3 0.71,-0.3 h 31.67 q 0.42,0 0.72,0.3 z"
       fill="#000000"
       fill-rule="nonzero"
       fill-opacity="1"
       id="path27292"
       transform="matrix(0.04464095,0,0,0.04364368,70.143427,0.60010496)" /><path
       clip-path="url(#clip320)"
       d="m 1414.65,1903.96 v -1.56 l 15.54,-23.74 q 0.39,-0.61 1.01,-0.59 0.57,0 0.69,0.22 0.13,0.23 0.13,1.09 v 23.02 h 5.06 v 1.56 h -5.06 v 4.4 q 0,1.46 0.59,1.93 0.62,0.46 3.24,0.46 h 1.06 v 1.56 q -2.08,-0.15 -6.87,-0.15 -4.77,0 -6.84,0.15 v -1.56 h 1.06 q 2.62,0 3.24,-0.44 0.61,-0.47 0.61,-1.95 v -4.4 h -13.46 m 1.43,-1.56 h 12.33 v -18.87 z"
       fill="#000000"
       fill-rule="nonzero"
       fill-opacity="1"
       id="path27294"
       transform="matrix(0.04464095,0,0,0.04364368,70.143427,0.60010496)" /><path
       clip-path="url(#clip320)"
       d="m 1440.52,1896.13 q 0,-7.44 1.87,-11.49 2.62,-6.02 8.8,-6.02 1.31,0 2.67,0.37 1.38,0.34 3.11,1.7 1.75,1.36 2.81,3.58 2.03,4.3 2.03,11.86 0,7.39 -1.88,11.41 -2.74,5.88 -8.79,5.88 -2.27,0 -4.6,-1.16 -2.29,-1.16 -3.75,-3.95 -2.27,-4.18 -2.27,-12.18 m 4.2,-0.62 q 0,7.64 0.54,10.67 0.62,3.29 2.3,4.72 1.7,1.41 3.58,1.41 2.02,0 3.7,-1.51 1.71,-1.53 2.23,-4.81 0.57,-3.24 0.54,-10.48 0,-7.04 -0.49,-9.85 -0.67,-3.29 -2.45,-4.6 -1.75,-1.33 -3.53,-1.33 -0.67,0 -1.39,0.19 -0.69,0.2 -1.7,0.77 -1.01,0.57 -1.8,1.98 -0.77,1.4 -1.14,3.53 -0.39,2.74 -0.39,9.31 z"
       fill="#000000"
       fill-rule="nonzero"
       fill-opacity="1"
       id="path27296"
       transform="matrix(0.04464095,0,0,0.04364368,70.143427,0.60010496)" /><path
       clip-path="url(#clip320)"
       d="m 1465.81,1896.13 q 0,-7.44 1.88,-11.49 2.62,-6.02 8.79,-6.02 1.31,0 2.67,0.37 1.39,0.34 3.11,1.7 1.76,1.36 2.82,3.58 2.03,4.3 2.03,11.86 0,7.39 -1.88,11.41 -2.74,5.88 -8.8,5.88 -2.27,0 -4.59,-1.16 -2.3,-1.16 -3.76,-3.95 -2.27,-4.18 -2.27,-12.18 m 4.2,-0.62 q 0,7.64 0.54,10.67 0.62,3.29 2.3,4.72 1.71,1.41 3.58,1.41 2.03,0 3.71,-1.51 1.7,-1.53 2.22,-4.81 0.57,-3.24 0.55,-10.48 0,-7.04 -0.5,-9.85 -0.66,-3.29 -2.44,-4.6 -1.76,-1.33 -3.54,-1.33 -0.66,0 -1.38,0.19 -0.69,0.2 -1.7,0.77 -1.02,0.57 -1.81,1.98 -0.76,1.4 -1.13,3.53 -0.4,2.74 -0.4,9.31 z"
       fill="#000000"
       fill-rule="nonzero"
       fill-opacity="1"
       id="path27298"
       transform="matrix(0.04464095,0,0,0.04364368,70.143427,0.60010496)" /><path
       clip-path="url(#clip320)"
       d="m 1410.13,1749.11 q 0.3,0.3 0.3,0.72 0,0.42 -0.3,0.71 -0.3,0.3 -0.72,0.3 h -31.67 q -0.42,0 -0.71,-0.3 -0.3,-0.29 -0.3,-0.71 0,-0.42 0.3,-0.72 0.29,-0.3 0.71,-0.3 h 31.67 q 0.42,0 0.72,0.3 z"
       fill="#000000"
       fill-rule="nonzero"
       fill-opacity="1"
       id="path27300"
       transform="matrix(0.04464095,0,0,0.04364368,70.143427,0.60010496)" /><path
       clip-path="url(#clip320)"
       d="m 1415.76,1762.47 q 0,-0.91 0.08,-1.18 0.1,-0.27 0.49,-0.69 l 9.71,-10.82 q 5.31,-5.98 5.31,-11.19 0,-3.39 -1.78,-5.81 -1.75,-2.42 -4.99,-2.42 -2.22,0 -4.1,1.36 -1.88,1.36 -2.74,3.78 0.15,-0.05 0.67,-0.05 1.26,0 1.95,0.79 0.71,0.79 0.71,1.85 0,1.36 -0.89,2.03 -0.86,0.64 -1.72,0.64 -0.35,0 -0.82,-0.08 -0.44,-0.07 -1.16,-0.76 -0.72,-0.72 -0.72,-1.98 0,-3.53 2.67,-6.35 2.69,-2.81 6.79,-2.81 4.65,0 7.69,2.76 3.06,2.75 3.06,7.05 0,1.5 -0.47,2.89 -0.44,1.35 -1.06,2.42 -0.59,1.06 -2.22,2.76 -1.64,1.71 -2.94,2.92 -1.31,1.21 -4.25,3.78 l -5.36,5.21 h 9.11 q 4.45,0 4.79,-0.4 0.5,-0.71 1.12,-4.49 h 1.28 l -1.43,8.79 z"
       fill="#000000"
       fill-rule="nonzero"
       fill-opacity="1"
       id="path27302"
       transform="matrix(0.04464095,0,0,0.04364368,70.143427,0.60010496)" /><path
       clip-path="url(#clip320)"
       d="m 1440.52,1746.29 q 0,-7.43 1.87,-11.48 2.62,-6.03 8.8,-6.03 1.31,0 2.67,0.37 1.38,0.34 3.11,1.7 1.75,1.36 2.81,3.58 2.03,4.3 2.03,11.86 0,7.39 -1.88,11.42 -2.74,5.87 -8.79,5.87 -2.27,0 -4.6,-1.16 -2.29,-1.16 -3.75,-3.95 -2.27,-4.17 -2.27,-12.18 m 4.2,-0.62 q 0,7.64 0.54,10.68 0.62,3.28 2.3,4.72 1.7,1.4 3.58,1.4 2.02,0 3.7,-1.5 1.71,-1.54 2.23,-4.82 0.57,-3.24 0.54,-10.48 0,-7.04 -0.49,-9.85 -0.67,-3.29 -2.45,-4.6 -1.75,-1.33 -3.53,-1.33 -0.67,0 -1.39,0.2 -0.69,0.19 -1.7,0.76 -1.01,0.57 -1.8,1.98 -0.77,1.41 -1.14,3.53 -0.39,2.74 -0.39,9.31 z"
       fill="#000000"
       fill-rule="nonzero"
       fill-opacity="1"
       id="path27304"
       transform="matrix(0.04464095,0,0,0.04364368,70.143427,0.60010496)" /><path
       clip-path="url(#clip320)"
       d="m 1465.81,1746.29 q 0,-7.43 1.88,-11.48 2.62,-6.03 8.79,-6.03 1.31,0 2.67,0.37 1.39,0.34 3.11,1.7 1.76,1.36 2.82,3.58 2.03,4.3 2.03,11.86 0,7.39 -1.88,11.42 -2.74,5.87 -8.8,5.87 -2.27,0 -4.59,-1.16 -2.3,-1.16 -3.76,-3.95 -2.27,-4.17 -2.27,-12.18 m 4.2,-0.62 q 0,7.64 0.54,10.68 0.62,3.28 2.3,4.72 1.71,1.4 3.58,1.4 2.03,0 3.71,-1.5 1.7,-1.54 2.22,-4.82 0.57,-3.24 0.55,-10.48 0,-7.04 -0.5,-9.85 -0.66,-3.29 -2.44,-4.6 -1.76,-1.33 -3.54,-1.33 -0.66,0 -1.38,0.2 -0.69,0.19 -1.7,0.76 -1.02,0.57 -1.81,1.98 -0.76,1.41 -1.13,3.53 -0.4,2.74 -0.4,9.31 z"
       fill="#000000"
       fill-rule="nonzero"
       fill-opacity="1"
       id="path27306"
       transform="matrix(0.04464095,0,0,0.04364368,70.143427,0.60010496)" /><path
       clip-path="url(#clip320)"
       d="m 1465.81,1596.45 q 0,-7.43 1.88,-11.48 2.62,-6.03 8.79,-6.03 1.31,0 2.67,0.37 1.39,0.35 3.11,1.71 1.76,1.35 2.82,3.58 2.03,4.3 2.03,11.85 0,7.39 -1.88,11.42 -2.74,5.88 -8.8,5.88 -2.27,0 -4.59,-1.16 -2.3,-1.16 -3.76,-3.96 -2.27,-4.17 -2.27,-12.18 m 4.2,-0.61 q 0,7.63 0.54,10.67 0.62,3.28 2.3,4.72 1.71,1.41 3.58,1.41 2.03,0 3.71,-1.51 1.7,-1.53 2.22,-4.82 0.57,-3.23 0.55,-10.47 0,-7.04 -0.5,-9.86 -0.66,-3.28 -2.44,-4.59 -1.76,-1.34 -3.54,-1.34 -0.66,0 -1.38,0.2 -0.69,0.2 -1.7,0.77 -1.02,0.56 -1.81,1.97 -0.76,1.41 -1.13,3.53 -0.4,2.75 -0.4,9.32 z"
       fill="#000000"
       fill-rule="nonzero"
       fill-opacity="1"
       id="path27308"
       transform="matrix(0.04464095,0,0,0.04364368,70.143427,0.60010496)" /><path
       clip-path="url(#clip320)"
       d="m 1415.76,1462.8 q 0,-0.92 0.08,-1.19 0.1,-0.27 0.49,-0.69 l 9.71,-10.82 q 5.31,-5.98 5.31,-11.19 0,-3.38 -1.78,-5.81 -1.75,-2.42 -4.99,-2.42 -2.22,0 -4.1,1.36 -1.88,1.36 -2.74,3.78 0.15,-0.05 0.67,-0.05 1.26,0 1.95,0.79 0.71,0.79 0.71,1.86 0,1.35 -0.89,2.02 -0.86,0.64 -1.72,0.64 -0.35,0 -0.82,-0.07 -0.44,-0.07 -1.16,-0.77 -0.72,-0.71 -0.72,-1.97 0,-3.54 2.67,-6.35 2.69,-2.82 6.79,-2.82 4.65,0 7.69,2.77 3.06,2.74 3.06,7.04 0,1.51 -0.47,2.89 -0.44,1.36 -1.06,2.42 -0.59,1.06 -2.22,2.77 -1.64,1.7 -2.94,2.91 -1.31,1.21 -4.25,3.78 l -5.36,5.21 h 9.11 q 4.45,0 4.79,-0.39 0.5,-0.72 1.12,-4.5 h 1.28 l -1.43,8.8 z"
       fill="#000000"
       fill-rule="nonzero"
       fill-opacity="1"
       id="path27310"
       transform="matrix(0.04464095,0,0,0.04364368,70.143427,0.60010496)" /><path
       clip-path="url(#clip320)"
       d="m 1440.52,1446.62 q 0,-7.44 1.87,-11.49 2.62,-6.03 8.8,-6.03 1.31,0 2.67,0.37 1.38,0.35 3.11,1.71 1.75,1.36 2.81,3.58 2.03,4.3 2.03,11.86 0,7.38 -1.88,11.41 -2.74,5.88 -8.79,5.88 -2.27,0 -4.6,-1.16 -2.29,-1.16 -3.75,-3.95 -2.27,-4.18 -2.27,-12.18 m 4.2,-0.62 q 0,7.63 0.54,10.67 0.62,3.29 2.3,4.72 1.7,1.41 3.58,1.41 2.02,0 3.7,-1.51 1.71,-1.53 2.23,-4.82 0.57,-3.23 0.54,-10.47 0,-7.04 -0.49,-9.86 -0.67,-3.28 -2.45,-4.59 -1.75,-1.34 -3.53,-1.34 -0.67,0 -1.39,0.2 -0.69,0.2 -1.7,0.77 -1.01,0.57 -1.8,1.97 -0.77,1.41 -1.14,3.54 -0.39,2.74 -0.39,9.31 z"
       fill="#000000"
       fill-rule="nonzero"
       fill-opacity="1"
       id="path27312"
       transform="matrix(0.04464095,0,0,0.04364368,70.143427,0.60010496)" /><path
       clip-path="url(#clip320)"
       d="m 1465.81,1446.62 q 0,-7.44 1.88,-11.49 2.62,-6.03 8.79,-6.03 1.31,0 2.67,0.37 1.39,0.35 3.11,1.71 1.76,1.36 2.82,3.58 2.03,4.3 2.03,11.86 0,7.38 -1.88,11.41 -2.74,5.88 -8.8,5.88 -2.27,0 -4.59,-1.16 -2.3,-1.16 -3.76,-3.95 -2.27,-4.18 -2.27,-12.18 m 4.2,-0.62 q 0,7.63 0.54,10.67 0.62,3.29 2.3,4.72 1.71,1.41 3.58,1.41 2.03,0 3.71,-1.51 1.7,-1.53 2.22,-4.82 0.57,-3.23 0.55,-10.47 0,-7.04 -0.5,-9.86 -0.66,-3.28 -2.44,-4.59 -1.76,-1.34 -3.54,-1.34 -0.66,0 -1.38,0.2 -0.69,0.2 -1.7,0.77 -1.02,0.57 -1.81,1.97 -0.76,1.41 -1.13,3.54 -0.4,2.74 -0.4,9.31 z"
       fill="#000000"
       fill-rule="nonzero"
       fill-opacity="1"
       id="path27314"
       transform="matrix(0.04464095,0,0,0.04364368,70.143427,0.60010496)" /><path
       clip-path="url(#clip320)"
       d="m 1333.07,1951.12 h -2.03 v -1.58 q 0,-3.58 -0.58,-4.38 -0.61,-0.84 -2.54,-0.84 h -34.75 q -1.9,0 -2.48,0.84 -0.62,0.84 -0.62,4.38 v 1.58 h -2.06 q 0.2,-2.32 0.2,-9.76 0,-7.38 -0.2,-9.7 h 2.06 v 1.58 q 0,3.58 0.62,4.41 0.58,0.81 2.48,0.81 h 20.96 l -19.71,-20.64 q -1.06,-1.2 -2.19,-1.2 -0.39,0 -0.8,0.2 -0.45,0.16 -0.91,0.93 -0.45,0.74 -0.45,1.93 h -2.06 q 0.2,-2.25 0.2,-8.4 0,-3.9 -0.2,-5.61 h 2.06 q 0.07,5.48 3.96,9.38 l 11.41,11.88 22.41,-15.23 q 2.03,-1.39 2.61,-2.74 0.58,-1.35 0.58,-4.19 h 2.03 q -0.19,4.16 -0.19,7.57 0,7.12 0.19,9.44 h -2.03 q 0,-3.9 -2,-3.9 -0.74,0 -2.25,1 l -17.65,11.95 7.25,7.63 h 11.53 q 1.9,0 2.51,-0.81 0.61,-0.83 0.61,-4.41 v -1.58 h 2.03 q -0.19,2.32 -0.19,9.76 0,7.38 0.19,9.7 z"
       fill="#000000"
       fill-rule="nonzero"
       fill-opacity="1"
       id="path27316"
       transform="matrix(0.04464095,0,0,0.04364368,70.143427,0.60010496)" /><path
       clip-path="url(#clip320)"
       d="m 1333.07,1896.14 h -2.03 v -1.58 q 0,-3.57 -0.58,-4.38 -0.61,-0.83 -2.54,-0.83 h -34.75 q -1.9,0 -2.48,0.83 -0.62,0.84 -0.62,4.38 v 1.58 h -2.06 v -24.12 q 0,-6.28 3.38,-10.47 3.35,-4.18 7.77,-4.18 3.63,0 6.53,3.09 2.9,3.06 3.84,7.86 0.58,-5.48 3.89,-9.09 3.29,-3.63 7.57,-3.63 4.83,0 8.47,4.15 3.61,4.15 3.61,10.53 v 25.86 m -4.67,-12.27 q 1.71,0 2.19,-0.48 0.45,-0.48 0.45,-2.74 v -8.24 q 0,-4.74 -3.09,-7.47 -3.13,-2.74 -7.02,-2.74 -3.9,0 -7.22,2.41 -3.35,2.39 -3.35,6.86 v 12.4 h 18.04 m -19.49,0 v -9.56 q 0,-5.09 -3.06,-7.8 -3.06,-2.73 -6.69,-2.73 -3.22,0 -6.16,2.19 -2.93,2.15 -2.93,6.5 v 8.18 q 0,2.26 0.45,2.74 0.46,0.48 2.19,0.48 z"
       fill="#000000"
       fill-rule="nonzero"
       fill-opacity="1"
       id="path27318"
       transform="matrix(0.04464095,0,0,0.04364368,70.143427,0.60010496)" /><path
       clip-path="url(#clip320)"
       d="m 1316.58,1842.53 q -11.14,0 -20.13,-4.15 -3.77,-1.78 -6.92,-4.26 -3.16,-2.48 -4.54,-4.12 -1.39,-1.64 -1.39,-2.09 0,-0.65 0.64,-0.68 0.33,0 1.13,0.87 10.82,10.63 31.21,10.6 20.45,0 30.85,-10.34 1.13,-1.13 1.48,-1.13 0.65,0 0.65,0.68 0,0.45 -1.32,2.03 -1.32,1.58 -4.35,4.02 -3.03,2.45 -6.73,4.22 -8.99,4.35 -20.58,4.35 z"
       fill="#000000"
       fill-rule="nonzero"
       fill-opacity="1"
       id="path27320"
       transform="matrix(0.04464095,0,0,0.04364368,70.143427,0.60010496)" /><path
       clip-path="url(#clip320)"
       d="m 1333.07,1822.22 h -2.03 q 0,-3.51 -0.42,-4.32 -0.45,-0.83 -2.58,-0.83 h -17.68 q -2.44,0 -3.06,0.86 -0.61,0.84 -0.61,4.29 h -2.06 l -0.71,-9.18 h 7.25 q -2.84,-0.93 -5.03,-2.9 -2.22,-2 -2.22,-5.22 0,-2.12 1.19,-3.47 1.2,-1.39 2.84,-1.39 1.45,0 2.19,0.9 0.71,0.87 0.71,1.93 0,1.2 -0.74,2.03 -0.78,0.81 -2.1,0.81 -0.8,0 -1.41,-0.36 -0.65,-0.38 -0.87,-0.67 -0.23,-0.29 -0.29,-0.48 -0.07,0.12 -0.07,0.7 0,3.64 3.64,5.74 3.61,2.06 8.76,2.06 h 10.15 q 1.9,0 2.51,-0.78 0.61,-0.8 0.61,-4.25 v -1.38 h 2.03 q -0.19,2.64 -0.19,8.37 0,0.81 0.03,2.06 0.03,1.26 0.09,2.9 0.07,1.64 0.07,2.58 z"
       fill="#000000"
       fill-rule="nonzero"
       fill-opacity="1"
       id="path27322"
       transform="matrix(0.04464095,0,0,0.04364368,70.143427,0.60010496)" /><path
       clip-path="url(#clip320)"
       d="m 1348.91,1793.27 q -0.32,0 -1.12,-0.84 -10.82,-10.63 -31.21,-10.63 -20.45,0 -30.79,10.21 -1.19,1.26 -1.55,1.26 -0.64,0 -0.64,-0.65 0,-0.45 1.32,-2.03 1.32,-1.61 4.35,-4.02 3.03,-2.45 6.73,-4.25 8.98,-4.35 20.58,-4.35 11.14,0 20.13,4.15 3.77,1.78 6.92,4.26 3.16,2.48 4.54,4.12 1.39,1.64 1.39,2.12 0,0.65 -0.65,0.65 z"
       fill="#000000"
       fill-rule="nonzero"
       fill-opacity="1"
       id="path27324"
       transform="matrix(0.04464095,0,0,0.04364368,70.143427,0.60010496)" /><path
       clip-path="url(#clip320)"
       d="m 1348.62,1750.51 q -0.32,0 -1.03,-0.26 l -62.22,-23.28 q -0.06,0 -0.42,-0.16 -0.35,-0.17 -0.58,-0.26 -0.25,-0.1 -0.45,-0.29 -0.19,-0.23 -0.19,-0.49 0,-0.64 0.8,-0.64 0.07,0 0.84,0.19 l 62.29,23.35 q 1.12,0.39 1.45,0.65 0.32,0.22 0.32,0.61 0,0.58 -0.81,0.58 z"
       fill="#000000"
       fill-rule="nonzero"
       fill-opacity="1"
       id="path27326"
       transform="matrix(0.04464095,0,0,0.04364368,70.143427,0.60010496)" /><path
       clip-path="url(#clip320)"
       d="m 1333.07,1700.41 h -2.03 v -1.57 q 0,-3.58 -0.58,-4.38 -0.61,-0.84 -2.54,-0.84 h -34.75 q -1.9,0 -2.48,0.84 -0.62,0.83 -0.62,4.38 v 1.57 h -2.06 q 0.2,-2.31 0.2,-10.01 0,-8.7 -0.2,-11.08 h 2.06 v 2.19 q 0,3.03 0.39,4.41 0.39,1.39 0.93,1.61 0.52,0.23 1.84,0.23 h 35.17 q 1.71,0 2.19,-0.49 0.45,-0.51 0.45,-2.73 v -5.41 q 0,-3.35 -1,-5.77 -1,-2.41 -2.25,-3.7 -1.26,-1.29 -3.61,-2.13 -2.38,-0.87 -3.9,-1.13 -1.51,-0.29 -4.22,-0.54 v -1.65 l 17.01,1.84 z"
       fill="#000000"
       fill-rule="nonzero"
       fill-opacity="1"
       id="path27328"
       transform="matrix(0.04464095,0,0,0.04364368,70.143427,0.60010496)" /><path
       clip-path="url(#clip320)"
       d="m 1333.07,1642.15 h -2.03 q 0,-3.51 -0.42,-4.31 -0.45,-0.81 -2.58,-0.81 h -17.68 q -2.44,0 -3.06,0.87 -0.61,0.84 -0.61,4.25 h -2.06 l -0.71,-9.27 h 6.93 q -6.93,-3.09 -6.93,-9.76 0,-7.73 6.44,-8.79 -2.51,-1.13 -4.47,-3.48 -1.97,-2.38 -1.97,-6.09 0,-4.96 2.45,-6.92 1.64,-1.45 3.48,-1.74 1.83,-0.29 6.6,-0.29 h 12.59 q 1.39,-0.07 1.71,-1.13 0.29,-1.06 0.29,-4.02 h 2.03 q -0.19,6.73 -0.19,7.37 0,0.52 0.19,7.47 h -2.03 q 0,-3.51 -0.42,-4.31 -0.45,-0.84 -2.58,-0.84 h -15.36 q -3.35,0 -5.31,1.03 -2,1.03 -2,3.87 0,3.41 2.87,6.15 2.86,2.73 7.69,2.73 h 12.11 q 2.13,0 2.58,-0.8 0.42,-0.84 0.42,-4.35 h 2.03 q -0.19,6.73 -0.19,7.41 0,0.51 0.19,7.44 h -2.03 q 0,-3.51 -0.42,-4.32 -0.45,-0.83 -2.58,-0.83 h -15.36 q -3.35,0 -5.31,1.03 -2,1.03 -2,3.86 0,3.41 2.87,6.15 2.86,2.74 7.69,2.74 h 12.11 q 2.13,0 2.58,-0.81 0.42,-0.83 0.42,-4.31 h 2.03 q -0.19,6.73 -0.19,7.37 0,0.52 0.19,7.44 z"
       fill="#000000"
       fill-rule="nonzero"
       fill-opacity="1"
       id="path27330"
       transform="matrix(0.04464095,0,0,0.04364368,70.143427,0.60010496)" /><path
       clip-path="url(#clip320)"
       d="m 1329.53,1582.36 q -4.32,4.35 -10.57,4.35 -6.28,0 -10.85,-4.25 -4.61,-4.28 -4.61,-10.4 0,-5.99 4.58,-10.28 4.54,-4.31 10.88,-4.31 6.22,0 10.53,4.35 4.32,4.31 4.32,10.3 0,5.86 -4.28,10.24 m -11.12,-1.12 q 6.41,0 9.31,-1.68 4.41,-2.58 4.41,-7.5 0,-2.45 -1.32,-4.48 -1.32,-2.06 -3.54,-3.19 -2.9,-1.45 -8.86,-1.45 -6.34,0 -9.14,1.74 -4.29,2.58 -4.29,7.44 0,2.13 1.13,4.22 1.1,2.06 3.29,3.32 2.9,1.58 9.01,1.58 z"
       fill="#000000"
       fill-rule="nonzero"
       fill-opacity="1"
       id="path27332"
       transform="matrix(0.04464095,0,0,0.04364368,70.143427,0.60010496)" /><path
       clip-path="url(#clip320)"
       d="m 1333.07,1554.05 h -2.03 q 0,-3.51 -0.42,-4.32 -0.45,-0.8 -2.58,-0.8 h -34.29 q -2.45,0 -3.06,0.86 -0.62,0.84 -0.62,4.26 h -2.06 l -0.71,-9.47 h 40.74 q 2.13,0 2.58,-0.84 0.42,-0.84 0.42,-4.32 h 2.03 q 0,0.81 -0.07,2.48 -0.06,1.68 -0.09,2.9 -0.03,1.23 -0.03,1.94 0,0.77 0.19,7.31 z"
       fill="#000000"
       fill-rule="nonzero"
       fill-opacity="1"
       id="path27334"
       transform="matrix(0.04464095,0,0,0.04364368,70.143427,0.60010496)" /><path
       clip-path="url(#clip320)"
       d="m 1281.01,1502.06 q 0.27,-0.27 0.65,-0.27 0.39,0 0.66,0.27 0.27,0.27 0.27,0.65 v 28.9 q 0,0.39 -0.27,0.66 -0.27,0.27 -0.66,0.27 -0.38,0 -0.65,-0.27 -0.27,-0.27 -0.27,-0.66 v -28.9 q 0,-0.38 0.27,-0.65 z"
       fill="#000000"
       fill-rule="nonzero"
       fill-opacity="1"
       id="path27336"
       transform="matrix(0.04464095,0,0,0.04364368,70.143427,0.60010496)" /><path
       clip-path="url(#clip320)"
       d="m 1266.85,1496.97 h -1.44 q 0,-5.55 -2.95,-8.41 0,-0.79 0.18,-0.93 0.18,-0.13 1.01,-0.13 h 25.9 q 1.38,0 1.81,-0.68 0.43,-0.67 0.43,-3.63 v -1.46 h 1.42 q -0.14,1.62 -0.14,7.48 0,5.86 0.14,7.46 h -1.42 v -1.46 q 0,-2.91 -0.41,-3.61 -0.43,-0.7 -1.83,-0.7 h -23.91 q 1.21,2.42 1.21,6.07 z"
       fill="#000000"
       fill-rule="nonzero"
       fill-opacity="1"
       id="path27338"
       transform="matrix(0.04464095,0,0,0.04364368,70.143427,0.60010496)" /><polyline
       clip-path="url(#clip321)"
       style="fill:none;stroke:#007e7e;stroke-width:7.99737;stroke-linecap:round;stroke-linejoin:round;stroke-dasharray:none;stroke-opacity:0.731982"
       points="1523.71,1595.36 1524.37,1595.43 1525.1,1595.62 1525.84,1595.96 1526.6,1596.54 1527.36,1597.43 1528.12,1598.61 1528.88,1600.22 1529.65,1602.21 1530.41,1604.73 1531.17,1607.72 1531.94,1611.28 1532.7,1615.43 1533.47,1620.19 1534.24,1625.59 1535,1631.61 1535.77,1638.17 1536.53,1645.39 1537.3,1653.34 1538.07,1661.73 1538.83,1670.68 1539.6,1680.04 1540.36,1689.93 1541.13,1700.19 1541.9,1710.71 1542.66,1721.61 1543.43,1732.63 1544.2,1743.63 1544.96,1754.31 1545.73,1764.78 1546.5,1774.76 1547.26,1784.41 1548.03,1793.79 1548.79,1802.9 1549.56,1811.69 1550.33,1820.17 1551.09,1828.41 1551.86,1836.44 1552.63,1844.26 1553.39,1851.9 1554.16,1859.4 1554.93,1866.71 1555.69,1873.86 1556.46,1880.92 1557.23,1888.05 1557.99,1894.94 1558.76,1901.85 1559.53,1908.65 1560.29,1915.49 1561.06,1922.24 1561.83,1928.93 1562.59,1935.54 1563.36,1942.17 1564.13,1948.76 1564.89,1955.39 1565.66,1961.93 1566.43,1968.44 1567.19,1974.95 1567.96,1981.44 1568.73,1987.89 1569.49,1994.39 1570.26,2000.88 1571.03,2007.31 1571.79,2013.76 1572.56,2020.16 1573.33,2026.48 1574.09,2032.81 1574.86,2039.12 1575.62,2045.43 1576.39,2051.69 1577.16,2057.85 1577.92,2063.82 1578.69,2069.62 1579.46,2074.87 1580.22,2079.34 1580.99,2082.74 1581.76,2084.97 1582.52,2085.37 1583.29,2084.08 1584.06,2080.7 1584.82,2075.13 1585.59,2067.57 1586.36,2058.81 1587.12,2049.13 1587.89,2039.64 1588.66,2030.53 1589.42,2022.98 1590.19,2017.66 1590.96,2013.92 1591.72,2012.71 1592.49,2013.09 1593.26,2015.16 1594.02,2018.13 1594.79,2022 1595.56,2026.18 1596.32,2030.61 1597.09,2034.71 1597.86,2038.58 1598.62,2041.92 1599.39,2044.42 1600.16,2046.27 1600.92,2046.85 1601.69,2045.97 1602.46,2043.97 1603.22,2040.94 1603.99,2036.99 1604.76,2031.75 1605.52,2024.98 1606.29,2017.73 1607.06,2008.36 1607.82,1998.2 1608.59,1987.12 1609.36,1975.19 1610.12,1962.52 1610.89,1948.96 1611.66,1934.82 1612.42,1920.13 1613.19,1905.52 1613.96,1890.53 1614.72,1874.98 1615.49,1859.25 1616.26,1843.81 1617.02,1828.93 1617.79,1814.5 1618.56,1800.1 1619.32,1786.12 1620.09,1772.93 1620.86,1759.78 1621.62,1747.92 1622.39,1736.86 1623.16,1726.54 1623.92,1716.95 1624.69,1708.04 1625.46,1699.89 1626.22,1691.8 1626.99,1684.92 1627.76,1678.45 1628.52,1672.99 1629.29,1668.16 1630.06,1663.15 1630.82,1659.47 1631.59,1656.07 1632.36,1653.29 1633.12,1650.59 1633.89,1648.11 1634.66,1646.17 1635.42,1644.66 1636.19,1643.51 1636.96,1642.88 1637.72,1642.68 1638.49,1642.56 1639.26,1642.56 1640.02,1642.76 1640.79,1643.14 1641.56,1643.91 1642.32,1645.2 1643.09,1646.76 1643.86,1648.6 1644.62,1650.55 1645.39,1652.56 1646.16,1654.69 1646.92,1657.07 1647.69,1659.71 1648.46,1662.28 1649.22,1665.12 1649.99,1668.18 1650.76,1671.22 1651.52,1674.31 1652.29,1677.54 1653.06,1680.96 1653.82,1683.78 1654.59,1687.18 1655.36,1691.03 1656.12,1694.5 1656.89,1698.42 1657.66,1702.41 1658.42,1706.34 1659.19,1709.96 1659.96,1713.98 1660.72,1718.02 1661.49,1722.36 1662.26,1726.83 1663.02,1731.33 1663.79,1735.67 1664.56,1740.05 1665.32,1744.37 1666.09,1748.6 1666.86,1753.31 1667.62,1758.02 1668.39,1762.77 1669.16,1767.46 1669.92,1772.27 1670.69,1777.19 1671.46,1781.67 1672.22,1786.68 1672.99,1791.06 1673.76,1795.69 1674.52,1800.47 1675.29,1805.06 1676.06,1810.01 1676.82,1814.49 1677.59,1819.17 1678.36,1823.93 1679.12,1828.44 1679.89,1832.98 1680.66,1837.27 1681.42,1841.65 1682.19,1845.82 1682.96,1850.36 1683.72,1854.98 1684.49,1859.42 1685.26,1863.89 1686.02,1868.14 1686.79,1872.62 1687.56,1876.94 1688.32,1881.11 1689.09,1884.8 1689.86,1888.5 1690.62,1892.35 1691.39,1895.92 1692.16,1899.66 1692.92,1903.34 1693.69,1906.92 1694.45,1910.47 1695.22,1913.66 1695.99,1916.92 1696.75,1920.04 1697.52,1923.06 1698.29,1926.08 1699.05,1928.95 1699.82,1931.45 1700.59,1934.07 1701.35,1936.44 1702.12,1939.08 1702.89,1941.42 1703.65,1943.62 1704.42,1945.64 1705.19,1947.96 1705.95,1950.05 1706.72,1951.74 1707.49,1954.18 1708.25,1956.11 1709.02,1957.56 1709.79,1958.93 1710.55,1960.51 1711.32,1961.79 1712.09,1962.82 1712.85,1963.84 1713.62,1965.07 1714.39,1965.74 1715.15,1966.48 1715.92,1967.01 1716.69,1967.19 1717.45,1967.23 1718.22,1967.21 1718.99,1967.2 1719.75,1967.17 1720.52,1967.27 1721.29,1967.1 1722.05,1966.16 1722.82,1965.87 1723.59,1965.45 1724.35,1964.76 1725.12,1963.93 1725.89,1962.85 1726.65,1961.97 1727.42,1960.79 1728.19,1959.67 1728.95,1958.07 1729.72,1957.1 1730.49,1954.92 1731.25,1952.9 1732.02,1950.75 1732.79,1948.99 1733.55,1946.96 1734.32,1944.56 1735.09,1942.57 1735.85,1940.17 1736.62,1937.37 1737.39,1935.05 1738.15,1932.23 1738.92,1928.91 1739.69,1925.82 1740.45,1922.4 1741.22,1919.19 1741.99,1915.04 1742.75,1911.61 1743.52,1907.68 1744.29,1903.89 1745.05,1899.58 1745.82,1895.22 1746.59,1891.54 1747.35,1887.06 1748.12,1882.43 1748.89,1877.93 1749.65,1873.68 1750.42,1868.85 1751.19,1864.79 1751.95,1859.39 1752.72,1854.16 1753.49,1849.59 1754.25,1845.24 1755.02,1840.25 1755.79,1835.13 1756.55,1829.95 1757.32,1825.2 1758.09,1819.99 1758.85,1815.49 1759.62,1810.44 1760.39,1805.04 1761.15,1800.05 1761.92,1795.15 1762.69,1789.94 1763.45,1785.2 1764.22,1780.43 1764.99,1776 1765.75,1771.13 1766.52,1766.39 1767.29,1761.77 1768.05,1757.16 1768.82,1752.68 1769.59,1747.74 1770.35,1743.6 1771.12,1738.9 1771.89,1734.64 1772.65,1730.26 1773.42,1726.21 1774.19,1721.66 1774.95,1718.06 1775.72,1714.32 1776.49,1709.84 1777.25,1706.75 1778.02,1703.46 1778.79,1699.96 1779.55,1696.2 1780.32,1692.91 1781.09,1689.01 1781.85,1685.8 1782.62,1682.16 1783.39,1679.02 1784.15,1675.98 1784.92,1672.69 1785.69,1669.79 1786.45,1666.69 1787.22,1664.16 1787.99,1661.26 1788.75,1658.74 1789.52,1656.4 1790.29,1654.43 1791.05,1652.38 1791.82,1649.72 1792.59,1647.49 1793.35,1645.02 1794.12,1642.33 1794.89,1639.88 1795.65,1637.61 1796.42,1635.25 1797.19,1632.4 1797.95,1630.24 1798.72,1628.31 1799.49,1626.64 1800.25,1625.15 1801.02,1623.14 1801.79,1621.35 1802.55,1619.85 1803.32,1617.88 1804.09,1616.18 1804.85,1615.63 1805.62,1613.92 1806.39,1612.68 1807.15,1611.23 1807.92,1609.98 1808.69,1609.29 1809.45,1608.65 1810.22,1607.72 1810.99,1606.82 1811.75,1606.23 1812.52,1605.65 1813.29,1604.88 1814.05,1604.29 1814.82,1603.37 1815.59,1603.14 1816.35,1602.43 1817.12,1601.84 1817.89,1601.9 1818.65,1602.28 1819.42,1602.62 1820.19,1602.86 1820.95,1602.18 1821.72,1602.21 1822.49,1602.67 1823.25,1603.18 1824.02,1603.96 1824.79,1604.45 1825.55,1605.53 1826.32,1606.05 1827.09,1606.01 1827.85,1607.78 1828.62,1608.82 1829.39,1609.4 1830.15,1610.22 1830.92,1611.3 1831.69,1612.29 1832.45,1613.56 1833.22,1614.93 1833.99,1616.28 1834.75,1618.19 1835.52,1619.53 1836.29,1621.15 1837.05,1622.85 1837.82,1624.41 1838.59,1625.68 1839.35,1627.25 1840.12,1628.8 1840.89,1630.47 1841.65,1632.05 1842.42,1633.69 1843.19,1635.45 1843.95,1637.54 1844.72,1640.05 1845.49,1642.1 1846.25,1644.66 1847.02,1646.79 1847.79,1648.91 1848.55,1650.9 1849.32,1653.14 1850.09,1655.56 1850.85,1657.2 1851.62,1658.58 1852.39,1660.93 1853.15,1663.02 1853.92,1664.77 1854.69,1666.4 1855.45,1668.71 1856.22,1671.15 1856.99,1673.56 1857.75,1676.26 1858.52,1678.72 1859.29,1681.3 1860.05,1684.01 1860.82,1686.7 1861.59,1688.98 1862.35,1690.98 1863.12,1692.88 1863.89,1694.73 1864.65,1697.19 1865.42,1698.68 1866.19,1700.19 1866.95,1702.05 1867.72,1703.46 1868.49,1705.76 1869.25,1706.97 1870.02,1708.34 1870.79,1709.86 1871.55,1711.41 1872.32,1712.99 1873.09,1714.65 1873.85,1716.18 1874.62,1717.48 1875.39,1718.68 1876.15,1719.77 1876.92,1720.71 1877.69,1722.04 1878.45,1722.77 1879.22,1723.42 1879.99,1724.23 1880.75,1725.14 1881.52,1725.45 1882.29,1725.62 1883.05,1725.9 1883.82,1725.95 1884.59,1725.46 1885.35,1725.06 1886.12,1725.2 1886.89,1725.23 1887.65,1724.54 1888.42,1724.07 1889.19,1724.19 1889.95,1723.57 1890.72,1722.77 1891.49,1721.5 1892.25,1720.38 1893.02,1720.14 1893.79,1718.96 1894.55,1718.16 1895.32,1716.42 1896.09,1715.13 1896.85,1714.12 1897.62,1713.02 1898.39,1710.84 1899.15,1708.71 1899.92,1707.13 1900.69,1704.67 1901.45,1702.52 1902.22,1699.72 1902.99,1698.14 1903.75,1695.41 1904.52,1693.87 1905.29,1691.82 1906.05,1688.79 1906.82,1685.83 1907.59,1683.58 1908.35,1680.47 1909.12,1677.86 1909.89,1675.11 1910.65,1672.35 1911.42,1668.89 1912.19,1665.88 1912.95,1662.25 1913.72,1659.75 1914.49,1655.97 1915.25,1652.29 1916.02,1648.74 1916.79,1645.53 1917.55,1641.59 1918.32,1638.27 1919.09,1634.97 1919.85,1631.25 1920.62,1627.35 1921.39,1623.55 1922.15,1619.96 1922.92,1615.56 1923.69,1611.46 1924.45,1608.16 1925.22,1604.46 1925.99,1600.07 1926.75,1595.89 1927.52,1591.82 1928.29,1587.74 1929.05,1583.96 1929.82,1579.27 1930.59,1575.4 1931.35,1571.76 1932.12,1567.95 1932.89,1564 1933.65,1560.65 1934.42,1556.75 1935.18,1552.89 1935.95,1549.2 1936.72,1545.31 1937.48,1542.03 1938.25,1537.37 1939.02,1533.15 1939.78,1528.66 1940.55,1524.98 1941.32,1521.12 1942.08,1517.17 1942.85,1513.53 1943.62,1510.24 1944.38,1505.41 1945.15,1502.43 1945.92,1497.97 1946.68,1493.46 1947.45,1489.65 1948.22,1486.26 1948.98,1482.7 1949.75,1479.24 1950.52,1475.15 1951.28,1471.5 1952.05,1468.31 1952.82,1464.71 1953.58,1461.5 1954.35,1457.75 1955.12,1455.1 1955.88,1451.74 1956.65,1448.39 1957.42,1445.29 1958.18,1441.62 1958.95,1438.91 1959.72,1435.67 1960.48,1433.04 1961.25,1431.36 1962.02,1429.14 1962.78,1425.59 1963.55,1423.49 1964.32,1420.99 1965.08,1418.35 1965.85,1416.39 1966.62,1414.18 1967.38,1411.31 1968.15,1409.04 1968.92,1407.02 1969.68,1405.21 1970.45,1403.53 1971.22,1401.76 1971.98,1399.44 1972.75,1397.42 1973.52,1396.19 1974.28,1394.5 1975.05,1393.15 1975.82,1391.91 1976.58,1390.78 1977.35,1389.19 1978.12,1387.96 1978.88,1386.9 1979.65,1386.09 1980.42,1385.3 1981.18,1384.68 1981.95,1384.03 1982.72,1383.04 1983.48,1382.16 1984.25,1381.76 1985.02,1381.77 1985.78,1381.91 1986.55,1380.56 1987.32,1380.87 1988.08,1380.95 1988.85,1380.92 1989.62,1381.65 1990.38,1381.87 1991.15,1381.99 1991.92,1382.66 1992.68,1382.66 1993.45,1382.59 1994.22,1383.41 1994.98,1384.05 1995.75,1384.74 1996.52,1385.57 1997.28,1385.69 1998.05,1387.19 1998.82,1388.06 1999.58,1388.48 2000.35,1389.98 2001.12,1390.88 2001.88,1391.81 2002.65,1393.69 2003.42,1395.28 2004.18,1396.77 2004.95,1398.11 2005.72,1398.92 2006.48,1400.3 2007.25,1401.25 2008.02,1402.92 2008.78,1404.69 2009.55,1406.01 2010.32,1407.48 2011.08,1408.36 2011.85,1409.92 2012.62,1411.13 2013.38,1412.61 2014.15,1413.33 2014.92,1414.98 2015.68,1416.34 2016.45,1417.68 2017.22,1418.68 2017.98,1420.42 2018.75,1422.11 2019.52,1423.75 2020.28,1425.1 2021.05,1427.08 2021.82,1428.64 2022.58,1430.46 2023.35,1431.35 2024.12,1433.21 2024.88,1434.8 2025.65,1436.08 2026.42,1437.58 2027.18,1439.14 2027.95,1440.66 2028.72,1442.52 2029.48,1443.83 2030.25,1445.68 2031.02,1447.53 2031.78,1449.11 2032.55,1450.92 2033.32,1452.62 2034.08,1453.61 2034.85,1455 2035.62,1456.03 2036.38,1456.47 2037.15,1457.54 2037.92,1458.32 2038.68,1459.53 2039.45,1460.57 2040.22,1461.69 2040.98,1462.77 2041.75,1463.25 2042.52,1463.48 2043.28,1464.25 2044.05,1465.68 2044.82,1466.54 2045.58,1467.6 2046.35,1468.62 2047.12,1469.85 2047.88,1471.52 2048.65,1471.53 2049.42,1473.06 2050.18,1473.52 2050.95,1474.81 2051.72,1475.17 2052.48,1475.75 2053.25,1476.75 2054.02,1476.55 2054.78,1477.1 2055.55,1476.78 2056.32,1477.14 2057.08,1477.36 2057.85,1477.49 2058.62,1477.41 2059.38,1478.3 2060.15,1477.88 2060.92,1477.56 2061.68,1477.12 2062.45,1476.67 2063.22,1476.5 2063.98,1476.13 2064.75,1476.73 2065.52,1476.55 2066.28,1476.44 2067.05,1476.49 2067.82,1475.94 2068.58,1475.52 2069.35,1475.2 2070.12,1474.89 2070.88,1474.75 2071.65,1473.56 2072.42,1472.55 2073.18,1471.55 2073.95,1470.22 2074.72,1469.23 2075.48,1469.38 2076.25,1468.36 2077.02,1467.08 2077.78,1466.06 2078.55,1464.85 2079.32,1463.62 2080.08,1462.32 2080.85,1460.37 2081.62,1459.38 2082.38,1457.79 2083.15,1456.27 2083.92,1456.19 2084.68,1455.49 2085.45,1454.5 2086.22,1452.8 2086.98,1452.84 2087.75,1451.52 2088.52,1450.74 2089.28,1449.18 2090.05,1448.39 2090.82,1447.84 2091.58,1447.4 2092.35,1446.25 2093.12,1444.53 2093.88,1443.34 2094.65,1442.07 2095.42,1439.94 2096.18,1438.06 2096.95,1435.65 2097.72,1434.32 2098.48,1432.94 2099.25,1432.34 2100.02,1431.03 2100.78,1429.85 2101.55,1427.61 2102.32,1426.19 2103.08,1425.16 2103.85,1424.26 2104.62,1423.48 2105.38,1422.73 2106.15,1421.67 2106.92,1420.2 2107.68,1419.38 2108.45,1418.25 2109.22,1417.04 2109.98,1416.07 2110.75,1414.19 2111.52,1412.43 2112.28,1412.08 2113.05,1410.97 2113.82,1410.25 2114.58,1409.29 2115.35,1408.19 2116.12,1407.95 2116.88,1406.84 2117.65,1405.27 2118.42,1404.12 2119.18,1402.59 2119.95,1401.79 2120.72,1401.08 2121.48,1400.56 2122.25,1399.2 2123.02,1398.43 2123.78,1396.86 2124.55,1396.01 2125.32,1394.9 2126.08,1395.4 2126.85,1393.86 2127.62,1392.68 2128.38,1391.38 2129.15,1390.81 2129.92,1390.81 2130.68,1389.47 2131.45,1389.43 2132.22,1388.75 2132.98,1388.61 2133.75,1388.52 2134.52,1388.31 2135.28,1388.24 2136.05,1388.06 2136.82,1386.4 2137.58,1385.83 2138.35,1385.64 2139.12,1385.97 2139.88,1385.91 2140.65,1385.5 2141.42,1385.59 2142.18,1385.7 2142.95,1385.35 2143.72,1385.48 2144.48,1386.12 2145.25,1386.71 2146.02,1386.28 2146.78,1385.95 2147.55,1385.76 2148.32,1386.43 2149.08,1387.4 2149.85,1387.29 2150.62,1387.88 2151.38,1388.04 2152.15,1387.77 2152.92,1387.7 2153.68,1388.05 2154.45,1388.72 2155.22,1390.37 2155.98,1391.41 2156.75,1391.28 2157.52,1391.69 2158.28,1391.48 2159.05,1391.52 2159.82,1391.71 2160.58,1392.25 2161.35,1392.82 2162.12,1393.37 2162.88,1393.24 2163.65,1393.54 2164.42,1394.56 2165.18,1395.19 2165.95,1396.25 2166.72,1396.27 2167.48,1397.69 2168.25,1399.42 2169.02,1399.37 2169.78,1400.01 2170.55,1400.87 2171.32,1402.54 2172.08,1402.8 2172.85,1403.41 2173.62,1403.81 2174.38,1404.47 2175.15,1405.02 2175.92,1406.14 2176.68,1407.1 2177.45,1408.07 2178.22,1408.55 2178.98,1408.29 2179.75,1410.31 2180.52,1410.79 2181.28,1411.24 2182.05,1412.61 2182.82,1412.93 2183.58,1413.21 2184.35,1413.65 2185.12,1415.04 2185.88,1415.21 2186.65,1415.38 2187.42,1416.23 2188.18,1417.15 2188.95,1417.62 2189.72,1419.19 2190.48,1419.3 2191.25,1419.93 2192.02,1421.01 2192.78,1421.42 2193.55,1422.56 2194.32,1424.18 2195.08,1425.66 2195.85,1426.03 2196.62,1427.25 2197.38,1428.06 2198.15,1428.65 2198.92,1429.28 2199.68,1429.68 2200.45,1429.51 2201.22,1430.64 2201.98,1430.43 2202.75,1430.65 2203.52,1431.2 2204.28,1431.27 2205.05,1432.33 2205.81,1432.25 2206.58,1432.76 2207.35,1434.13 2208.11,1434.31 2208.88,1433.56 2209.65,1433.41 2210.41,1434.44 2211.18,1434.46 2211.95,1434.86 2212.71,1435.51 2213.48,1435.82 2214.25,1436.24 2215.01,1437.26 2215.78,1437.52 2216.55,1436.92 2217.31,1437.01 2218.08,1437.78 2218.85,1437.86 2219.61,1438.19 2220.38,1437.81 2221.15,1439.71 2221.91,1440.01 2222.68,1439.22 2223.45,1439.32 2224.21,1439.55 2224.98,1438.87 2225.75,1437.83 2226.51,1437.46 2227.28,1436.49 2228.05,1435.4 2228.81,1435.02 2229.58,1434.95 2230.35,1433.83 2231.11,1434.18 2231.88,1433.68 2232.65,1432.71 2233.41,1432.03 2234.18,1430.94 2234.95,1429.25 2235.71,1428.43 2236.48,1427.19 2237.25,1426.39 2238.01,1424.81 2238.78,1422.88 2239.55,1423.06 2240.31,1421.62 2241.08,1420.55 2241.85,1419.68 2242.61,1418.77 2243.38,1416.94 2244.15,1416.56 2244.91,1415.86 2245.68,1415.16 2246.45,1414.44 2247.21,1414.01 2247.98,1413.38 2248.75,1412.68 2249.51,1410.59 2250.28,1410.11 2251.05,1408.28 2251.81,1407.46 2252.58,1407.46 2253.35,1406.48 2254.11,1404.67 2254.88,1402.88 2255.65,1401.17 2256.41,1400.07 2257.18,1398.79 2257.95,1397.16 2258.71,1395.82 2259.48,1394.06 2260.25,1391.84 2261.01,1390.11 2261.78,1387.89 2262.55,1387.34 2263.31,1386.34 2264.08,1385.09 2264.85,1382.63 2265.61,1379.53 2266.38,1379.32 2267.15,1377.14 2267.91,1376.36 2268.68,1374.78 2269.45,1373.52 2270.21,1371.71 2270.98,1370.35 2271.75,1369.01 2272.51,1367.68 2273.28,1364.59 2274.05,1362.08 2274.81,1359.98 2275.58,1358.58 2276.35,1358.07 2277.11,1356.84 2277.88,1355.61 2278.65,1353.36 2279.41,1351.88 2280.18,1350.94 2280.95,1348.73 2281.71,1346.58 2282.48,1344.28 2283.25,1342.77 2284.01,1343.28 2284.78,1342.26 2285.55,1341.7 2286.31,1339.48 2287.08,1337.93 2287.85,1336.68 2288.61,1334.81 2289.38,1332.81 "
       id="polyline27340"
       transform="matrix(0.04464095,0,0,0.04364368,70.143427,0.60010496)" /><polyline
       clip-path="url(#clip321)"
       style="fill:none;stroke:#a8a8ff;stroke-width:8;stroke-linecap:round;stroke-linejoin:round;stroke-opacity:1"
       points="1523.71,1595.36 1524.37,1595.36 1525.1,1595.36 1525.84,1595.36 1526.6,1595.36 1527.36,1595.36 1528.12,1595.36 1528.88,1595.36 1529.65,1595.37 1530.41,1595.37 1531.17,1595.37 1531.94,1595.38 1532.7,1595.39 1533.47,1595.4 1534.24,1595.41 1535,1595.41 1535.77,1595.43 1536.53,1595.44 1537.3,1595.45 1538.07,1595.47 1538.83,1595.49 1539.6,1595.51 1540.36,1595.53 1541.13,1595.55 1541.9,1595.58 1542.66,1595.61 1543.43,1595.64 1544.2,1595.68 1544.96,1595.71 1545.73,1595.75 1546.5,1595.8 1547.26,1595.84 1548.03,1595.89 1548.79,1595.94 1549.56,1596 1550.33,1596.05 1551.09,1596.1 1551.86,1596.17 1552.63,1596.24 1553.39,1596.3 1554.16,1596.37 1554.93,1596.46 1555.69,1596.53 1556.46,1596.62 1557.23,1596.72 1557.99,1596.81 1558.76,1596.9 1559.53,1597 1560.29,1597.11 1561.06,1597.22 1561.83,1597.34 1562.59,1597.45 1563.36,1597.57 1564.13,1597.7 1564.89,1597.83 1565.66,1597.97 1566.43,1598.11 1567.19,1598.25 1567.96,1598.4 1568.73,1598.57 1569.49,1598.73 1570.26,1598.9 1571.03,1599.08 1571.79,1599.27 1572.56,1599.45 1573.33,1599.64 1574.09,1599.84 1574.86,1600.04 1575.62,1600.24 1576.39,1600.46 1577.16,1600.68 1577.92,1600.9 1578.69,1601.14 1579.46,1601.39 1580.22,1601.63 1580.99,1601.89 1581.76,1602.15 1582.52,1602.42 1583.29,1602.69 1584.06,1602.97 1584.82,1603.26 1585.59,1603.53 1586.36,1603.83 1587.12,1604.14 1587.89,1604.46 1588.66,1604.79 1589.42,1605.12 1590.19,1605.47 1590.96,1605.81 1591.72,1606.18 1592.49,1606.55 1593.26,1606.92 1594.02,1607.31 1594.79,1607.72 1595.56,1608.13 1596.32,1608.52 1597.09,1608.94 1597.86,1609.37 1598.62,1609.81 1599.39,1610.25 1600.16,1610.7 1600.92,1611.15 1601.69,1611.62 1602.46,1612.1 1603.22,1612.57 1603.99,1613.07 1604.76,1613.57 1605.52,1614.08 1606.29,1614.6 1607.06,1615.13 1607.82,1615.68 1608.59,1616.24 1609.36,1616.81 1610.12,1617.37 1610.89,1617.97 1611.66,1618.56 1612.42,1619.18 1613.19,1619.79 1613.96,1620.41 1614.72,1621.05 1615.49,1621.71 1616.26,1622.36 1617.02,1623.03 1617.79,1623.71 1618.56,1624.4 1619.32,1625.09 1620.09,1625.82 1620.86,1626.54 1621.62,1627.25 1622.39,1628.01 1623.16,1628.77 1623.92,1629.53 1624.69,1630.32 1625.46,1631.11 1626.22,1631.92 1626.99,1632.75 1627.76,1633.59 1628.52,1634.43 1629.29,1635.29 1630.06,1636.17 1630.82,1637.06 1631.59,1637.95 1632.36,1638.87 1633.12,1639.77 1633.89,1640.67 1634.66,1641.62 1635.42,1642.56 1636.19,1643.54 1636.96,1644.53 1637.72,1645.49 1638.49,1646.51 1639.26,1647.5 1640.02,1648.52 1640.79,1649.52 1641.56,1650.56 1642.32,1651.6 1643.09,1652.66 1643.86,1653.71 1644.62,1654.73 1645.39,1655.79 1646.16,1656.86 1646.92,1657.91 1647.69,1658.96 1648.46,1660 1649.22,1660.99 1649.99,1661.95 1650.76,1662.96 1651.52,1663.88 1652.29,1664.86 1653.06,1665.79 1653.82,1666.73 1654.59,1667.7 1655.36,1668.69 1656.12,1669.51 1656.89,1670.36 1657.66,1671.19 1658.42,1671.98 1659.19,1672.75 1659.96,1673.44 1660.72,1674.12 1661.49,1674.75 1662.26,1675.41 1663.02,1676.1 1663.79,1676.58 1664.56,1677.14 1665.32,1677.73 1666.09,1678.22 1666.86,1678.8 1667.62,1679.35 1668.39,1679.84 1669.16,1680.42 1669.92,1680.81 1670.69,1681.28 1671.46,1681.83 1672.22,1682.19 1672.99,1682.72 1673.76,1683.07 1674.52,1683.65 1675.29,1684.09 1676.06,1684.54 1676.82,1685.19 1677.59,1685.89 1678.36,1686.68 1679.12,1687.16 1679.89,1687.88 1680.66,1688.51 1681.42,1689.22 1682.19,1690.08 1682.96,1690.72 1683.72,1691.5 1684.49,1692.16 1685.26,1692.94 1686.02,1693.66 1686.79,1694.37 1687.56,1695.29 1688.32,1696.15 1689.09,1696.93 1689.86,1697.69 1690.62,1698.51 1691.39,1699.5 1692.16,1700.41 1692.92,1701.29 1693.69,1702.2 1694.45,1703.08 1695.22,1704.03 1695.99,1704.81 1696.75,1705.69 1697.52,1706.7 1698.29,1707.6 1699.05,1708.56 1699.82,1709.56 1700.59,1710.27 1701.35,1711.11 1702.12,1712.06 1702.89,1712.97 1703.65,1713.81 1704.42,1714.69 1705.19,1715.45 1705.95,1716.23 1706.72,1716.95 1707.49,1717.69 1708.25,1718.35 1709.02,1718.93 1709.79,1719.5 1710.55,1720.28 1711.32,1720.82 1712.09,1721.47 1712.85,1721.95 1713.62,1722.48 1714.39,1723.04 1715.15,1723.53 1715.92,1724.06 1716.69,1724.42 1717.45,1724.77 1718.22,1725.12 1718.99,1725.75 1719.75,1726.12 1720.52,1726.28 1721.29,1726.39 1722.05,1726.61 1722.82,1726.7 1723.59,1726.79 1724.35,1726.9 1725.12,1727.16 1725.89,1727.05 1726.65,1727.07 1727.42,1726.82 1728.19,1726.8 1728.95,1726.8 1729.72,1726.5 1730.49,1726.17 1731.25,1725.88 1732.02,1725.78 1732.79,1725.72 1733.55,1725.44 1734.32,1725.16 1735.09,1724.94 1735.85,1724.8 1736.62,1724.68 1737.39,1724.65 1738.15,1724.73 1738.92,1724.75 1739.69,1724.81 1740.45,1724.76 1741.22,1725.18 1741.99,1725.17 1742.75,1725.49 1743.52,1725.75 1744.29,1725.92 1745.05,1726.33 1745.82,1726.44 1746.59,1726.83 1747.35,1727.35 1748.12,1727.66 1748.89,1728.41 1749.65,1729.24 1750.42,1729.84 1751.19,1730.74 1751.95,1731.44 1752.72,1732.36 1753.49,1733.04 1754.25,1734.03 1755.02,1735.05 1755.79,1735.89 1756.55,1736.85 1757.32,1738.03 1758.09,1739.33 1758.85,1740.4 1759.62,1741.48 1760.39,1742.81 1761.15,1743.97 1761.92,1745.17 1762.69,1746.33 1763.45,1747.75 1764.22,1749.08 1764.99,1750.3 1765.75,1751.62 1766.52,1753.21 1767.29,1754.75 1768.05,1756.29 1768.82,1757.6 1769.59,1759 1770.35,1760.71 1771.12,1761.9 1771.89,1763.33 1772.65,1764.73 1773.42,1766.28 1774.19,1767.54 1774.95,1768.81 1775.72,1770.08 1776.49,1771.3 1777.25,1772.62 1778.02,1773.96 1778.79,1775.09 1779.55,1776.34 1780.32,1777.73 1781.09,1779.21 1781.85,1780.29 1782.62,1781.45 1783.39,1782.69 1784.15,1783.67 1784.92,1784.87 1785.69,1785.98 1786.45,1787.14 1787.22,1788.41 1787.99,1789.56 1788.75,1790.7 1789.52,1791.75 1790.29,1792.6 1791.05,1793.69 1791.82,1794.61 1792.59,1795.9 1793.35,1796.82 1794.12,1797.67 1794.89,1798.43 1795.65,1799.21 1796.42,1799.94 1797.19,1800.78 1797.95,1801.53 1798.72,1802.61 1799.49,1803.53 1800.25,1804.14 1801.02,1804.91 1801.79,1805.58 1802.55,1806.33 1803.32,1807.13 1804.09,1807.62 1804.85,1808.48 1805.62,1809.16 1806.39,1810.12 1807.15,1810.9 1807.92,1811.59 1808.69,1812.26 1809.45,1812.8 1810.22,1813.6 1810.99,1814.3 1811.75,1815.03 1812.52,1815.43 1813.29,1816.01 1814.05,1816.59 1814.82,1816.89 1815.59,1817.46 1816.35,1817.72 1817.12,1818.19 1817.89,1818.42 1818.65,1818.81 1819.42,1819.13 1820.19,1819.75 1820.95,1820.22 1821.72,1820.05 1822.49,1820.55 1823.25,1820.84 1824.02,1821.06 1824.79,1821.46 1825.55,1821.47 1826.32,1821.81 1827.09,1822.07 1827.85,1822.52 1828.62,1822.64 1829.39,1822.9 1830.15,1823.43 1830.92,1823.59 1831.69,1824.03 1832.45,1824.18 1833.22,1824.37 1833.99,1824.48 1834.75,1824.41 1835.52,1824.91 1836.29,1824.76 1837.05,1825 1837.82,1824.95 1838.59,1824.86 1839.35,1824.71 1840.12,1824.79 1840.89,1824.82 1841.65,1825.3 1842.42,1825.03 1843.19,1825.17 1843.95,1825.12 1844.72,1825.17 1845.49,1825.05 1846.25,1824.76 1847.02,1824.67 1847.79,1824.71 1848.55,1824.65 1849.32,1824.55 1850.09,1824.51 1850.85,1824.62 1851.62,1824.09 1852.39,1823.8 1853.15,1823.62 1853.92,1823.5 1854.69,1822.98 1855.45,1822.45 1856.22,1822.41 1856.99,1822.25 1857.75,1821.83 1858.52,1821.58 1859.29,1821.2 1860.05,1820.99 1860.82,1820.8 1861.59,1820.42 1862.35,1819.86 1863.12,1819.17 1863.89,1818.43 1864.65,1817.94 1865.42,1817.76 1866.19,1817.24 1866.95,1816.5 1867.72,1816.15 1868.49,1815.9 1869.25,1815.39 1870.02,1815 1870.79,1814.53 1871.55,1814.21 1872.32,1813.59 1873.09,1813.23 1873.85,1812.59 1874.62,1812.04 1875.39,1811.48 1876.15,1810.77 1876.92,1810.2 1877.69,1809.14 1878.45,1808.3 1879.22,1807.58 1879.99,1806.41 1880.75,1805.71 1881.52,1805.01 1882.29,1804.25 1883.05,1803.48 1883.82,1802.52 1884.59,1801.8 1885.35,1801.2 1886.12,1800.39 1886.89,1799.85 1887.65,1799.3 1888.42,1798.31 1889.19,1797.22 1889.95,1796.42 1890.72,1795.89 1891.49,1795.32 1892.25,1794.28 1893.02,1793.59 1893.79,1792.85 1894.55,1791.97 1895.32,1791.19 1896.09,1790.15 1896.85,1789.65 1897.62,1788.74 1898.39,1787.92 1899.15,1787.36 1899.92,1786.57 1900.69,1785.27 1901.45,1784.54 1902.22,1783.66 1902.99,1783.01 1903.75,1782.33 1904.52,1781.46 1905.29,1780.7 1906.05,1779.95 1906.82,1779.38 1907.59,1778.28 1908.35,1777.38 1909.12,1776.75 1909.89,1775.82 1910.65,1775.06 1911.42,1774.5 1912.19,1773.48 1912.95,1773.24 1913.72,1772.27 1914.49,1771.91 1915.25,1771.38 1916.02,1770.33 1916.79,1769.21 1917.55,1768.28 1918.32,1767.55 1919.09,1767.21 1919.85,1766.72 1920.62,1766.55 1921.39,1766.25 1922.15,1766.18 1922.92,1765.84 1923.69,1765.43 1924.45,1764.79 1925.22,1764.49 1925.99,1763.68 1926.75,1763.06 1927.52,1763.22 1928.29,1763.29 1929.05,1762.76 1929.82,1762.59 1930.59,1762.49 1931.35,1762 1932.12,1761.62 1932.89,1761.26 1933.65,1761.35 1934.42,1760.93 1935.18,1760.81 1935.95,1760.65 1936.72,1760.14 1937.48,1760.06 1938.25,1759.73 1939.02,1759.77 1939.78,1759.5 1940.55,1759.72 1941.32,1759.74 1942.08,1759.81 1942.85,1759.81 1943.62,1759.63 1944.38,1759.7 1945.15,1759.41 1945.92,1759.46 1946.68,1759.28 1947.45,1759.11 1948.22,1758.86 1948.98,1758.72 1949.75,1758.32 1950.52,1758.19 1951.28,1758.15 1952.05,1758.07 1952.82,1758.35 1953.58,1758.39 1954.35,1758.34 1955.12,1758.32 1955.88,1758.18 1956.65,1758.11 1957.42,1758.49 1958.18,1758.62 1958.95,1758.38 1959.72,1758.63 1960.48,1758.41 1961.25,1758.72 1962.02,1758.27 1962.78,1757.97 1963.55,1758.07 1964.32,1757.88 1965.08,1757.86 1965.85,1757.42 1966.62,1757.39 1967.38,1757.55 1968.15,1757.42 1968.92,1756.67 1969.68,1756.38 1970.45,1755.93 1971.22,1755.83 1971.98,1755.58 1972.75,1755.33 1973.52,1755.41 1974.28,1755.4 1975.05,1755.31 1975.82,1754.95 1976.58,1754.21 1977.35,1754.2 1978.12,1753.93 1978.88,1753.76 1979.65,1753.74 1980.42,1753.36 1981.18,1753.09 1981.95,1752.73 1982.72,1752.6 1983.48,1752.81 1984.25,1752.46 1985.02,1751.73 1985.78,1751.2 1986.55,1750.82 1987.32,1750.42 1988.08,1749.9 1988.85,1749.75 1989.62,1749.35 1990.38,1749.38 1991.15,1749.01 1991.92,1748.79 1992.68,1748.33 1993.45,1747.98 1994.22,1747.58 1994.98,1747.65 1995.75,1747.15 1996.52,1746.9 1997.28,1746.13 1998.05,1745.26 1998.82,1744.46 1999.58,1743.93 2000.35,1743.5 2001.12,1742.82 2001.88,1742.11 2002.65,1741.28 2003.42,1740.22 2004.18,1739.71 2004.95,1738.7 2005.72,1737.3 2006.48,1736.34 2007.25,1736 2008.02,1735.53 2008.78,1734.81 2009.55,1733.87 2010.32,1732.78 2011.08,1732.56 2011.85,1731.28 2012.62,1730.6 2013.38,1729.87 2014.15,1729.01 2014.92,1727.68 2015.68,1726.54 2016.45,1725.37 2017.22,1724.14 2017.98,1723.06 2018.75,1721.69 2019.52,1720.27 2020.28,1719.85 2021.05,1718.9 2021.82,1717.9 2022.58,1717.09 2023.35,1715.3 2024.12,1714.07 2024.88,1712.97 2025.65,1711.97 2026.42,1710.79 2027.18,1709.56 2027.95,1708.02 2028.72,1706.52 2029.48,1705.23 2030.25,1703.64 2031.02,1702.37 2031.78,1701.32 2032.55,1700.4 2033.32,1699.31 2034.08,1697.84 2034.85,1696.77 2035.62,1695.41 2036.38,1694.55 2037.15,1693.39 2037.92,1691.75 2038.68,1690.27 2039.45,1688.54 2040.22,1687.19 2040.98,1685.67 2041.75,1684.1 2042.52,1682.53 2043.28,1680.92 2044.05,1679.63 2044.82,1678.99 2045.58,1677.52 2046.35,1675.93 2047.12,1673.98 2047.88,1672.75 2048.65,1671.27 2049.42,1669.92 2050.18,1668.57 2050.95,1666.81 2051.72,1665.35 2052.48,1663.66 2053.25,1662.26 2054.02,1661.15 2054.78,1659.55 2055.55,1657.76 2056.32,1656.8 2057.08,1655.29 2057.85,1653.71 2058.62,1652.14 2059.38,1650.55 2060.15,1649.32 2060.92,1647.98 2061.68,1646.56 2062.45,1645.31 2063.22,1643.42 2063.98,1642.72 2064.75,1640.74 2065.52,1639.33 2066.28,1637.2 2067.05,1636.19 2067.82,1634.73 2068.58,1633.56 2069.35,1631.94 2070.12,1630.1 2070.88,1628.93 2071.65,1627.72 2072.42,1626.57 2073.18,1624.97 2073.95,1623.77 2074.72,1622.24 2075.48,1621.24 2076.25,1619.04 2077.02,1617.56 2077.78,1615.82 2078.55,1614.14 2079.32,1613.06 2080.08,1611.91 2080.85,1610.93 2081.62,1609.62 2082.38,1608.84 2083.15,1607.62 2083.92,1606.2 2084.68,1604.87 2085.45,1603.61 2086.22,1601.53 2086.98,1600.58 2087.75,1599.12 2088.52,1598.11 2089.28,1596.94 2090.05,1595.52 2090.82,1594.84 2091.58,1593.98 2092.35,1592.47 2093.12,1591.15 2093.88,1589.63 2094.65,1588.5 2095.42,1587.58 2096.18,1586.36 2096.95,1585.95 2097.72,1585.09 2098.48,1583.82 2099.25,1582.89 2100.02,1581.68 2100.78,1580.71 2101.55,1579.51 2102.32,1578.82 2103.08,1577.87 2103.85,1576.62 2104.62,1575.53 2105.38,1574.88 2106.15,1573.75 2106.92,1572.54 2107.68,1571.41 2108.45,1570.63 2109.22,1569.72 2109.98,1568.65 2110.75,1566.98 2111.52,1566.24 2112.28,1565.42 2113.05,1564.87 2113.82,1564.17 2114.58,1563.86 2115.35,1563.35 2116.12,1562.45 2116.88,1562.02 2117.65,1561.57 2118.42,1561 2119.18,1559.95 2119.95,1558.96 2120.72,1557.73 2121.48,1556.24 2122.25,1555.85 2123.02,1555.04 2123.78,1553.92 2124.55,1553.46 2125.32,1553.01 2126.08,1551.66 2126.85,1550.68 2127.62,1549.67 2128.38,1548.69 2129.15,1547.9 2129.92,1546.55 2130.68,1545.56 2131.45,1544.43 2132.22,1543.79 2132.98,1542.57 2133.75,1541.19 2134.52,1540.32 2135.28,1539.3 2136.05,1538.24 2136.82,1537.04 2137.58,1536.73 2138.35,1536.45 2139.12,1535.74 2139.88,1534.26 2140.65,1533.6 2141.42,1532.94 2142.18,1532.09 2142.95,1531.55 2143.72,1530.78 2144.48,1529.98 2145.25,1528.7 2146.02,1528.32 2146.78,1527.86 2147.55,1527.53 2148.32,1527.32 2149.08,1526.67 2149.85,1525.8 2150.62,1524.97 2151.38,1524.16 2152.15,1522.76 2152.92,1521.88 2153.68,1521.22 2154.45,1519.87 2155.22,1519.17 2155.98,1518.26 2156.75,1517.98 2157.52,1516.65 2158.28,1515.7 2159.05,1514.97 2159.82,1514.67 2160.58,1513.62 2161.35,1512.56 2162.12,1511.75 2162.88,1511.19 2163.65,1510.58 2164.42,1510.45 2165.18,1510.14 2165.95,1509.45 2166.72,1508.23 2167.48,1507.22 2168.25,1505.61 2169.02,1505.09 2169.78,1504.44 2170.55,1503.27 2171.32,1502.69 2172.08,1501.94 2172.85,1500.68 2173.62,1499.58 2174.38,1498.96 2175.15,1497.75 2175.92,1496.8 2176.68,1495.3 2177.45,1494.09 2178.22,1493.09 2178.98,1491.53 2179.75,1490.49 2180.52,1488.83 2181.28,1487.52 2182.05,1486.72 2182.82,1485.78 2183.58,1484.34 2184.35,1482.64 2185.12,1481.33 2185.88,1480.05 2186.65,1478.81 2187.42,1478.04 2188.18,1477.23 2188.95,1476.11 2189.72,1475.38 2190.48,1474.34 2191.25,1473.22 2192.02,1472.63 2192.78,1471.17 2193.55,1470.01 2194.32,1469.38 2195.08,1467.93 2195.85,1466.29 2196.62,1465.79 2197.38,1464.5 2198.15,1463.7 2198.92,1463.01 2199.68,1462.05 2200.45,1461.2 2201.22,1459.62 2201.98,1457.96 2202.75,1457.37 2203.52,1455.54 2204.28,1453.89 2205.05,1453.04 2205.81,1452.1 2206.58,1451.18 2207.35,1450.12 2208.11,1449.46 2208.88,1449.03 2209.65,1447.91 2210.41,1447.81 2211.18,1447.54 2211.95,1446.87 2212.71,1445.76 2213.48,1444.41 2214.25,1443.41 2215.01,1442.65 2215.78,1442.28 2216.55,1442.03 2217.31,1442.06 2218.08,1441.79 2218.85,1440.81 2219.61,1439.54 2220.38,1438.72 2221.15,1438.25 2221.91,1438.43 2222.68,1437.21 2223.45,1436.58 2224.21,1435.38 2224.98,1434.57 2225.75,1432.82 2226.51,1432.11 2227.28,1430.71 2228.05,1429.48 2228.81,1428.6 2229.58,1429.12 2230.35,1429.03 2231.11,1428.99 2231.88,1427.91 2232.65,1426.45 2233.41,1425.25 2234.18,1425.57 2234.95,1425.36 2235.71,1425.04 2236.48,1424.72 2237.25,1424.75 2238.01,1424.89 2238.78,1424.05 2239.55,1423.15 2240.31,1423.13 2241.08,1422.33 2241.85,1421.53 2242.61,1420.84 2243.38,1420.92 2244.15,1420.35 2244.91,1419.99 2245.68,1420.18 2246.45,1420.1 2247.21,1421.02 2247.98,1419.78 2248.75,1419.38 2249.51,1419.44 2250.28,1419.64 2251.05,1419.34 2251.81,1418.96 2252.58,1418.32 2253.35,1418.39 2254.11,1418.14 2254.88,1417.78 2255.65,1418.2 2256.41,1418.1 2257.18,1418.24 2257.95,1418.01 2258.71,1417.75 2259.48,1417.39 2260.25,1416.94 2261.01,1416.95 2261.78,1417.17 2262.55,1417.1 2263.31,1417.64 2264.08,1417.35 2264.85,1417.88 2265.61,1418.08 2266.38,1417.86 2267.15,1418.16 2267.91,1418.83 2268.68,1419.24 2269.45,1418.85 2270.21,1419.52 2270.98,1419.76 2271.75,1419.86 2272.51,1420.1 2273.28,1420.79 2274.05,1421.44 2274.81,1420.8 2275.58,1420.28 2276.35,1420.65 2277.11,1420.78 2277.88,1420.25 2278.65,1420.09 2279.41,1420.03 2280.18,1420 2280.95,1419.9 2281.71,1420.64 2282.48,1421.68 2283.25,1422.44 2284.01,1423.06 2284.78,1423.13 2285.55,1422.33 2286.31,1422.63 2287.08,1423.53 2287.85,1423.09 2288.61,1423.21 2289.38,1423.04 "
       id="polyline27342"
       transform="matrix(0.04464095,0,0,0.04364368,70.143427,0.60010496)" /><path
       clip-path="url(#clip320)"
       d="m 1548.66,1515.54 h 326.99 v -178.71 h -326.99 z"
       fill="#ffffff"
       fill-rule="evenodd"
       fill-opacity="1"
       id="path27344"
       transform="matrix(0.04464095,0,0,0.04364368,70.143427,0.60010496)" /><polyline
       clip-path="url(#clip320)"
       style="fill:none;stroke:#000000;stroke-width:4;stroke-linecap:round;stroke-linejoin:round;stroke-opacity:1"
       points="1548.66,1515.54 1875.65,1515.54 1875.65,1336.83 1548.66,1336.83 1548.66,1515.54 "
       id="polyline27346"
       transform="matrix(0.04464095,0,0,0.04364368,70.143427,0.60010496)" /><polyline
       clip-path="url(#clip320)"
       style="fill:none;stroke:#44a0a0;stroke-width:8;stroke-linecap:round;stroke-linejoin:round;stroke-opacity:1"
       points="1557.18,1396.4 1608.29,1396.4 "
       id="polyline27348"
       transform="matrix(0.04464095,0,0,0.04364368,70.143427,0.60010496)" /><path
       clip-path="url(#clip320)"
       d="m 1616.81,1383.05 v -1.49 h 3.77 v -5.51 q 0,-3.56 2.3,-5.6 2.31,-2.03 5.15,-2.03 1.87,0 3.09,1 1.22,1.01 1.22,2.37 0,0.91 -0.56,1.52 -0.54,0.59 -1.55,0.59 -0.96,0 -1.52,-0.61 -0.54,-0.61 -0.54,-1.46 0,-1.54 1.43,-2.01 -0.73,-0.33 -1.57,-0.35 -1.74,0 -3.09,1.78 -1.34,1.78 -1.34,4.75 v 5.56 h 5.62 v 1.49 h -5.45 v 15.44 q 0,1.38 0.56,1.83 0.58,0.44 3.07,0.44 h 1 v 1.48 q -1.92,-0.14 -6.09,-0.14 -0.58,0 -1.5,0.02 -0.89,0.02 -2.1,0.07 -1.2,0.05 -1.85,0.05 v -1.48 q 2.55,0 3.13,-0.3 0.59,-0.33 0.59,-1.88 v -15.53 z"
       fill="#000000"
       fill-rule="nonzero"
       fill-opacity="1"
       id="path27350"
       transform="matrix(0.04464095,0,0,0.04364368,70.143427,0.60010496)" /><path
       clip-path="url(#clip320)"
       d="m 1635.7,1402.24 v -1.48 q 2.55,0 3.14,-0.3 0.6,-0.33 0.6,-1.88 v -12.86 q 0,-1.78 -0.63,-2.22 -0.61,-0.45 -3.11,-0.45 v -1.49 l 6.67,-0.52 v 5.27 q 0.68,-2.06 2.11,-3.65 1.45,-1.62 3.8,-1.62 1.54,0 2.52,0.87 1.01,0.86 1.01,2.06 0,1.05 -0.65,1.59 -0.64,0.52 -1.41,0.52 -0.87,0 -1.47,-0.54 -0.59,-0.57 -0.59,-1.53 0,-0.58 0.26,-1.03 0.28,-0.46 0.49,-0.63 0.21,-0.16 0.35,-0.21 -0.09,-0.05 -0.51,-0.05 -2.65,0 -4.17,2.65 -1.5,2.62 -1.5,6.37 v 7.38 q 0,1.38 0.56,1.83 0.58,0.44 3.09,0.44 h 1.01 v 1.48 q -1.92,-0.14 -6.09,-0.14 -0.59,0 -1.5,0.02 -0.91,0.02 -2.11,0.07 -1.19,0.05 -1.87,0.05 z"
       fill="#000000"
       fill-rule="nonzero"
       fill-opacity="1"
       id="path27352"
       transform="matrix(0.04464095,0,0,0.04364368,70.143427,0.60010496)" /><path
       clip-path="url(#clip320)"
       d="m 1659.16,1399.66 q -3.16,-3.14 -3.16,-7.68 0,-4.57 3.09,-7.9 3.12,-3.34 7.57,-3.34 4.35,0 7.47,3.32 3.14,3.3 3.14,7.92 0,4.52 -3.17,7.66 -3.13,3.14 -7.49,3.14 -4.26,0 -7.45,-3.12 m 0.82,-8.08 q 0,4.66 1.22,6.77 1.87,3.21 5.46,3.21 1.78,0 3.25,-0.96 1.5,-0.96 2.32,-2.58 1.05,-2.11 1.05,-6.44 0,-4.61 -1.26,-6.65 -1.87,-3.12 -5.41,-3.12 -1.55,0 -3.07,0.82 -1.5,0.8 -2.41,2.39 -1.15,2.11 -1.15,6.56 z"
       fill="#000000"
       fill-rule="nonzero"
       fill-opacity="1"
       id="path27354"
       transform="matrix(0.04464095,0,0,0.04364368,70.143427,0.60010496)" /><path
       clip-path="url(#clip320)"
       d="m 1678.79,1402.24 v -1.48 q 2.55,0 3.14,-0.3 0.58,-0.33 0.58,-1.88 v -12.86 q 0,-1.78 -0.63,-2.22 -0.61,-0.45 -3.09,-0.45 v -1.49 l 6.74,-0.52 v 5.04 q 2.25,-5.04 7.1,-5.04 5.62,0 6.4,4.68 0.81,-1.82 2.52,-3.25 1.74,-1.43 4.43,-1.43 3.61,0 5.04,1.78 1.05,1.19 1.26,2.53 0.21,1.33 0.21,4.8 v 9.16 q 0.05,1.01 0.82,1.24 0.78,0.21 2.93,0.21 v 1.48 q -4.89,-0.14 -5.36,-0.14 -0.38,0 -5.44,0.14 v -1.48 q 2.56,0 3.14,-0.3 0.61,-0.33 0.61,-1.88 v -11.17 q 0,-2.44 -0.75,-3.86 -0.75,-1.46 -2.81,-1.46 -2.48,0 -4.47,2.09 -1.99,2.08 -1.99,5.6 v 8.8 q 0,1.55 0.58,1.88 0.61,0.3 3.16,0.3 v 1.48 q -4.89,-0.14 -5.38,-0.14 -0.38,0 -5.41,0.14 v -1.48 q 2.55,0 3.13,-0.3 0.61,-0.33 0.61,-1.88 v -11.17 q 0,-2.44 -0.75,-3.86 -0.75,-1.46 -2.81,-1.46 -2.48,0 -4.47,2.09 -1.99,2.08 -1.99,5.6 v 8.8 q 0,1.55 0.58,1.88 0.61,0.3 3.14,0.3 v 1.48 q -4.89,-0.14 -5.36,-0.14 -0.38,0 -5.41,0.14 z"
       fill="#000000"
       fill-rule="nonzero"
       fill-opacity="1"
       id="path27356"
       transform="matrix(0.04464095,0,0,0.04364368,70.143427,0.60010496)" /><path
       clip-path="url(#clip320)"
       d="m 1753.02,1383.29 q 0,0.02 -0.14,0.87 l -5.34,21.29 q -0.28,1.12 -1.08,2.24 -0.77,1.15 -2.01,2.14 -1.22,1 -3.09,1.61 -1.85,0.63 -3.99,0.63 -3.39,0 -4.89,-0.72 -1.48,-0.7 -1.48,-2.2 0,-1.31 0.82,-2.06 0.82,-0.73 1.76,-0.73 0.89,0 1.36,0.51 0.47,0.52 0.47,1.18 0,0.72 -0.49,1.45 -0.5,0.75 -1.48,1.03 1.57,0.49 3.84,0.49 4.8,0 6.86,-5.08 0.05,-0.07 0.05,-0.1 l 1.59,-6.34 -0.07,-0.05 q -0.4,0.47 -1.03,1.01 -0.61,0.51 -1.92,1.14 -1.31,0.64 -2.6,0.64 -2.69,0 -4.54,-2.06 -1.83,-2.09 -1.83,-5.53 0,-2.51 1.01,-5.01 1.03,-2.53 2.62,-4.38 1.62,-1.88 3.68,-3.05 2.08,-1.17 4.1,-1.17 1.4,0 2.6,0.84 1.19,0.82 1.85,2.18 0.12,-1.12 0.75,-1.59 0.65,-0.47 1.22,-0.47 0.63,0 1,0.35 0.4,0.33 0.4,0.94 m -3.93,2.93 q 0,-0.14 -0.1,-0.52 -0.09,-0.4 -0.37,-1.03 -0.26,-0.63 -0.66,-1.19 -0.4,-0.57 -1.12,-0.96 -0.71,-0.43 -1.6,-0.43 -1.45,0 -2.9,1.22 -1.45,1.2 -2.46,3.05 -0.94,1.78 -1.83,5.22 -0.86,3.44 -0.86,5.2 0,1.73 0.75,3.07 0.75,1.33 2.36,1.33 1.88,0 3.89,-1.73 2.09,-1.8 2.44,-3.35 l 2.32,-9.16 q 0.14,-0.56 0.14,-0.72 z"
       fill="#000000"
       fill-rule="nonzero"
       fill-opacity="1"
       id="path27358"
       transform="matrix(0.04464095,0,0,0.04364368,70.143427,0.60010496)" /><path
       clip-path="url(#clip320)"
       d="m 1785.43,1421.01 q 0,0.13 -0.14,0.64 -0.15,0.51 -0.51,1.29 -0.35,0.79 -0.84,1.51 -0.47,0.71 -1.26,1.23 -0.77,0.51 -1.66,0.51 -1.18,0 -1.97,-0.79 -0.78,-0.78 -0.78,-1.97 0,-0.63 0.44,-1.85 2.08,-5.54 2.08,-7.52 0,-2.35 -1.82,-2.35 -1.03,0 -1.96,0.43 -0.94,0.42 -1.55,1.01 -0.6,0.59 -1.08,1.27 -0.47,0.67 -0.69,1.11 -0.19,0.44 -0.24,0.64 l -2.02,8.1 q -0.16,0.69 -0.28,1.02 -0.11,0.33 -0.42,0.6 -0.32,0.3 -0.81,0.3 -0.41,0 -0.7,-0.25 -0.28,-0.24 -0.28,-0.67 0,-0.06 0.08,-0.41 0.08,-0.34 0.2,-0.82 0.11,-0.47 0.16,-0.75 0.59,-2.23 0.67,-2.54 l 0.94,-3.91 q 0.51,-1.93 0.51,-2.78 0,-2.35 -1.82,-2.35 -0.91,0 -1.76,0.35 -0.83,0.32 -1.41,0.78 -0.57,0.46 -1.1,1.1 -0.5,0.62 -0.77,1.05 -0.24,0.41 -0.44,0.82 l -0.43,1.67 q -0.09,0.46 -0.57,2.25 l -0.74,3.03 q -0.52,2.26 -0.64,2.48 -0.16,0.46 -0.52,0.7 -0.36,0.25 -0.72,0.25 -0.41,0 -0.69,-0.25 -0.28,-0.24 -0.28,-0.67 0,-0.06 0.05,-0.31 0.05,-0.25 0.13,-0.59 0.08,-0.35 0.11,-0.54 l 1.96,-7.76 q 0.36,-1.41 0.44,-1.85 0.1,-0.46 0.1,-0.97 0,-1.54 -1.05,-1.54 -0.86,0 -1.41,1.02 -0.56,1.01 -1.04,2.98 -0.14,0.54 -0.24,0.66 -0.08,0.11 -0.33,0.11 -0.41,-0.01 -0.41,-0.34 0,-0.08 0.13,-0.61 0.13,-0.52 0.38,-1.31 0.26,-0.8 0.54,-1.33 0.16,-0.34 0.31,-0.57 0.15,-0.23 0.44,-0.59 0.3,-0.36 0.74,-0.56 0.44,-0.2 0.99,-0.2 1.19,0 2.08,0.77 0.9,0.78 1.01,2.15 2.19,-2.92 5.23,-2.92 1.73,0 2.76,0.87 0.97,0.84 1.08,2.38 2.26,-3.25 5.48,-3.25 1.85,0 2.85,0.97 1,0.95 1,2.62 0,0.87 -0.44,2.53 -0.44,1.64 -0.74,2.46 -0.3,0.82 -0.87,2.39 -0.61,1.51 -0.61,2.4 0,0.57 0.2,0.83 0.2,0.26 0.62,0.26 0.66,0 1.23,-0.37 0.58,-0.4 0.99,-1.04 0.42,-0.65 0.7,-1.31 0.28,-0.67 0.49,-1.42 0.14,-0.41 0.2,-0.51 0.08,-0.1 0.31,-0.1 0.41,0 0.41,0.33 z"
       fill="#000000"
       fill-rule="nonzero"
       fill-opacity="1"
       id="path27360"
       transform="matrix(0.04464095,0,0,0.04364368,70.143427,0.60010496)" /><path
       clip-path="url(#clip320)"
       d="m 1803.64,1402.87 -4.84,19.42 q -0.2,0.87 -0.2,1.6 0,1.54 1,1.54 0.49,0 0.89,-0.31 0.39,-0.31 0.7,-0.96 0.31,-0.66 0.51,-1.27 0.2,-0.62 0.46,-1.6 0.08,-0.4 0.15,-0.5 0.08,-0.11 0.31,-0.11 0.41,0 0.41,0.33 -0.44,2.11 -1.02,3.33 -0.92,1.85 -2.47,1.85 -1.18,0 -2.02,-0.72 -0.84,-0.72 -1.03,-1.81 -2.15,2.53 -4.38,2.53 -1.97,0 -3.21,-1.49 -1.25,-1.51 -1.25,-3.89 0,-2.39 1.18,-4.69 1.2,-2.29 3.08,-3.72 1.89,-1.43 3.82,-1.43 2.05,0 3.1,2.15 l 2.02,-7.97 0.1,-0.65 q 0,-0.2 -0.09,-0.3 -0.06,-0.11 -0.45,-0.19 -0.38,-0.09 -1.14,-0.09 -0.31,0 -0.46,-0.01 -0.13,-0.02 -0.24,-0.1 -0.12,-0.1 -0.12,-0.3 0,-0.57 0.48,-0.64 3.15,-0.36 4.26,-0.36 0.2,0 0.31,0.1 0.12,0.08 0.12,0.18 l 0.02,0.08 m -5.22,11.79 q 0,-0.14 -0.11,-0.55 -0.12,-0.41 -0.38,-0.99 -0.26,-0.57 -0.84,-0.98 -0.55,-0.43 -1.31,-0.43 -1.01,0 -2.08,0.87 -1.05,0.87 -1.82,2.35 -0.59,1.18 -1.23,3.65 -0.62,2.48 -0.62,3.71 0,0.75 0.16,1.42 0.18,0.66 0.69,1.2 0.51,0.52 1.29,0.52 1.92,0 3.81,-2.37 0.36,-0.41 0.44,-0.58 0.1,-0.18 0.23,-0.67 l 1.67,-6.57 q 0.1,-0.5 0.1,-0.58 z"
       fill="#000000"
       fill-rule="nonzero"
       fill-opacity="1"
       id="path27362"
       transform="matrix(0.04464095,0,0,0.04364368,70.143427,0.60010496)" /><path
       clip-path="url(#clip320)"
       d="m 1810.04,1390.24 q 0,-8.1 3.03,-14.63 1.28,-2.74 3.09,-5.04 1.8,-2.3 3,-3.3 1.19,-1.01 1.52,-1.01 0.47,0 0.49,0.47 0,0.23 -0.63,0.82 -7.73,7.87 -7.71,22.69 0,14.88 7.52,22.44 0.82,0.82 0.82,1.08 0,0.47 -0.49,0.47 -0.33,0 -1.48,-0.96 -1.15,-0.96 -2.93,-3.16 -1.78,-2.2 -3.06,-4.9 -3.17,-6.53 -3.17,-14.97 z"
       fill="#000000"
       fill-rule="nonzero"
       fill-opacity="1"
       id="path27364"
       transform="matrix(0.04464095,0,0,0.04364368,70.143427,0.60010496)" /><path
       clip-path="url(#clip320)"
       d="m 1844.35,1384.16 q 0,1.24 -0.82,2.03 -0.8,0.8 -1.83,0.8 -0.89,0 -1.36,-0.52 -0.47,-0.51 -0.47,-1.17 0,-0.93 0.73,-1.71 0.72,-0.77 1.78,-0.93 -0.77,-0.57 -2.02,-0.57 -2.03,0 -3.84,1.57 -0.79,0.73 -1.66,2.06 -0.87,1.32 -1.03,1.88 l -1.52,6.25 q -0.14,0.7 -1.01,4.08 -0.84,3.35 -0.91,3.49 -0.24,0.65 -0.75,1 -0.52,0.36 -1.03,0.36 -0.59,0 -0.99,-0.36 -0.4,-0.35 -0.4,-0.96 0,-0.09 0.07,-0.44 0.07,-0.35 0.19,-0.84 0.12,-0.5 0.17,-0.78 l 2.78,-11.08 q 0.52,-2.01 0.64,-2.64 0.14,-0.66 0.14,-1.38 0,-1.27 -0.4,-1.74 -0.4,-0.47 -1.1,-0.47 -1.22,0 -2.02,1.46 -0.79,1.45 -1.47,4.26 -0.21,0.77 -0.35,0.94 -0.12,0.16 -0.47,0.16 -0.59,-0.02 -0.59,-0.49 0,-0.12 0.19,-0.87 0.19,-0.77 0.54,-1.9 0.37,-1.14 0.77,-1.87 0.23,-0.49 0.45,-0.82 0.21,-0.33 0.63,-0.84 0.42,-0.52 1.05,-0.8 0.63,-0.28 1.41,-0.28 1.68,0 2.88,1.03 1.22,1.03 1.5,2.65 0.58,-0.85 1.31,-1.57 0.72,-0.75 2.06,-1.43 1.34,-0.68 2.76,-0.68 1.78,0 2.88,0.91 1.11,0.89 1.11,2.21 z"
       fill="#000000"
       fill-rule="nonzero"
       fill-opacity="1"
       id="path27366"
       transform="matrix(0.04464095,0,0,0.04364368,70.143427,0.60010496)" /><path
       clip-path="url(#clip320)"
       d="m 1848.71,1413.76 q 0,-0.23 0.61,-0.82 7.73,-7.87 7.73,-22.7 0,-14.87 -7.42,-22.39 -0.92,-0.86 -0.92,-1.12 0,-0.47 0.47,-0.47 0.33,0 1.48,0.96 1.17,0.96 2.93,3.16 1.78,2.2 3.09,4.9 3.16,6.53 3.16,14.96 0,8.11 -3.02,14.64 -1.29,2.74 -3.09,5.04 -1.81,2.3 -3,3.3 -1.2,1.01 -1.55,1.01 -0.47,0 -0.47,-0.47 z"
       fill="#000000"
       fill-rule="nonzero"
       fill-opacity="1"
       id="path27368"
       transform="matrix(0.04464095,0,0,0.04364368,70.143427,0.60010496)" /><polyline
       clip-path="url(#clip320)"
       style="fill:none;stroke:#a8a8ff;stroke-width:8;stroke-linecap:round;stroke-linejoin:round;stroke-opacity:1"
       points="1557.18,1455.97 1608.29,1455.97 "
       id="polyline27370"
       transform="matrix(0.04464095,0,0,0.04364368,70.143427,0.60010496)" /><path
       clip-path="url(#clip320)"
       d="m 1616.81,1448.66 v -1.5 h 3.77 v -5.5 q 0,-3.56 2.3,-5.6 2.31,-2.04 5.15,-2.04 1.87,0 3.09,1.01 1.22,1.01 1.22,2.37 0,0.91 -0.56,1.52 -0.54,0.58 -1.55,0.58 -0.96,0 -1.52,-0.61 -0.54,-0.6 -0.54,-1.45 0,-1.54 1.43,-2.01 -0.73,-0.33 -1.57,-0.35 -1.74,0 -3.09,1.78 -1.34,1.78 -1.34,4.75 v 5.55 h 5.62 v 1.5 h -5.45 v 15.44 q 0,1.38 0.56,1.82 0.58,0.45 3.07,0.45 h 1 v 1.47 q -1.92,-0.14 -6.09,-0.14 -0.58,0 -1.5,0.03 -0.89,0.02 -2.1,0.07 -1.2,0.04 -1.85,0.04 v -1.47 q 2.55,0 3.13,-0.31 0.59,-0.32 0.59,-1.87 v -15.53 z"
       fill="#000000"
       fill-rule="nonzero"
       fill-opacity="1"
       id="path27372"
       transform="matrix(0.04464095,0,0,0.04364368,70.143427,0.60010496)" /><path
       clip-path="url(#clip320)"
       d="m 1635.7,1467.84 v -1.47 q 2.55,0 3.14,-0.31 0.6,-0.32 0.6,-1.87 v -12.86 q 0,-1.78 -0.63,-2.22 -0.61,-0.45 -3.11,-0.45 v -1.5 l 6.67,-0.51 v 5.27 q 0.68,-2.06 2.11,-3.66 1.45,-1.61 3.8,-1.61 1.54,0 2.52,0.86 1.01,0.87 1.01,2.07 0,1.05 -0.65,1.59 -0.64,0.51 -1.41,0.51 -0.87,0 -1.47,-0.54 -0.59,-0.56 -0.59,-1.52 0,-0.58 0.26,-1.03 0.28,-0.47 0.49,-0.63 0.21,-0.17 0.35,-0.21 -0.09,-0.05 -0.51,-0.05 -2.65,0 -4.17,2.65 -1.5,2.62 -1.5,6.37 v 7.38 q 0,1.38 0.56,1.82 0.58,0.45 3.09,0.45 h 1.01 v 1.47 q -1.92,-0.14 -6.09,-0.14 -0.59,0 -1.5,0.03 -0.91,0.02 -2.11,0.07 -1.19,0.04 -1.87,0.04 z"
       fill="#000000"
       fill-rule="nonzero"
       fill-opacity="1"
       id="path27374"
       transform="matrix(0.04464095,0,0,0.04364368,70.143427,0.60010496)" /><path
       clip-path="url(#clip320)"
       d="m 1659.16,1465.27 q -3.16,-3.14 -3.16,-7.68 0,-4.57 3.09,-7.9 3.12,-3.35 7.57,-3.35 4.35,0 7.47,3.33 3.14,3.3 3.14,7.92 0,4.52 -3.17,7.65 -3.13,3.14 -7.49,3.14 -4.26,0 -7.45,-3.11 m 0.82,-8.08 q 0,4.66 1.22,6.77 1.87,3.21 5.46,3.21 1.78,0 3.25,-0.96 1.5,-0.97 2.32,-2.58 1.05,-2.11 1.05,-6.44 0,-4.62 -1.26,-6.65 -1.87,-3.12 -5.41,-3.12 -1.55,0 -3.07,0.82 -1.5,0.8 -2.41,2.39 -1.15,2.11 -1.15,6.56 z"
       fill="#000000"
       fill-rule="nonzero"
       fill-opacity="1"
       id="path27376"
       transform="matrix(0.04464095,0,0,0.04364368,70.143427,0.60010496)" /><path
       clip-path="url(#clip320)"
       d="m 1678.79,1467.84 v -1.47 q 2.55,0 3.14,-0.31 0.58,-0.32 0.58,-1.87 v -12.86 q 0,-1.78 -0.63,-2.22 -0.61,-0.45 -3.09,-0.45 v -1.5 l 6.74,-0.51 v 5.03 q 2.25,-5.03 7.1,-5.03 5.62,0 6.4,4.68 0.81,-1.83 2.52,-3.25 1.74,-1.43 4.43,-1.43 3.61,0 5.04,1.78 1.05,1.19 1.26,2.53 0.21,1.33 0.21,4.8 v 9.16 q 0.05,1 0.82,1.24 0.78,0.21 2.93,0.21 v 1.47 q -4.89,-0.14 -5.36,-0.14 -0.38,0 -5.44,0.14 v -1.47 q 2.56,0 3.14,-0.31 0.61,-0.32 0.61,-1.87 v -11.17 q 0,-2.44 -0.75,-3.87 -0.75,-1.45 -2.81,-1.45 -2.48,0 -4.47,2.09 -1.99,2.08 -1.99,5.59 v 8.81 q 0,1.55 0.58,1.87 0.61,0.31 3.16,0.31 v 1.47 q -4.89,-0.14 -5.38,-0.14 -0.38,0 -5.41,0.14 v -1.47 q 2.55,0 3.13,-0.31 0.61,-0.32 0.61,-1.87 v -11.17 q 0,-2.44 -0.75,-3.87 -0.75,-1.45 -2.81,-1.45 -2.48,0 -4.47,2.09 -1.99,2.08 -1.99,5.59 v 8.81 q 0,1.55 0.58,1.87 0.61,0.31 3.14,0.31 v 1.47 q -4.89,-0.14 -5.36,-0.14 -0.38,0 -5.41,0.14 z"
       fill="#000000"
       fill-rule="nonzero"
       fill-opacity="1"
       id="path27378"
       transform="matrix(0.04464095,0,0,0.04364368,70.143427,0.60010496)" /><path
       clip-path="url(#clip320)"
       d="m 1753.02,1448.9 q 0,0.02 -0.14,0.86 l -5.34,21.29 q -0.28,1.13 -1.08,2.25 -0.77,1.15 -2.01,2.13 -1.22,1.01 -3.09,1.62 -1.85,0.63 -3.99,0.63 -3.39,0 -4.89,-0.72 -1.48,-0.71 -1.48,-2.21 0,-1.31 0.82,-2.06 0.82,-0.72 1.76,-0.72 0.89,0 1.36,0.51 0.47,0.52 0.47,1.17 0,0.73 -0.49,1.46 -0.5,0.75 -1.48,1.03 1.57,0.49 3.84,0.49 4.8,0 6.86,-5.08 0.05,-0.07 0.05,-0.1 l 1.59,-6.35 -0.07,-0.04 q -0.4,0.47 -1.03,1 -0.61,0.52 -1.92,1.15 -1.31,0.63 -2.6,0.63 -2.69,0 -4.54,-2.06 -1.83,-2.08 -1.83,-5.52 0,-2.51 1.01,-5.02 1.03,-2.53 2.62,-4.38 1.62,-1.87 3.68,-3.04 2.08,-1.17 4.1,-1.17 1.4,0 2.6,0.84 1.19,0.82 1.85,2.18 0.12,-1.13 0.75,-1.59 0.65,-0.47 1.22,-0.47 0.63,0 1,0.35 0.4,0.33 0.4,0.94 m -3.93,2.92 q 0,-0.14 -0.1,-0.51 -0.09,-0.4 -0.37,-1.03 -0.26,-0.63 -0.66,-1.2 -0.4,-0.56 -1.12,-0.96 -0.71,-0.42 -1.6,-0.42 -1.45,0 -2.9,1.22 -1.45,1.19 -2.46,3.04 -0.94,1.78 -1.83,5.23 -0.86,3.44 -0.86,5.2 0,1.73 0.75,3.07 0.75,1.33 2.36,1.33 1.88,0 3.89,-1.73 2.09,-1.81 2.44,-3.35 l 2.32,-9.16 q 0.14,-0.56 0.14,-0.73 z"
       fill="#000000"
       fill-rule="nonzero"
       fill-opacity="1"
       id="path27380"
       transform="matrix(0.04464095,0,0,0.04364368,70.143427,0.60010496)" /><path
       clip-path="url(#clip320)"
       d="m 1759.59,1455.85 q 0,-8.1 3.02,-14.64 1.29,-2.74 3.1,-5.03 1.8,-2.3 2.99,-3.31 1.2,-1 1.53,-1 0.46,0 0.49,0.47 0,0.23 -0.63,0.82 -7.73,7.87 -7.71,22.69 0,14.88 7.52,22.44 0.82,0.82 0.82,1.08 0,0.47 -0.49,0.47 -0.33,0 -1.48,-0.96 -1.15,-0.96 -2.93,-3.17 -1.78,-2.2 -3.07,-4.89 -3.16,-6.54 -3.16,-14.97 z"
       fill="#000000"
       fill-rule="nonzero"
       fill-opacity="1"
       id="path27382"
       transform="matrix(0.04464095,0,0,0.04364368,70.143427,0.60010496)" /><path
       clip-path="url(#clip320)"
       d="m 1793.89,1449.76 q 0,1.24 -0.82,2.04 -0.79,0.8 -1.82,0.8 -0.89,0 -1.36,-0.52 -0.47,-0.51 -0.47,-1.17 0,-0.94 0.73,-1.71 0.72,-0.77 1.78,-0.94 -0.78,-0.56 -2.02,-0.56 -2.04,0 -3.84,1.57 -0.8,0.73 -1.66,2.06 -0.87,1.31 -1.03,1.88 l -1.52,6.25 q -0.15,0.7 -1.01,4.07 -0.85,3.35 -0.92,3.49 -0.23,0.66 -0.74,1.01 -0.52,0.35 -1.04,0.35 -0.58,0 -0.98,-0.35 -0.4,-0.35 -0.4,-0.96 0,-0.09 0.07,-0.44 0.07,-0.35 0.19,-0.85 0.12,-0.49 0.16,-0.77 l 2.79,-11.08 q 0.52,-2.01 0.63,-2.65 0.14,-0.65 0.14,-1.38 0,-1.26 -0.39,-1.73 -0.4,-0.47 -1.1,-0.47 -1.22,0 -2.02,1.45 -0.8,1.46 -1.47,4.27 -0.22,0.77 -0.36,0.93 -0.11,0.17 -0.46,0.17 -0.59,-0.03 -0.59,-0.49 0,-0.12 0.19,-0.87 0.18,-0.77 0.54,-1.9 0.37,-1.15 0.77,-1.87 0.23,-0.49 0.44,-0.82 0.21,-0.33 0.64,-0.85 0.42,-0.51 1.05,-0.79 0.63,-0.28 1.41,-0.28 1.68,0 2.88,1.03 1.21,1.03 1.5,2.64 0.58,-0.84 1.31,-1.56 0.72,-0.75 2.06,-1.43 1.33,-0.68 2.76,-0.68 1.78,0 2.88,0.91 1.1,0.89 1.1,2.2 z"
       fill="#000000"
       fill-rule="nonzero"
       fill-opacity="1"
       id="path27384"
       transform="matrix(0.04464095,0,0,0.04364368,70.143427,0.60010496)" /><path
       clip-path="url(#clip320)"
       d="m 1798.26,1479.37 q 0,-0.24 0.61,-0.82 7.73,-7.87 7.73,-22.7 0,-14.87 -7.42,-22.39 -0.92,-0.87 -0.92,-1.12 0,-0.47 0.47,-0.47 0.33,0 1.48,0.96 1.17,0.96 2.93,3.16 1.78,2.2 3.09,4.9 3.16,6.53 3.16,14.96 0,8.11 -3.02,14.64 -1.29,2.74 -3.09,5.04 -1.81,2.29 -3,3.3 -1.2,1.01 -1.55,1.01 -0.47,0 -0.47,-0.47 z"
       fill="#000000"
       fill-rule="nonzero"
       fill-opacity="1"
       id="path27386"
       transform="matrix(0.04464095,0,0,0.04364368,70.143427,0.60010496)" /></g></svg>
