<?xml version="1.0" encoding="UTF-8" standalone="no"?>
<!-- Created with Inkscape (http://www.inkscape.org/) -->

<svg
   width="43.247337mm"
   height="41.668377mm"
   viewBox="0 0 43.247337 41.668377"
   version="1.1"
   id="svg5"
   xml:space="preserve"
   inkscape:version="1.2.2 (b0a8486541, 2022-12-01)"
   sodipodi:docname="mddf.svg"
   xmlns:inkscape="http://www.inkscape.org/namespaces/inkscape"
   xmlns:sodipodi="http://sodipodi.sourceforge.net/DTD/sodipodi-0.dtd"
   xmlns="http://www.w3.org/2000/svg"
   xmlns:svg="http://www.w3.org/2000/svg"><sodipodi:namedview
     id="namedview7"
     pagecolor="#ffffff"
     bordercolor="#000000"
     borderopacity="0.25"
     inkscape:showpageshadow="2"
     inkscape:pageopacity="0.0"
     inkscape:pagecheckerboard="0"
     inkscape:deskcolor="#d1d1d1"
     inkscape:document-units="mm"
     showgrid="false"
     inkscape:zoom="1.9955967"
     inkscape:cx="357.78772"
     inkscape:cy="227.50087"
     inkscape:window-width="1890"
     inkscape:window-height="1048"
     inkscape:window-x="30"
     inkscape:window-y="0"
     inkscape:window-maximized="1"
     inkscape:current-layer="layer1" /><defs
     id="defs2"><clipPath
       id="clip320"><rect
         x="0"
         y="0"
         width="2400"
         height="2400"
         id="rect26771" /></clipPath><clipPath
       id="clip324"><rect
         x="283"
         y="1310"
         width="768"
         height="799"
         id="rect27085" /></clipPath></defs><g
     inkscape:label="Layer 1"
     inkscape:groupmode="layer"
     id="layer1"
     transform="translate(-68.874353,-59.482561)"><path
       clip-path="url(#clip320)"
       d="m 283.455,2107.94 h 766.655 v -797.7 H 283.455 Z"
       fill="#ffffff"
       fill-rule="evenodd"
       fill-opacity="1"
       id="path27083"
       transform="matrix(0.04464095,0,0,0.04364368,64.259909,2.386153)" /><polyline
       clip-path="url(#clip320)"
       style="fill:none;stroke:#000000;stroke-width:4;stroke-linecap:round;stroke-linejoin:round;stroke-opacity:1"
       points="283.455,2107.94 1050.11,2107.94 "
       id="polyline27090"
       transform="matrix(0.04464095,0,0,0.04364368,64.259909,2.386153)" /><polyline
       clip-path="url(#clip320)"
       style="fill:none;stroke:#000000;stroke-width:4;stroke-linecap:round;stroke-linejoin:round;stroke-opacity:1"
       points="283.455,1310.24 1050.11,1310.24 "
       id="polyline27092"
       transform="matrix(0.04464095,0,0,0.04364368,64.259909,2.386153)" /><polyline
       clip-path="url(#clip320)"
       style="fill:none;stroke:#000000;stroke-width:4;stroke-linecap:round;stroke-linejoin:round;stroke-opacity:1"
       points="283.455,2107.94 283.455,2089.05 "
       id="polyline27094"
       transform="matrix(0.04464095,0,0,0.04364368,64.259909,2.386153)" /><polyline
       clip-path="url(#clip320)"
       style="fill:none;stroke:#000000;stroke-width:4;stroke-linecap:round;stroke-linejoin:round;stroke-opacity:1"
       points="436.786,2107.94 436.786,2089.05 "
       id="polyline27096"
       transform="matrix(0.04464095,0,0,0.04364368,64.259909,2.386153)" /><polyline
       clip-path="url(#clip320)"
       style="fill:none;stroke:#000000;stroke-width:4;stroke-linecap:round;stroke-linejoin:round;stroke-opacity:1"
       points="590.118,2107.94 590.118,2089.05 "
       id="polyline27098"
       transform="matrix(0.04464095,0,0,0.04364368,64.259909,2.386153)" /><polyline
       clip-path="url(#clip320)"
       style="fill:none;stroke:#000000;stroke-width:4;stroke-linecap:round;stroke-linejoin:round;stroke-opacity:1"
       points="743.449,2107.94 743.449,2089.05 "
       id="polyline27100"
       transform="matrix(0.04464095,0,0,0.04364368,64.259909,2.386153)" /><polyline
       clip-path="url(#clip320)"
       style="fill:none;stroke:#000000;stroke-width:4;stroke-linecap:round;stroke-linejoin:round;stroke-opacity:1"
       points="896.781,2107.94 896.781,2089.05 "
       id="polyline27102"
       transform="matrix(0.04464095,0,0,0.04364368,64.259909,2.386153)" /><polyline
       clip-path="url(#clip320)"
       style="fill:none;stroke:#000000;stroke-width:4;stroke-linecap:round;stroke-linejoin:round;stroke-opacity:1"
       points="1050.11,2107.94 1050.11,2089.05 "
       id="polyline27104"
       transform="matrix(0.04464095,0,0,0.04364368,64.259909,2.386153)" /><polyline
       clip-path="url(#clip320)"
       style="fill:none;stroke:#000000;stroke-width:4;stroke-linecap:round;stroke-linejoin:round;stroke-opacity:1"
       points="283.455,1310.24 283.455,1329.13 "
       id="polyline27106"
       transform="matrix(0.04464095,0,0,0.04364368,64.259909,2.386153)" /><polyline
       clip-path="url(#clip320)"
       style="fill:none;stroke:#000000;stroke-width:4;stroke-linecap:round;stroke-linejoin:round;stroke-opacity:1"
       points="436.786,1310.24 436.786,1329.13 "
       id="polyline27108"
       transform="matrix(0.04464095,0,0,0.04364368,64.259909,2.386153)" /><polyline
       clip-path="url(#clip320)"
       style="fill:none;stroke:#000000;stroke-width:4;stroke-linecap:round;stroke-linejoin:round;stroke-opacity:1"
       points="590.118,1310.24 590.118,1329.13 "
       id="polyline27110"
       transform="matrix(0.04464095,0,0,0.04364368,64.259909,2.386153)" /><polyline
       clip-path="url(#clip320)"
       style="fill:none;stroke:#000000;stroke-width:4;stroke-linecap:round;stroke-linejoin:round;stroke-opacity:1"
       points="743.449,1310.24 743.449,1329.13 "
       id="polyline27112"
       transform="matrix(0.04464095,0,0,0.04364368,64.259909,2.386153)" /><polyline
       clip-path="url(#clip320)"
       style="fill:none;stroke:#000000;stroke-width:4;stroke-linecap:round;stroke-linejoin:round;stroke-opacity:1"
       points="896.781,1310.24 896.781,1329.13 "
       id="polyline27114"
       transform="matrix(0.04464095,0,0,0.04364368,64.259909,2.386153)" /><polyline
       clip-path="url(#clip320)"
       style="fill:none;stroke:#000000;stroke-width:4;stroke-linecap:round;stroke-linejoin:round;stroke-opacity:1"
       points="1050.11,1310.24 1050.11,1329.13 "
       id="polyline27116"
       transform="matrix(0.04464095,0,0,0.04364368,64.259909,2.386153)" /><path
       clip-path="url(#clip320)"
       d="m 272.807,2154.16 q 0,-7.43 1.878,-11.48 2.618,-6.03 8.794,-6.03 1.31,0 2.668,0.37 1.384,0.34 3.113,1.7 1.754,1.36 2.816,3.59 2.026,4.29 2.026,11.85 0,7.39 -1.878,11.42 -2.742,5.87 -8.794,5.87 -2.273,0 -4.595,-1.16 -2.297,-1.16 -3.755,-3.95 -2.273,-4.17 -2.273,-12.18 m 4.2,-0.61 q 0,7.63 0.543,10.67 0.618,3.28 2.298,4.72 1.704,1.4 3.582,1.4 2.026,0 3.705,-1.5 1.705,-1.54 2.224,-4.82 0.568,-3.24 0.543,-10.47 0,-7.05 -0.494,-9.86 -0.667,-3.29 -2.446,-4.6 -1.753,-1.33 -3.532,-1.33 -0.667,0 -1.383,0.2 -0.692,0.19 -1.705,0.76 -1.013,0.57 -1.803,1.98 -0.766,1.41 -1.137,3.53 -0.395,2.74 -0.395,9.32 z"
       fill="#000000"
       fill-rule="nonzero"
       fill-opacity="1"
       id="path27118"
       transform="matrix(0.04464095,0,0,0.04364368,64.259909,2.386153)" /><path
       clip-path="url(#clip320)"
       d="m 426.682,2170.34 q 0,-0.91 0.075,-1.18 0.098,-0.27 0.494,-0.69 l 9.708,-10.82 q 5.311,-5.98 5.311,-11.19 0,-3.39 -1.778,-5.81 -1.754,-2.42 -4.99,-2.42 -2.224,0 -4.101,1.36 -1.878,1.36 -2.742,3.78 0.148,-0.05 0.667,-0.05 1.26,0 1.951,0.79 0.717,0.79 0.717,1.85 0,1.36 -0.89,2.03 -0.864,0.64 -1.729,0.64 -0.346,0 -0.815,-0.08 -0.445,-0.07 -1.161,-0.76 -0.717,-0.72 -0.717,-1.98 0,-3.53 2.668,-6.35 2.693,-2.81 6.794,-2.81 4.644,0 7.683,2.76 3.063,2.75 3.063,7.05 0,1.5 -0.47,2.89 -0.444,1.35 -1.062,2.42 -0.593,1.06 -2.223,2.76 -1.631,1.71 -2.94,2.92 -1.309,1.21 -4.249,3.78 l -5.36,5.21 h 9.115 q 4.447,0 4.793,-0.4 0.494,-0.71 1.111,-4.49 h 1.285 l -1.433,8.79 z"
       fill="#000000"
       fill-rule="nonzero"
       fill-opacity="1"
       id="path27120"
       transform="matrix(0.04464095,0,0,0.04364368,64.259909,2.386153)" /><path
       clip-path="url(#clip320)"
       d="m 578.902,2161.99 v -1.55 l 15.539,-23.74 q 0.395,-0.62 1.013,-0.6 0.568,0 0.691,0.23 0.124,0.22 0.124,1.08 v 23.03 h 5.064 v 1.55 h -5.064 v 4.4 q 0,1.46 0.593,1.93 0.617,0.47 3.236,0.47 h 1.062 v 1.55 q -2.075,-0.14 -6.867,-0.14 -4.768,0 -6.843,0.14 v -1.55 h 1.062 q 2.618,0 3.236,-0.45 0.618,-0.47 0.618,-1.95 v -4.4 h -13.464 m 1.433,-1.55 h 12.327 v -18.88 z"
       fill="#000000"
       fill-rule="nonzero"
       fill-opacity="1"
       id="path27122"
       transform="matrix(0.04464095,0,0,0.04364368,64.259909,2.386153)" /><path
       clip-path="url(#clip320)"
       d="m 732.95,2154.36 q 0,-7.95 4.052,-12.82 4.051,-4.89 9.263,-4.89 3.039,0 4.719,1.55 1.704,1.54 1.704,3.91 0,1.31 -0.766,1.87 -0.765,0.57 -1.556,0.57 -0.914,0 -1.63,-0.61 -0.717,-0.62 -0.717,-1.73 0,-2.28 2.792,-2.28 -1.309,-2.02 -4.447,-2.02 -0.963,0 -1.951,0.29 -0.989,0.28 -2.273,1.21 -1.285,0.94 -2.273,2.43 -0.988,1.48 -1.68,4.27 -0.691,2.79 -0.691,6.42 v 1.21 q 2.075,-5.01 6.324,-4.99 4.249,0 7.188,3.24 2.94,3.23 2.94,8.03 0,4.91 -3.063,8.17 -3.063,3.26 -7.362,3.26 -1.927,0 -3.681,-0.81 -1.729,-0.79 -3.359,-2.62 -1.606,-1.83 -2.569,-5.33 -0.964,-3.51 -0.964,-8.33 m 4.644,4.55 q 0,4.96 0.915,7.33 0.148,0.4 0.469,0.94 0.346,0.54 0.914,1.26 0.593,0.69 1.556,1.16 0.964,0.45 2.075,0.45 3.385,0 5.015,-3.29 0.865,-1.83 0.865,-6.79 0,-5.07 -0.914,-6.92 -1.557,-3.14 -4.719,-3.14 -2.124,0 -3.606,1.46 -1.458,1.46 -2.026,3.41 -0.544,1.95 -0.544,4.13 z"
       fill="#000000"
       fill-rule="nonzero"
       fill-opacity="1"
       id="path27124"
       transform="matrix(0.04464095,0,0,0.04364368,64.259909,2.386153)" /><path
       clip-path="url(#clip320)"
       d="m 886.282,2162.71 q 0,-5.66 7.287,-9.31 -3.137,-2.13 -3.705,-2.75 -2.224,-2.47 -2.224,-5.55 0,-3.54 2.668,-5.98 2.693,-2.47 6.497,-2.47 3.632,0 6.374,2.1 2.742,2.1 2.742,5.43 0,4.7 -6.126,7.86 4.051,2.52 5.014,3.58 2.471,2.74 2.471,6.23 0,4.05 -3.113,6.84 -3.113,2.76 -7.411,2.76 -4.2,0 -7.337,-2.44 -3.137,-2.45 -3.137,-6.3 m 2.52,0 q 0,3.14 2.346,5.24 2.372,2.1 5.657,2.1 3.187,0 5.559,-1.83 2.396,-1.83 2.396,-4.55 0,-1.06 -0.371,-1.97 -0.345,-0.92 -1.062,-1.63 -0.692,-0.74 -1.136,-1.07 -0.42,-0.34 -1.235,-0.91 l -6.226,-3.93 q -5.928,3.29 -5.928,8.55 m 1.062,-19.59 q 0,2.42 2.544,4.1 l 6.275,4.05 q 5.015,-2.94 5.015,-7.09 0,-2.69 -2.051,-4.47 -2.05,-1.8 -4.891,-1.8 -2.791,0 -4.842,1.48 -2.05,1.46 -2.05,3.73 z"
       fill="#000000"
       fill-rule="nonzero"
       fill-opacity="1"
       id="path27126"
       transform="matrix(0.04464095,0,0,0.04364368,64.259909,2.386153)" /><path
       clip-path="url(#clip320)"
       d="m 1028.08,2141.47 v -1.59 q 6.07,0 9.21,-3.23 0.87,0 1.01,0.2 0.15,0.19 0.15,1.11 v 28.38 q 0,1.51 0.74,1.98 0.74,0.47 3.98,0.47 h 1.61 v 1.55 q -1.78,-0.14 -8.21,-0.14 -6.42,0 -8.17,0.14 v -1.55 h 1.6 q 3.19,0 3.96,-0.45 0.76,-0.47 0.76,-2 v -26.21 q -2.64,1.34 -6.64,1.34 z"
       fill="#000000"
       fill-rule="nonzero"
       fill-opacity="1"
       id="path27128"
       transform="matrix(0.04464095,0,0,0.04364368,64.259909,2.386153)" /><path
       clip-path="url(#clip320)"
       d="m 1050.85,2154.16 q 0,-7.43 1.88,-11.48 2.62,-6.03 8.8,-6.03 1.3,0 2.66,0.37 1.39,0.34 3.12,1.7 1.75,1.36 2.81,3.59 2.03,4.29 2.03,11.85 0,7.39 -1.88,11.42 -2.74,5.87 -8.79,5.87 -2.28,0 -4.6,-1.16 -2.3,-1.16 -3.75,-3.95 -2.28,-4.17 -2.28,-12.18 m 4.2,-0.61 q 0,7.63 0.55,10.67 0.61,3.28 2.29,4.72 1.71,1.4 3.59,1.4 2.02,0 3.7,-1.5 1.71,-1.54 2.22,-4.82 0.57,-3.24 0.55,-10.47 0,-7.05 -0.5,-9.86 -0.66,-3.29 -2.44,-4.6 -1.76,-1.33 -3.53,-1.33 -0.67,0 -1.39,0.2 -0.69,0.19 -1.7,0.76 -1.01,0.57 -1.81,1.98 -0.76,1.41 -1.13,3.53 -0.4,2.74 -0.4,9.32 z"
       fill="#000000"
       fill-rule="nonzero"
       fill-opacity="1"
       id="path27130"
       transform="matrix(0.04464095,0,0,0.04364368,64.259909,2.386153)" /><path
       clip-path="url(#clip320)"
       d="m 638.092,2221.75 q 0,1.71 -1.127,2.81 -1.095,1.09 -2.512,1.09 -1.224,0 -1.868,-0.71 -0.644,-0.71 -0.644,-1.61 0,-1.29 0.998,-2.35 0.998,-1.06 2.448,-1.29 -1.063,-0.77 -2.77,-0.77 -2.802,0 -5.282,2.16 -1.095,1 -2.286,2.83 -1.192,1.8 -1.418,2.58 l -2.093,8.6 q -0.193,0.96 -1.385,5.6 -1.159,4.61 -1.256,4.8 -0.322,0.9 -1.03,1.38 -0.709,0.49 -1.417,0.49 -0.806,0 -1.353,-0.49 -0.548,-0.48 -0.548,-1.32 0,-0.13 0.097,-0.61 0.097,-0.48 0.258,-1.16 0.161,-0.67 0.225,-1.06 l 3.833,-15.23 q 0.708,-2.77 0.869,-3.64 0.193,-0.91 0.193,-1.9 0,-1.74 -0.547,-2.39 -0.548,-0.64 -1.514,-0.64 -1.674,0 -2.769,2 -1.095,1.99 -2.029,5.86 -0.29,1.06 -0.484,1.29 -0.161,0.22 -0.644,0.22 -0.805,-0.03 -0.805,-0.68 0,-0.16 0.258,-1.19 0.257,-1.06 0.741,-2.61 0.515,-1.57 1.062,-2.57 0.322,-0.68 0.612,-1.13 0.29,-0.45 0.87,-1.16 0.58,-0.71 1.449,-1.09 0.87,-0.39 1.932,-0.39 2.319,0 3.962,1.42 1.674,1.41 2.061,3.64 0.805,-1.16 1.803,-2.16 0.999,-1.03 2.835,-1.97 1.835,-0.93 3.8,-0.93 2.448,0 3.961,1.26 1.514,1.22 1.514,3.02 z"
       fill="#000000"
       fill-rule="nonzero"
       fill-opacity="1"
       id="path27132"
       transform="matrix(0.04464095,0,0,0.04364368,64.259909,2.386153)" /><path
       clip-path="url(#clip320)"
       d="m 640.674,2262.17 q 0,-0.32 0.258,-1.03 l 23.285,-62.22 q 0,-0.07 0.161,-0.42 0.161,-0.35 0.258,-0.58 0.096,-0.26 0.29,-0.45 0.225,-0.19 0.483,-0.19 0.644,0 0.644,0.8 0,0.07 -0.194,0.84 l -23.349,62.29 q -0.386,1.12 -0.644,1.44 -0.225,0.33 -0.612,0.33 -0.58,0 -0.58,-0.81 z"
       fill="#000000"
       fill-rule="nonzero"
       fill-opacity="1"
       id="path27134"
       transform="matrix(0.04464095,0,0,0.04364368,64.259909,2.386153)" /><path
       clip-path="url(#clip320)"
       d="m 718.491,2246.62 -8.631,-0.2 q -7.117,0 -9.501,0.2 v -2.03 q 5.475,0 5.475,-2 0,-0.16 -0.193,-0.93 l -3.478,-10.08 h -16.296 l -3.06,8.63 q -0.129,0.25 -0.129,1 0,1.38 1.321,2.38 1.32,1 3.639,1 v 2.03 l -7.601,-0.2 -6.698,0.2 v -2.03 q 2.866,-0.07 4.702,-1.07 1.835,-0.99 2.673,-3.38 l 13.655,-39.42 q 0.258,-0.77 0.547,-1.03 0.29,-0.29 1.031,-0.29 0.515,0 0.805,0.2 0.29,0.16 0.387,0.38 0.129,0.2 0.322,0.74 l 14.235,41.23 q 0.547,1.64 1.61,2.15 1.063,0.49 4.026,0.49 h 1.159 v 2.03 m -17.069,-17.07 -7.439,-21.45 -7.408,21.45 h 14.847 m -1.32,-35.98 q 0,-3.8 -4.155,-3.8 -4.154,0 -4.154,3.8 0,3.84 4.154,3.84 4.155,0 4.155,-3.84 m 2.19,-0.06 q 0,2.45 -1.836,4.19 -1.836,1.7 -4.573,1.7 -2.545,0 -4.413,-1.7 -1.867,-1.71 -1.867,-4.19 0,-2.26 1.803,-3.99 1.836,-1.74 4.605,-1.74 2.641,0 4.445,1.7 1.836,1.71 1.836,4.03 z"
       fill="#000000"
       fill-rule="nonzero"
       fill-opacity="1"
       id="path27136"
       transform="matrix(0.04464095,0,0,0.04364368,64.259909,2.386153)" /><polyline
       clip-path="url(#clip320)"
       style="fill:none;stroke:#000000;stroke-width:4;stroke-linecap:round;stroke-linejoin:round;stroke-opacity:1"
       points="283.455,2107.94 283.455,1310.24 "
       id="polyline27138"
       transform="matrix(0.04464095,0,0,0.04364368,64.259909,2.386153)" /><polyline
       clip-path="url(#clip320)"
       style="fill:none;stroke:#000000;stroke-width:4;stroke-linecap:round;stroke-linejoin:round;stroke-opacity:1"
       points="1050.11,2107.94 1050.11,1310.24 "
       id="polyline27140"
       transform="matrix(0.04464095,0,0,0.04364368,64.259909,2.386153)" /><polyline
       clip-path="url(#clip320)"
       style="fill:none;stroke:#000000;stroke-width:4;stroke-linecap:round;stroke-linejoin:round;stroke-opacity:1"
       points="283.455,2085.37 302.352,2085.37 "
       id="polyline27142"
       transform="matrix(0.04464095,0,0,0.04364368,64.259909,2.386153)" /><polyline
       clip-path="url(#clip320)"
       style="fill:none;stroke:#000000;stroke-width:4;stroke-linecap:round;stroke-linejoin:round;stroke-opacity:1"
       points="283.455,1846.71 302.352,1846.71 "
       id="polyline27144"
       transform="matrix(0.04464095,0,0,0.04364368,64.259909,2.386153)" /><polyline
       clip-path="url(#clip320)"
       style="fill:none;stroke:#000000;stroke-width:4;stroke-linecap:round;stroke-linejoin:round;stroke-opacity:1"
       points="283.455,1608.05 302.352,1608.05 "
       id="polyline27146"
       transform="matrix(0.04464095,0,0,0.04364368,64.259909,2.386153)" /><polyline
       clip-path="url(#clip320)"
       style="fill:none;stroke:#000000;stroke-width:4;stroke-linecap:round;stroke-linejoin:round;stroke-opacity:1"
       points="283.455,1369.39 302.352,1369.39 "
       id="polyline27148"
       transform="matrix(0.04464095,0,0,0.04364368,64.259909,2.386153)" /><polyline
       clip-path="url(#clip320)"
       style="fill:none;stroke:#000000;stroke-width:4;stroke-linecap:round;stroke-linejoin:round;stroke-opacity:1"
       points="1050.11,2085.37 1031.21,2085.37 "
       id="polyline27150"
       transform="matrix(0.04464095,0,0,0.04364368,64.259909,2.386153)" /><polyline
       clip-path="url(#clip320)"
       style="fill:none;stroke:#000000;stroke-width:4;stroke-linecap:round;stroke-linejoin:round;stroke-opacity:1"
       points="1050.11,1846.71 1031.21,1846.71 "
       id="polyline27152"
       transform="matrix(0.04464095,0,0,0.04364368,64.259909,2.386153)" /><polyline
       clip-path="url(#clip320)"
       style="fill:none;stroke:#000000;stroke-width:4;stroke-linecap:round;stroke-linejoin:round;stroke-opacity:1"
       points="1050.11,1608.05 1031.21,1608.05 "
       id="polyline27154"
       transform="matrix(0.04464095,0,0,0.04364368,64.259909,2.386153)" /><polyline
       clip-path="url(#clip320)"
       style="fill:none;stroke:#000000;stroke-width:4;stroke-linecap:round;stroke-linejoin:round;stroke-opacity:1"
       points="1050.11,1369.39 1031.21,1369.39 "
       id="polyline27156"
       transform="matrix(0.04464095,0,0,0.04364368,64.259909,2.386153)" /><path
       clip-path="url(#clip320)"
       d="m 226.16,2086.47 q 0,-7.44 1.878,-11.49 2.618,-6.03 8.794,-6.03 1.309,0 2.668,0.37 1.384,0.35 3.113,1.71 1.754,1.36 2.816,3.58 2.026,4.3 2.026,11.86 0,7.38 -1.878,11.41 -2.742,5.88 -8.794,5.88 -2.273,0 -4.595,-1.16 -2.297,-1.16 -3.755,-3.96 -2.273,-4.17 -2.273,-12.17 m 4.2,-0.62 q 0,7.63 0.543,10.67 0.618,3.29 2.298,4.72 1.704,1.41 3.582,1.41 2.025,0 3.705,-1.51 1.705,-1.53 2.224,-4.82 0.568,-3.23 0.543,-10.47 0,-7.04 -0.494,-9.86 -0.667,-3.28 -2.446,-4.59 -1.754,-1.34 -3.532,-1.34 -0.667,0 -1.384,0.2 -0.691,0.2 -1.704,0.77 -1.013,0.56 -1.804,1.97 -0.765,1.41 -1.136,3.54 -0.395,2.74 -0.395,9.31 z"
       fill="#000000"
       fill-rule="nonzero"
       fill-opacity="1"
       id="path27158"
       transform="matrix(0.04464095,0,0,0.04364368,64.259909,2.386153)" /><path
       clip-path="url(#clip320)"
       d="m 203.384,1835.11 v -1.58 q 6.077,0 9.214,-3.24 0.865,0 1.013,0.2 0.148,0.2 0.148,1.11 v 28.38 q 0,1.51 0.741,1.98 0.741,0.47 3.978,0.47 h 1.605 v 1.56 q -1.778,-0.15 -8.201,-0.15 -6.423,0 -8.177,0.15 v -1.56 h 1.606 q 3.186,0 3.952,-0.44 0.766,-0.47 0.766,-2.01 v -26.21 q -2.643,1.34 -6.645,1.34 z"
       fill="#000000"
       fill-rule="nonzero"
       fill-opacity="1"
       id="path27160"
       transform="matrix(0.04464095,0,0,0.04364368,64.259909,2.386153)" /><path
       clip-path="url(#clip320)"
       d="m 226.16,1847.81 q 0,-7.44 1.878,-11.49 2.618,-6.03 8.794,-6.03 1.309,0 2.668,0.37 1.384,0.35 3.113,1.71 1.754,1.36 2.816,3.58 2.026,4.3 2.026,11.86 0,7.38 -1.878,11.41 -2.742,5.88 -8.794,5.88 -2.273,0 -4.595,-1.16 -2.297,-1.16 -3.755,-3.96 -2.273,-4.17 -2.273,-12.17 m 4.2,-0.62 q 0,7.63 0.543,10.67 0.618,3.29 2.298,4.72 1.704,1.41 3.582,1.41 2.025,0 3.705,-1.51 1.705,-1.53 2.224,-4.82 0.568,-3.23 0.543,-10.47 0,-7.04 -0.494,-9.86 -0.667,-3.28 -2.446,-4.59 -1.754,-1.34 -3.532,-1.34 -0.667,0 -1.384,0.2 -0.691,0.2 -1.704,0.77 -1.013,0.56 -1.804,1.97 -0.765,1.41 -1.136,3.54 -0.395,2.74 -0.395,9.31 z"
       fill="#000000"
       fill-rule="nonzero"
       fill-opacity="1"
       id="path27162"
       transform="matrix(0.04464095,0,0,0.04364368,64.259909,2.386153)" /><path
       clip-path="url(#clip320)"
       d="m 201.408,1625.33 q 0,-0.92 0.074,-1.19 0.098,-0.27 0.494,-0.69 l 9.708,-10.82 q 5.311,-5.98 5.311,-11.19 0,-3.39 -1.778,-5.81 -1.754,-2.42 -4.99,-2.42 -2.224,0 -4.101,1.36 -1.878,1.36 -2.742,3.78 0.148,-0.05 0.667,-0.05 1.26,0 1.951,0.79 0.717,0.79 0.717,1.85 0,1.36 -0.89,2.03 -0.864,0.64 -1.729,0.64 -0.346,0 -0.815,-0.07 -0.445,-0.08 -1.161,-0.77 -0.716,-0.71 -0.716,-1.97 0,-3.54 2.668,-6.35 2.692,-2.82 6.793,-2.82 4.644,0 7.683,2.77 3.063,2.74 3.063,7.04 0,1.51 -0.469,2.89 -0.445,1.36 -1.063,2.42 -0.593,1.06 -2.223,2.77 -1.63,1.7 -2.94,2.91 -1.309,1.21 -4.249,3.78 l -5.36,5.21 h 9.115 q 4.447,0 4.793,-0.39 0.494,-0.72 1.111,-4.5 h 1.285 l -1.433,8.8 z"
       fill="#000000"
       fill-rule="nonzero"
       fill-opacity="1"
       id="path27164"
       transform="matrix(0.04464095,0,0,0.04364368,64.259909,2.386153)" /><path
       clip-path="url(#clip320)"
       d="m 226.16,1609.15 q 0,-7.44 1.878,-11.49 2.618,-6.03 8.794,-6.03 1.309,0 2.668,0.37 1.384,0.35 3.113,1.71 1.754,1.35 2.816,3.58 2.026,4.3 2.026,11.86 0,7.38 -1.878,11.41 -2.742,5.88 -8.794,5.88 -2.273,0 -4.595,-1.16 -2.297,-1.16 -3.755,-3.96 -2.273,-4.17 -2.273,-12.17 m 4.2,-0.62 q 0,7.63 0.543,10.67 0.618,3.29 2.298,4.72 1.704,1.41 3.582,1.41 2.025,0 3.705,-1.51 1.705,-1.53 2.224,-4.82 0.568,-3.23 0.543,-10.47 0,-7.04 -0.494,-9.86 -0.667,-3.28 -2.446,-4.59 -1.754,-1.34 -3.532,-1.34 -0.667,0 -1.384,0.2 -0.691,0.2 -1.704,0.77 -1.013,0.56 -1.804,1.97 -0.765,1.41 -1.136,3.54 -0.395,2.74 -0.395,9.31 z"
       fill="#000000"
       fill-rule="nonzero"
       fill-opacity="1"
       id="path27166"
       transform="matrix(0.04464095,0,0,0.04364368,64.259909,2.386153)" /><path
       clip-path="url(#clip320)"
       d="m 201.012,1379.85 q 0,-1.51 0.865,-2.22 0.865,-0.72 1.976,-0.72 1.161,0 1.976,0.76 0.84,0.75 0.84,2.05 0,1.41 -0.988,2.2 -0.963,0.79 -2.347,0.6 1.211,2.02 3.434,2.94 2.248,0.91 4.323,0.91 2.174,0 3.928,-1.88 1.779,-1.87 1.779,-6.47 0,-3.9 -1.532,-6.15 -1.507,-2.25 -4.496,-2.25 h -2.223 q -0.766,0 -0.988,-0.07 -0.223,-0.08 -0.223,-0.5 0,-0.49 0.766,-0.59 0.766,0 1.976,-0.15 2.94,-0.1 4.496,-2.64 1.409,-2.37 1.409,-5.76 0,-3.09 -1.483,-4.37 -1.457,-1.31 -3.359,-1.31 -1.779,0 -3.731,0.74 -1.951,0.74 -3.013,2.4 3.137,0 3.137,2.54 0,1.11 -0.716,1.86 -0.692,0.71 -1.853,0.71 -1.112,0 -1.853,-0.69 -0.741,-0.72 -0.741,-1.93 0,-2.89 2.569,-4.89 2.594,-2 6.398,-2 3.755,0 6.522,1.98 2.791,1.97 2.791,5.01 0,2.99 -1.976,5.44 -1.976,2.44 -5.113,3.46 3.853,0.76 6.151,3.38 2.297,2.59 2.297,5.78 0,3.95 -3.112,6.87 -3.113,2.89 -7.659,2.89 -4.199,0 -7.213,-2.27 -3.014,-2.28 -3.014,-5.66 z"
       fill="#000000"
       fill-rule="nonzero"
       fill-opacity="1"
       id="path27168"
       transform="matrix(0.04464095,0,0,0.04364368,64.259909,2.386153)" /><path
       clip-path="url(#clip320)"
       d="m 226.16,1370.49 q 0,-7.44 1.878,-11.49 2.618,-6.03 8.794,-6.03 1.309,0 2.668,0.37 1.384,0.35 3.113,1.71 1.754,1.35 2.816,3.58 2.026,4.3 2.026,11.86 0,7.38 -1.878,11.41 -2.742,5.88 -8.794,5.88 -2.273,0 -4.595,-1.16 -2.297,-1.16 -3.755,-3.96 -2.273,-4.17 -2.273,-12.17 m 4.2,-0.62 q 0,7.63 0.543,10.67 0.618,3.29 2.298,4.72 1.704,1.41 3.582,1.41 2.025,0 3.705,-1.51 1.705,-1.53 2.224,-4.82 0.568,-3.23 0.543,-10.47 0,-7.04 -0.494,-9.86 -0.667,-3.28 -2.446,-4.59 -1.754,-1.34 -3.532,-1.34 -0.667,0 -1.384,0.2 -0.691,0.2 -1.704,0.77 -1.013,0.56 -1.804,1.97 -0.765,1.41 -1.136,3.54 -0.395,2.74 -0.395,9.31 z"
       fill="#000000"
       fill-rule="nonzero"
       fill-opacity="1"
       id="path27170"
       transform="matrix(0.04464095,0,0,0.04364368,64.259909,2.386153)" /><path
       clip-path="url(#clip320)"
       d="m 126.782,1737.73 q 0.032,0 1.191,0.19 l 29.275,7.35 q 1.546,0.38 3.092,1.48 1.578,1.06 2.931,2.77 1.385,1.67 2.222,4.25 0.87,2.54 0.87,5.47 0,4.67 -0.999,6.74 -0.966,2.02 -3.027,2.02 -1.804,0 -2.834,-1.12 -0.999,-1.13 -0.999,-2.42 0,-1.22 0.709,-1.87 0.709,-0.64 1.61,-0.64 0.999,0 1.997,0.68 1.031,0.67 1.417,2.03 0.676,-2.16 0.676,-5.29 0,-6.6 -6.988,-9.43 -0.097,-0.07 -0.129,-0.07 l -8.728,-2.19 -0.064,0.1 q 0.644,0.55 1.385,1.42 0.708,0.83 1.578,2.64 0.869,1.8 0.869,3.57 0,3.71 -2.834,6.25 -2.866,2.51 -7.6,2.51 -3.447,0 -6.893,-1.38 -3.478,-1.42 -6.022,-3.61 -2.576,-2.22 -4.187,-5.06 -1.61,-2.86 -1.61,-5.63 0,-1.93 1.159,-3.58 1.128,-1.64 2.995,-2.54 -1.545,-0.16 -2.19,-1.03 -0.644,-0.9 -0.644,-1.68 0,-0.87 0.483,-1.38 0.451,-0.55 1.289,-0.55 m 4.025,5.41 q -0.193,0 -0.708,0.13 -0.548,0.13 -1.417,0.52 -0.87,0.35 -1.643,0.9 -0.773,0.55 -1.32,1.54 -0.58,0.97 -0.58,2.19 0,2 1.675,4 1.642,1.99 4.187,3.38 2.447,1.29 7.182,2.51 4.734,1.19 7.149,1.19 2.383,0 4.219,-1.03 1.836,-1.03 1.836,-3.25 0,-2.58 -2.383,-5.35 -2.48,-2.86 -4.606,-3.35 l -12.592,-3.18 q -0.773,-0.2 -0.999,-0.2 z"
       fill="#000000"
       fill-rule="nonzero"
       fill-opacity="1"
       id="path27172"
       transform="matrix(0.04464095,0,0,0.04364368,64.259909,2.386153)" /><path
       clip-path="url(#clip320)"
       d="m 136.347,1728.69 q -11.143,0 -20.129,-4.16 -3.768,-1.77 -6.924,-4.25 -3.156,-2.48 -4.541,-4.12 -1.385,-1.64 -1.385,-2.09 0,-0.65 0.644,-0.68 0.322,0 1.127,0.87 10.822,10.63 31.208,10.6 20.451,0 30.853,-10.34 1.127,-1.13 1.482,-1.13 0.644,0 0.644,0.68 0,0.45 -1.321,2.03 -1.32,1.57 -4.348,4.02 -3.027,2.45 -6.731,4.22 -8.985,4.35 -20.579,4.35 z"
       fill="#000000"
       fill-rule="nonzero"
       fill-opacity="1"
       id="path27174"
       transform="matrix(0.04464095,0,0,0.04364368,64.259909,2.386153)" /><path
       clip-path="url(#clip320)"
       d="m 127.973,1681.52 q 1.707,0 2.802,1.12 1.095,1.1 1.095,2.52 0,1.22 -0.708,1.86 -0.709,0.65 -1.611,0.65 -1.288,0 -2.351,-1 -1.062,-1 -1.288,-2.45 -0.773,1.06 -0.773,2.77 0,2.8 2.158,5.28 0.998,1.1 2.834,2.29 1.804,1.19 2.577,1.42 l 8.599,2.09 q 0.966,0.19 5.603,1.39 4.606,1.15 4.799,1.25 0.902,0.32 1.385,1.03 0.483,0.71 0.483,1.42 0,0.8 -0.483,1.35 -0.483,0.55 -1.321,0.55 -0.128,0 -0.611,-0.1 -0.484,-0.09 -1.16,-0.26 -0.676,-0.16 -1.063,-0.22 l -15.233,-3.83 q -2.77,-0.71 -3.639,-0.87 -0.902,-0.2 -1.9,-0.2 -1.74,0 -2.384,0.55 -0.644,0.55 -0.644,1.52 0,1.67 1.997,2.77 1.997,1.09 5.861,2.02 1.063,0.29 1.289,0.49 0.225,0.16 0.225,0.64 -0.032,0.81 -0.676,0.81 -0.161,0 -1.192,-0.26 -1.063,-0.26 -2.609,-0.74 -1.578,-0.52 -2.576,-1.06 -0.676,-0.33 -1.127,-0.62 -0.451,-0.29 -1.16,-0.87 -0.708,-0.58 -1.095,-1.45 -0.386,-0.86 -0.386,-1.93 0,-2.32 1.417,-3.96 1.417,-1.67 3.639,-2.06 -1.159,-0.81 -2.158,-1.8 -1.03,-1 -1.964,-2.84 -0.934,-1.83 -0.934,-3.8 0,-2.45 1.256,-3.96 1.224,-1.51 3.027,-1.51 z"
       fill="#000000"
       fill-rule="nonzero"
       fill-opacity="1"
       id="path27176"
       transform="matrix(0.04464095,0,0,0.04364368,64.259909,2.386153)" /><path
       clip-path="url(#clip320)"
       d="m 168.682,1675.5 q -0.323,0 -1.128,-0.84 -10.821,-10.62 -31.207,-10.62 -20.451,0 -30.789,10.21 -1.192,1.25 -1.546,1.25 -0.644,0 -0.644,-0.64 0,-0.45 1.32,-2.03 1.321,-1.61 4.348,-4.03 3.028,-2.44 6.731,-4.25 8.986,-4.35 20.58,-4.35 11.143,0 20.128,4.16 3.769,1.77 6.925,4.25 3.156,2.48 4.541,4.12 1.385,1.64 1.385,2.13 0,0.64 -0.644,0.64 z"
       fill="#000000"
       fill-rule="nonzero"
       fill-opacity="1"
       id="path27178"
       transform="matrix(0.04464095,0,0,0.04364368,64.259909,2.386153)" /><polyline
       clip-path="url(#clip324)"
       style="fill:none;stroke:#808080;stroke-width:4;stroke-linecap:round;stroke-linejoin:round;stroke-opacity:1"
       stroke-dasharray="16, 10"
       points="-483.203,2061.5 1816.77,2061.5 "
       id="polyline27180"
       transform="matrix(0.04464095,0,0,0.04364368,64.259909,2.386153)" /><polyline
       clip-path="url(#clip324)"
       style="fill:none;stroke:#e56f6f;stroke-width:8;stroke-linecap:round;stroke-linejoin:round;stroke-opacity:1"
       points="284.672,2085.37 285.986,2085.37 287.435,2085.37 288.929,2085.37 290.439,2085.37 291.957,2085.37 293.48,2085.37 295.005,2085.37 296.533,2085.37 298.061,2085.37 299.591,2085.37 301.121,2085.37 302.652,2085.37 304.183,2085.37 305.714,2085.37 307.246,2085.37 308.778,2085.37 310.31,2085.37 311.842,2085.37 313.374,2085.37 314.906,2085.37 316.439,2085.37 317.971,2085.37 319.504,2085.37 321.036,2085.37 322.569,2085.37 324.102,2085.37 325.635,2085.37 327.168,2085.37 328.7,2085.37 330.233,2085.37 331.766,2085.37 333.299,2085.37 334.832,2085.37 336.365,2085.37 337.898,2085.37 339.431,2085.37 340.964,2085.37 342.497,2085.37 344.03,2085.37 345.563,2085.37 347.096,2085.37 348.63,2085.37 350.163,2085.37 351.696,2085.37 353.229,2085.37 354.762,2085.37 356.295,2085.37 357.828,2085.37 359.361,2085.37 360.895,2085.37 362.428,2085.37 363.961,2085.37 365.494,2085.37 367.027,2085.37 368.561,2085.37 370.094,2085.37 371.627,2085.37 373.16,2085.37 374.693,2085.37 376.227,2085.37 377.76,2085.37 379.293,2085.37 380.826,2085.37 382.359,2085.37 383.893,2085.37 385.426,2085.37 386.959,2084.17 388.492,2085.37 390.026,2084.25 391.559,2077.17 393.092,2067.11 394.625,2062.8 396.158,2034.32 397.692,2000.88 399.225,1942.4 400.758,1914.07 402.291,1839.35 403.825,1754.18 405.358,1671.04 406.891,1582.49 408.424,1525.94 409.958,1450.27 411.491,1393.28 413.024,1405.43 414.558,1332.81 416.091,1380.81 417.624,1421.76 419.157,1386.9 420.691,1485.64 422.224,1541.88 423.757,1589.95 425.29,1623.4 426.824,1701.29 428.357,1731.35 429.89,1760.43 431.423,1814.56 432.957,1854.31 434.49,1879.66 436.023,1915.21 437.557,1925.35 439.09,1953.74 440.623,1982.16 442.156,1985.17 443.69,2013.43 445.223,2022.78 446.756,2030.45 448.29,2038.22 449.823,2042.43 451.356,2053.03 452.889,2059.76 454.423,2062.81 455.956,2065.44 457.489,2068.28 459.023,2071.44 460.556,2071.3 462.089,2075.71 463.622,2078.46 465.156,2078.16 466.689,2079.22 468.222,2080.25 469.756,2081.72 471.289,2080.3 472.822,2080.96 474.355,2082.14 475.889,2082.82 477.422,2082.93 478.955,2082.57 480.489,2083.83 482.022,2082.67 483.555,2083.98 485.088,2083.68 486.622,2083.57 488.155,2084.37 489.688,2084.07 491.222,2084.39 492.755,2084.81 494.288,2084.69 495.822,2084.3 497.355,2084.15 498.888,2084.45 500.421,2084.56 501.955,2084.24 503.488,2084.75 505.021,2084.25 506.555,2084.5 508.088,2085.13 509.621,2085.02 511.155,2084.89 512.688,2084.31 514.221,2084.22 515.754,2084.68 517.288,2084.49 518.821,2084.7 520.354,2084.29 521.888,2084.82 523.421,2084.61 524.954,2084.83 526.487,2084.64 528.021,2084.47 529.554,2084.76 531.087,2084.67 532.621,2084.77 534.154,2084.38 535.687,2083.62 537.221,2084.14 538.754,2083.56 540.287,2084.34 541.82,2084.73 543.354,2083.92 544.887,2084.02 546.42,2084.39 547.954,2084.84 549.487,2084.16 551.02,2084.09 552.554,2083.53 554.087,2084.02 555.62,2083.42 557.154,2082.78 558.687,2083.34 560.22,2083.67 561.753,2083.38 563.287,2083.14 564.82,2083.14 566.353,2083.56 567.887,2083.48 569.42,2082.99 570.953,2083.03 572.487,2083.39 574.02,2082.33 575.553,2082.84 577.086,2082.75 578.62,2082.83 580.153,2082.59 581.686,2082.48 583.22,2082.74 584.753,2082.65 586.286,2081.62 587.82,2082.66 589.353,2082.65 590.886,2080.83 592.42,2082.21 593.953,2082.13 595.486,2080.89 597.019,2082.15 598.553,2082.18 600.086,2080.69 601.619,2081.07 603.153,2080.73 604.686,2079.56 606.219,2079.61 607.753,2080.17 609.286,2079.89 610.819,2080.44 612.353,2078.95 613.886,2079.61 615.419,2078.92 616.952,2078.82 618.486,2079.36 620.019,2078.28 621.552,2078.19 623.086,2077.09 624.619,2078.45 626.152,2076.45 627.686,2076.99 629.219,2076.68 630.752,2076.49 632.286,2077.13 633.819,2076.89 635.352,2075.51 636.885,2075.16 638.419,2075.1 639.952,2076.66 641.485,2075.76 643.019,2072.55 644.552,2073.96 646.085,2075.48 647.619,2074.27 649.152,2072.97 650.685,2074.55 652.219,2074.02 653.752,2072.73 655.285,2072.95 656.818,2072.88 658.352,2071.66 659.885,2073.41 661.418,2072.28 662.952,2070.11 664.485,2070.47 666.018,2070.73 667.552,2070.75 669.085,2068.71 670.618,2070.15 672.152,2069.29 673.685,2069.74 675.218,2069.34 676.751,2068.64 678.285,2067.16 679.818,2066.55 681.351,2067.56 682.885,2068.01 684.418,2068.37 685.951,2067.43 687.485,2066.81 689.018,2066.77 690.551,2065.28 692.085,2066.09 693.618,2066.13 695.151,2064.23 696.684,2064.94 698.218,2065.35 699.751,2063.88 701.284,2064.91 702.818,2062.84 704.351,2064.13 705.884,2063.8 707.418,2061.49 708.951,2062.74 710.484,2062.87 712.018,2063.01 713.551,2062.83 715.084,2060.17 716.618,2062.85 718.151,2061.74 719.684,2060.99 721.217,2061.42 722.751,2060.91 724.284,2060.57 725.817,2059.84 727.351,2060.93 728.884,2058.54 730.417,2059.9 731.951,2061.41 733.484,2060.8 735.017,2060.99 736.551,2060.57 738.084,2059.47 739.617,2059.14 741.15,2059.47 742.684,2060.93 744.217,2059.8 745.75,2060.28 747.284,2059.51 748.817,2058.93 750.35,2059.41 751.884,2059.16 753.417,2060.22 754.95,2060.59 756.484,2059.02 758.017,2057.05 759.55,2059.27 761.084,2059.2 762.617,2058.25 764.15,2059.54 765.683,2059.55 767.217,2060.65 768.75,2060.92 770.283,2059.39 771.817,2060.23 773.35,2060.01 774.883,2059.83 776.417,2060.15 777.95,2060.19 779.483,2060.19 781.017,2060.55 782.55,2060.29 784.083,2060.57 785.617,2059.66 787.15,2061.17 788.683,2060.21 790.216,2059.99 791.75,2060.25 793.283,2061.82 794.816,2061.32 796.35,2061.24 797.883,2061.68 799.416,2061.03 800.95,2061.44 802.483,2061.36 804.016,2062.02 805.55,2062.12 807.083,2061.53 808.616,2061.69 810.15,2060.87 811.683,2061.8 813.216,2060.88 814.749,2061.19 816.283,2062.63 817.816,2062.15 819.349,2062.3 820.883,2061.68 822.416,2060.92 823.949,2060.71 825.483,2061.93 827.016,2060.96 828.549,2060.66 830.083,2063.43 831.616,2062.05 833.149,2062.54 834.683,2062.13 836.216,2062.06 837.749,2062.19 839.282,2062.78 840.816,2062.44 842.349,2062.08 843.882,2061.45 845.416,2062.56 846.949,2063.01 848.482,2063.64 850.016,2062.85 851.549,2062.69 853.082,2062.04 854.616,2062.58 856.149,2062.69 857.682,2062.96 859.216,2062.17 860.749,2062.41 862.282,2062.45 863.815,2062.56 865.349,2063.69 866.882,2063.34 868.415,2062.38 869.949,2062.85 871.482,2063.68 873.015,2063.32 874.549,2063.41 876.082,2063.67 877.615,2063.88 879.149,2062.93 880.682,2064.1 882.215,2063.72 883.749,2064.85 885.282,2063.49 886.815,2063.16 888.348,2064.56 889.882,2064.55 891.415,2065.04 892.948,2063.68 894.482,2064.98 896.015,2063.58 897.548,2064.43 899.082,2064.72 900.615,2063.61 902.148,2064.91 903.682,2065.22 905.215,2065.04 906.748,2063.92 908.282,2064.93 909.815,2064.89 911.348,2063.24 912.881,2064.14 914.415,2064.07 915.948,2064.35 917.481,2064.8 919.015,2064.64 920.548,2065.23 922.081,2065.2 923.615,2063.93 925.148,2064.66 926.681,2065.37 928.215,2065.3 929.748,2065.21 931.281,2065.89 932.815,2064.82 934.348,2066.18 935.881,2065.23 937.414,2065.5 938.948,2065.78 940.481,2065.59 942.014,2065.85 943.548,2064.98 945.081,2065.97 946.614,2065.07 948.148,2065.96 949.681,2064.94 951.214,2065.63 952.748,2065.63 954.281,2065.16 955.814,2065.39 957.348,2066.22 958.881,2066.23 960.414,2065.67 961.947,2065.86 963.481,2065.17 965.014,2066.55 966.547,2064.96 968.081,2065.48 969.614,2065.91 971.147,2066.11 972.681,2065.17 974.214,2065.13 975.747,2066.45 977.281,2065.17 978.814,2065 980.347,2064.55 981.881,2066.21 983.414,2064.98 984.947,2064.96 986.48,2065.48 988.014,2065.36 989.547,2064.98 991.08,2065.34 992.614,2065.55 994.147,2064.78 995.68,2064.57 997.214,2064.82 998.747,2065.12 1000.28,2064.69 1001.81,2065.31 1003.35,2065.08 1004.88,2065.26 1006.41,2064.91 1007.95,2064.98 1009.48,2064.77 1011.01,2064.12 1012.55,2064.65 1014.08,2065.38 1015.61,2064.56 1017.15,2064.02 1018.68,2063.81 1020.21,2063.94 1021.75,2064.72 1023.28,2064.27 1024.81,2064.27 1026.35,2063.65 1027.88,2063.89 1029.41,2064.29 1030.95,2064.14 1032.48,2063.96 1034.01,2063.39 1035.55,2064.16 1037.08,2064.38 1038.61,2063.47 1040.15,2063.53 1041.68,2063.12 1043.21,2062.96 1044.75,2062.95 1046.28,2064.39 1047.81,2063.25 1049.35,2063.57 1050.88,2063.66 1052.41,2063.36 1053.95,2063.45 1055.48,2063.57 1057.01,2062.72 1058.55,2063.43 1060.08,2063.27 1061.61,2063.34 1063.15,2063.16 1064.68,2063.23 1066.21,2063.38 1067.75,2063.19 1069.28,2061.77 1070.81,2062.87 1072.35,2062.62 1073.88,2062.39 1075.41,2062.75 1076.95,2062.14 1078.48,2062.5 1080.01,2061.98 1081.55,2062.88 1083.08,2063.1 1084.61,2062.42 1086.15,2062.31 1087.68,2061.56 1089.21,2062.82 1090.75,2061.78 1092.28,2062.09 1093.81,2062.03 1095.35,2061.45 1096.88,2061.58 1098.41,2062.06 1099.95,2061.6 1101.48,2061.94 1103.01,2061.63 1104.55,2061.75 1106.08,2061.42 1107.61,2061.33 1109.15,2061.76 1110.68,2061.78 1112.21,2061.72 1113.75,2062.12 1115.28,2061.56 1116.81,2061.6 1118.35,2061.19 1119.88,2061.27 1121.41,2061.52 1122.95,2061.41 1124.48,2060.66 1126.01,2060.34 1127.55,2061.83 1129.08,2060.78 1130.61,2061.28 1132.15,2060.24 1133.68,2060.17 1135.21,2061.5 1136.75,2061.25 1138.28,2060.21 1139.81,2061.14 1141.35,2061.24 1142.88,2061.39 1144.41,2061.59 1145.95,2061.1 1147.48,2060.84 1149.01,2060.46 1150.55,2061.08 1152.08,2060.77 1153.61,2060.13 1155.15,2060.8 1156.68,2061.36 1158.21,2061.22 1159.74,2061.19 1161.28,2060.98 1162.81,2060.54 1164.34,2060.59 1165.88,2061.39 1167.41,2060.11 1168.94,2060.32 1170.48,2060.18 1172.01,2061.06 1173.54,2059.79 1175.08,2060.7 1176.61,2060.31 1178.14,2060.09 1179.68,2060.52 1181.21,2059.63 1182.74,2061.1 1184.28,2059.94 1185.81,2060.42 1187.34,2060.92 1188.88,2059.81 1190.41,2060.15 1191.94,2060.53 1193.48,2060.29 1195.01,2059.91 1196.54,2059.39 1198.08,2060.19 1199.61,2060.15 1201.14,2059.38 1202.68,2060.96 1204.21,2061 1205.74,2061.03 1207.28,2059.38 1208.81,2059.68 1210.34,2060.39 1211.88,2060.19 1213.41,2060.02 1214.94,2059.02 1216.48,2060.71 1218.01,2059.89 1219.54,2060.28 1221.08,2059.54 1222.61,2059.67 1224.14,2059.82 1225.68,2059.22 1227.21,2059.73 1228.74,2059.82 1230.28,2059.15 1231.81,2059.87 1233.34,2059.84 1234.88,2059.76 1236.41,2059.33 1237.94,2060.21 1239.48,2059.87 1241.01,2059.62 1242.54,2060.43 1244.08,2058.68 1245.61,2059.95 1247.14,2060.41 1248.68,2060 1250.21,2060.27 1251.74,2059.49 1253.28,2059.57 1254.81,2060.14 1256.34,2059.5 1257.88,2059.52 1259.41,2059.12 1260.94,2059.93 1262.48,2059.88 1264.01,2060.69 1265.54,2060.36 1267.08,2059.81 1268.61,2059.55 1270.14,2059.81 1271.68,2060.3 1273.21,2059.2 1274.74,2060.02 1276.28,2060.06 1277.81,2059.56 1279.34,2059.36 1280.88,2060.24 1282.41,2060.89 1283.94,2059.41 1285.48,2060.57 1287.01,2060.23 1288.54,2060.12 1290.08,2060.01 1291.61,2059.69 1293.14,2059.97 1294.68,2060.36 1296.21,2059.48 1297.74,2060.6 1299.28,2059.81 1300.81,2059.4 1302.34,2060.46 1303.88,2060.29 1305.41,2059.88 1306.94,2060.12 1308.48,2060.67 1310.01,2061.03 1311.54,2060.02 1313.08,2060.22 1314.61,2060.7 1316.14,2060.59 1317.68,2060.68 1319.21,2060.86 1320.74,2059.94 1322.28,2060.87 1323.81,2061.05 1325.34,2060.82 1326.88,2060.43 1328.41,2060.23 1329.94,2060.55 1331.48,2060.63 1333.01,2060.83 1334.54,2060.58 1336.08,2060.43 1337.61,2061.14 1339.14,2060.48 1340.68,2060.06 1342.21,2060.44 1343.74,2060.17 1345.28,2060.91 1346.81,2060.42 1348.34,2060.72 1349.88,2061.17 1351.41,2060.76 1352.94,2060.51 1354.48,2060.58 1356.01,2060.54 1357.54,2061.24 1359.08,2059.77 1360.61,2060.34 1362.14,2060.39 1363.68,2061.68 1365.21,2060.68 1366.74,2060.88 1368.28,2060.67 1369.81,2060.38 1371.34,2060.44 1372.88,2060.49 1374.41,2060.1 1375.94,2061.09 1377.48,2060.65 1379.01,2061.01 1380.54,2060.58 1382.08,2060.42 1383.61,2059.88 1385.14,2060.3 1386.68,2060.2 1388.21,2060.87 1389.74,2060.72 1391.28,2060.37 1392.81,2060.36 1394.34,2060.31 1395.88,2060.81 1397.41,2060.5 1398.94,2060.74 1400.48,2060.54 1402.01,2060.94 1403.54,2060.59 1405.08,2059.72 1406.61,2060.41 1408.14,2060.5 1409.68,2060.57 1411.21,2060.27 1412.74,2060.7 1414.28,2059.52 1415.81,2061.04 1417.34,2060.06 1418.88,2060.31 1420.41,2060.1 1421.94,2059.97 1423.48,2060.4 1425.01,2060.35 1426.54,2060.42 1428.07,2060.76 1429.61,2060.34 1431.14,2060.49 1432.67,2059.99 1434.21,2060.24 1435.74,2061.29 1437.27,2060.34 1438.81,2060.17 1440.34,2060.1 1441.87,2060.72 1443.41,2060.49 1444.94,2061.16 1446.47,2060.03 1448.01,2060.77 1449.54,2060.23 1451.07,2059.99 1452.61,2060.76 1454.14,2060.28 1455.67,2060.55 1457.21,2060.37 1458.74,2060.88 1460.27,2060.62 1461.81,2060.53 1463.34,2060.51 1464.87,2060.58 1466.41,2061.54 1467.94,2060.19 1469.47,2060.6 1471.01,2060 1472.54,2060.8 1474.07,2060.81 1475.61,2059.88 1477.14,2061.03 1478.67,2060.79 1480.21,2060.46 1481.74,2060.27 1483.27,2060.57 1484.81,2060.62 1486.34,2060.6 1487.87,2060.53 1489.41,2060.94 1490.94,2060.22 1492.47,2060.44 1494.01,2060.5 1495.54,2061.17 1497.07,2060.78 1498.61,2060.61 1500.14,2060.79 1501.67,2060.43 1503.21,2060.29 1504.74,2060.65 1506.27,2060.72 1507.81,2059.88 1509.34,2060.47 1510.87,2060.78 1512.41,2060.65 1513.94,2060.7 1515.47,2061.03 1517.01,2060.3 1518.54,2060.52 1520.07,2060.86 1521.61,2060.2 1523.14,2060.47 1524.67,2060.93 1526.21,2061.11 1527.74,2061.44 1529.27,2060.57 1530.81,2060.09 1532.34,2060.72 1533.87,2060.73 1535.41,2061 1536.94,2060.46 1538.47,2060.91 1540.01,2060.73 1541.54,2060.61 1543.07,2060.71 1544.61,2061.1 1546.14,2060.7 1547.67,2060.29 1549.21,2060.66 1550.74,2060.71 1552.27,2060.9 1553.81,2061.01 1555.34,2060.96 1556.87,2060.77 1558.41,2060.3 1559.94,2060.28 1561.47,2060.68 1563.01,2060.46 1564.54,2061.34 1566.07,2060.85 1567.61,2061.2 1569.14,2061.04 1570.67,2061.2 1572.21,2061.28 1573.74,2061.02 1575.27,2061.29 1576.81,2061.28 1578.34,2060.85 1579.87,2060.64 1581.41,2061.17 1582.94,2060.89 1584.47,2061.22 1586.01,2060.82 1587.54,2061.48 1589.07,2060.59 1590.61,2060.81 1592.14,2061 1593.67,2060.81 1595.21,2061.21 1596.74,2061.28 1598.27,2060.94 1599.81,2061.09 1601.34,2061.31 1602.87,2060.87 1604.41,2060.88 1605.94,2060.96 1607.47,2060.8 1609.01,2060.76 1610.54,2061.14 1612.07,2061.44 1613.61,2061.4 1615.14,2060.91 1616.67,2060.65 1618.21,2060.67 1619.74,2060.74 1621.27,2060.85 1622.81,2061.05 1624.34,2060.91 1625.87,2060.59 1627.41,2060.9 1628.94,2061.22 1630.47,2061.18 1632.01,2060.69 1633.54,2060.7 1635.07,2061.41 1636.61,2060.56 1638.14,2061.04 1639.67,2061.13 1641.21,2060.81 1642.74,2061.03 1644.27,2061.07 1645.81,2060.72 1647.34,2061.14 1648.87,2061.16 1650.41,2061.16 1651.94,2061.23 1653.47,2061.18 1655.01,2061.07 1656.54,2061.05 1658.07,2061.27 1659.61,2061.12 1661.14,2061.16 1662.67,2062.04 1664.21,2061.29 1665.74,2060.83 1667.27,2061.02 1668.81,2061.28 1670.34,2061.49 1671.87,2060.87 1673.41,2061.01 1674.94,2061.03 1676.47,2060.77 1678.01,2061.07 1679.54,2061.3 1681.07,2061.79 1682.61,2061.49 1684.14,2061.16 1685.67,2061.05 1687.21,2061.06 1688.74,2061.11 1690.27,2061.19 1691.81,2061.29 1693.34,2060.92 1694.87,2061.63 1696.41,2061.45 1697.94,2061.8 1699.47,2061.35 1701,2061.74 1702.54,2061.69 1704.07,2061.67 1705.6,2061.45 1707.14,2061.44 1708.67,2060.99 1710.2,2061.44 1711.74,2061.64 1713.27,2061.4 1714.8,2062.21 1716.34,2060.81 1717.87,2061.44 1719.4,2061.5 1720.94,2061.56 1722.47,2061.4 1724,2061.3 1725.54,2061.63 1727.07,2061.4 1728.6,2061.78 1730.14,2061.67 1731.67,2061.59 1733.2,2061.9 1734.74,2061.19 1736.27,2061.66 1737.8,2061.65 1739.34,2061.83 1740.87,2061.59 1742.4,2061.64 1743.94,2061.56 1745.47,2061.74 1747,2061.42 1748.54,2061.59 1750.07,2061.44 1751.6,2061.9 1753.14,2061.78 1754.67,2061.53 1756.2,2061.45 1757.74,2061.78 1759.27,2061.95 1760.8,2061.73 1762.34,2062.16 1763.87,2061.83 1765.4,2061.64 1766.94,2061.94 1768.47,2061.88 1770,2061.81 1771.54,2061.4 1773.07,2061.92 1774.6,2061.92 1776.14,2061.83 1777.67,2061.47 1779.2,2061.72 1780.74,2061.38 1782.27,2061.57 1783.8,2061.99 1785.34,2061.37 1786.87,2061.76 1788.4,2061.48 1789.94,2061.83 1791.47,2061.3 1793,2061.79 1794.54,2061.17 1796.07,2061.54 1797.6,2061.52 1799.14,2061.76 1800.67,2061.66 1802.2,2061.9 1803.74,2061.56 1805.27,2061.52 1806.8,2061.6 1808.34,2061.74 1809.87,2061.7 1811.4,2061.72 1812.94,2061.28 1814.47,2061.77 1816,2061.55 "
       id="polyline27182"
       transform="matrix(0.04464095,0,0,0.04364368,64.259909,2.386153)" /><path
       clip-path="url(#clip320)"
       d="M 609.678,1440.51 H 1024.56 V 1336.83 H 609.678 Z"
       fill="#ffffff"
       fill-rule="evenodd"
       fill-opacity="1"
       id="path27184"
       transform="matrix(0.04464095,0,0,0.04364368,64.259909,2.386153)" /><polyline
       clip-path="url(#clip320)"
       style="fill:#ffffff;fill-opacity:1;stroke:#000000;stroke-width:4;stroke-linecap:round;stroke-linejoin:round;stroke-opacity:1"
       points="609.678,1440.51 1024.56,1440.51 1024.56,1336.83 609.678,1336.83 609.678,1440.51 "
       id="polyline27186"
       transform="matrix(0.04464095,0,0,0.04364368,64.259909,2.386153)" /><polyline
       clip-path="url(#clip320)"
       style="fill:none;stroke:#e56f6f;stroke-width:8;stroke-linecap:round;stroke-linejoin:round;stroke-opacity:1"
       points="618.196,1388.67 669.306,1388.67 "
       id="polyline27188"
       transform="matrix(0.04464095,0,0,0.04364368,64.259909,2.386153)" /><path
       clip-path="url(#clip320)"
       d="m 677.825,1405.95 v -1.56 h 1.334 q 2.841,0 3.483,-0.44 0.667,-0.47 0.667,-1.96 v -26.65 q 0,-1.46 -0.667,-1.9 -0.667,-0.47 -3.483,-0.47 h -1.334 v -1.58 q 1.779,0.14 7.757,0.14 5.929,0 7.682,-0.14 v 1.58 h -1.309 q -2.841,0 -3.508,0.47 -0.642,0.44 -0.642,1.9 v 26.65 q 0,1.46 0.642,1.93 0.667,0.47 3.508,0.47 h 1.309 v 1.56 q -1.778,-0.15 -7.732,-0.15 -5.928,0 -7.707,0.15 z"
       fill="#000000"
       fill-rule="nonzero"
       fill-opacity="1"
       id="path27190"
       transform="matrix(0.04464095,0,0,0.04364368,64.259909,2.386153)" /><path
       clip-path="url(#clip320)"
       d="m 696.081,1372.97 v -1.58 l 7.287,-0.55 v 16.04 q 2.94,-3.29 6.942,-3.29 4.348,0 7.534,3.33 3.187,3.34 3.187,8.11 0,4.81 -3.335,8.15 -3.335,3.33 -7.954,3.33 -4.2,0 -6.621,-3.7 -1.779,3.09 -1.828,3.14 h -1.26 v -30.17 q 0,-1.87 -0.667,-2.34 -0.667,-0.47 -3.285,-0.47 m 7.435,27.22 q 0,1.06 0.717,2.13 2.001,3.06 5.262,3.06 0.024,0 0.049,0 3.533,0 5.731,-3.24 1.556,-2.42 1.556,-7.16 0,-4.7 -1.457,-7.04 -2.026,-3.24 -5.311,-3.24 -3.706,0 -5.978,3.24 -0.569,0.81 -0.569,1.83 z"
       fill="#000000"
       fill-rule="nonzero"
       fill-opacity="1"
       id="path27192"
       transform="matrix(0.04464095,0,0,0.04364368,64.259909,2.386153)" /><path
       clip-path="url(#clip320)"
       d="m 724.366,1385.71 v -1.58 l 7.436,-0.54 v 16.8 q 0,1.21 0.099,1.93 0.098,0.69 0.494,1.5 0.42,0.82 1.358,1.19 0.964,0.37 2.495,0.37 2.742,0 4.422,-2.25 1.705,-2.25 1.705,-5.58 v -9.02 q 0,-1.88 -0.667,-2.35 -0.667,-0.47 -3.286,-0.47 v -1.58 l 7.436,-0.54 v 17.96 q 0,1.88 0.642,2.37 0.667,0.47 3.31,0.47 v 1.56 l -7.287,0.56 v -4.57 q -2.125,4.55 -6.522,4.57 -2.223,0 -3.755,-0.56 -1.507,-0.57 -2.272,-1.26 -0.766,-0.72 -1.186,-2.08 -0.395,-1.36 -0.445,-2.2 -0.049,-0.84 -0.049,-2.47 v -7.58 q 0,-3.44 -0.494,-4.03 -0.494,-0.62 -3.434,-0.62 z"
       fill="#000000"
       fill-rule="nonzero"
       fill-opacity="1"
       id="path27194"
       transform="matrix(0.04464095,0,0,0.04364368,64.259909,2.386153)" /><path
       clip-path="url(#clip320)"
       d="m 751.293,1396.53 v -2.98 h 13.463 v 2.98 z"
       fill="#000000"
       fill-rule="nonzero"
       fill-opacity="1"
       id="path27196"
       transform="matrix(0.04464095,0,0,0.04364368,64.259909,2.386153)" /><path
       clip-path="url(#clip320)"
       d="m 769.301,1405.95 v -1.56 h 1.211 q 2.742,0 3.36,-0.44 0.642,-0.47 0.642,-1.96 v -26.65 q 0,-1.46 -0.642,-1.9 -0.643,-0.47 -3.36,-0.47 h -1.211 v -1.58 q 1.779,0.14 7.486,0.14 5.657,0 7.435,-0.14 v 1.58 h -1.21 q -2.742,0 -3.385,0.47 -0.617,0.44 -0.617,1.9 v 11.83 h 15.118 v -11.83 q 0,-1.46 -0.642,-1.9 -0.618,-0.47 -3.36,-0.47 h -1.21 v -1.58 q 1.779,0.14 7.485,0.14 5.657,0 7.436,-0.14 v 1.58 h -1.211 q -2.742,0 -3.384,0.47 -0.618,0.44 -0.618,1.9 v 26.65 q 0,1.46 0.643,1.93 0.642,0.47 3.359,0.47 h 1.211 v 1.56 q -1.779,-0.15 -7.485,-0.15 -5.657,0 -7.436,0.15 v -1.56 h 1.21 q 2.742,0 3.36,-0.44 0.642,-0.47 0.642,-1.96 v -13.24 H 779.01 v 13.24 q 0,1.46 0.617,1.93 0.643,0.47 3.385,0.47 h 1.21 v 1.56 q -1.778,-0.15 -7.485,-0.15 -5.657,0 -7.436,0.15 z"
       fill="#000000"
       fill-rule="nonzero"
       fill-opacity="1"
       id="path27198"
       transform="matrix(0.04464095,0,0,0.04364368,64.259909,2.386153)" /><path
       clip-path="url(#clip320)"
       d="m 822.883,1396.53 v -2.98 h 13.463 v 2.98 z"
       fill="#000000"
       fill-rule="nonzero"
       fill-opacity="1"
       id="path27200"
       transform="matrix(0.04464095,0,0,0.04364368,64.259909,2.386153)" /><path
       clip-path="url(#clip320)"
       d="m 857.863,1405.95 v -1.56 h 1.21 q 2.742,0 3.36,-0.44 0.642,-0.47 0.642,-1.96 v -26.65 q 0,-1.46 -0.642,-1.9 -0.642,-0.47 -3.36,-0.47 h -1.21 v -1.58 h 18.503 q 4.817,0 8.028,2.59 3.212,2.57 3.212,5.95 0,2.8 -2.372,5.02 -2.347,2.22 -6.027,2.94 4.199,0.44 6.966,2.99 2.791,2.52 2.791,5.8 0,3.71 -3.186,6.5 -3.187,2.77 -8.078,2.77 h -19.837 m 9.412,-3.59 q 0,1.31 0.37,1.68 0.371,0.35 2.1,0.35 h 6.324 q 3.632,0 5.732,-2.37 2.099,-2.4 2.099,-5.39 0,-2.99 -1.852,-5.53 -1.829,-2.57 -5.262,-2.57 h -9.511 v 13.83 m 0,-14.94 h 7.337 q 3.903,0 5.978,-2.35 2.1,-2.34 2.1,-5.14 0,-2.47 -1.68,-4.71 -1.655,-2.25 -4.99,-2.25 h -6.275 q -1.729,0 -2.1,0.34 -0.37,0.35 -0.37,1.68 z"
       fill="#000000"
       fill-rule="nonzero"
       fill-opacity="1"
       id="path27202"
       transform="matrix(0.04464095,0,0,0.04364368,64.259909,2.386153)" /><path
       clip-path="url(#clip320)"
       d="m 893.51,1405.95 v -1.56 h 1.21 q 2.742,0 3.36,-0.44 0.642,-0.47 0.642,-1.96 v -26.5 q 0,-1.46 -0.642,-1.9 -0.642,-0.47 -3.36,-0.47 h -1.21 v -1.59 h 28.483 l 1.408,11.39 h -1.26 q -0.346,-2.89 -0.815,-4.54 -0.445,-1.68 -1.556,-2.97 -1.087,-1.28 -2.891,-1.78 -1.778,-0.51 -4.669,-0.51 h -6.521 q -1.73,0 -2.1,0.37 -0.371,0.34 -0.371,1.65 v 12.13 h 4.546 q 3.483,0 4.471,-1.21 0.988,-1.21 0.988,-4.69 h 1.285 v 13.39 h -1.285 q 0,-3.44 -0.988,-4.67 -0.988,-1.24 -4.471,-1.24 h -4.546 v 13.51 q 0,1.31 0.371,1.68 0.395,0.35 2.1,0.35 h 6.744 q 2.174,0 3.755,-0.27 1.605,-0.3 2.717,-0.99 1.112,-0.72 1.853,-1.53 0.766,-0.82 1.284,-2.27 0.544,-1.49 0.84,-2.84 0.321,-1.36 0.667,-3.59 h 1.26 l -2.124,13.05 z"
       fill="#000000"
       fill-rule="nonzero"
       fill-opacity="1"
       id="path27204"
       transform="matrix(0.04464095,0,0,0.04364368,64.259909,2.386153)" /><path
       clip-path="url(#clip320)"
       d="m 928.045,1383.07 0.964,-11.36 h 30.904 l 0.963,11.36 h -1.26 q -0.198,-2.27 -0.395,-3.58 -0.173,-1.31 -0.618,-2.55 -0.42,-1.26 -0.963,-1.85 -0.519,-0.62 -1.532,-1.08 -1.013,-0.5 -2.322,-0.62 -1.309,-0.13 -3.285,-0.13 -2.323,0 -2.891,0.1 -0.617,0.15 -0.766,0.6 -0.148,0.42 -0.148,1.33 v 26.65 q 0,1.02 0.198,1.44 0.222,0.39 1.383,0.71 1.161,0.3 3.73,0.3 h 2.026 v 1.56 q -2.075,-0.15 -9.609,-0.15 -7.486,0 -9.561,0.15 v -1.56 h 2.026 q 2.569,0 3.73,-0.3 1.186,-0.32 1.384,-0.71 0.197,-0.42 0.197,-1.44 v -26.65 q 0,-0.72 -0.049,-1.01 -0.05,-0.3 -0.272,-0.55 -0.222,-0.27 -0.741,-0.37 -0.494,-0.1 -2.717,-0.1 -1.977,0 -3.311,0.13 -1.309,0.12 -2.322,0.62 -1.013,0.46 -1.556,1.08 -0.519,0.59 -0.963,1.85 -0.42,1.24 -0.593,2.55 -0.173,1.31 -0.371,3.58 z"
       fill="#000000"
       fill-rule="nonzero"
       fill-opacity="1"
       id="path27206"
       transform="matrix(0.04464095,0,0,0.04364368,64.259909,2.386153)" /><path
       clip-path="url(#clip320)"
       d="m 963.223,1396.53 v -2.98 h 13.463 v 2.98 z"
       fill="#000000"
       fill-rule="nonzero"
       fill-opacity="1"
       id="path27208"
       transform="matrix(0.04464095,0,0,0.04364368,64.259909,2.386153)" /><path
       clip-path="url(#clip320)"
       d="m 982.393,1388.8 q 0,-7.73 4.94,-13.12 4.966,-5.41 11.858,-5.41 6.939,0 11.879,5.41 4.97,5.41 4.97,13.12 0,7.64 -4.97,12.95 -4.96,5.31 -11.879,5.31 -6.818,0 -11.808,-5.29 -4.99,-5.28 -4.99,-12.97 m 5.212,-0.71 q 0,4.69 1.112,8.3 1.111,3.58 2.89,5.53 1.803,1.95 3.73,2.89 1.927,0.94 3.903,0.94 1.93,0 3.8,-0.92 1.91,-0.91 3.71,-2.84 1.8,-1.92 2.94,-5.53 1.14,-3.61 1.14,-8.37 0,-3.71 -0.79,-6.67 -0.79,-2.99 -2.03,-4.8 -1.24,-1.8 -2.84,-2.99 -1.58,-1.18 -3.09,-1.63 -1.48,-0.47 -2.889,-0.47 -1.779,0 -3.632,0.8 -1.852,0.79 -3.73,2.54 -1.852,1.73 -3.038,5.16 -1.186,3.41 -1.186,8.06 z"
       fill="#000000"
       fill-rule="nonzero"
       fill-opacity="1"
       id="path27210"
       transform="matrix(0.04464095,0,0,0.04364368,64.259909,2.386153)" /></g></svg>
