<?xml version="1.0" encoding="UTF-8" standalone="no"?>
<!-- Created with Inkscape (http://www.inkscape.org/) -->

<svg
   width="42.685944mm"
   height="41.668537mm"
   viewBox="0 0 42.685944 41.668537"
   version="1.1"
   id="svg5"
   xml:space="preserve"
   inkscape:version="1.2.2 (b0a8486541, 2022-12-01)"
   sodipodi:docname="mddf.svg"
   xmlns:inkscape="http://www.inkscape.org/namespaces/inkscape"
   xmlns:sodipodi="http://sodipodi.sourceforge.net/DTD/sodipodi-0.dtd"
   xmlns="http://www.w3.org/2000/svg"
   xmlns:svg="http://www.w3.org/2000/svg"><sodipodi:namedview
     id="namedview7"
     pagecolor="#ffffff"
     bordercolor="#000000"
     borderopacity="0.25"
     inkscape:showpageshadow="2"
     inkscape:pageopacity="0.0"
     inkscape:pagecheckerboard="0"
     inkscape:deskcolor="#d1d1d1"
     inkscape:document-units="mm"
     showgrid="false"
     inkscape:zoom="1.9955967"
     inkscape:cx="357.78772"
     inkscape:cy="227.50087"
     inkscape:window-width="1890"
     inkscape:window-height="1048"
     inkscape:window-x="30"
     inkscape:window-y="0"
     inkscape:window-maximized="1"
     inkscape:current-layer="layer1" /><defs
     id="defs2"><clipPath
       id="clip320"><rect
         x="0"
         y="0"
         width="2400"
         height="2400"
         id="rect26771" /></clipPath><clipPath
       id="clip322"><rect
         x="283"
         y="110"
         width="768"
         height="799"
         id="rect26785" /></clipPath></defs><g
     inkscape:label="Layer 1"
     inkscape:groupmode="layer"
     id="layer1"
     transform="translate(-16.858391,-13.845803)"><polyline
       clip-path="url(#clip320)"
       style="fill:none;stroke:#000000;stroke-width:4;stroke-linecap:round;stroke-linejoin:round;stroke-opacity:1"
       points="1050.11,110.236 1050.11,129.134 "
       id="polyline26816"
       transform="matrix(0.04464095,0,0,0.04364368,11.68254,9.121985)" /><polyline
       clip-path="url(#clip320)"
       style="fill:none;stroke:#000000;stroke-width:4;stroke-linecap:round;stroke-linejoin:round;stroke-opacity:1"
       points="1050.11,153.592 1031.21,153.592 "
       id="polyline26856"
       transform="matrix(0.04464095,0,0,0.04364368,11.68254,9.121985)" /><path
       clip-path="url(#clip320)"
       d="M 283.455,907.943 H 1050.11 V 110.236 H 283.455 Z"
       fill="#ffffff"
       fill-rule="evenodd"
       fill-opacity="1"
       id="path26783"
       transform="matrix(0.04464095,0,0,0.04364368,11.68254,9.121985)" /><polyline
       clip-path="url(#clip320)"
       style="fill:none;stroke:#000000;stroke-width:4;stroke-linecap:round;stroke-linejoin:round;stroke-opacity:1"
       points="283.455,907.943 1050.11,907.943 "
       id="polyline26790"
       transform="matrix(0.04464095,0,0,0.04364368,11.68254,9.121985)" /><polyline
       clip-path="url(#clip320)"
       style="fill:none;stroke:#000000;stroke-width:4;stroke-linecap:round;stroke-linejoin:round;stroke-opacity:1"
       points="283.455,110.236 1050.11,110.236 "
       id="polyline26792"
       transform="matrix(0.04464095,0,0,0.04364368,11.68254,9.121985)" /><polyline
       clip-path="url(#clip320)"
       style="fill:none;stroke:#000000;stroke-width:4;stroke-linecap:round;stroke-linejoin:round;stroke-opacity:1"
       points="283.455,907.943 283.455,889.046 "
       id="polyline26794"
       transform="matrix(0.04464095,0,0,0.04364368,11.68254,9.121985)" /><polyline
       clip-path="url(#clip320)"
       style="fill:none;stroke:#000000;stroke-width:4;stroke-linecap:round;stroke-linejoin:round;stroke-opacity:1"
       points="436.786,907.943 436.786,889.046 "
       id="polyline26796"
       transform="matrix(0.04464095,0,0,0.04364368,11.68254,9.121985)" /><polyline
       clip-path="url(#clip320)"
       style="fill:none;stroke:#000000;stroke-width:4;stroke-linecap:round;stroke-linejoin:round;stroke-opacity:1"
       points="590.118,907.943 590.118,889.046 "
       id="polyline26798"
       transform="matrix(0.04464095,0,0,0.04364368,11.68254,9.121985)" /><polyline
       clip-path="url(#clip320)"
       style="fill:none;stroke:#000000;stroke-width:4;stroke-linecap:round;stroke-linejoin:round;stroke-opacity:1"
       points="743.449,907.943 743.449,889.046 "
       id="polyline26800"
       transform="matrix(0.04464095,0,0,0.04364368,11.68254,9.121985)" /><polyline
       clip-path="url(#clip320)"
       style="fill:none;stroke:#000000;stroke-width:4;stroke-linecap:round;stroke-linejoin:round;stroke-opacity:1"
       points="896.781,907.943 896.781,889.046 "
       id="polyline26802"
       transform="matrix(0.04464095,0,0,0.04364368,11.68254,9.121985)" /><polyline
       clip-path="url(#clip320)"
       style="fill:none;stroke:#000000;stroke-width:4;stroke-linecap:round;stroke-linejoin:round;stroke-opacity:1"
       points="1050.11,907.943 1050.11,889.046 "
       id="polyline26804"
       transform="matrix(0.04464095,0,0,0.04364368,11.68254,9.121985)" /><polyline
       clip-path="url(#clip320)"
       style="fill:none;stroke:#000000;stroke-width:4;stroke-linecap:round;stroke-linejoin:round;stroke-opacity:1"
       points="283.455,110.236 283.455,129.134 "
       id="polyline26806"
       transform="matrix(0.04464095,0,0,0.04364368,11.68254,9.121985)" /><polyline
       clip-path="url(#clip320)"
       style="fill:none;stroke:#000000;stroke-width:4;stroke-linecap:round;stroke-linejoin:round;stroke-opacity:1"
       points="436.786,110.236 436.786,129.134 "
       id="polyline26808"
       transform="matrix(0.04464095,0,0,0.04364368,11.68254,9.121985)" /><polyline
       clip-path="url(#clip320)"
       style="fill:none;stroke:#000000;stroke-width:4;stroke-linecap:round;stroke-linejoin:round;stroke-opacity:1"
       points="590.118,110.236 590.118,129.134 "
       id="polyline26810"
       transform="matrix(0.04464095,0,0,0.04364368,11.68254,9.121985)" /><polyline
       clip-path="url(#clip320)"
       style="fill:none;stroke:#000000;stroke-width:4;stroke-linecap:round;stroke-linejoin:round;stroke-opacity:1"
       points="743.449,110.236 743.449,129.134 "
       id="polyline26812"
       transform="matrix(0.04464095,0,0,0.04364368,11.68254,9.121985)" /><polyline
       clip-path="url(#clip320)"
       style="fill:none;stroke:#000000;stroke-width:4;stroke-linecap:round;stroke-linejoin:round;stroke-opacity:1"
       points="896.781,110.236 896.781,129.134 "
       id="polyline26814"
       transform="matrix(0.04464095,0,0,0.04364368,11.68254,9.121985)" /><path
       clip-path="url(#clip320)"
       d="m 272.807,954.163 q 0,-7.436 1.878,-11.487 2.618,-6.028 8.794,-6.028 1.31,0 2.668,0.371 1.384,0.345 3.113,1.704 1.754,1.359 2.816,3.582 2.026,4.298 2.026,11.858 0,7.386 -1.878,11.413 -2.742,5.879 -8.794,5.879 -2.273,0 -4.595,-1.161 -2.297,-1.161 -3.755,-3.953 -2.273,-4.174 -2.273,-12.178 m 4.2,-0.618 q 0,7.633 0.543,10.672 0.618,3.285 2.298,4.718 1.704,1.408 3.582,1.408 2.026,0 3.705,-1.507 1.705,-1.531 2.224,-4.817 0.568,-3.236 0.543,-10.474 0,-7.04 -0.494,-9.857 -0.667,-3.285 -2.446,-4.594 -1.753,-1.334 -3.532,-1.334 -0.667,0 -1.383,0.197 -0.692,0.198 -1.705,0.766 -1.013,0.568 -1.803,1.976 -0.766,1.408 -1.137,3.533 -0.395,2.742 -0.395,9.313 z"
       fill="#000000"
       fill-rule="nonzero"
       fill-opacity="1"
       id="path26818"
       transform="matrix(0.04464095,0,0,0.04364368,11.68254,9.121985)" /><path
       clip-path="url(#clip320)"
       d="m 426.682,970.343 q 0,-0.914 0.075,-1.185 0.098,-0.272 0.494,-0.692 l 9.708,-10.82 q 5.311,-5.978 5.311,-11.191 0,-3.384 -1.778,-5.805 -1.754,-2.421 -4.99,-2.421 -2.224,0 -4.101,1.359 -1.878,1.358 -2.742,3.779 0.148,-0.049 0.667,-0.049 1.26,0 1.951,0.79 0.717,0.791 0.717,1.853 0,1.359 -0.89,2.026 -0.864,0.642 -1.729,0.642 -0.346,0 -0.815,-0.074 -0.445,-0.074 -1.161,-0.766 -0.717,-0.716 -0.717,-1.976 0,-3.533 2.668,-6.349 2.693,-2.816 6.794,-2.816 4.644,0 7.683,2.767 3.063,2.742 3.063,7.04 0,1.507 -0.47,2.89 -0.444,1.359 -1.062,2.421 -0.593,1.063 -2.223,2.767 -1.631,1.705 -2.94,2.915 -1.309,1.211 -4.249,3.78 l -5.36,5.212 h 9.115 q 4.447,0 4.793,-0.395 0.494,-0.716 1.111,-4.496 h 1.285 l -1.433,8.794 z"
       fill="#000000"
       fill-rule="nonzero"
       fill-opacity="1"
       id="path26820"
       transform="matrix(0.04464095,0,0,0.04364368,11.68254,9.121985)" /><path
       clip-path="url(#clip320)"
       d="m 578.902,961.994 v -1.557 l 15.539,-23.74 q 0.395,-0.617 1.013,-0.593 0.568,0 0.691,0.223 0.124,0.222 0.124,1.087 v 23.023 h 5.064 v 1.557 h -5.064 v 4.397 q 0,1.457 0.593,1.927 0.617,0.469 3.236,0.469 h 1.062 v 1.556 q -2.075,-0.148 -6.867,-0.148 -4.768,0 -6.843,0.148 v -1.556 h 1.062 q 2.618,0 3.236,-0.445 0.618,-0.469 0.618,-1.951 v -4.397 h -13.464 m 1.433,-1.557 h 12.327 v -18.873 z"
       fill="#000000"
       fill-rule="nonzero"
       fill-opacity="1"
       id="path26822"
       transform="matrix(0.04464095,0,0,0.04364368,11.68254,9.121985)" /><path
       clip-path="url(#clip320)"
       d="m 732.95,954.36 q 0,-7.954 4.052,-12.821 4.051,-4.891 9.263,-4.891 3.039,0 4.719,1.556 1.704,1.532 1.704,3.903 0,1.31 -0.766,1.878 -0.765,0.568 -1.556,0.568 -0.914,0 -1.63,-0.618 -0.717,-0.617 -0.717,-1.729 0,-2.272 2.792,-2.272 -1.309,-2.026 -4.447,-2.026 -0.963,0 -1.951,0.296 -0.989,0.272 -2.273,1.211 -1.285,0.938 -2.273,2.421 -0.988,1.482 -1.68,4.273 -0.691,2.792 -0.691,6.423 v 1.211 q 2.075,-5.015 6.324,-4.99 4.249,0 7.188,3.236 2.94,3.236 2.94,8.028 0,4.916 -3.063,8.177 -3.063,3.261 -7.362,3.261 -1.927,0 -3.681,-0.815 -1.729,-0.791 -3.359,-2.619 -1.606,-1.828 -2.569,-5.336 -0.964,-3.508 -0.964,-8.325 m 4.644,4.546 q 0,4.965 0.915,7.337 0.148,0.395 0.469,0.938 0.346,0.544 0.914,1.26 0.593,0.692 1.556,1.161 0.964,0.445 2.075,0.445 3.385,0 5.015,-3.286 0.865,-1.828 0.865,-6.793 0,-5.064 -0.914,-6.917 -1.557,-3.137 -4.719,-3.137 -2.124,0 -3.606,1.457 -1.458,1.458 -2.026,3.409 -0.544,1.952 -0.544,4.126 z"
       fill="#000000"
       fill-rule="nonzero"
       fill-opacity="1"
       id="path26824"
       transform="matrix(0.04464095,0,0,0.04364368,11.68254,9.121985)" /><path
       clip-path="url(#clip320)"
       d="m 886.282,962.71 q 0,-5.657 7.287,-9.313 -3.137,-2.125 -3.705,-2.742 -2.224,-2.471 -2.224,-5.558 0,-3.533 2.668,-5.979 2.693,-2.47 6.497,-2.47 3.632,0 6.374,2.1 2.742,2.1 2.742,5.434 0,4.694 -6.126,7.856 4.051,2.52 5.014,3.582 2.471,2.742 2.471,6.225 0,4.052 -3.113,6.843 -3.113,2.767 -7.411,2.767 -4.2,0 -7.337,-2.446 -3.137,-2.445 -3.137,-6.299 m 2.52,0 q 0,3.137 2.346,5.237 2.372,2.1 5.657,2.1 3.187,0 5.559,-1.828 2.396,-1.828 2.396,-4.546 0,-1.062 -0.371,-1.976 -0.345,-0.914 -1.062,-1.63 -0.692,-0.741 -1.136,-1.063 -0.42,-0.345 -1.235,-0.914 l -6.226,-3.927 q -5.928,3.285 -5.928,8.547 m 1.062,-19.59 q 0,2.421 2.544,4.101 l 6.275,4.051 q 5.015,-2.939 5.015,-7.09 0,-2.692 -2.051,-4.471 -2.05,-1.803 -4.891,-1.803 -2.791,0 -4.842,1.482 -2.05,1.458 -2.05,3.73 z"
       fill="#000000"
       fill-rule="nonzero"
       fill-opacity="1"
       id="path26826"
       transform="matrix(0.04464095,0,0,0.04364368,11.68254,9.121985)" /><path
       clip-path="url(#clip320)"
       d="m 1028.08,941.465 v -1.581 q 6.07,0 9.21,-3.236 0.87,0 1.01,0.198 0.15,0.197 0.15,1.111 v 28.384 q 0,1.507 0.74,1.977 0.74,0.469 3.98,0.469 h 1.61 v 1.556 q -1.78,-0.148 -8.21,-0.148 -6.42,0 -8.17,0.148 v -1.556 h 1.6 q 3.19,0 3.96,-0.445 0.76,-0.469 0.76,-2.001 v -26.21 q -2.64,1.334 -6.64,1.334 z"
       fill="#000000"
       fill-rule="nonzero"
       fill-opacity="1"
       id="path26828"
       transform="matrix(0.04464095,0,0,0.04364368,11.68254,9.121985)" /><path
       clip-path="url(#clip320)"
       d="m 1050.85,954.163 q 0,-7.436 1.88,-11.487 2.62,-6.028 8.8,-6.028 1.3,0 2.66,0.371 1.39,0.345 3.12,1.704 1.75,1.359 2.81,3.582 2.03,4.298 2.03,11.858 0,7.386 -1.88,11.413 -2.74,5.879 -8.79,5.879 -2.28,0 -4.6,-1.161 -2.3,-1.161 -3.75,-3.953 -2.28,-4.174 -2.28,-12.178 m 4.2,-0.618 q 0,7.633 0.55,10.672 0.61,3.285 2.29,4.718 1.71,1.408 3.59,1.408 2.02,0 3.7,-1.507 1.71,-1.531 2.22,-4.817 0.57,-3.236 0.55,-10.474 0,-7.04 -0.5,-9.857 -0.66,-3.285 -2.44,-4.594 -1.76,-1.334 -3.53,-1.334 -0.67,0 -1.39,0.197 -0.69,0.198 -1.7,0.766 -1.01,0.568 -1.81,1.976 -0.76,1.408 -1.13,3.533 -0.4,2.742 -0.4,9.313 z"
       fill="#000000"
       fill-rule="nonzero"
       fill-opacity="1"
       id="path26830"
       transform="matrix(0.04464095,0,0,0.04364368,11.68254,9.121985)" /><path
       clip-path="url(#clip320)"
       d="m 638.092,1021.75 q 0,1.71 -1.127,2.81 -1.095,1.09 -2.512,1.09 -1.224,0 -1.868,-0.71 -0.644,-0.71 -0.644,-1.61 0,-1.29 0.998,-2.35 0.998,-1.06 2.448,-1.29 -1.063,-0.77 -2.77,-0.77 -2.802,0 -5.282,2.16 -1.095,1 -2.286,2.83 -1.192,1.8 -1.418,2.58 l -2.093,8.6 q -0.193,0.96 -1.385,5.6 -1.159,4.61 -1.256,4.8 -0.322,0.9 -1.03,1.38 -0.709,0.49 -1.417,0.49 -0.806,0 -1.353,-0.49 -0.548,-0.48 -0.548,-1.32 0,-0.13 0.097,-0.61 0.097,-0.48 0.258,-1.16 0.161,-0.67 0.225,-1.06 l 3.833,-15.23 q 0.708,-2.77 0.869,-3.64 0.193,-0.91 0.193,-1.9 0,-1.74 -0.547,-2.39 -0.548,-0.64 -1.514,-0.64 -1.674,0 -2.769,2 -1.095,1.99 -2.029,5.86 -0.29,1.06 -0.484,1.29 -0.161,0.22 -0.644,0.22 -0.805,-0.03 -0.805,-0.68 0,-0.16 0.258,-1.19 0.257,-1.06 0.741,-2.61 0.515,-1.57 1.062,-2.57 0.322,-0.68 0.612,-1.13 0.29,-0.45 0.87,-1.16 0.58,-0.71 1.449,-1.09 0.87,-0.39 1.932,-0.39 2.319,0 3.962,1.42 1.674,1.41 2.061,3.64 0.805,-1.16 1.803,-2.16 0.999,-1.03 2.835,-1.97 1.835,-0.93 3.8,-0.93 2.448,0 3.961,1.26 1.514,1.22 1.514,3.02 z"
       fill="#000000"
       fill-rule="nonzero"
       fill-opacity="1"
       id="path26832"
       transform="matrix(0.04464095,0,0,0.04364368,11.68254,9.121985)" /><path
       clip-path="url(#clip320)"
       d="m 640.674,1062.17 q 0,-0.32 0.258,-1.03 l 23.285,-62.221 q 0,-0.064 0.161,-0.418 0.161,-0.355 0.258,-0.58 0.096,-0.258 0.29,-0.451 0.225,-0.193 0.483,-0.193 0.644,0 0.644,0.805 0,0.064 -0.194,0.837 l -23.349,62.291 q -0.386,1.12 -0.644,1.44 -0.225,0.33 -0.612,0.33 -0.58,0 -0.58,-0.81 z"
       fill="#000000"
       fill-rule="nonzero"
       fill-opacity="1"
       id="path26834"
       transform="matrix(0.04464095,0,0,0.04364368,11.68254,9.121985)" /><path
       clip-path="url(#clip320)"
       d="m 718.491,1046.62 -8.631,-0.2 q -7.117,0 -9.501,0.2 v -2.03 q 5.475,0 5.475,-2 0,-0.16 -0.193,-0.93 l -3.478,-10.08 h -16.296 l -3.06,8.63 q -0.129,0.25 -0.129,1 0,1.38 1.321,2.38 1.32,1 3.639,1 v 2.03 l -7.601,-0.2 -6.698,0.2 v -2.03 q 2.866,-0.07 4.702,-1.07 1.835,-0.99 2.673,-3.38 l 13.655,-39.42 q 0.258,-0.77 0.547,-1.028 0.29,-0.29 1.031,-0.29 0.515,0 0.805,0.194 0.29,0.161 0.387,0.386 0.129,0.198 0.322,0.738 l 14.235,41.23 q 0.547,1.64 1.61,2.15 1.063,0.49 4.026,0.49 h 1.159 v 2.03 m -17.069,-17.07 -7.439,-21.45 -7.408,21.45 h 14.847 m -1.32,-35.977 q 0,-3.8 -4.155,-3.8 -4.154,0 -4.154,3.8 0,3.833 4.154,3.833 4.155,0 4.155,-3.833 m 2.19,-0.064 q 0,2.447 -1.836,4.186 -1.836,1.707 -4.573,1.707 -2.545,0 -4.413,-1.707 -1.867,-1.706 -1.867,-4.186 0,-2.255 1.803,-3.994 1.836,-1.739 4.605,-1.739 2.641,0 4.445,1.707 1.836,1.707 1.836,4.026 z"
       fill="#000000"
       fill-rule="nonzero"
       fill-opacity="1"
       id="path26836"
       transform="matrix(0.04464095,0,0,0.04364368,11.68254,9.121985)" /><polyline
       clip-path="url(#clip320)"
       style="fill:none;stroke:#000000;stroke-width:4;stroke-linecap:round;stroke-linejoin:round;stroke-opacity:1"
       points="283.455,907.943 283.455,110.236 "
       id="polyline26838"
       transform="matrix(0.04464095,0,0,0.04364368,11.68254,9.121985)" /><polyline
       clip-path="url(#clip320)"
       style="fill:none;stroke:#000000;stroke-width:4;stroke-linecap:round;stroke-linejoin:round;stroke-opacity:1"
       points="1050.11,907.943 1050.11,110.236 "
       id="polyline26840"
       transform="matrix(0.04464095,0,0,0.04364368,11.68254,9.121985)" /><polyline
       clip-path="url(#clip320)"
       style="fill:none;stroke:#000000;stroke-width:4;stroke-linecap:round;stroke-linejoin:round;stroke-opacity:1"
       points="283.455,884.593 302.352,884.593 "
       id="polyline26842"
       transform="matrix(0.04464095,0,0,0.04364368,11.68254,9.121985)" /><polyline
       clip-path="url(#clip320)"
       style="fill:none;stroke:#000000;stroke-width:4;stroke-linecap:round;stroke-linejoin:round;stroke-opacity:1"
       points="283.455,640.926 302.352,640.926 "
       id="polyline26844"
       transform="matrix(0.04464095,0,0,0.04364368,11.68254,9.121985)" /><polyline
       clip-path="url(#clip320)"
       style="fill:none;stroke:#000000;stroke-width:4;stroke-linecap:round;stroke-linejoin:round;stroke-opacity:1"
       points="283.455,397.259 302.352,397.259 "
       id="polyline26846"
       transform="matrix(0.04464095,0,0,0.04364368,11.68254,9.121985)" /><polyline
       clip-path="url(#clip320)"
       style="fill:none;stroke:#000000;stroke-width:4;stroke-linecap:round;stroke-linejoin:round;stroke-opacity:1"
       points="283.455,153.592 302.352,153.592 "
       id="polyline26848"
       transform="matrix(0.04464095,0,0,0.04364368,11.68254,9.121985)" /><polyline
       clip-path="url(#clip320)"
       style="fill:none;stroke:#000000;stroke-width:4;stroke-linecap:round;stroke-linejoin:round;stroke-opacity:1"
       points="1050.11,884.593 1031.21,884.593 "
       id="polyline26850"
       transform="matrix(0.04464095,0,0,0.04364368,11.68254,9.121985)" /><polyline
       clip-path="url(#clip320)"
       style="fill:none;stroke:#000000;stroke-width:4;stroke-linecap:round;stroke-linejoin:round;stroke-opacity:1"
       points="1050.11,640.926 1031.21,640.926 "
       id="polyline26852"
       transform="matrix(0.04464095,0,0,0.04364368,11.68254,9.121985)" /><polyline
       clip-path="url(#clip320)"
       style="fill:none;stroke:#000000;stroke-width:4;stroke-linecap:round;stroke-linejoin:round;stroke-opacity:1"
       points="1050.11,397.259 1031.21,397.259 "
       id="polyline26854"
       transform="matrix(0.04464095,0,0,0.04364368,11.68254,9.121985)" /><path
       clip-path="url(#clip320)"
       d="m 226.16,885.692 q 0,-7.436 1.878,-11.487 2.618,-6.028 8.794,-6.028 1.309,0 2.668,0.371 1.384,0.346 3.113,1.705 1.754,1.358 2.816,3.582 2.026,4.298 2.026,11.857 0,7.386 -1.878,11.413 -2.742,5.879 -8.794,5.879 -2.273,0 -4.595,-1.161 -2.297,-1.161 -3.755,-3.952 -2.273,-4.175 -2.273,-12.179 m 4.2,-0.617 q 0,7.633 0.543,10.671 0.618,3.286 2.298,4.719 1.704,1.408 3.582,1.408 2.025,0 3.705,-1.507 1.705,-1.532 2.224,-4.817 0.568,-3.236 0.543,-10.474 0,-7.041 -0.494,-9.857 -0.667,-3.286 -2.446,-4.595 -1.754,-1.334 -3.532,-1.334 -0.667,0 -1.384,0.198 -0.691,0.197 -1.704,0.766 -1.013,0.568 -1.804,1.976 -0.765,1.408 -1.136,3.532 -0.395,2.742 -0.395,9.314 z"
       fill="#000000"
       fill-rule="nonzero"
       fill-opacity="1"
       id="path26858"
       transform="matrix(0.04464095,0,0,0.04364368,11.68254,9.121985)" /><path
       clip-path="url(#clip320)"
       d="m 230.755,629.328 v -1.581 q 6.077,0 9.214,-3.237 0.865,0 1.013,0.198 0.149,0.198 0.149,1.112 v 28.384 q 0,1.507 0.741,1.976 0.741,0.47 3.977,0.47 h 1.606 v 1.556 q -1.779,-0.148 -8.202,-0.148 -6.423,0 -8.177,0.148 v -1.556 h 1.606 q 3.187,0 3.953,-0.445 0.765,-0.47 0.765,-2.001 v -26.21 q -2.643,1.334 -6.645,1.334 z"
       fill="#000000"
       fill-rule="nonzero"
       fill-opacity="1"
       id="path26860"
       transform="matrix(0.04464095,0,0,0.04364368,11.68254,9.121985)" /><path
       clip-path="url(#clip320)"
       d="m 227.247,414.539 q 0,-0.914 0.074,-1.186 0.099,-0.272 0.494,-0.692 l 9.709,-10.82 q 5.311,-5.978 5.311,-11.19 0,-3.385 -1.779,-5.806 -1.754,-2.421 -4.99,-2.421 -2.223,0 -4.1,1.359 -1.878,1.359 -2.742,3.78 0.148,-0.05 0.667,-0.05 1.259,0 1.951,0.791 0.716,0.79 0.716,1.853 0,1.358 -0.889,2.025 -0.864,0.643 -1.729,0.643 -0.346,0 -0.815,-0.075 -0.445,-0.074 -1.161,-0.765 -0.717,-0.717 -0.717,-1.977 0,-3.532 2.668,-6.348 2.693,-2.817 6.794,-2.817 4.644,0 7.682,2.767 3.064,2.742 3.064,7.041 0,1.507 -0.47,2.89 -0.444,1.359 -1.062,2.421 -0.593,1.062 -2.223,2.767 -1.631,1.704 -2.94,2.915 -1.309,1.21 -4.249,3.779 l -5.361,5.213 h 9.116 q 4.447,0 4.792,-0.396 0.494,-0.716 1.112,-4.496 h 1.285 l -1.433,8.795 z"
       fill="#000000"
       fill-rule="nonzero"
       fill-opacity="1"
       id="path26862"
       transform="matrix(0.04464095,0,0,0.04364368,11.68254,9.121985)" /><path
       clip-path="url(#clip320)"
       d="m 226.457,164.054 q 0,-1.507 0.864,-2.224 0.865,-0.716 1.977,-0.716 1.161,0 1.976,0.766 0.84,0.741 0.84,2.05 0,1.408 -0.988,2.199 -0.964,0.79 -2.347,0.593 1.21,2.025 3.434,2.939 2.248,0.914 4.323,0.914 2.174,0 3.928,-1.877 1.778,-1.878 1.778,-6.472 0,-3.904 -1.531,-6.152 -1.507,-2.248 -4.496,-2.248 h -2.224 q -0.766,0 -0.988,-0.074 -0.222,-0.074 -0.222,-0.494 0,-0.494 0.766,-0.593 0.765,0 1.976,-0.148 2.94,-0.099 4.496,-2.643 1.408,-2.372 1.408,-5.756 0,-3.088 -1.482,-4.372 -1.458,-1.31 -3.36,-1.31 -1.779,0 -3.73,0.741 -1.952,0.741 -3.014,2.397 3.137,0 3.137,2.544 0,1.112 -0.716,1.853 -0.692,0.716 -1.853,0.716 -1.111,0 -1.852,-0.691 -0.742,-0.717 -0.742,-1.927 0,-2.891 2.57,-4.892 2.593,-2.001 6.398,-2.001 3.755,0 6.521,1.977 2.792,1.976 2.792,5.014 0,2.99 -1.976,5.435 -1.977,2.446 -5.114,3.459 3.854,0.765 6.151,3.384 2.298,2.594 2.298,5.781 0,3.952 -3.113,6.867 -3.113,2.89 -7.658,2.89 -4.2,0 -7.213,-2.272 -3.014,-2.273 -3.014,-5.657 z"
       fill="#000000"
       fill-rule="nonzero"
       fill-opacity="1"
       id="path26864"
       transform="matrix(0.04464095,0,0,0.04364368,11.68254,9.121985)" /><path
       clip-path="url(#clip320)"
       d="m 139.358,572.427 q 0.032,0 1.191,0.194 l 29.275,7.343 q 1.546,0.386 3.092,1.481 1.578,1.063 2.931,2.77 1.385,1.674 2.222,4.251 0.87,2.544 0.87,5.475 0,4.67 -0.999,6.731 -0.966,2.029 -3.027,2.029 -1.804,0 -2.834,-1.127 -0.999,-1.128 -0.999,-2.416 0,-1.224 0.709,-1.868 0.708,-0.644 1.61,-0.644 0.998,0 1.997,0.676 1.03,0.677 1.417,2.029 0.676,-2.157 0.676,-5.281 0,-6.603 -6.988,-9.437 -0.097,-0.064 -0.129,-0.064 l -8.728,-2.19 -0.064,0.097 q 0.644,0.547 1.384,1.417 0.709,0.837 1.578,2.641 0.87,1.803 0.87,3.574 0,3.704 -2.834,6.248 -2.866,2.512 -7.601,2.512 -3.446,0 -6.892,-1.384 -3.478,-1.418 -6.022,-3.608 -2.577,-2.222 -4.187,-5.056 -1.61,-2.866 -1.61,-5.636 0,-1.932 1.159,-3.575 1.127,-1.642 2.995,-2.544 -1.546,-0.161 -2.19,-1.031 -0.644,-0.901 -0.644,-1.674 0,-0.87 0.483,-1.385 0.451,-0.548 1.289,-0.548 m 4.025,5.411 q -0.193,0 -0.708,0.129 -0.548,0.129 -1.417,0.515 -0.87,0.354 -1.643,0.902 -0.773,0.547 -1.32,1.546 -0.58,0.966 -0.58,2.19 0,1.996 1.675,3.993 1.642,1.997 4.186,3.382 2.448,1.288 7.182,2.512 4.735,1.192 7.15,1.192 2.383,0 4.219,-1.031 1.836,-1.031 1.836,-3.253 0,-2.576 -2.383,-5.346 -2.48,-2.866 -4.606,-3.349 l -12.592,-3.189 q -0.773,-0.193 -0.999,-0.193 z"
       fill="#000000"
       fill-rule="nonzero"
       fill-opacity="1"
       id="path26866"
       transform="matrix(0.04464095,0,0,0.04364368,11.68254,9.121985)" /><path
       clip-path="url(#clip320)"
       d="m 191.235,527.847 q 0.18,0 0.879,0.203 0.699,0.203 1.781,0.699 1.082,0.474 2.074,1.15 0.97,0.654 1.691,1.736 0.699,1.059 0.699,2.277 0,1.623 -1.082,2.705 -1.082,1.082 -2.705,1.082 -0.88,0 -2.548,-0.608 -7.62,-2.864 -10.348,-2.864 -3.223,0 -3.223,2.503 0,1.42 0.586,2.705 0.586,1.285 1.397,2.119 0.812,0.834 1.736,1.488 0.925,0.654 1.533,0.947 0.609,0.271 0.88,0.338 l 11.136,2.773 q 0.947,0.226 1.398,0.383 0.451,0.158 0.834,0.587 0.406,0.428 0.406,1.104 0,0.564 -0.338,0.97 -0.338,0.383 -0.924,0.383 -0.091,0 -0.564,-0.113 -0.473,-0.113 -1.127,-0.27 -0.654,-0.158 -1.037,-0.226 -3.066,-0.811 -3.495,-0.924 l -5.365,-1.285 q -2.66,-0.699 -3.833,-0.699 -3.223,0 -3.223,2.502 0,1.24 0.473,2.413 0.451,1.149 1.082,1.938 0.631,0.789 1.511,1.511 0.856,0.699 1.442,1.059 0.564,0.339 1.128,0.609 l 2.299,0.586 q 0.631,0.136 3.089,0.789 l 4.17,1.015 q 3.111,0.721 3.404,0.879 0.632,0.225 0.97,0.721 0.338,0.496 0.338,0.992 0,0.564 -0.338,0.947 -0.338,0.383 -0.924,0.383 -0.091,0 -0.429,-0.067 -0.338,-0.068 -0.811,-0.181 -0.474,-0.112 -0.744,-0.157 l -10.664,-2.683 q -1.938,-0.496 -2.547,-0.609 -0.631,-0.135 -1.33,-0.135 -2.119,0 -2.119,1.443 0,1.172 1.397,1.939 1.398,0.766 4.103,1.42 0.744,0.203 0.902,0.338 0.158,0.113 0.158,0.451 -0.023,0.563 -0.474,0.563 -0.112,0 -0.834,-0.18 -0.721,-0.18 -1.803,-0.518 -1.105,-0.361 -1.826,-0.744 -0.474,-0.226 -0.789,-0.429 -0.316,-0.203 -0.812,-0.608 -0.496,-0.406 -0.766,-1.015 -0.271,-0.609 -0.271,-1.353 0,-1.645 1.06,-2.863 1.059,-1.24 2.953,-1.397 -4.013,-2.999 -4.013,-7.192 0,-2.367 1.195,-3.787 1.15,-1.33 3.269,-1.488 -4.464,-3.111 -4.464,-7.53 0,-2.547 1.33,-3.923 1.308,-1.375 3.607,-1.375 1.195,0 3.472,0.609 2.254,0.609 3.382,1.014 1.127,0.406 3.291,1.195 2.074,0.834 3.292,0.834 0.789,0 1.149,-0.27 0.361,-0.271 0.361,-0.857 0,-0.902 -0.519,-1.691 -0.541,-0.789 -1.42,-1.352 -0.902,-0.586 -1.803,-0.97 -0.925,-0.383 -1.962,-0.676 -0.563,-0.18 -0.699,-0.271 -0.135,-0.112 -0.135,-0.428 0,-0.564 0.451,-0.564 z"
       fill="#000000"
       fill-rule="nonzero"
       fill-opacity="1"
       id="path26868"
       transform="matrix(0.04464095,0,0,0.04364368,11.68254,9.121985)" /><path
       clip-path="url(#clip320)"
       d="m 166.301,502.809 26.693,6.651 q 1.194,0.27 2.209,0.27 2.119,0 2.119,-1.375 0,-0.676 -0.428,-1.217 -0.429,-0.541 -1.33,-0.97 -0.902,-0.428 -1.736,-0.698 -0.857,-0.271 -2.21,-0.632 -0.541,-0.112 -0.676,-0.203 -0.158,-0.112 -0.158,-0.428 0,-0.564 0.451,-0.564 2.908,0.609 4.577,1.398 2.547,1.263 2.547,3.404 0,1.624 -0.992,2.773 -0.992,1.15 -2.48,1.421 3.472,2.953 3.472,6.019 0,2.705 -2.052,4.418 -2.074,1.714 -5.342,1.714 -3.292,0 -6.448,-1.623 -3.156,-1.646 -5.118,-4.239 -1.961,-2.592 -1.961,-5.252 0,-2.818 2.953,-4.261 l -10.956,-2.773 -0.902,-0.135 q -0.27,0 -0.406,0.112 -0.157,0.09 -0.27,0.632 -0.113,0.518 -0.113,1.555 0,0.428 -0.022,0.631 -0.023,0.181 -0.136,0.338 -0.135,0.158 -0.405,0.158 -0.79,0 -0.88,-0.654 -0.496,-4.328 -0.496,-5.861 0,-0.271 0.136,-0.428 0.112,-0.158 0.248,-0.158 l 0.112,-0.023 m 16.21,7.169 q -0.203,0 -0.767,0.158 -0.564,0.158 -1.353,0.519 -0.789,0.36 -1.352,1.149 -0.586,0.767 -0.586,1.804 0,1.398 1.194,2.863 1.195,1.443 3.224,2.502 1.623,0.812 5.028,1.691 3.404,0.857 5.095,0.857 1.037,0 1.961,-0.226 0.902,-0.247 1.646,-0.946 0.721,-0.699 0.721,-1.781 0,-2.638 -3.269,-5.231 -0.564,-0.496 -0.789,-0.608 -0.248,-0.136 -0.924,-0.316 l -9.04,-2.299 q -0.677,-0.136 -0.789,-0.136 z"
       fill="#000000"
       fill-rule="nonzero"
       fill-opacity="1"
       id="path26870"
       transform="matrix(0.04464095,0,0,0.04364368,11.68254,9.121985)" /><path
       clip-path="url(#clip320)"
       d="m 148.923,493.992 q -11.144,0 -20.129,-4.155 -3.768,-1.771 -6.924,-4.251 -3.156,-2.48 -4.541,-4.122 -1.385,-1.643 -1.385,-2.094 0,-0.644 0.644,-0.676 0.322,0 1.127,0.87 10.821,10.628 31.208,10.595 20.45,0 30.853,-10.338 1.127,-1.127 1.481,-1.127 0.644,0 0.644,0.676 0,0.451 -1.32,2.029 -1.32,1.578 -4.348,4.026 -3.027,2.448 -6.731,4.219 -8.985,4.348 -20.579,4.348 z"
       fill="#000000"
       fill-rule="nonzero"
       fill-opacity="1"
       id="path26872"
       transform="matrix(0.04464095,0,0,0.04364368,11.68254,9.121985)" /><path
       clip-path="url(#clip320)"
       d="m 140.549,446.821 q 1.707,0 2.802,1.127 1.095,1.095 1.095,2.512 0,1.224 -0.708,1.868 -0.709,0.644 -1.611,0.644 -1.288,0 -2.351,-0.998 -1.063,-0.999 -1.288,-2.448 -0.773,1.063 -0.773,2.77 0,2.802 2.158,5.281 0.998,1.095 2.834,2.287 1.803,1.192 2.576,1.417 l 8.599,2.094 q 0.967,0.193 5.604,1.384 4.606,1.16 4.799,1.256 0.902,0.322 1.385,1.031 0.483,0.709 0.483,1.417 0,0.805 -0.483,1.353 -0.483,0.547 -1.321,0.547 -0.129,0 -0.612,-0.096 -0.483,-0.097 -1.159,-0.258 -0.676,-0.161 -1.063,-0.225 l -15.233,-3.833 q -2.77,-0.709 -3.639,-0.87 -0.902,-0.193 -1.901,-0.193 -1.739,0 -2.383,0.548 -0.644,0.547 -0.644,1.513 0,1.675 1.997,2.77 1.997,1.095 5.861,2.029 1.063,0.29 1.288,0.483 0.226,0.161 0.226,0.644 -0.032,0.805 -0.676,0.805 -0.161,0 -1.192,-0.257 -1.063,-0.258 -2.609,-0.741 -1.578,-0.515 -2.576,-1.063 -0.676,-0.322 -1.127,-0.612 -0.451,-0.29 -1.16,-0.869 -0.708,-0.58 -1.095,-1.449 -0.386,-0.87 -0.386,-1.933 0,-2.319 1.417,-3.961 1.417,-1.675 3.639,-2.061 -1.159,-0.805 -2.158,-1.804 -1.03,-0.998 -1.964,-2.834 -0.934,-1.836 -0.934,-3.8 0,-2.448 1.256,-3.962 1.224,-1.513 3.027,-1.513 z"
       fill="#000000"
       fill-rule="nonzero"
       fill-opacity="1"
       id="path26874"
       transform="matrix(0.04464095,0,0,0.04364368,11.68254,9.121985)" /><path
       clip-path="url(#clip320)"
       d="m 181.257,440.806 q -0.322,0 -1.127,-0.837 -10.821,-10.628 -31.207,-10.628 -20.451,0 -30.789,10.209 -1.192,1.256 -1.546,1.256 -0.644,0 -0.644,-0.644 0,-0.451 1.32,-2.029 1.321,-1.61 4.348,-4.026 3.027,-2.447 6.731,-4.251 8.986,-4.348 20.58,-4.348 11.143,0 20.128,4.155 3.768,1.771 6.925,4.251 3.156,2.48 4.541,4.122 1.384,1.643 1.384,2.126 0,0.644 -0.644,0.644 z"
       fill="#000000"
       fill-rule="nonzero"
       fill-opacity="1"
       id="path26876"
       transform="matrix(0.04464095,0,0,0.04364368,11.68254,9.121985)" /><polyline
       clip-path="url(#clip322)"
       style="fill:none;stroke:#808080;stroke-width:4;stroke-linecap:round;stroke-linejoin:round;stroke-opacity:1"
       stroke-dasharray="16, 10"
       points="-483.203,640.926 1816.77,640.926 "
       id="polyline26878"
       transform="matrix(0.04464095,0,0,0.04364368,11.68254,9.121985)" /><polyline
       clip-path="url(#clip322)"
       style="fill:none;stroke:#3655c6;stroke-width:8;stroke-linecap:round;stroke-linejoin:round;stroke-opacity:1"
       points="291.957,884.593 293.48,884.593 295.005,884.593 296.533,884.593 298.061,884.593 299.591,884.593 301.121,884.593 302.652,884.593 304.183,884.593 305.714,884.593 307.246,884.593 308.778,884.593 310.31,884.593 311.842,884.593 313.374,884.593 314.906,884.593 316.439,884.593 317.971,884.593 319.504,884.593 321.036,884.593 322.569,884.593 324.102,884.593 325.635,884.593 327.168,884.593 328.7,884.593 330.233,884.593 331.766,884.593 333.299,884.593 334.832,884.593 336.365,884.593 337.898,884.593 339.431,884.593 340.964,884.593 342.497,884.593 344.03,884.593 345.563,884.593 347.096,884.593 348.63,884.593 350.163,884.593 351.696,884.593 353.229,884.593 354.762,884.593 356.295,884.593 357.828,884.593 359.361,884.593 360.895,884.593 362.428,884.593 363.961,884.593 365.494,884.593 367.027,884.593 368.561,884.593 370.094,884.593 371.627,884.593 373.16,884.593 374.693,884.593 376.227,884.593 377.76,884.593 379.293,884.593 380.826,884.593 382.359,884.593 383.893,884.593 385.426,884.593 386.959,884.593 388.492,884.593 390.026,884.593 391.559,884.593 393.092,884.593 394.625,884.593 396.158,884.593 397.692,884.593 399.225,884.593 400.758,884.593 402.291,884.593 403.825,884.593 405.358,884.593 406.891,884.608 408.424,884.605 409.958,884.6 411.491,884.583 413.024,884.586 414.558,884.665 416.091,884.771 417.624,884.845 419.157,884.157 420.691,882.94 422.224,880.647 423.757,877.71 425.29,871.822 426.824,863.945 428.357,853.133 429.89,838.187 431.423,820.243 432.957,799.206 434.49,771.695 436.023,738.61 437.557,700.762 439.09,661.963 440.623,621.688 442.156,578.002 443.69,538.873 445.223,497.213 446.756,456.556 448.29,417.131 449.823,376.778 451.356,337.785 452.889,302.092 454.423,270.487 455.956,241.661 457.489,215.82 459.023,200.88 460.556,183.972 462.089,169.649 463.622,158.512 465.156,151.17 466.689,150.413 468.222,153.236 469.756,157.871 471.289,167.932 472.822,179.253 474.355,195.419 475.889,213.272 477.422,233.121 478.955,255.477 480.489,279.695 482.022,309.03 483.555,333.592 485.088,359.004 486.622,383.472 488.155,403.25 489.688,426.893 491.222,446.522 492.755,466.763 494.288,486.805 495.822,507.159 497.355,527.503 498.888,542.066 500.421,557.338 501.955,569.736 503.488,581.874 505.021,594.847 506.555,604.154 508.088,616.081 509.621,626.965 511.155,637.944 512.688,646.898 514.221,653.731 515.754,659.899 517.288,666.966 518.821,674.052 520.354,682.496 521.888,691.758 523.421,699.447 524.954,706.146 526.487,712.93 528.021,717.624 529.554,720.976 531.087,724.817 532.621,729.418 534.154,732.638 535.687,736.233 537.221,740.286 538.754,740.846 540.287,741.723 541.82,744.625 543.354,746.111 544.887,748.109 546.42,751.152 547.954,755.072 549.487,756.794 551.02,759.428 552.554,761.442 554.087,761.512 555.62,762.782 557.154,765.876 558.687,768.638 560.22,771.489 561.753,774.16 563.287,775.799 564.82,775.759 566.353,776.665 567.887,776.76 569.42,777.818 570.953,778.994 572.487,781.804 574.02,783.13 575.553,784.911 577.086,785.079 578.62,784.061 580.153,784.235 581.686,784.023 583.22,784.326 584.753,784.079 586.286,783.462 587.82,784.055 589.353,783.613 590.886,784.985 592.42,784.54 593.953,784.25 595.486,784.209 597.019,783.517 598.553,783.887 600.086,783.652 601.619,783.718 603.153,784.19 604.686,785.226 606.219,786.303 607.753,786.391 609.286,786.087 610.819,784.026 612.353,781.765 613.886,779.819 615.419,777.946 616.952,775.8 618.486,774.183 620.019,774.776 621.552,774.56 623.086,774.135 624.619,773.343 626.152,771.448 627.686,770.209 629.219,768.535 630.752,766.5 632.286,764.324 633.819,762.522 635.352,761.936 636.885,760.186 638.419,758.619 639.952,756.71 641.485,755.41 643.019,755.148 644.552,753.536 646.085,752.647 647.619,752.534 649.152,751.297 650.685,749.581 652.219,748.411 653.752,746.212 655.285,743.868 656.818,741.388 658.352,739.278 659.885,736.029 661.418,734.751 662.952,733.655 664.485,731.214 666.018,727.887 667.552,725.663 669.085,722.154 670.618,719.318 672.152,716.532 673.685,715.005 675.218,712.129 676.751,711.46 678.285,711.101 679.818,709.824 681.351,708.712 682.885,706.525 684.418,704.024 685.951,701.549 687.485,700.207 689.018,697.445 690.551,696.098 692.085,694.943 693.618,692.829 695.151,690.053 696.684,688.945 698.218,686.873 699.751,684.944 701.284,683.789 702.818,683.185 704.351,680.337 705.884,680.472 707.418,678.38 708.951,676.07 710.484,674.001 712.018,672.105 713.551,671.392 715.084,668.029 716.618,666.691 718.151,664.833 719.684,662.383 721.217,661.691 722.751,659.144 724.284,658.652 725.817,657.686 727.351,655.657 728.884,654.234 730.417,651.471 731.951,649.554 733.484,649.979 735.017,649.157 736.551,646.933 738.084,644.686 739.617,646.056 741.15,645.901 742.684,645.384 744.217,643.916 745.75,645.135 747.284,643.105 748.817,645.016 750.35,645.312 751.884,644.267 753.417,644.783 754.95,645.761 756.484,645.033 758.017,643.922 759.55,642.63 761.084,643.903 762.617,643.249 764.15,645.239 765.683,646.662 767.217,646.992 768.75,648.239 770.283,648.565 771.817,649.309 773.35,649.151 774.883,650.166 776.417,651.231 777.95,652.627 779.483,652.156 781.017,652.172 782.55,653.583 784.083,654.2 785.617,655.931 787.15,659.028 788.683,661.474 790.216,663.36 791.75,665.572 793.283,666.31 794.816,665.143 796.35,664.51 797.883,664.987 799.416,664.91 800.95,666.369 802.483,668.331 804.016,669.714 805.55,670.786 807.083,673.37 808.616,674.046 810.15,675.206 811.683,676.428 813.216,679.281 814.749,680.426 816.283,681.99 817.816,683.507 819.349,683.386 820.883,683.524 822.416,683.853 823.949,685.168 825.483,684.766 827.016,684.851 828.549,685.008 830.083,684.924 831.616,687.364 833.149,689.038 834.683,689.719 836.216,691.81 837.749,693.372 839.282,693.766 840.816,694.145 842.349,695.144 843.882,696.281 845.416,697.819 846.949,698.8 848.482,699.077 850.016,699.989 851.549,702.126 853.082,701.848 854.616,701.265 856.149,703.988 857.682,705.743 859.216,706.827 860.749,706.606 862.282,706.625 863.815,706.839 865.349,706.749 866.882,707.464 868.415,708.041 869.949,708.869 871.482,711.583 873.015,712.433 874.549,712.561 876.082,712.272 877.615,712.892 879.149,713.067 880.682,711.918 882.215,713.722 883.749,715.412 885.282,714.986 886.815,716.577 888.348,717.359 889.882,717.662 891.415,717.051 892.948,717.271 894.482,717.595 896.015,717.304 897.548,718.629 899.082,718.129 900.615,717.491 902.148,718.568 903.682,719.295 905.215,719.52 906.748,719.263 908.282,719.586 909.815,719.917 911.348,720.16 912.881,720.173 914.415,719.964 915.948,720.068 917.481,719.37 919.015,718.707 920.548,719.395 922.081,719.846 923.615,720.921 925.148,721.863 926.681,723.324 928.215,724.167 929.748,724.599 931.281,724.762 932.815,724.853 934.348,723.097 935.881,722.352 937.414,721.936 938.948,721.471 940.481,719.835 942.014,719.308 943.548,719.271 945.081,719.495 946.614,720.973 948.148,722.205 949.681,722.183 951.214,723.556 952.748,725.765 954.281,726.209 955.814,725.966 957.348,726.006 958.881,724.396 960.414,723.36 961.947,722.15 963.481,720.337 965.014,718.866 966.547,717.524 968.081,718.557 969.614,718.733 971.147,719.086 972.681,718.832 974.214,717.992 975.747,718.703 977.281,718.213 978.814,717.388 980.347,716.685 981.881,715.6 983.414,716.245 984.947,715.681 986.48,715.04 988.014,714.238 989.547,713.407 991.08,712.913 992.614,712.466 994.147,712.232 995.68,711.079 997.214,709.817 998.747,709.512 1000.28,708.268 1001.81,706.96 1003.35,705.886 1004.88,705.185 1006.41,704.906 1007.95,704.094 1009.48,703.693 1011.01,703.321 1012.55,703.332 1014.08,702.955 1015.61,701.225 1017.15,700.569 1018.68,700.063 1020.21,700.116 1021.75,699.165 1023.28,697.911 1024.81,697.401 1026.35,698.536 1027.88,698.271 1029.41,696.286 1030.95,695.09 1032.48,694.415 1034.01,693.275 1035.55,691.798 1037.08,690.437 1038.61,688.586 1040.15,688.367 1041.68,690.162 1043.21,690.123 1044.75,689.164 1046.28,689.311 1047.81,689.003 1049.35,688.927 1050.88,687.72 1052.41,687.524 1053.95,685.72 1055.48,685.76 1057.01,684.994 1058.55,685.076 1060.08,684.308 1061.61,683.788 1063.15,683.459 1064.68,684.137 1066.21,683.581 1067.75,683.766 1069.28,683.771 1070.81,683.49 1072.35,682.637 1073.88,682.868 1075.41,682.314 1076.95,681.871 1078.48,681.109 1080.01,681.453 1081.55,681.613 1083.08,682.242 1084.61,682.799 1086.15,682.111 1087.68,681.702 1089.21,681.277 1090.75,680.868 1092.28,679.931 1093.81,679.156 1095.35,679.663 1096.88,680.726 1098.41,681.755 1099.95,682.76 1101.48,682.907 1103.01,683.614 1104.55,683.867 1106.08,684.363 1107.61,684.088 1109.15,683.595 1110.68,682.513 1112.21,682.332 1113.75,682.226 1115.28,681.788 1116.81,680.862 1118.35,682.022 1119.88,681.536 1121.41,683.718 1122.95,684.839 1124.48,684.345 1126.01,683.601 1127.55,683.77 1129.08,683.588 1130.61,683.692 1132.15,683.669 1133.68,684.593 1135.21,684.734 1136.75,686.199 1138.28,687.28 1139.81,686.769 1141.35,687.06 1142.88,687.22 1144.41,687.71 1145.95,688.428 1147.48,687.984 1149.01,687.609 1150.55,688.106 1152.08,687.769 1153.61,688.846 1155.15,690.586 1156.68,691.179 1158.21,691.65 1159.74,692.384 1161.28,693.049 1162.81,692.656 1164.34,692.388 1165.88,692.161 1167.41,691.98 1168.94,692.957 1170.48,694.47 1172.01,695.125 1173.54,696.647 1175.08,697.784 1176.61,697.754 1178.14,697.788 1179.68,697.806 1181.21,697.437 1182.74,697.107 1184.28,697.57 1185.81,697.525 1187.34,698.341 1188.88,699.039 1190.41,699.826 1191.94,699.618 1193.48,700.943 1195.01,701.591 1196.54,702.379 1198.08,702.772 1199.61,703.247 1201.14,703.098 1202.68,704.291 1204.21,703.998 1205.74,704.348 1207.28,704.447 1208.81,705.139 1210.34,705.504 1211.88,706.532 1213.41,706.954 1214.94,707.672 1216.48,708.474 1218.01,708.846 1219.54,707.837 1221.08,707.594 1222.61,707.103 1224.14,707.302 1225.68,706.927 1227.21,707.766 1228.74,708.947 1230.28,709.562 1231.81,710.055 1233.34,709.969 1234.88,710.012 1236.41,710.667 1237.94,711.414 1239.48,712.323 1241.01,712.399 1242.54,712.669 1244.08,713.361 1245.61,712.582 1247.14,712.083 1248.68,711.842 1250.21,711.647 1251.74,712.269 1253.28,712.365 1254.81,712.669 1256.34,712.474 1257.88,711.721 1259.41,711.323 1260.94,710.548 1262.48,710.265 1264.01,710.787 1265.54,710.686 1267.08,710.835 1268.61,711.024 1270.14,711.897 1271.68,711.624 1273.21,711.658 1274.74,711.636 1276.28,712.627 1277.81,712.787 1279.34,712.975 1280.88,712.832 1282.41,713.006 1283.94,712.668 1285.48,712.695 1287.01,711.68 1288.54,711.603 1290.08,711.609 1291.61,711.615 1293.14,711.323 1294.68,711.536 1296.21,712.512 1297.74,712.935 1299.28,712.593 1300.81,712.313 1302.34,711.897 1303.88,711.424 1305.41,710.524 1306.94,709.107 1308.48,708.644 1310.01,708.162 1311.54,708.544 1313.08,708.789 1314.61,708.933 1316.14,708.633 1317.68,708.405 1319.21,708.234 1320.74,708.349 1322.28,708.124 1323.81,708.322 1325.34,708.129 1326.88,709.264 1328.41,709.442 1329.94,709.882 1331.48,709.021 1333.01,708.561 1334.54,708.403 1336.08,707.911 1337.61,707.705 1339.14,707.018 1340.68,706.87 1342.21,706.665 1343.74,705.569 1345.28,705.616 1346.81,704.834 1348.34,704.334 1349.88,704.495 1351.41,704.56 1352.94,704.883 1354.48,704.725 1356.01,704.47 1357.54,703.53 1359.08,702.887 1360.61,703.031 1362.14,702.962 1363.68,702.68 1365.21,703.909 1366.74,704.467 1368.28,704.595 1369.81,704.184 1371.34,703.922 1372.88,703.783 1374.41,703.076 1375.94,702.844 1377.48,702.37 1379.01,701.776 1380.54,701.032 1382.08,700.918 1383.61,700.848 1385.14,700.503 1386.68,700.752 1388.21,701.055 1389.74,701.185 1391.28,701.333 1392.81,700.854 1394.34,700.293 1395.88,699.406 1397.41,698.769 1398.94,698.939 1400.48,699.123 1402.01,699.625 1403.54,699.498 1405.08,700.646 1406.61,701.039 1408.14,700.988 1409.68,700.854 1411.21,700.181 1412.74,699.471 1414.28,700.637 1415.81,701.395 1417.34,701.005 1418.88,700.091 1420.41,700.99 1421.94,700.587 1423.48,700.01 1425.01,698.385 1426.54,696.903 1428.07,696.957 1429.61,698.025 1431.14,698.66 1432.67,699.147 1434.21,699.562 1435.74,700.474 1437.27,700.567 1438.81,700.091 1440.34,699.108 1441.87,698.829 1443.41,699.333 1444.94,699.667 1446.47,700.024 1448.01,700.653 1449.54,700.289 1451.07,700.703 1452.61,700.476 1454.14,699.448 1455.67,699.504 1457.21,699.613 1458.74,699.932 1460.27,700.035 1461.81,700.189 1463.34,700.959 1464.87,701.732 1466.41,702.66 1467.94,702.339 1469.47,701.23 1471.01,701.17 1472.54,700.736 1474.07,700.956 1475.61,700.581 1477.14,700.389 1478.67,700.815 1480.21,701.008 1481.74,701.16 1483.27,701.673 1484.81,701.935 1486.34,702.343 1487.87,702.545 1489.41,702.209 1490.94,702.653 1492.47,702.426 1494.01,702.25 1495.54,702.133 1497.07,702.469 1498.61,703.328 1500.14,703.772 1501.67,704.038 1503.21,704.762 1504.74,703.733 1506.27,703.652 1507.81,702.476 1509.34,702.382 1510.87,702.619 1512.41,702.997 1513.94,703.776 1515.47,704.82 1517.01,705.53 1518.54,706.291 1520.07,705.382 1521.61,705.392 1523.14,705.274 1524.67,705.114 1526.21,704.986 1527.74,704.692 1529.27,705.433 1530.81,705.642 1532.34,705.85 1533.87,706.084 1535.41,706.15 1536.94,706.71 1538.47,706.91 1540.01,706.292 1541.54,706.37 1543.07,706.861 1544.61,707.58 1546.14,707.83 1547.67,707.988 1549.21,707.689 1550.74,706.838 1552.27,706.117 1553.81,705.733 1555.34,705.542 1556.87,705.803 1558.41,706.131 1559.94,706.324 1561.47,706.704 1563.01,706.963 1564.54,707.003 1566.07,706.935 1567.61,707.505 1569.14,708.147 1570.67,708.589 1572.21,707.792 1573.74,707.632 1575.27,707.9 1576.81,707.453 1578.34,707.181 1579.87,706.891 1581.41,706.947 1582.94,707.394 1584.47,707.591 1586.01,707.893 1587.54,707.873 1589.07,707.63 1590.61,708.356 1592.14,708.225 1593.67,707.87 1595.21,707.93 1596.74,707.792 1598.27,707.509 1599.81,707.326 1601.34,707.93 1602.87,707.402 1604.41,706.542 1605.94,707.145 1607.47,707.24 1609.01,706.645 1610.54,707.458 1612.07,707.641 1613.61,707.539 1615.14,707.98 1616.67,708.45 1618.21,708.083 1619.74,708.115 1621.27,708.592 1622.81,708.484 1624.34,707.907 1625.87,708.546 1627.41,707.985 1628.94,707.729 1630.47,707.663 1632.01,706.896 1633.54,706.693 1635.07,706.535 1636.61,706.662 1638.14,706.454 1639.67,706.097 1641.21,706.566 1642.74,706.223 1644.27,705.812 1645.81,705.967 1647.34,706.081 1648.87,705.939 1650.41,705.439 1651.94,705.414 1653.47,705.276 1655.01,705.056 1656.54,705.557 1658.07,705.631 1659.61,705.469 1661.14,706.631 1662.67,707.314 1664.21,707.131 1665.74,706.437 1667.27,706.323 1668.81,705.896 1670.34,705.801 1671.87,705.205 1673.41,705.496 1674.94,705.891 1676.47,706.307 1678.01,706.095 1679.54,706.474 1681.07,706.388 1682.61,705.98 1684.14,705.418 1685.67,705.023 1687.21,704.045 1688.74,704.138 1690.27,704.379 1691.81,703.399 1693.34,703.551 1694.87,704.485 1696.41,704.631 1697.94,704.492 1699.47,704.841 1701,704.506 1702.54,704.178 1704.07,703.454 1705.6,703.082 1707.14,702.122 1708.67,701.717 1710.2,702.004 1711.74,701.889 1713.27,702.255 1714.8,702.437 1716.34,702.675 1717.87,702.607 1719.4,702.507 1720.94,703.24 1722.47,703.287 1724,703.077 1725.54,704.077 1727.07,704.231 1728.6,704.709 1730.14,704.629 1731.67,705.01 1733.2,704.231 1734.74,703.961 1736.27,704.147 1737.8,703.843 1739.34,703.794 1740.87,703.786 1742.4,703.662 1743.94,703.92 1745.47,703.545 1747,703.355 1748.54,702.804 1750.07,702.403 1751.6,702.078 1753.14,702.214 1754.67,701.804 1756.2,701.848 1757.74,701.923 1759.27,702.572 1760.8,702.976 1762.34,702.435 1763.87,702.821 1765.4,702.648 1766.94,702.567 1768.47,702.718 1770,702.482 1771.54,703.124 1773.07,703.069 1774.6,703.359 1776.14,703.812 1777.67,702.993 1779.2,703.217 1780.74,702.502 1782.27,702.279 1783.8,702.044 1785.34,702.247 1786.87,703.097 1788.4,703.053 1789.94,703.242 1791.47,704.28 1793,704.24 1794.54,704.069 1796.07,703.314 1797.6,702.401 1799.14,702.598 1800.67,703.229 1802.2,704.482 1803.74,704.488 1805.27,704.257 1806.8,704.808 1808.34,704.696 "
       id="polyline26884"
       transform="matrix(0.04464095,0,0,0.04364368,11.68254,9.121985)" /><path
       clip-path="url(#clip320)"
       d="M 719.607,344.186 H 1024.56 V 136.826 H 719.607 Z"
       fill="#ffffff"
       fill-rule="evenodd"
       fill-opacity="1"
       id="path26886"
       transform="matrix(0.04464095,0,0,0.04364368,11.68254,9.121985)" /><polyline
       clip-path="url(#clip320)"
       style="fill:#ffffff;fill-opacity:0.286275;stroke:#010101;stroke-width:4;stroke-linecap:round;stroke-linejoin:round;stroke-opacity:1"
       points="719.607,344.186 1024.56,344.186 1024.56,136.826 719.607,136.826 719.607,344.186 "
       id="polyline26888"
       transform="matrix(0.0541871,0,0,0.04355792,2.5207667,9.14261)" /><polyline
       clip-path="url(#clip320)"
       style="fill:none;stroke:#93c8c8;stroke-width:26.1217;stroke-linecap:round;stroke-linejoin:round;stroke-dasharray:none;stroke-opacity:1"
       points="728.126,188.666 779.236,188.666 "
       id="polyline26890"
       transform="matrix(0.04464095,0,0,0.04364368,10.571619,9.121985)" /><path
       clip-path="url(#clip320)"
       d="m 787.755,205.946 v -1.556 h 1.334 q 2.841,0 3.483,-0.445 0.667,-0.469 0.667,-1.951 v -26.655 q 0,-1.458 -0.667,-1.902 -0.667,-0.47 -3.483,-0.47 h -1.334 v -1.581 q 1.778,0.149 7.757,0.149 5.928,0 7.682,-0.149 v 1.581 h -1.309 q -2.841,0 -3.508,0.47 -0.642,0.444 -0.642,1.902 v 26.655 q 0,1.457 0.642,1.927 0.667,0.469 3.508,0.469 h 1.309 v 1.556 q -1.778,-0.148 -7.732,-0.148 -5.929,0 -7.707,0.148 z"
       fill="#000000"
       fill-rule="nonzero"
       fill-opacity="1"
       id="path26892"
       transform="matrix(0.04464095,0,0,0.04364368,11.68254,9.121985)" /><path
       clip-path="url(#clip320)"
       d="m 806.011,172.967 v -1.581 l 7.287,-0.543 v 16.032 q 2.94,-3.285 6.942,-3.285 4.348,0 7.534,3.335 3.187,3.335 3.187,8.103 0,4.817 -3.335,8.152 -3.335,3.335 -7.954,3.335 -4.2,0 -6.621,-3.706 -1.779,3.088 -1.828,3.137 h -1.26 v -30.162 q 0,-1.878 -0.667,-2.347 -0.667,-0.47 -3.285,-0.47 m 7.435,27.224 q 0,1.062 0.717,2.124 2.001,3.063 5.262,3.063 0.024,0 0.049,0 3.533,0 5.731,-3.236 1.556,-2.421 1.556,-7.164 0,-4.693 -1.457,-7.04 -2.026,-3.236 -5.311,-3.236 -3.706,0 -5.979,3.236 -0.568,0.815 -0.568,1.828 z"
       fill="#000000"
       fill-rule="nonzero"
       fill-opacity="1"
       id="path26894"
       transform="matrix(0.04464095,0,0,0.04364368,11.68254,9.121985)" /><path
       clip-path="url(#clip320)"
       d="m 834.296,185.714 v -1.581 l 7.436,-0.543 v 16.798 q 0,1.211 0.098,1.927 0.099,0.692 0.495,1.507 0.42,0.815 1.358,1.186 0.964,0.37 2.495,0.37 2.742,0 4.422,-2.248 1.705,-2.248 1.705,-5.583 v -9.016 q 0,-1.878 -0.667,-2.347 -0.667,-0.47 -3.286,-0.47 v -1.581 l 7.436,-0.543 v 17.959 q 0,1.878 0.642,2.372 0.667,0.469 3.31,0.469 v 1.556 l -7.287,0.569 v -4.57 q -2.125,4.545 -6.522,4.57 -2.223,0 -3.755,-0.569 -1.507,-0.568 -2.272,-1.259 -0.766,-0.717 -1.186,-2.075 -0.395,-1.359 -0.445,-2.199 -0.049,-0.84 -0.049,-2.47 v -7.584 q 0,-3.434 -0.494,-4.027 -0.494,-0.618 -3.434,-0.618 z"
       fill="#000000"
       fill-rule="nonzero"
       fill-opacity="1"
       id="path26896"
       transform="matrix(0.04464095,0,0,0.04364368,11.68254,9.121985)" /><path
       clip-path="url(#clip320)"
       d="m 878.046,196.534 v -2.989 h 13.463 v 2.989 z"
       fill="#000000"
       fill-rule="nonzero"
       fill-opacity="1"
       id="path26898"
       transform="matrix(0.04464095,0,0,0.04364368,11.68254,9.121985)" /><path
       clip-path="url(#clip320)"
       d="m 913.026,205.946 v -1.556 h 1.21 q 2.742,0 3.36,-0.445 0.642,-0.469 0.642,-1.951 v -26.655 q 0,-1.458 -0.642,-1.902 -0.643,-0.47 -3.36,-0.47 h -1.21 v -1.581 h 18.502 q 4.818,0 8.029,2.594 3.211,2.569 3.211,5.954 0,2.791 -2.371,5.015 -2.347,2.223 -6.028,2.939 4.2,0.445 6.967,2.989 2.791,2.52 2.791,5.806 0,3.705 -3.187,6.497 -3.186,2.766 -8.078,2.766 h -19.836 m 9.412,-3.582 q 0,1.31 0.37,1.68 0.371,0.346 2.1,0.346 h 6.324 q 3.631,0 5.731,-2.371 2.1,-2.397 2.1,-5.386 0,-2.989 -1.853,-5.533 -1.828,-2.569 -5.262,-2.569 h -9.51 v 13.833 m 0,-14.945 h 7.336 q 3.904,0 5.979,-2.347 2.099,-2.347 2.099,-5.138 0,-2.471 -1.679,-4.719 -1.656,-2.248 -4.99,-2.248 h -6.275 q -1.729,0 -2.1,0.346 -0.37,0.346 -0.37,1.68 z"
       fill="#000000"
       fill-rule="nonzero"
       fill-opacity="1"
       id="path26900"
       transform="matrix(0.04464095,0,0,0.04364368,11.68254,9.121985)" /><path
       clip-path="url(#clip320)"
       d="m 948.673,205.946 v -1.556 h 1.21 q 2.742,0 3.36,-0.445 0.642,-0.469 0.642,-1.951 v -26.507 q 0,-1.457 -0.642,-1.902 -0.643,-0.469 -3.36,-0.469 h -1.21 v -1.581 h 28.482 l 1.409,11.388 h -1.26 q -0.346,-2.89 -0.816,-4.545 -0.444,-1.68 -1.556,-2.965 -1.087,-1.284 -2.89,-1.779 -1.779,-0.518 -4.669,-0.518 h -6.522 q -1.729,0 -2.1,0.37 -0.37,0.346 -0.37,1.655 v 12.13 h 4.545 q 3.484,0 4.472,-1.211 0.988,-1.21 0.988,-4.693 h 1.284 v 13.389 h -1.284 q 0,-3.434 -0.988,-4.669 -0.988,-1.235 -4.472,-1.235 h -4.545 v 13.512 q 0,1.31 0.37,1.68 0.396,0.346 2.1,0.346 h 6.744 q 2.174,0 3.755,-0.272 1.606,-0.296 2.718,-0.988 1.111,-0.716 1.852,-1.531 0.766,-0.816 1.285,-2.273 0.543,-1.482 0.84,-2.841 0.321,-1.359 0.667,-3.582 h 1.26 l -2.125,13.043 z"
       fill="#000000"
       fill-rule="nonzero"
       fill-opacity="1"
       id="path26902"
       transform="matrix(0.04464095,0,0,0.04364368,11.68254,9.121985)" /><path
       clip-path="url(#clip320)"
       d="m 983.208,183.071 0.963,-11.363 h 30.909 l 0.96,11.363 h -1.26 q -0.2,-2.273 -0.4,-3.582 -0.17,-1.309 -0.61,-2.544 -0.42,-1.26 -0.97,-1.853 -0.52,-0.618 -1.53,-1.087 -1.01,-0.494 -2.32,-0.618 -1.31,-0.123 -3.29,-0.123 -2.32,0 -2.89,0.099 -0.61,0.148 -0.76,0.593 -0.15,0.42 -0.15,1.334 v 26.655 q 0,1.012 0.2,1.432 0.22,0.396 1.38,0.717 1.16,0.296 3.73,0.296 h 2.03 v 1.556 q -2.08,-0.148 -9.614,-0.148 -7.485,0 -9.56,0.148 v -1.556 h 2.026 q 2.569,0 3.73,-0.296 1.186,-0.321 1.383,-0.717 0.198,-0.42 0.198,-1.432 V 175.29 q 0,-0.717 -0.05,-1.013 -0.049,-0.297 -0.271,-0.544 -0.223,-0.271 -0.741,-0.37 -0.494,-0.099 -2.718,-0.099 -1.976,0 -3.31,0.123 -1.309,0.124 -2.322,0.618 -1.013,0.469 -1.556,1.087 -0.519,0.593 -0.964,1.853 -0.42,1.235 -0.593,2.544 -0.173,1.309 -0.37,3.582 z"
       fill="#000000"
       fill-rule="nonzero"
       fill-opacity="1"
       id="path26904"
       transform="matrix(0.04464095,0,0,0.04364368,11.68254,9.121985)" /><polyline
       clip-path="url(#clip320)"
       style="fill:none;stroke:#e26f46;stroke-width:8;stroke-linecap:round;stroke-linejoin:round;stroke-opacity:1"
       points="728.126,240.506 779.236,240.506 "
       id="polyline26906"
       transform="matrix(0.04464095,0,0,0.04364368,10.571619,9.121985)" /><path
       clip-path="url(#clip320)"
       d="m 787.755,257.786 v -1.556 h 1.21 q 2.742,0 3.36,-0.445 0.642,-0.469 0.642,-1.951 v -26.655 q 0,-1.458 -0.642,-1.902 -0.642,-0.47 -3.36,-0.47 h -1.21 v -1.581 h 18.503 q 4.817,0 8.028,2.594 3.212,2.569 3.212,5.954 0,2.791 -2.372,5.015 -2.347,2.223 -6.027,2.939 4.199,0.445 6.966,2.989 2.791,2.52 2.791,5.806 0,3.705 -3.186,6.497 -3.187,2.766 -8.078,2.766 h -19.837 m 9.412,-3.582 q 0,1.31 0.37,1.68 0.371,0.346 2.1,0.346 h 6.324 q 3.632,0 5.731,-2.371 2.1,-2.397 2.1,-5.386 0,-2.989 -1.853,-5.533 -1.828,-2.569 -5.261,-2.569 h -9.511 v 13.833 m 0,-14.945 h 7.337 q 3.903,0 5.978,-2.347 2.1,-2.347 2.1,-5.138 0,-2.471 -1.68,-4.719 -1.655,-2.248 -4.99,-2.248 h -6.275 q -1.729,0 -2.1,0.346 -0.37,0.346 -0.37,1.68 z"
       fill="#000000"
       fill-rule="nonzero"
       fill-opacity="1"
       id="path26908"
       transform="matrix(0.04464095,0,0,0.04364368,11.68254,9.121985)" /><path
       clip-path="url(#clip320)"
       d="m 823.402,257.786 v -1.556 h 1.21 q 2.742,0 3.36,-0.445 0.642,-0.469 0.642,-1.951 v -26.507 q 0,-1.457 -0.642,-1.902 -0.642,-0.469 -3.36,-0.469 h -1.21 v -1.581 h 28.483 l 1.408,11.388 h -1.26 q -0.346,-2.89 -0.815,-4.545 -0.445,-1.68 -1.557,-2.965 -1.087,-1.284 -2.89,-1.779 -1.778,-0.518 -4.669,-0.518 h -6.521 q -1.73,0 -2.1,0.37 -0.371,0.346 -0.371,1.655 v 12.13 h 4.546 q 3.483,0 4.471,-1.211 0.988,-1.21 0.988,-4.693 h 1.285 v 13.389 h -1.285 q 0,-3.434 -0.988,-4.669 -0.988,-1.235 -4.471,-1.235 h -4.546 v 13.512 q 0,1.31 0.371,1.68 0.395,0.346 2.1,0.346 h 6.744 q 2.173,0 3.754,-0.272 1.606,-0.296 2.718,-0.988 1.111,-0.716 1.853,-1.531 0.765,-0.816 1.284,-2.273 0.544,-1.482 0.84,-2.841 0.321,-1.359 0.667,-3.582 h 1.26 l -2.125,13.043 z"
       fill="#000000"
       fill-rule="nonzero"
       fill-opacity="1"
       id="path26910"
       transform="matrix(0.04464095,0,0,0.04364368,11.68254,9.121985)" /><path
       clip-path="url(#clip320)"
       d="m 857.937,234.911 0.963,-11.363 h 30.904 l 0.964,11.363 h -1.26 q -0.198,-2.273 -0.395,-3.582 -0.173,-1.309 -0.618,-2.544 -0.42,-1.26 -0.963,-1.853 -0.519,-0.618 -1.532,-1.087 -1.013,-0.494 -2.322,-0.618 -1.309,-0.123 -3.286,-0.123 -2.322,0 -2.89,0.099 -0.617,0.148 -0.766,0.593 -0.148,0.42 -0.148,1.334 v 26.655 q 0,1.012 0.198,1.432 0.222,0.396 1.383,0.717 1.161,0.296 3.73,0.296 h 2.026 v 1.556 q -2.075,-0.148 -9.61,-0.148 -7.485,0 -9.56,0.148 v -1.556 h 2.026 q 2.569,0 3.73,-0.296 1.186,-0.321 1.383,-0.717 0.198,-0.42 0.198,-1.432 V 227.13 q 0,-0.717 -0.049,-1.013 -0.05,-0.297 -0.272,-0.544 -0.222,-0.271 -0.741,-0.37 -0.494,-0.099 -2.718,-0.099 -1.976,0 -3.31,0.123 -1.309,0.124 -2.322,0.618 -1.013,0.469 -1.556,1.087 -0.519,0.593 -0.964,1.853 -0.42,1.235 -0.593,2.544 -0.172,1.309 -0.37,3.582 z"
       fill="#000000"
       fill-rule="nonzero"
       fill-opacity="1"
       id="path26912"
       transform="matrix(0.04464095,0,0,0.04364368,11.68254,9.121985)" /><path
       clip-path="url(#clip320)"
       d="m 893.115,248.374 v -2.989 h 13.463 v 2.989 z"
       fill="#000000"
       fill-rule="nonzero"
       fill-opacity="1"
       id="path26914"
       transform="matrix(0.04464095,0,0,0.04364368,11.68254,9.121985)" /><path
       clip-path="url(#clip320)"
       d="m 912.284,240.642 q 0,-7.732 4.941,-13.117 4.966,-5.41 11.858,-5.41 6.941,0 11.882,5.41 4.965,5.41 4.965,13.117 0,7.634 -4.965,12.945 -4.965,5.311 -11.882,5.311 -6.818,0 -11.808,-5.286 -4.991,-5.287 -4.991,-12.97 m 5.213,-0.716 q 0,4.694 1.112,8.3 1.111,3.582 2.89,5.534 1.803,1.951 3.73,2.89 1.927,0.939 3.903,0.939 1.927,0 3.804,-0.914 1.903,-0.914 3.706,-2.841 1.803,-1.927 2.94,-5.534 1.136,-3.606 1.136,-8.374 0,-3.706 -0.79,-6.67 -0.791,-2.989 -2.026,-4.792 -1.235,-1.804 -2.841,-2.99 -1.581,-1.185 -3.088,-1.63 -1.482,-0.469 -2.89,-0.469 -1.779,0 -3.632,0.79 -1.852,0.791 -3.73,2.545 -1.853,1.729 -3.038,5.163 -1.186,3.409 -1.186,8.053 z"
       fill="#000000"
       fill-rule="nonzero"
       fill-opacity="1"
       id="path26916"
       transform="matrix(0.04464095,0,0,0.04364368,11.68254,9.121985)" /><polyline
       clip-path="url(#clip320)"
       style="fill:none;stroke:#3655c6;stroke-width:8;stroke-linecap:round;stroke-linejoin:round;stroke-opacity:1"
       points="728.126,292.346 779.236,292.346 "
       id="polyline26918"
       transform="matrix(0.04464095,0,0,0.04364368,10.571619,9.121985)" /><path
       clip-path="url(#clip320)"
       d="m 787.755,309.626 v -1.556 h 1.21 q 2.742,0 3.36,-0.445 0.642,-0.469 0.642,-1.951 v -26.655 q 0,-1.458 -0.642,-1.902 -0.642,-0.47 -3.36,-0.47 h -1.21 v -1.581 h 18.503 q 4.817,0 8.028,2.594 3.212,2.569 3.212,5.954 0,2.791 -2.372,5.015 -2.347,2.223 -6.027,2.939 4.199,0.445 6.966,2.989 2.791,2.52 2.791,5.806 0,3.705 -3.186,6.497 -3.187,2.766 -8.078,2.766 h -19.837 m 9.412,-3.582 q 0,1.31 0.37,1.68 0.371,0.346 2.1,0.346 h 6.324 q 3.632,0 5.731,-2.371 2.1,-2.397 2.1,-5.386 0,-2.989 -1.853,-5.533 -1.828,-2.569 -5.261,-2.569 h -9.511 v 13.833 m 0,-14.945 h 7.337 q 3.903,0 5.978,-2.347 2.1,-2.347 2.1,-5.138 0,-2.471 -1.68,-4.719 -1.655,-2.248 -4.99,-2.248 h -6.275 q -1.729,0 -2.1,0.346 -0.37,0.346 -0.37,1.68 z"
       fill="#000000"
       fill-rule="nonzero"
       fill-opacity="1"
       id="path26920"
       transform="matrix(0.04464095,0,0,0.04364368,11.68254,9.121985)" /><path
       clip-path="url(#clip320)"
       d="m 823.402,309.626 v -1.556 h 1.21 q 2.742,0 3.36,-0.445 0.642,-0.469 0.642,-1.951 v -26.507 q 0,-1.457 -0.642,-1.902 -0.642,-0.469 -3.36,-0.469 h -1.21 v -1.581 h 28.483 l 1.408,11.388 h -1.26 q -0.346,-2.89 -0.815,-4.545 -0.445,-1.68 -1.557,-2.965 -1.087,-1.284 -2.89,-1.779 -1.778,-0.518 -4.669,-0.518 h -6.521 q -1.73,0 -2.1,0.37 -0.371,0.346 -0.371,1.655 v 12.13 h 4.546 q 3.483,0 4.471,-1.211 0.988,-1.21 0.988,-4.693 h 1.285 v 13.389 h -1.285 q 0,-3.434 -0.988,-4.669 -0.988,-1.235 -4.471,-1.235 h -4.546 v 13.512 q 0,1.31 0.371,1.68 0.395,0.346 2.1,0.346 h 6.744 q 2.173,0 3.754,-0.272 1.606,-0.296 2.718,-0.988 1.111,-0.716 1.853,-1.531 0.765,-0.816 1.284,-2.273 0.544,-1.482 0.84,-2.841 0.321,-1.359 0.667,-3.582 h 1.26 l -2.125,13.043 z"
       fill="#000000"
       fill-rule="nonzero"
       fill-opacity="1"
       id="path26922"
       transform="matrix(0.04464095,0,0,0.04364368,11.68254,9.121985)" /><path
       clip-path="url(#clip320)"
       d="m 857.937,286.751 0.963,-11.363 h 30.904 l 0.964,11.363 h -1.26 q -0.198,-2.273 -0.395,-3.582 -0.173,-1.309 -0.618,-2.544 -0.42,-1.26 -0.963,-1.853 -0.519,-0.618 -1.532,-1.087 -1.013,-0.494 -2.322,-0.618 -1.309,-0.123 -3.286,-0.123 -2.322,0 -2.89,0.099 -0.617,0.148 -0.766,0.593 -0.148,0.42 -0.148,1.334 v 26.655 q 0,1.012 0.198,1.432 0.222,0.396 1.383,0.717 1.161,0.296 3.73,0.296 h 2.026 v 1.556 q -2.075,-0.148 -9.61,-0.148 -7.485,0 -9.56,0.148 v -1.556 h 2.026 q 2.569,0 3.73,-0.296 1.186,-0.321 1.383,-0.717 0.198,-0.42 0.198,-1.432 V 278.97 q 0,-0.717 -0.049,-1.013 -0.05,-0.297 -0.272,-0.544 -0.222,-0.271 -0.741,-0.37 -0.494,-0.099 -2.718,-0.099 -1.976,0 -3.31,0.123 -1.309,0.124 -2.322,0.618 -1.013,0.469 -1.556,1.087 -0.519,0.593 -0.964,1.853 -0.42,1.235 -0.593,2.544 -0.172,1.309 -0.37,3.582 z"
       fill="#000000"
       fill-rule="nonzero"
       fill-opacity="1"
       id="path26924"
       transform="matrix(0.04464095,0,0,0.04364368,11.68254,9.121985)" /><path
       clip-path="url(#clip320)"
       d="m 893.115,300.214 v -2.989 h 13.463 v 2.989 z"
       fill="#000000"
       fill-rule="nonzero"
       fill-opacity="1"
       id="path26926"
       transform="matrix(0.04464095,0,0,0.04364368,11.68254,9.121985)" /><path
       clip-path="url(#clip320)"
       d="m 911.123,309.626 v -1.556 h 1.211 q 2.742,0 3.36,-0.445 0.642,-0.469 0.642,-1.951 v -26.655 q 0,-1.458 -0.642,-1.902 -0.643,-0.47 -3.36,-0.47 h -1.211 v -1.581 q 1.779,0.149 7.486,0.149 5.657,0 7.435,-0.149 v 1.581 h -1.21 q -2.742,0 -3.385,0.47 -0.617,0.444 -0.617,1.902 v 11.833 h 15.118 v -11.833 q 0,-1.458 -0.642,-1.902 -0.618,-0.47 -3.36,-0.47 h -1.21 v -1.581 q 1.779,0.149 7.485,0.149 5.657,0 7.436,-0.149 v 1.581 h -1.211 q -2.742,0 -3.384,0.47 -0.618,0.444 -0.618,1.902 v 26.655 q 0,1.457 0.643,1.927 0.642,0.469 3.359,0.469 h 1.211 v 1.556 q -1.779,-0.148 -7.485,-0.148 -5.657,0 -7.436,0.148 v -1.556 h 1.21 q 2.742,0 3.36,-0.445 0.642,-0.469 0.642,-1.951 v -13.241 h -15.118 v 13.241 q 0,1.457 0.617,1.927 0.643,0.469 3.385,0.469 h 1.21 v 1.556 q -1.778,-0.148 -7.485,-0.148 -5.657,0 -7.436,0.148 z"
       fill="#000000"
       fill-rule="nonzero"
       fill-opacity="1"
       id="path26928"
       transform="matrix(0.04464095,0,0,0.04364368,11.68254,9.121985)" /><polyline
       clip-path="url(#clip322)"
       style="fill:none;stroke:#007e7e;stroke-width:23.8562;stroke-linecap:round;stroke-linejoin:round;stroke-dasharray:none;stroke-opacity:0.424554"
       points="291.957,884.593 293.48,884.593 295.005,884.593 296.533,884.593 298.061,884.593 299.591,884.593 301.121,884.593 302.652,884.593 304.183,884.593 305.714,884.593 307.246,884.593 308.778,884.593 310.31,884.593 311.842,884.593 313.374,884.593 314.906,884.593 316.439,884.593 317.971,884.593 319.504,884.593 321.036,884.593 322.569,884.593 324.102,884.593 325.635,884.593 327.168,884.593 328.7,884.593 330.233,884.593 331.766,884.593 333.299,884.593 334.832,884.593 336.365,884.593 337.898,884.593 339.431,884.593 340.964,884.593 342.497,884.593 344.03,884.593 345.563,884.593 347.096,884.593 348.63,884.593 350.163,884.593 351.696,884.593 353.229,884.593 354.762,884.593 356.295,884.593 357.828,884.593 359.361,884.593 360.895,884.593 362.428,884.593 363.961,884.593 365.494,884.593 367.027,884.593 368.561,884.593 370.094,884.593 371.627,884.593 373.16,884.593 374.693,884.593 376.227,884.593 377.76,884.593 379.293,884.624 380.826,884.585 382.359,884.682 383.893,884.897 385.426,885.367 386.959,885.235 388.492,885.272 390.026,884.111 391.559,880.957 393.092,873.437 394.625,861.553 396.158,840.891 397.692,811.407 399.225,771.59 400.758,719.675 402.291,654.641 403.825,582.23 405.358,503.636 406.891,429.222 408.424,362.259 409.958,311.186 411.491,285.61 413.024,285.276 414.558,313.823 416.091,363.898 417.624,430.996 419.157,506.639 420.691,581.731 422.224,651.764 423.757,708.641 425.29,750.55 426.824,780.967 428.357,795.456 429.89,799.759 431.423,794.339 432.957,782.536 434.49,760.49 436.023,731.286 437.557,696.149 439.09,658.938 440.623,619.727 442.156,576.059 443.69,537.148 445.223,495.242 446.756,454.052 448.29,413.635 449.823,372.288 451.356,332.021 452.889,294.888 454.423,261.588 455.956,231.406 457.489,204.608 459.023,188.665 460.556,170.717 462.089,155.224 463.622,143.208 465.156,134.911 466.689,132.813 468.222,134.657 469.756,138.545 471.289,148.184 472.822,159.755 474.355,175.823 475.889,193.342 477.422,213.197 478.955,235.296 480.489,259.483 482.022,288.705 483.555,313.506 485.088,338.793 486.622,362.882 488.155,382.909 489.688,406.45 491.222,426.235 492.755,446.752 494.288,466.651 495.822,487.348 497.355,508.042 498.888,522.537 500.421,537.462 501.955,549.916 503.488,562.374 505.021,575.382 506.555,585.18 508.088,597.386 509.621,608.668 511.155,620.348 512.688,629.508 514.221,636.065 515.754,642.723 517.288,649.449 518.821,656.467 520.354,664.67 521.888,673.672 523.421,681.683 524.954,688.475 526.487,694.82 528.021,698.901 529.554,701.964 531.087,706.021 532.621,710.088 534.154,714.057 535.687,717.49 537.221,721.993 538.754,723.132 540.287,723.348 541.82,725.782 543.354,726.147 544.887,727.468 546.42,730.439 547.954,734.071 549.487,735.776 551.02,737.939 552.554,740.225 554.087,740.003 555.62,740.94 557.154,743.875 558.687,745.074 560.22,747.339 561.753,749.908 563.287,750.694 564.82,750.007 566.353,750.031 567.887,750.037 569.42,750.581 570.953,751.734 572.487,754.567 574.02,755.11 575.553,756.986 577.086,756.565 578.62,754.381 580.153,753.515 581.686,751.752 583.22,751.722 584.753,750.478 586.286,749.74 587.82,750.714 589.353,749.683 590.886,750.819 592.42,749.051 593.953,747.484 595.486,745.026 597.019,742.204 598.553,741.662 600.086,740.004 601.619,739.624 603.153,739.472 604.686,739.565 606.219,740.232 607.753,740.304 609.286,738.841 610.819,734.989 612.353,732.253 613.886,729.044 615.419,725.839 616.952,723.477 618.486,720.88 620.019,720.174 621.552,719.237 623.086,718.572 624.619,716.362 626.152,713.662 627.686,711.679 629.219,709.247 630.752,706.28 632.286,703.871 633.819,700.708 635.352,698.884 636.885,696.401 638.419,694.329 639.952,691.343 641.485,689.386 643.019,688.593 644.552,686.146 646.085,684.692 647.619,684.524 649.152,682.942 650.685,681.213 652.219,679.516 653.752,677.522 655.285,674.017 656.818,670.839 658.352,668.718 659.885,664.604 661.418,663.344 662.952,662.144 664.485,659.491 666.018,655.941 667.552,653.036 669.085,649.756 670.618,645.889 672.152,643.256 673.685,643.309 675.218,640.278 676.751,638.641 678.285,637.791 679.818,636.4 681.351,634.717 682.885,631.974 684.418,629.817 685.951,627.465 687.485,626.809 689.018,624.58 690.551,622.816 692.085,620.867 693.618,618.688 695.151,615.258 696.684,612.706 698.218,610.276 699.751,607.682 701.284,606.022 702.818,605.548 704.351,602.894 705.884,603.988 707.418,602.904 708.951,600.326 710.484,597.293 712.018,594.609 713.551,593.303 715.084,588.874 716.618,586.969 718.151,584.282 719.684,581.825 721.217,580.566 722.751,577.931 724.284,576.399 725.817,575.512 727.351,573.839 728.884,573.01 730.417,571.463 731.951,569.939 733.484,570.611 735.017,570.519 736.551,567.631 738.084,564.717 739.617,565.761 741.15,565.593 742.684,564.73 744.217,563.118 745.75,563.771 747.284,561.983 748.817,564.475 750.35,564.548 751.884,562.77 753.417,562.218 754.95,563.767 756.484,563.455 758.017,563.247 759.55,562.501 761.084,564.256 762.617,564.796 764.15,567.159 765.683,569.036 767.217,569.466 768.75,571.075 770.283,571.202 771.817,571.472 773.35,571.526 774.883,572.159 776.417,573.385 777.95,574.887 779.483,574.785 781.017,576.105 782.55,578.815 784.083,579.353 785.617,580.134 787.15,583.251 788.683,585.574 790.216,587.419 791.75,589.654 793.283,590.64 794.816,590.728 796.35,591.244 797.883,591.929 799.416,590.93 800.95,591.885 802.483,593.774 804.016,594.887 805.55,596.398 807.083,598.431 808.616,599.135 810.15,600.831 811.683,602.212 813.216,605.288 814.749,607.363 816.283,608.831 817.816,610.444 819.349,610.2 820.883,610.128 822.416,609.193 823.949,608.959 825.483,607.452 827.016,607.192 828.549,607.856 830.083,608.181 831.616,610.912 833.149,612.985 834.683,614.17 836.216,616.279 837.749,617.981 839.282,618.072 840.816,619.104 842.349,619.547 843.882,620.527 845.416,621.51 846.949,622.608 848.482,623.281 850.016,624.809 851.549,626.831 853.082,627.194 854.616,627.494 856.149,630.486 857.682,631.196 859.216,632.6 860.749,631.974 862.282,632.049 863.815,632.542 865.349,632.635 866.882,632.686 868.415,633.444 869.949,635.448 871.482,638.771 873.015,639.946 874.549,640.78 876.082,640.972 877.615,642.102 879.149,642.876 880.682,642.397 882.215,643.857 883.749,646.372 885.282,646.542 886.815,648.869 888.348,649.662 889.882,649.906 891.415,650.07 892.948,650.394 894.482,650.888 896.015,650.98 897.548,652.509 899.082,652.767 900.615,652.512 902.148,654.717 903.682,656.466 905.215,657.541 906.748,658.59 908.282,658.906 909.815,658.67 911.348,658.358 912.881,658.175 914.415,657.624 915.948,658.096 917.481,657.612 919.015,657.579 920.548,659.169 922.081,660.314 923.615,661.756 925.148,663.328 926.681,664.658 928.215,665.354 929.748,665.349 931.281,665.818 932.815,665.357 934.348,663.359 935.881,662.848 937.414,662.13 938.948,662.257 940.481,661.172 942.014,660.548 943.548,660.296 945.081,660.757 946.614,662.851 948.148,663.966 949.681,664.189 951.214,665.889 952.748,667.746 954.281,668.676 955.814,668.108 957.348,667.336 958.881,665.58 960.414,664.807 961.947,663.82 963.481,661.84 965.014,660.593 966.547,658.851 968.081,659.345 969.614,659.117 971.147,658.334 972.681,657.356 974.214,656.376 975.747,656.752 977.281,656.429 978.814,656.14 980.347,656.25 981.881,655.564 983.414,656.321 984.947,655.092 986.48,654.444 988.014,653.51 989.547,652.151 991.08,650.805 992.614,650.464 994.147,650.005 995.68,648.944 997.214,647.919 998.747,647.009 1000.28,645.193 1001.81,643.477 1003.35,641.764 1004.88,640.788 1006.41,639.717 1007.95,638.829 1009.48,638.768 1011.01,638.608 1012.55,638.913 1014.08,638.394 1015.61,636.062 1017.15,634.926 1018.68,634.035 1020.21,634.365 1021.75,632.828 1023.28,631.166 1024.81,631.152 1026.35,631.757 1027.88,631.428 1029.41,629.309 1030.95,627.91 1032.48,627.131 1034.01,625.962 1035.55,624.082 1037.08,622.694 1038.61,620.482 1040.15,620.433 1041.68,622.036 1043.21,621.931 1044.75,620.696 1046.28,621.381 1047.81,620.221 1049.35,619.535 1050.88,617.717 1052.41,618.067 1053.95,616.196 1055.48,616.628 1057.01,615.91 1058.55,615.764 1060.08,614.69 1061.61,614.276 1063.15,612.655 1064.68,612.469 1066.21,611.663 1067.75,611.531 1069.28,611.209 1070.81,611.49 1072.35,610.622 1073.88,611.283 1075.41,611.409 1076.95,610.632 1078.48,609.144 1080.01,609.097 1081.55,608.822 1083.08,608.708 1084.61,608.752 1086.15,608.565 1087.68,607.942 1089.21,608.399 1090.75,608.185 1092.28,607.059 1093.81,606.501 1095.35,607.427 1096.88,608.074 1098.41,608.862 1099.95,609.522 1101.48,610.019 1103.01,610.647 1104.55,611.147 1106.08,611.568 1107.61,611.314 1109.15,611.225 1110.68,610.022 1112.21,609.02 1113.75,609.057 1115.28,608.536 1116.81,608.187 1118.35,609.745 1119.88,609.224 1121.41,611.607 1122.95,612.018 1124.48,611.515 1126.01,610.226 1127.55,610.191 1129.08,610.211 1130.61,610.711 1132.15,611.128 1133.68,612.115 1135.21,611.969 1136.75,613.574 1138.28,614.34 1139.81,613.433 1141.35,613.976 1142.88,614.875 1144.41,615.489 1145.95,616.776 1147.48,616.193 1149.01,616.443 1150.55,616.681 1152.08,616.229 1153.61,617.468 1155.15,619.089 1156.68,620.182 1158.21,621.298 1159.74,622.294 1161.28,622.783 1162.81,622.681 1164.34,623.689 1165.88,622.946 1167.41,622.39 1168.94,623.238 1170.48,624.342 1172.01,624.116 1173.54,625.552 1175.08,626.134 1176.61,625.818 1178.14,626.954 1179.68,627.848 1181.21,627.889 1182.74,628.235 1184.28,629.158 1185.81,629.87 1187.34,630.743 1188.88,631.608 1190.41,631.837 1191.94,631.943 1193.48,632.96 1195.01,633.807 1196.54,634.526 1198.08,634.904 1199.61,635.41 1201.14,635.602 1202.68,637.049 1204.21,636.716 1205.74,637.158 1207.28,637.897 1208.81,638.456 1210.34,639.835 1211.88,640.698 1213.41,640.823 1214.94,641.76 1216.48,642.835 1218.01,643.435 1219.54,642.553 1221.08,642.858 1222.61,643.035 1224.14,643.512 1225.68,643.637 1227.21,644.401 1228.74,645.264 1230.28,645.764 1231.81,646.341 1233.34,646.31 1234.88,646.289 1236.41,646.883 1237.94,647.762 1239.48,648.903 1241.01,649.246 1242.54,649.966 1244.08,650.456 1245.61,649.468 1247.14,649.47 1248.68,649.369 1250.21,648.787 1251.74,649.46 1253.28,649.445 1254.81,649.883 1256.34,650.065 1257.88,650.055 1259.41,649.443 1260.94,648.711 1262.48,648.608 1264.01,649.087 1265.54,648.762 1267.08,649.009 1268.61,648.874 1270.14,649.568 1271.68,649.609 1273.21,650.438 1274.74,650.23 1276.28,651.264 1277.81,651.091 1279.34,651.162 1280.88,650.78 1282.41,650.575 1283.94,650.363 1285.48,650.213 1287.01,649.6 1288.54,650.084 1290.08,649.977 1291.61,650.42 1293.14,650.233 1294.68,650.592 1296.21,651.007 1297.74,651.429 1299.28,651.238 1300.81,651.085 1302.34,650.818 1303.88,649.978 1305.41,648.762 1306.94,647.574 1308.48,646.865 1310.01,646.185 1311.54,646.119 1313.08,646.769 1314.61,646.844 1316.14,646.718 1317.68,646.178 1319.21,645.727 1320.74,645.562 1322.28,645.294 1323.81,645.391 1325.34,645.499 1326.88,646.996 1328.41,647.25 1329.94,647.814 1331.48,646.989 1333.01,646.863 1334.54,646.85 1336.08,646.065 1337.61,646.119 1339.14,645.193 1340.68,644.954 1342.21,644.658 1343.74,643.161 1345.28,642.941 1346.81,642.149 1348.34,641.669 1349.88,641.805 1351.41,641.752 1352.94,642.219 1354.48,641.609 1356.01,641.303 1357.54,640.399 1359.08,639.442 1360.61,639.428 1362.14,639.395 1363.68,639.202 1365.21,640.517 1366.74,640.772 1368.28,640.807 1369.81,640.551 1371.34,639.969 1372.88,640.003 1374.41,639.164 1375.94,638.954 1377.48,638.369 1379.01,637.471 1380.54,636.397 1382.08,636.155 1383.61,636.051 1385.14,635.836 1386.68,635.945 1388.21,636.454 1389.74,636.27 1391.28,636.278 1392.81,635.385 1394.34,634.52 1395.88,633.56 1397.41,633.144 1398.94,633.347 1400.48,633.798 1402.01,634.868 1403.54,634.743 1405.08,635.885 1406.61,636.481 1408.14,636.698 1409.68,636.668 1411.21,636.017 1412.74,635.177 1414.28,635.996 1415.81,636.757 1417.34,636.71 1418.88,635.813 1420.41,636.52 1421.94,635.808 1423.48,635.4 1425.01,633.41 1426.54,632.133 1428.07,631.209 1429.61,631.793 1431.14,632.339 1432.67,633.17 1434.21,633.645 1435.74,634.203 1437.27,634.286 1438.81,634.469 1440.34,634.067 1441.87,634.409 1443.41,634.813 1444.94,635.446 1446.47,636.04 1448.01,636.746 1449.54,636.18 1451.07,636.153 1452.61,635.765 1454.14,634.65 1455.67,634.573 1457.21,634.604 1458.74,634.902 1460.27,634.986 1461.81,635.152 1463.34,636 1464.87,636.844 1466.41,637.382 1467.94,637.146 1469.47,635.947 1471.01,635.769 1472.54,635.302 1474.07,635.728 1475.61,635.633 1477.14,635.853 1478.67,636.3 1480.21,636.629 1481.74,635.839 1483.27,636.698 1484.81,636.546 1486.34,636.623 1487.87,636.384 1489.41,636.461 1490.94,636.962 1492.47,636.995 1494.01,636.966 1495.54,636.986 1497.07,636.948 1498.61,638.523 1500.14,638.966 1501.67,639.45 1503.21,640.07 1504.74,639.774 1506.27,639.76 1507.81,638.681 1509.34,638.786 1510.87,638.715 1512.41,638.709 1513.94,639.017 1515.47,639.694 1517.01,640.321 1518.54,640.973 1520.07,640.674 1521.61,641.153 1523.14,641.333 1524.67,641.634 1526.21,641.353 1527.74,640.918 1529.27,641.482 1530.81,641.632 1532.34,641.666 1533.87,641.91 1535.41,642.243 1536.94,642.54 1538.47,642.145 1540.01,641.375 1541.54,641.251 1543.07,642.25 1544.61,643.166 1546.14,643.63 1547.67,644.038 1549.21,643.979 1550.74,643.219 1552.27,642.331 1553.81,641.601 1555.34,641.366 1556.87,641.741 1558.41,642.049 1559.94,642.248 1561.47,642.652 1563.01,643.213 1564.54,642.932 1566.07,642.858 1567.61,644.003 1569.14,644.504 1570.67,644.853 1572.21,644.332 1573.74,644.605 1575.27,644.793 1576.81,644.707 1578.34,644.642 1579.87,643.801 1581.41,643.459 1582.94,643.995 1584.47,643.625 1586.01,643.694 1587.54,643.981 1589.07,643.803 1590.61,644.116 1592.14,644.375 1593.67,643.946 1595.21,644.19 1596.74,644.063 1598.27,644.035 1599.81,643.63 1601.34,644.137 1602.87,644.125 1604.41,642.921 1605.94,643.226 1607.47,643.229 1609.01,642.688 1610.54,643.743 1612.07,643.855 1613.61,643.618 1615.14,643.706 1616.67,644.096 1618.21,643.873 1619.74,643.771 1621.27,644.493 1622.81,644.699 1624.34,644.823 1625.87,645.641 1627.41,645.413 1628.94,645.175 1630.47,645.117 1632.01,643.748 1633.54,643.369 1635.07,643.007 1636.61,642.753 1638.14,642.232 1639.67,641.859 1641.21,642.187 1642.74,642.122 1644.27,641.997 1645.81,642.624 1647.34,642.939 1648.87,643.329 1650.41,642.459 1651.94,642.307 1653.47,642.082 1655.01,641.518 1656.54,641.855 1658.07,641.587 1659.61,641.404 1661.14,642.542 1662.67,643.488 1664.21,643 1665.74,642.157 1667.27,642.399 1668.81,641.991 1670.34,641.946 1671.87,641.151 1673.41,641.44 1674.94,642.081 1676.47,642.506 1678.01,642.639 1679.54,642.413 1681.07,642.068 1682.61,641.524 1684.14,640.841 1685.67,640.086 1687.21,638.426 1688.74,638.365 1690.27,638.64 1691.81,637.748 1693.34,638.048 1694.87,638.91 1696.41,639.194 1697.94,639.272 1699.47,639.651 1701,639.031 1702.54,638.277 1704.07,637.567 1705.6,637.513 1707.14,636.839 1708.67,636.161 1710.2,636.512 1711.74,636.493 1713.27,636.728 1714.8,636.98 1716.34,637.136 1717.87,636.943 1719.4,636.983 1720.94,637.413 1722.47,637.483 1724,637.001 1725.54,637.868 1727.07,638.11 1728.6,638.827 1730.14,638.571 1731.67,638.873 1733.2,637.81 1734.74,637.162 1736.27,637.147 1737.8,637.384 1739.34,637.342 1740.87,637.325 1742.4,637.059 1743.94,637.103 1745.47,636.443 1747,636.336 1748.54,635.691 1750.07,635.473 1751.6,635.644 1753.14,635.877 1754.67,635.095 1756.2,634.805 1757.74,634.739 1759.27,635.45 1760.8,636.05 1762.34,635.168 1763.87,635.686 1765.4,635.435 1766.94,635.372 1768.47,635.274 1770,634.984 1771.54,635.309 1773.07,635.822 1774.6,636.499 1776.14,637.055 1777.67,635.992 1779.2,635.849 1780.74,634.604 1782.27,634.037 1783.8,633.973 1785.34,634.342 1786.87,634.92 1788.4,635.291 1789.94,635.756 1791.47,637.009 1793,636.95 1794.54,636.505 1796.07,635.445 1797.6,634.133 1799.14,634.677 1800.67,635.162 1802.2,636.497 1803.74,636.714 1805.27,636.986 1806.8,637.821 1808.34,637.845 "
       id="polyline26880"
       transform="matrix(0.04464095,0,0,0.04364368,11.68254,9.121985)" /><polyline
       clip-path="url(#clip322)"
       style="fill:none;stroke:#e26f46;stroke-width:8;stroke-linecap:round;stroke-linejoin:round;stroke-opacity:1"
       points="291.957,884.593 293.48,884.593 295.005,884.593 296.533,884.593 298.061,884.593 299.591,884.593 301.121,884.593 302.652,884.593 304.183,884.593 305.714,884.593 307.246,884.593 308.778,884.593 310.31,884.593 311.842,884.593 313.374,884.593 314.906,884.593 316.439,884.593 317.971,884.593 319.504,884.593 321.036,884.593 322.569,884.593 324.102,884.593 325.635,884.593 327.168,884.593 328.7,884.593 330.233,884.593 331.766,884.593 333.299,884.593 334.832,884.593 336.365,884.593 337.898,884.593 339.431,884.593 340.964,884.593 342.497,884.593 344.03,884.593 345.563,884.593 347.096,884.593 348.63,884.593 350.163,884.593 351.696,884.593 353.229,884.593 354.762,884.593 356.295,884.593 357.828,884.593 359.361,884.593 360.895,884.593 362.428,884.593 363.961,884.593 365.494,884.593 367.027,884.593 368.561,884.593 370.094,884.593 371.627,884.593 373.16,884.593 374.693,884.593 376.227,884.593 377.76,884.593 379.293,884.625 380.826,884.585 382.359,884.682 383.893,884.901 385.426,885.365 386.959,885.224 388.492,885.252 390.026,884.085 391.559,880.92 393.092,873.389 394.625,861.568 396.158,840.947 397.692,811.553 399.225,771.746 400.758,719.83 402.291,654.736 403.825,582.228 405.358,503.444 406.891,428.965 408.424,361.942 409.958,310.952 411.491,285.357 413.024,285.151 414.558,313.688 416.091,363.718 417.624,430.742 419.157,507.033 420.691,583.326 422.224,655.724 423.757,715.568 425.29,763.408 426.824,801.675 428.357,827.093 429.89,846.414 431.423,858.92 432.957,868.144 434.49,873.676 436.023,877.633 437.557,880.322 439.09,881.889 440.623,882.967 442.156,882.959 443.69,883.12 445.223,882.829 446.756,882.429 448.29,881.595 449.823,880.764 451.356,879.538 452.889,878.207 454.423,876.701 455.956,875.406 457.489,874.291 459.023,873.147 460.556,872.121 462.089,871.153 463.622,870.446 465.156,869.644 466.689,868.357 468.222,867.274 469.756,866.668 471.289,866.294 472.822,866.432 474.355,866.324 475.889,866.047 477.422,866.058 478.955,865.906 480.489,866.156 482.022,865.976 483.555,866.109 485.088,866.173 486.622,866.095 488.155,866.331 489.688,866.331 491.222,866.484 492.755,866.65 494.288,866.483 495.822,866.822 497.355,866.968 498.888,866.785 500.421,866.279 501.955,866.302 503.488,866.557 505.021,866.611 506.555,866.975 508.088,867.308 509.621,867.497 511.155,868.087 512.688,868.285 514.221,867.891 515.754,868.215 517.288,867.915 518.821,867.871 520.354,867.536 521.888,867.236 523.421,867.632 524.954,867.525 526.487,867.206 528.021,866.676 529.554,866.423 531.087,866.677 532.621,866.188 534.154,866.864 535.687,866.625 537.221,866.97 538.754,867.52 540.287,866.791 541.82,866.386 543.354,865.342 544.887,864.734 546.42,864.741 547.954,864.451 549.487,864.435 551.02,863.852 552.554,863.998 554.087,863.756 555.62,863.436 557.154,863.382 558.687,861.923 560.22,861.407 561.753,861.378 563.287,860.536 564.82,859.791 566.353,858.742 567.887,858.48 569.42,857.919 570.953,857.821 572.487,857.786 574.02,857.036 575.553,857.188 577.086,856.688 578.62,855.593 580.153,854.564 581.686,853.019 583.22,852.667 584.753,851.677 586.286,851.452 587.82,851.769 589.353,851.118 590.886,850.871 592.42,849.541 593.953,848.224 595.486,845.836 597.019,843.796 598.553,842.963 600.086,841.614 601.619,841.244 603.153,840.679 604.686,839.71 606.219,839.194 607.753,839.086 609.286,837.86 610.819,836.105 612.353,835.648 613.886,834.409 615.419,833.119 616.952,832.878 618.486,831.865 620.019,830.547 621.552,829.66 623.086,829.449 624.619,828.033 626.152,827.27 627.686,826.612 629.219,825.847 630.752,824.933 632.286,824.723 633.819,823.288 635.352,822.024 636.885,821.263 638.419,820.815 639.952,819.756 641.485,819.125 643.019,818.578 644.552,817.686 646.085,817.08 647.619,816.997 649.152,816.547 650.685,816.541 652.219,816.072 653.752,816.291 655.285,815.223 656.818,814.591 658.352,814.602 659.885,813.821 661.418,813.834 662.952,813.696 664.485,813.452 666.018,813.237 667.552,812.459 669.085,812.631 670.618,811.598 672.152,811.663 673.685,813.178 675.218,813.079 676.751,812.16 678.285,811.654 679.818,811.564 681.351,811.066 682.885,810.436 684.418,810.801 685.951,810.913 687.485,811.615 689.018,812.269 690.551,811.92 692.085,811.159 693.618,811.12 695.151,810.53 696.684,809.063 698.218,808.596 699.751,807.859 701.284,807.296 702.818,807.391 704.351,807.648 705.884,808.484 707.418,809.49 708.951,809.293 710.484,808.38 712.018,807.623 713.551,807.067 715.084,805.92 716.618,805.331 718.151,804.469 719.684,804.438 721.217,803.809 722.751,803.736 724.284,802.722 725.817,802.824 727.351,803.273 728.884,803.804 730.417,804.903 731.951,805.335 733.484,805.586 735.017,806.256 736.551,805.539 738.084,804.861 739.617,804.486 741.15,804.569 742.684,804.248 744.217,804.058 745.75,803.505 747.284,803.792 748.817,804.414 750.35,804.211 751.884,803.397 753.417,802.367 754.95,802.927 756.484,803.395 758.017,804.184 759.55,804.728 761.084,805.218 762.617,806.413 764.15,806.728 765.683,807.139 767.217,807.189 768.75,807.576 770.283,807.448 771.817,807.038 773.35,807.24 774.883,806.88 776.417,807.081 777.95,807.138 779.483,807.459 781.017,808.758 782.55,809.978 784.083,809.862 785.617,808.941 787.15,809.035 788.683,808.86 790.216,808.76 791.75,808.791 793.283,808.988 794.816,810.225 796.35,811.374 797.883,811.56 799.416,810.578 800.95,810.085 802.483,810.078 804.016,809.769 805.55,810.176 807.083,809.626 808.616,809.611 810.15,810.171 811.683,810.356 813.216,810.613 814.749,811.511 816.283,811.452 817.816,811.561 819.349,811.442 820.883,811.253 822.416,810.041 823.949,808.5 825.483,807.434 827.016,807.055 828.549,807.547 830.083,807.938 831.616,808.165 833.149,808.532 834.683,809.105 836.216,809.16 837.749,809.33 839.282,808.987 840.816,809.584 842.349,809.035 843.882,808.879 845.416,808.322 846.949,808.384 848.482,808.794 850.016,809.466 851.549,809.316 853.082,809.932 854.616,810.801 856.149,811.107 857.682,810.125 859.216,810.462 860.749,810.017 862.282,810.021 863.815,810.3 865.349,810.451 866.882,809.702 868.415,809.844 869.949,811.06 871.482,811.789 873.015,812.156 874.549,812.885 876.082,813.351 877.615,813.9 879.149,814.488 880.682,815.159 882.215,814.803 883.749,815.659 885.282,816.289 886.815,817.122 888.348,817.116 889.882,817.009 891.415,817.771 892.948,817.874 894.482,817.999 896.015,818.39 897.548,818.625 899.082,819.432 900.615,819.84 902.148,820.981 903.682,822.034 905.215,822.896 906.748,824.231 908.282,824.189 909.815,823.621 911.348,823.053 912.881,822.874 914.415,822.521 915.948,822.816 917.481,823.015 919.015,823.705 920.548,824.637 922.081,825.382 923.615,825.743 925.148,826.365 926.681,826.227 928.215,826.11 929.748,825.661 931.281,825.936 932.815,825.445 934.348,825.153 935.881,825.378 937.414,825.113 938.948,825.622 940.481,826.122 942.014,826.077 943.548,825.866 945.081,826.108 946.614,826.779 948.148,826.671 949.681,826.846 951.214,827.174 952.748,826.838 954.281,827.26 955.814,826.916 957.348,826.17 958.881,826.017 960.414,826.293 961.947,826.543 963.481,826.364 965.014,826.587 966.547,826.163 968.081,825.607 969.614,825.164 971.147,823.989 972.681,823.32 974.214,823.236 975.747,822.914 977.281,823.111 978.814,823.688 980.347,824.513 981.881,824.882 983.414,825.005 984.947,824.344 986.48,824.305 988.014,824.163 989.547,823.648 991.08,822.742 992.614,822.828 994.147,822.624 995.68,822.713 997.214,822.949 998.747,822.365 1000.28,821.826 1001.81,821.409 1003.35,820.747 1004.88,820.478 1006.41,819.643 1007.95,819.551 1009.48,819.907 1011.01,820.101 1012.55,820.4 1014.08,820.301 1015.61,819.751 1017.15,819.291 1018.68,818.909 1020.21,819.168 1021.75,818.557 1023.28,818.125 1024.81,818.594 1026.35,818.05 1027.88,817.957 1029.41,817.859 1030.95,817.66 1032.48,817.554 1034.01,817.545 1035.55,817.173 1037.08,817.168 1038.61,816.832 1040.15,816.995 1041.68,816.818 1043.21,816.728 1044.75,816.452 1046.28,816.961 1047.81,816.089 1049.35,815.473 1050.88,814.88 1052.41,815.408 1053.95,815.394 1055.48,815.772 1057.01,815.874 1058.55,815.655 1060.08,815.336 1061.61,815.45 1063.15,814.171 1064.68,813.283 1066.21,812.971 1067.75,812.645 1069.28,812.36 1070.81,812.901 1072.35,812.944 1073.88,813.365 1075.41,814.054 1076.95,813.752 1078.48,813.059 1080.01,812.616 1081.55,812.112 1083.08,811.358 1084.61,810.86 1086.15,811.352 1087.68,811.158 1089.21,812.06 1090.75,812.252 1092.28,812.109 1093.81,812.315 1095.35,812.716 1096.88,812.292 1098.41,812.03 1099.95,811.662 1101.48,811.949 1103.01,811.876 1104.55,812.155 1106.08,812.109 1107.61,812.206 1109.15,812.614 1110.68,812.527 1112.21,811.731 1113.75,811.867 1115.28,811.728 1116.81,812.251 1118.35,812.618 1119.88,812.558 1121.41,812.764 1122.95,812.053 1124.48,812.054 1126.01,811.523 1127.55,811.36 1129.08,811.559 1130.61,811.931 1132.15,812.353 1133.68,812.409 1135.21,812.114 1136.75,812.245 1138.28,811.927 1139.81,811.601 1141.35,811.885 1142.88,812.616 1144.41,812.697 1145.95,813.211 1147.48,813.059 1149.01,813.666 1150.55,813.347 1152.08,813.19 1153.61,813.353 1155.15,813.293 1156.68,813.817 1158.21,814.498 1159.74,814.809 1161.28,814.692 1162.81,814.997 1164.34,816.238 1165.88,815.669 1167.41,815.242 1168.94,815.067 1170.48,814.635 1172.01,813.718 1173.54,813.647 1175.08,813.151 1176.61,812.88 1178.14,813.977 1179.68,814.845 1181.21,815.218 1182.74,815.908 1184.28,816.355 1185.81,817.108 1187.34,817.161 1188.88,817.351 1190.41,816.84 1191.94,817.158 1193.48,816.898 1195.01,817.068 1196.54,816.982 1198.08,817.021 1199.61,817.044 1201.14,817.389 1202.68,817.637 1204.21,817.578 1205.74,817.661 1207.28,818.309 1208.81,818.204 1210.34,819.192 1211.88,819.027 1213.41,818.753 1214.94,818.97 1216.48,819.221 1218.01,819.421 1219.54,819.556 1221.08,820.093 1222.61,820.788 1224.14,821.09 1225.68,821.572 1227.21,821.471 1228.74,821.172 1230.28,821.063 1231.81,821.129 1233.34,821.182 1234.88,821.164 1236.41,821.123 1237.94,821.289 1239.48,821.517 1241.01,821.773 1242.54,822.242 1244.08,822.078 1245.61,821.856 1247.14,822.298 1248.68,822.419 1250.21,822.052 1251.74,822.091 1253.28,822.007 1254.81,822.133 1256.34,822.499 1257.88,823.275 1259.41,823.049 1260.94,823.081 1262.48,823.228 1264.01,823.142 1265.54,822.913 1267.08,823.047 1268.61,822.778 1270.14,822.604 1271.68,822.893 1273.21,823.711 1274.74,823.526 1276.28,823.613 1277.81,823.287 1279.34,823.136 1280.88,822.887 1282.41,822.501 1283.94,822.591 1285.48,822.387 1287.01,822.704 1288.54,823.275 1290.08,823.155 1291.61,823.647 1293.14,823.802 1294.68,823.965 1296.21,823.438 1297.74,823.425 1299.28,823.609 1300.81,823.741 1302.34,823.848 1303.88,823.481 1305.41,823.095 1306.94,823.306 1308.48,823.04 1310.01,822.804 1311.54,822.389 1313.08,822.811 1314.61,822.773 1316.14,822.971 1317.68,822.688 1319.21,822.401 1320.74,822.06 1322.28,821.975 1323.81,821.85 1325.34,822.108 1326.88,822.512 1328.41,822.632 1329.94,822.744 1331.48,822.8 1333.01,823.145 1334.54,823.302 1336.08,822.99 1337.61,823.221 1339.14,822.974 1340.68,822.878 1342.21,822.82 1343.74,822.433 1345.28,822.148 1346.81,822.127 1348.34,822.172 1349.88,822.177 1351.41,822.042 1352.94,822.184 1354.48,821.737 1356.01,821.673 1357.54,821.689 1359.08,821.373 1360.61,821.168 1362.14,821.188 1363.68,821.281 1365.21,821.314 1366.74,820.992 1368.28,820.902 1369.81,821.073 1371.34,820.77 1372.88,820.975 1374.41,820.869 1375.94,820.88 1377.48,820.762 1379.01,820.418 1380.54,820.053 1382.08,819.932 1383.61,819.868 1385.14,819.989 1386.68,819.841 1388.21,820.066 1389.74,819.741 1391.28,819.594 1392.81,819.156 1394.34,818.799 1395.88,818.723 1397.41,818.966 1398.94,819.012 1400.48,819.295 1402.01,819.869 1403.54,819.897 1405.08,819.903 1406.61,820.114 1408.14,820.385 1409.68,820.487 1411.21,820.534 1412.74,820.417 1414.28,820.081 1415.81,820.077 1417.34,820.366 1418.88,820.344 1420.41,820.14 1421.94,819.797 1423.48,819.968 1425.01,819.624 1426.54,819.825 1428.07,818.83 1429.61,818.361 1431.14,818.253 1432.67,818.56 1434.21,818.606 1435.74,818.253 1437.27,818.246 1438.81,818.912 1440.34,819.515 1441.87,820.149 1443.41,820.053 1444.94,820.372 1446.47,820.601 1448.01,820.657 1449.54,820.437 1451.07,820.007 1452.61,819.845 1454.14,819.722 1455.67,819.586 1457.21,819.483 1458.74,819.434 1460.27,819.45 1461.81,819.465 1463.34,819.523 1464.87,819.595 1466.41,819.218 1467.94,819.317 1469.47,819.199 1471.01,819.103 1472.54,819.053 1474.07,819.279 1475.61,819.59 1477.14,819.988 1478.67,819.989 1480.21,820.113 1481.74,819.175 1483.27,819.539 1484.81,819.104 1486.34,818.791 1487.87,818.364 1489.41,818.794 1490.94,818.834 1492.47,819.055 1494.01,819.186 1495.54,819.348 1497.07,818.995 1498.61,819.724 1500.14,819.746 1501.67,819.995 1503.21,819.941 1504.74,820.668 1506.27,820.698 1507.81,820.765 1509.34,820.972 1510.87,820.641 1512.41,820.233 1513.94,819.775 1515.47,819.416 1517.01,819.333 1518.54,819.244 1520.07,819.862 1521.61,820.351 1523.14,820.672 1524.67,821.129 1526.21,820.947 1527.74,820.794 1529.27,820.611 1530.81,820.523 1532.34,820.325 1533.87,820.349 1535.41,820.636 1536.94,820.393 1538.47,819.806 1540.01,819.673 1541.54,819.512 1543.07,820.019 1544.61,820.233 1546.14,820.47 1547.67,820.724 1549.21,820.971 1550.74,821.034 1552.27,820.831 1553.81,820.468 1555.34,820.407 1556.87,820.509 1558.41,820.469 1559.94,820.512 1561.47,820.552 1563.01,820.875 1564.54,820.561 1566.07,820.564 1567.61,821.147 1569.14,821.008 1570.67,820.913 1572.21,821.196 1573.74,821.632 1575.27,821.567 1576.81,821.874 1578.34,822.07 1579.87,821.526 1581.41,821.156 1582.94,821.234 1584.47,820.701 1586.01,820.517 1587.54,820.845 1589.07,820.925 1590.61,820.521 1592.14,820.873 1593.67,820.792 1595.21,820.955 1596.74,820.936 1598.27,821.17 1599.81,820.963 1601.34,820.874 1602.87,821.374 1604.41,821.057 1605.94,820.792 1607.47,820.722 1609.01,820.798 1610.54,821.021 1612.07,820.956 1613.61,820.812 1615.14,820.471 1616.67,820.383 1618.21,820.5 1619.74,820.366 1621.27,820.635 1622.81,820.968 1624.34,821.661 1625.87,821.828 1627.41,822.168 1628.94,822.195 1630.47,822.23 1632.01,821.635 1633.54,821.456 1635.07,821.269 1636.61,820.92 1638.14,820.615 1639.67,820.59 1641.21,820.44 1642.74,820.735 1644.27,821.005 1645.81,821.464 1647.34,821.684 1648.87,822.2 1650.41,821.859 1651.94,821.726 1653.47,821.645 1655.01,821.3 1656.54,821.124 1658.07,820.799 1659.61,820.771 1661.14,820.752 1662.67,821.03 1664.21,820.727 1665.74,820.601 1667.27,820.954 1668.81,820.997 1670.34,821.057 1671.87,820.864 1673.41,820.85 1674.94,821.102 1676.47,821.077 1678.01,821.419 1679.54,820.784 1681.07,820.514 1682.61,820.401 1684.14,820.284 1685.67,819.945 1687.21,819.284 1688.74,819.132 1690.27,819.18 1691.81,819.274 1693.34,819.44 1694.87,819.312 1696.41,819.465 1697.94,819.688 1699.47,819.715 1701,819.442 1702.54,819.024 1704.07,819.041 1705.6,819.333 1707.14,819.627 1708.67,819.361 1710.2,819.421 1711.74,819.529 1713.27,819.42 1714.8,819.503 1716.34,819.411 1717.87,819.266 1719.4,819.393 1720.94,819.046 1722.47,819.095 1724,818.841 1725.54,818.733 1727.07,818.802 1728.6,819.055 1730.14,818.899 1731.67,818.836 1733.2,818.561 1734.74,818.21 1736.27,817.998 1737.8,818.537 1739.34,818.518 1740.87,818.499 1742.4,818.332 1743.94,818.117 1745.47,817.844 1747,817.945 1748.54,817.851 1750.07,818.039 1751.6,818.529 1753.14,818.592 1754.67,818.198 1756.2,817.851 1757.74,817.69 1759.27,817.76 1760.8,817.982 1762.34,817.668 1763.87,817.796 1765.4,817.723 1766.94,817.755 1768.47,817.512 1770,817.451 1771.54,817.101 1773.07,817.651 1774.6,818.059 1776.14,818.186 1777.67,817.948 1779.2,817.561 1780.74,817.028 1782.27,816.681 1783.8,816.87 1785.34,817.023 1786.87,816.723 1788.4,817.154 1789.94,817.426 1791.47,817.661 1793,817.635 1794.54,817.346 1796.07,817.064 1797.6,816.677 1799.14,817.03 1800.67,816.877 1802.2,816.958 1803.74,817.177 1805.27,817.656 1806.8,817.932 1808.34,818.049 "
       id="polyline26882"
       transform="matrix(0.04464095,0,0,0.04364368,11.68254,9.121985)" /></g></svg>
