<?xml version="1.0" encoding="UTF-8" standalone="no"?>
<!-- Created with Inkscape (http://www.inkscape.org/) -->

<svg
   xmlns:dc="http://purl.org/dc/elements/1.1/"
   xmlns:cc="http://creativecommons.org/ns#"
   xmlns:rdf="http://www.w3.org/1999/02/22-rdf-syntax-ns#"
   xmlns:svg="http://www.w3.org/2000/svg"
   xmlns="http://www.w3.org/2000/svg"
   xmlns:sodipodi="http://sodipodi.sourceforge.net/DTD/sodipodi-0.dtd"
   xmlns:inkscape="http://www.inkscape.org/namespaces/inkscape"
   width="56.725376mm"
   height="45.917709mm"
   viewBox="0 0 56.725376 45.917709"
   version="1.1"
   id="svg8"
   inkscape:version="0.92.5 (2060ec1f9f, 2020-04-08)"
   sodipodi:docname="logo.svg">
  <defs
     id="defs2">
    <marker
       inkscape:isstock="true"
       style="overflow:visible"
       id="marker5401"
       refX="0"
       refY="0"
       orient="auto"
       inkscape:stockid="Arrow2Mend">
      <path
         transform="scale(-0.6)"
         d="M 8.7185878,4.0337352 -2.2072895,0.01601326 8.7185884,-4.0017078 c -1.7454984,2.3720609 -1.7354408,5.6174519 -6e-7,8.035443 z"
         style="fill:#000000;fill-opacity:1;fill-rule:evenodd;stroke:#000000;stroke-width:0.625;stroke-linejoin:round;stroke-opacity:1"
         id="path5399"
         inkscape:connector-curvature="0" />
    </marker>
    <marker
       inkscape:stockid="Arrow2Mend"
       orient="auto"
       refY="0"
       refX="0"
       id="Arrow2Mend"
       style="overflow:visible"
       inkscape:isstock="true"
       inkscape:collect="always">
      <path
         id="path4556"
         style="fill:#000000;fill-opacity:1;fill-rule:evenodd;stroke:#000000;stroke-width:0.625;stroke-linejoin:round;stroke-opacity:1"
         d="M 8.7185878,4.0337352 -2.2072895,0.01601326 8.7185884,-4.0017078 c -1.7454984,2.3720609 -1.7354408,5.6174519 -6e-7,8.035443 z"
         transform="scale(-0.6)"
         inkscape:connector-curvature="0" />
    </marker>
    <marker
       inkscape:isstock="true"
       style="overflow:visible"
       id="marker4973"
       refX="0"
       refY="0"
       orient="auto"
       inkscape:stockid="Arrow2Lend">
      <path
         transform="matrix(-1.1,0,0,-1.1,-1.1,0)"
         d="M 8.7185878,4.0337352 -2.2072895,0.01601326 8.7185884,-4.0017078 c -1.7454984,2.3720609 -1.7354408,5.6174519 -6e-7,8.035443 z"
         style="fill:#000000;fill-opacity:1;fill-rule:evenodd;stroke:#000000;stroke-width:0.625;stroke-linejoin:round;stroke-opacity:1"
         id="path4971"
         inkscape:connector-curvature="0" />
    </marker>
    <marker
       inkscape:stockid="Arrow1Lend"
       orient="auto"
       refY="0"
       refX="0"
       id="Arrow1Lend"
       style="overflow:visible"
       inkscape:isstock="true">
      <path
         id="path4532"
         d="M 0,0 5,-5 -12.5,0 5,5 Z"
         style="fill:#000000;fill-opacity:1;fill-rule:evenodd;stroke:#000000;stroke-width:1.00000003pt;stroke-opacity:1"
         transform="matrix(-0.8,0,0,-0.8,-10,0)"
         inkscape:connector-curvature="0" />
    </marker>
  </defs>
  <sodipodi:namedview
     id="base"
     pagecolor="#ffffff"
     bordercolor="#666666"
     borderopacity="1.0"
     inkscape:pageopacity="0.0"
     inkscape:pageshadow="2"
     inkscape:zoom="2.0766393"
     inkscape:cx="119.40153"
     inkscape:cy="63.868779"
     inkscape:document-units="mm"
     inkscape:current-layer="layer1"
     showgrid="false"
     inkscape:window-width="1880"
     inkscape:window-height="1056"
     inkscape:window-x="40"
     inkscape:window-y="0"
     inkscape:window-maximized="1"
     fit-margin-top="0"
     fit-margin-left="0"
     fit-margin-right="0"
     fit-margin-bottom="0" />
  <metadata
     id="metadata5">
    <rdf:RDF>
      <cc:Work
         rdf:about="">
        <dc:format>image/svg+xml</dc:format>
        <dc:type
           rdf:resource="http://purl.org/dc/dcmitype/StillImage" />
        <dc:title></dc:title>
      </cc:Work>
    </rdf:RDF>
  </metadata>
  <g
     inkscape:label="Layer 1"
     inkscape:groupmode="layer"
     id="layer1"
     transform="translate(504.66495,16.56467)">
    <g
       id="g5449"
       transform="matrix(2.6948232,0,0,2.6948232,804.50133,-31.094411)">
      <path
         sodipodi:nodetypes="sssssssss"
         inkscape:connector-curvature="0"
         id="path8"
         d="m -475.65398,17.497996 c 1.5306,-1.058229 0.62045,-2.306074 -1.09001,-1.710735 -1.8799,0.654314 -1.1082,-2.34663 -1.33163,-3.54102 -0.39978,-2.137047 -2.69644,-2.075839 -4.21884,-1.113353 -1.37592,0.869873 -2.97759,2.841049 -1.14667,3.941407 1.33678,0.803384 2.232,1.811247 1.66148,3.480224 -0.67042,1.961167 1.94979,2.703227 3.37209,1.74374 1.35986,-0.917357 3.48781,1.17338 4.53141,-0.426215 1.06796,-1.636938 -2.96756,-1.551488 -1.77783,-2.374048 z"
         style="fill:#d40000;stroke:#000000;stroke-width:0.1355374px;stroke-linecap:butt;stroke-linejoin:miter;stroke-opacity:1" />
      <path
         sodipodi:nodetypes="cc"
         inkscape:connector-curvature="0"
         id="path15"
         d="M -475.97252,16.60613 V 5.7365547"
         style="fill:none;stroke:#000000;stroke-width:0.22808748;stroke-linecap:butt;stroke-linejoin:miter;stroke-miterlimit:4;stroke-dasharray:none;stroke-opacity:1;marker-end:url(#Arrow2Mend)" />
      <path
         style="fill:none;stroke:#000000;stroke-width:0.22808748;stroke-linecap:butt;stroke-linejoin:miter;stroke-miterlimit:4;stroke-dasharray:none;stroke-opacity:1;marker-end:url(#marker5401)"
         d="m -475.97252,16.60613 h 10.86959"
         id="path4969"
         inkscape:connector-curvature="0"
         sodipodi:nodetypes="cc" />
      <path
         sodipodi:nodetypes="ccsssc"
         inkscape:connector-curvature="0"
         id="path5341"
         d="m -475.9725,16.60613 1.60228,0.0084 c 0,0 0.43821,-6.117451 1.22746,-6.155881 0.88439,-0.04306 0.47743,4.946592 1.39003,4.971678 1.12666,0.03097 0.77216,-2.433099 1.49658,-2.448393 0.62985,-0.0133 0.97122,2.167385 2.46198,2.345673"
         style="fill:none;stroke:#0120ff;stroke-width:0.22772884px;stroke-linecap:butt;stroke-linejoin:miter;stroke-opacity:1" />
      <path
         inkscape:connector-curvature="0"
         id="path5423"
         d="m -483.64601,8.417744 c -0.12552,0.3797389 -0.32709,1.0807841 0.17697,1.2436204 0.34701,0.1751616 0.91892,0.3681616 0.83422,-0.24564 -0.0832,-0.5562153 0.78423,-0.4643985 0.65532,-1.0434494 0.055,-0.485677 -0.38463,-0.9461989 -0.83396,-0.5717262 -0.3158,0.1579401 -0.56887,0.3869527 -0.83255,0.6171952 z"
         style="fill:#0000ff;stroke:#000000;stroke-width:0.26458332px;stroke-linecap:butt;stroke-linejoin:miter;stroke-opacity:1" />
      <path
         style="fill:#0000ff;stroke:#000000;stroke-width:0.26458332px;stroke-linecap:butt;stroke-linejoin:miter;stroke-opacity:1"
         d="m -478.97212,8.5585439 c -0.39993,-0.00431 -1.12908,0.016459 -1.1312,0.5461637 -0.0616,0.3838093 -0.0718,0.9873194 0.4873,0.7202752 0.50471,-0.2481325 0.68056,0.6062322 1.19315,0.3076142 0.47945,-0.09504 0.78477,-0.6537295 0.29156,-0.9681681 -0.24636,-0.2529471 -0.54139,-0.4245481 -0.84081,-0.605885 z"
         id="path5432"
         inkscape:connector-curvature="0" />
      <path
         inkscape:transform-center-y="-10.000591"
         inkscape:transform-center-x="7.0682411"
         inkscape:connector-curvature="0"
         id="path5434"
         d="m -472.15572,17.986838 c -0.39993,-0.0043 -1.12908,0.01646 -1.1312,0.546164 -0.0616,0.383809 -0.0718,0.987319 0.4873,0.720275 0.50471,-0.248133 0.68056,0.606232 1.19315,0.307614 0.47945,-0.09504 0.78477,-0.653729 0.29156,-0.968168 -0.24636,-0.252947 -0.54139,-0.424548 -0.84081,-0.605885 z"
         style="fill:#0000ff;stroke:#000000;stroke-width:0.26458332px;stroke-linecap:butt;stroke-linejoin:miter;stroke-opacity:1" />
      <path
         style="fill:#0000ff;stroke:#000000;stroke-width:0.26458332px;stroke-linecap:butt;stroke-linejoin:miter;stroke-opacity:1"
         d="m -472.79276,20.662435 c -0.39993,-0.0043 -1.12908,0.01646 -1.1312,0.546164 -0.0616,0.383809 -0.0718,0.987319 0.4873,0.720275 0.50471,-0.248133 0.68056,0.606232 1.19315,0.307614 0.47945,-0.09504 0.78477,-0.653729 0.29156,-0.968168 -0.24636,-0.252947 -0.54139,-0.424548 -0.84081,-0.605885 z"
         id="path5436"
         inkscape:connector-curvature="0"
         inkscape:transform-center-x="-0.3215032"
         inkscape:transform-center-y="0.12845507" />
      <path
         inkscape:transform-center-y="0.17484638"
         inkscape:transform-center-x="0.23562305"
         inkscape:connector-curvature="0"
         id="path5438"
         d="m -483.9956,17.558112 c 0.16319,-0.365146 0.43448,-1.042266 -0.0506,-1.25513 -0.32754,-0.209332 -0.87708,-0.458997 -0.85475,0.160202 0.0267,0.561775 -0.82708,0.38289 -0.75726,0.971996 -0.10373,0.477646 0.28718,0.980178 0.77201,0.652958 0.33012,-0.125268 0.60501,-0.327572 0.89058,-0.530026 z"
         style="fill:#0000ff;stroke:#000000;stroke-width:0.26458332px;stroke-linecap:butt;stroke-linejoin:miter;stroke-opacity:1" />
    </g>
  </g>
</svg>
